%FSLAX46Y46*%
G04 Gerber Fmt 4.6, Leading zero omitted, Abs format (unit mm)*
G04 Created by KiCad (PCBNEW (2014-07-09 BZR 4988)-product) date Wed 13 Aug 2014 10:14:38 AM PDT*
%MOMM*%
G01*
G04 APERTURE LIST*
%ADD10C,0.050000*%
%ADD11R,1.397000X1.397000*%
%ADD12C,1.397000*%
%ADD13R,0.889000X1.397000*%
%ADD14R,1.143000X0.635000*%
%ADD15R,0.635000X1.143000*%
%ADD16C,1.968500*%
%ADD17R,1.000760X0.800100*%
%ADD18R,1.399540X0.599440*%
%ADD19C,3.048000*%
G04 APERTURE END LIST*
D10*
D11*
X129540000Y-95250000D03*
D12*
X129540000Y-97790000D03*
X129540000Y-100330000D03*
X129540000Y-102870000D03*
X129540000Y-105410000D03*
X129540000Y-107950000D03*
D13*
X115252500Y-91186000D03*
X113347500Y-91186000D03*
X113347500Y-97790000D03*
X115252500Y-97790000D03*
D14*
X115062000Y-93726000D03*
X115062000Y-95250000D03*
D13*
X115252500Y-105410000D03*
X113347500Y-105410000D03*
X113347500Y-112014000D03*
X115252500Y-112014000D03*
D14*
X115062000Y-107950000D03*
X115062000Y-109474000D03*
D15*
X117348000Y-98552000D03*
X118872000Y-98552000D03*
X117348000Y-112776000D03*
X118872000Y-112776000D03*
X109982000Y-91186000D03*
X111506000Y-91186000D03*
X109982000Y-97790000D03*
X111506000Y-97790000D03*
X109982000Y-105410000D03*
X111506000Y-105410000D03*
X109982000Y-112014000D03*
X111506000Y-112014000D03*
D16*
X105410000Y-92738000D03*
X105410000Y-96238000D03*
X105410000Y-106962000D03*
X105410000Y-110462000D03*
D15*
X122301000Y-102616000D03*
X123825000Y-102616000D03*
X125476000Y-107950000D03*
X127000000Y-107950000D03*
X125476000Y-105410000D03*
X127000000Y-105410000D03*
X125476000Y-95250000D03*
X127000000Y-95250000D03*
D17*
X110406180Y-94488000D03*
X112605820Y-93535500D03*
X112605820Y-95440500D03*
X110406180Y-108712000D03*
X112605820Y-107759500D03*
X112605820Y-109664500D03*
D18*
X123063000Y-92583000D03*
X117729000Y-92583000D03*
X123063000Y-93853000D03*
X123063000Y-95123000D03*
X123063000Y-96393000D03*
X117729000Y-93853000D03*
X117729000Y-95123000D03*
X117729000Y-96393000D03*
X123063000Y-106807000D03*
X117729000Y-106807000D03*
X123063000Y-108077000D03*
X123063000Y-109347000D03*
X123063000Y-110617000D03*
X117729000Y-108077000D03*
X117729000Y-109347000D03*
X117729000Y-110617000D03*
D19*
X129032000Y-90932000D03*
X129032000Y-112268000D03*
X104648000Y-101600000D03*
M02*
