%FSLAX46Y46*%
G04 Gerber Fmt 4.6, Leading zero omitted, Abs format (unit mm)*
G04 Created by KiCad (PCBNEW (2014-07-09 BZR 4988)-product) date Wed 13 Aug 2014 10:14:38 AM PDT*
%MOMM*%
G01*
G04 APERTURE LIST*
%ADD10C,0.050000*%
%ADD11C,0.101600*%
%ADD12C,0.304800*%
%ADD13C,0.099060*%
%ADD14C,0.119380*%
%ADD15C,0.127000*%
%ADD16C,0.078740*%
G04 APERTURE END LIST*
D10*
D11*
X108430784Y-102395262D02*
X108430784Y-101760262D01*
X108581975Y-101760262D01*
X108672689Y-101790500D01*
X108733165Y-101850976D01*
X108763404Y-101911452D01*
X108793642Y-102032405D01*
X108793642Y-102123119D01*
X108763404Y-102244071D01*
X108733165Y-102304548D01*
X108672689Y-102365024D01*
X108581975Y-102395262D01*
X108430784Y-102395262D01*
X109337927Y-101971929D02*
X109337927Y-102395262D01*
X109065784Y-101971929D02*
X109065784Y-102304548D01*
X109096023Y-102365024D01*
X109156499Y-102395262D01*
X109247213Y-102395262D01*
X109307689Y-102365024D01*
X109337927Y-102334786D01*
X109912451Y-102395262D02*
X109912451Y-102062643D01*
X109882213Y-102002167D01*
X109821737Y-101971929D01*
X109700785Y-101971929D01*
X109640308Y-102002167D01*
X109912451Y-102365024D02*
X109851975Y-102395262D01*
X109700785Y-102395262D01*
X109640308Y-102365024D01*
X109610070Y-102304548D01*
X109610070Y-102244071D01*
X109640308Y-102183595D01*
X109700785Y-102153357D01*
X109851975Y-102153357D01*
X109912451Y-102123119D01*
X110305547Y-102395262D02*
X110245071Y-102365024D01*
X110214832Y-102304548D01*
X110214832Y-101760262D01*
X111031261Y-102395262D02*
X111031261Y-101760262D01*
X111242928Y-102213833D01*
X111454595Y-101760262D01*
X111454595Y-102395262D01*
X111726737Y-102213833D02*
X112029118Y-102213833D01*
X111666261Y-102395262D02*
X111877928Y-101760262D01*
X112089595Y-102395262D01*
X112240785Y-101760262D02*
X112664119Y-102395262D01*
X112664119Y-101760262D02*
X112240785Y-102395262D01*
X112845547Y-101760262D02*
X113238643Y-101760262D01*
X113026976Y-102002167D01*
X113117690Y-102002167D01*
X113178166Y-102032405D01*
X113208404Y-102062643D01*
X113238643Y-102123119D01*
X113238643Y-102274310D01*
X113208404Y-102334786D01*
X113178166Y-102365024D01*
X113117690Y-102395262D01*
X112936262Y-102395262D01*
X112875785Y-102365024D01*
X112845547Y-102334786D01*
X113843405Y-102395262D02*
X113480547Y-102395262D01*
X113661976Y-102395262D02*
X113661976Y-101760262D01*
X113601500Y-101850976D01*
X113541024Y-101911452D01*
X113480547Y-101941690D01*
X114206262Y-102032405D02*
X114145786Y-102002167D01*
X114115547Y-101971929D01*
X114085309Y-101911452D01*
X114085309Y-101881214D01*
X114115547Y-101820738D01*
X114145786Y-101790500D01*
X114206262Y-101760262D01*
X114327214Y-101760262D01*
X114387690Y-101790500D01*
X114417928Y-101820738D01*
X114448167Y-101881214D01*
X114448167Y-101911452D01*
X114417928Y-101971929D01*
X114387690Y-102002167D01*
X114327214Y-102032405D01*
X114206262Y-102032405D01*
X114145786Y-102062643D01*
X114115547Y-102092881D01*
X114085309Y-102153357D01*
X114085309Y-102274310D01*
X114115547Y-102334786D01*
X114145786Y-102365024D01*
X114206262Y-102395262D01*
X114327214Y-102395262D01*
X114387690Y-102365024D01*
X114417928Y-102334786D01*
X114448167Y-102274310D01*
X114448167Y-102153357D01*
X114417928Y-102092881D01*
X114387690Y-102062643D01*
X114327214Y-102032405D01*
X115022690Y-101760262D02*
X114720309Y-101760262D01*
X114690071Y-102062643D01*
X114720309Y-102032405D01*
X114780786Y-102002167D01*
X114931976Y-102002167D01*
X114992452Y-102032405D01*
X115022690Y-102062643D01*
X115052929Y-102123119D01*
X115052929Y-102274310D01*
X115022690Y-102334786D01*
X114992452Y-102365024D01*
X114931976Y-102395262D01*
X114780786Y-102395262D01*
X114720309Y-102365024D01*
X114690071Y-102334786D01*
X115627452Y-101760262D02*
X115325071Y-101760262D01*
X115294833Y-102062643D01*
X115325071Y-102032405D01*
X115385548Y-102002167D01*
X115536738Y-102002167D01*
X115597214Y-102032405D01*
X115627452Y-102062643D01*
X115657691Y-102123119D01*
X115657691Y-102274310D01*
X115627452Y-102334786D01*
X115597214Y-102365024D01*
X115536738Y-102395262D01*
X115385548Y-102395262D01*
X115325071Y-102365024D01*
X115294833Y-102334786D01*
X116353167Y-101971929D02*
X116504358Y-102395262D01*
X116655548Y-101971929D01*
X117139358Y-102365024D02*
X117078882Y-102395262D01*
X116957930Y-102395262D01*
X116897453Y-102365024D01*
X116867215Y-102304548D01*
X116867215Y-102062643D01*
X116897453Y-102002167D01*
X116957930Y-101971929D01*
X117078882Y-101971929D01*
X117139358Y-102002167D01*
X117169596Y-102062643D01*
X117169596Y-102123119D01*
X116867215Y-102183595D01*
X117441739Y-102395262D02*
X117441739Y-101971929D01*
X117441739Y-102092881D02*
X117471978Y-102032405D01*
X117502216Y-102002167D01*
X117562692Y-101971929D01*
X117623168Y-101971929D01*
X117955787Y-101760262D02*
X118016263Y-101760262D01*
X118076739Y-101790500D01*
X118106977Y-101820738D01*
X118137215Y-101881214D01*
X118167454Y-102002167D01*
X118167454Y-102153357D01*
X118137215Y-102274310D01*
X118106977Y-102334786D01*
X118076739Y-102365024D01*
X118016263Y-102395262D01*
X117955787Y-102395262D01*
X117895311Y-102365024D01*
X117865073Y-102334786D01*
X117834834Y-102274310D01*
X117804596Y-102153357D01*
X117804596Y-102002167D01*
X117834834Y-101881214D01*
X117865073Y-101820738D01*
X117895311Y-101790500D01*
X117955787Y-101760262D01*
X110350904Y-100701929D02*
X110592809Y-100701929D01*
X110441618Y-100490262D02*
X110441618Y-101034548D01*
X110471857Y-101095024D01*
X110532333Y-101125262D01*
X110592809Y-101125262D01*
X111076618Y-100701929D02*
X111076618Y-101125262D01*
X110804475Y-100701929D02*
X110804475Y-101034548D01*
X110834714Y-101095024D01*
X110895190Y-101125262D01*
X110985904Y-101125262D01*
X111046380Y-101095024D01*
X111076618Y-101064786D01*
X111318523Y-101125262D02*
X111651142Y-100701929D01*
X111318523Y-100701929D02*
X111651142Y-101125262D01*
X111893047Y-100883357D02*
X112376857Y-100883357D01*
X112769952Y-101125262D02*
X112709476Y-101095024D01*
X112679237Y-101034548D01*
X112679237Y-100490262D01*
X113283999Y-101125262D02*
X113283999Y-100792643D01*
X113253761Y-100732167D01*
X113193285Y-100701929D01*
X113072333Y-100701929D01*
X113011856Y-100732167D01*
X113283999Y-101095024D02*
X113223523Y-101125262D01*
X113072333Y-101125262D01*
X113011856Y-101095024D01*
X112981618Y-101034548D01*
X112981618Y-100974071D01*
X113011856Y-100913595D01*
X113072333Y-100883357D01*
X113223523Y-100883357D01*
X113283999Y-100853119D01*
X113586380Y-101125262D02*
X113586380Y-100490262D01*
X113586380Y-100732167D02*
X113646857Y-100701929D01*
X113767809Y-100701929D01*
X113828285Y-100732167D01*
X113858523Y-100762405D01*
X113888761Y-100822881D01*
X113888761Y-101004310D01*
X113858523Y-101064786D01*
X113828285Y-101095024D01*
X113767809Y-101125262D01*
X113646857Y-101125262D01*
X113586380Y-101095024D01*
X114160904Y-101064786D02*
X114191143Y-101095024D01*
X114160904Y-101125262D01*
X114130666Y-101095024D01*
X114160904Y-101064786D01*
X114160904Y-101125262D01*
X114735428Y-101095024D02*
X114674952Y-101125262D01*
X114554000Y-101125262D01*
X114493524Y-101095024D01*
X114463285Y-101064786D01*
X114433047Y-101004310D01*
X114433047Y-100822881D01*
X114463285Y-100762405D01*
X114493524Y-100732167D01*
X114554000Y-100701929D01*
X114674952Y-100701929D01*
X114735428Y-100732167D01*
X115098286Y-101125262D02*
X115037810Y-101095024D01*
X115007571Y-101064786D01*
X114977333Y-101004310D01*
X114977333Y-100822881D01*
X115007571Y-100762405D01*
X115037810Y-100732167D01*
X115098286Y-100701929D01*
X115189000Y-100701929D01*
X115249476Y-100732167D01*
X115279714Y-100762405D01*
X115309952Y-100822881D01*
X115309952Y-101004310D01*
X115279714Y-101064786D01*
X115249476Y-101095024D01*
X115189000Y-101125262D01*
X115098286Y-101125262D01*
X115582095Y-101125262D02*
X115582095Y-100701929D01*
X115582095Y-100762405D02*
X115612334Y-100732167D01*
X115672810Y-100701929D01*
X115763524Y-100701929D01*
X115824000Y-100732167D01*
X115854238Y-100792643D01*
X115854238Y-101125262D01*
X115854238Y-100792643D02*
X115884476Y-100732167D01*
X115944953Y-100701929D01*
X116035667Y-100701929D01*
X116096143Y-100732167D01*
X116126381Y-100792643D01*
X116126381Y-101125262D01*
X131290786Y-108358214D02*
X131321024Y-108388452D01*
X131351262Y-108479167D01*
X131351262Y-108539643D01*
X131321024Y-108630357D01*
X131260548Y-108690833D01*
X131200071Y-108721072D01*
X131079119Y-108751310D01*
X130988405Y-108751310D01*
X130867452Y-108721072D01*
X130806976Y-108690833D01*
X130746500Y-108630357D01*
X130716262Y-108539643D01*
X130716262Y-108479167D01*
X130746500Y-108388452D01*
X130776738Y-108358214D01*
X131321024Y-108116310D02*
X131351262Y-108025595D01*
X131351262Y-107874405D01*
X131321024Y-107813929D01*
X131290786Y-107783691D01*
X131230310Y-107753452D01*
X131169833Y-107753452D01*
X131109357Y-107783691D01*
X131079119Y-107813929D01*
X131048881Y-107874405D01*
X131018643Y-107995357D01*
X130988405Y-108055833D01*
X130958167Y-108086072D01*
X130897690Y-108116310D01*
X130837214Y-108116310D01*
X130776738Y-108086072D01*
X130746500Y-108055833D01*
X130716262Y-107995357D01*
X130716262Y-107844167D01*
X130746500Y-107753452D01*
X131351262Y-107148690D02*
X131351262Y-107511548D01*
X131351262Y-107330119D02*
X130716262Y-107330119D01*
X130806976Y-107390595D01*
X130867452Y-107451071D01*
X130897690Y-107511548D01*
X131321024Y-106226429D02*
X131351262Y-106135714D01*
X131351262Y-105984524D01*
X131321024Y-105924048D01*
X131290786Y-105893810D01*
X131230310Y-105863571D01*
X131169833Y-105863571D01*
X131109357Y-105893810D01*
X131079119Y-105924048D01*
X131048881Y-105984524D01*
X131018643Y-106105476D01*
X130988405Y-106165952D01*
X130958167Y-106196191D01*
X130897690Y-106226429D01*
X130837214Y-106226429D01*
X130776738Y-106196191D01*
X130746500Y-106165952D01*
X130716262Y-106105476D01*
X130716262Y-105954286D01*
X130746500Y-105863571D01*
X131290786Y-105228571D02*
X131321024Y-105258809D01*
X131351262Y-105349524D01*
X131351262Y-105410000D01*
X131321024Y-105500714D01*
X131260548Y-105561190D01*
X131200071Y-105591429D01*
X131079119Y-105621667D01*
X130988405Y-105621667D01*
X130867452Y-105591429D01*
X130806976Y-105561190D01*
X130746500Y-105500714D01*
X130716262Y-105410000D01*
X130716262Y-105349524D01*
X130746500Y-105258809D01*
X130776738Y-105228571D01*
X131351262Y-104956429D02*
X130716262Y-104956429D01*
X131351262Y-104593571D02*
X130988405Y-104865714D01*
X130716262Y-104593571D02*
X131079119Y-104956429D01*
X131321024Y-103384048D02*
X131351262Y-103293333D01*
X131351262Y-103142143D01*
X131321024Y-103081667D01*
X131290786Y-103051429D01*
X131230310Y-103021190D01*
X131169833Y-103021190D01*
X131109357Y-103051429D01*
X131079119Y-103081667D01*
X131048881Y-103142143D01*
X131018643Y-103263095D01*
X130988405Y-103323571D01*
X130958167Y-103353810D01*
X130897690Y-103384048D01*
X130837214Y-103384048D01*
X130776738Y-103353810D01*
X130746500Y-103323571D01*
X130716262Y-103263095D01*
X130716262Y-103111905D01*
X130746500Y-103021190D01*
X130716262Y-102628095D02*
X130716262Y-102507143D01*
X130746500Y-102446667D01*
X130806976Y-102386190D01*
X130927929Y-102355952D01*
X131139595Y-102355952D01*
X131260548Y-102386190D01*
X131321024Y-102446667D01*
X131351262Y-102507143D01*
X131351262Y-102628095D01*
X131321024Y-102688571D01*
X131260548Y-102749048D01*
X131139595Y-102779286D01*
X130927929Y-102779286D01*
X130806976Y-102749048D01*
X130746500Y-102688571D01*
X130716262Y-102628095D01*
X130746500Y-100813809D02*
X130716262Y-100874286D01*
X130716262Y-100965000D01*
X130746500Y-101055714D01*
X130806976Y-101116190D01*
X130867452Y-101146429D01*
X130988405Y-101176667D01*
X131079119Y-101176667D01*
X131200071Y-101146429D01*
X131260548Y-101116190D01*
X131321024Y-101055714D01*
X131351262Y-100965000D01*
X131351262Y-100904524D01*
X131321024Y-100813809D01*
X131290786Y-100783571D01*
X131079119Y-100783571D01*
X131079119Y-100904524D01*
X131351262Y-100511429D02*
X130716262Y-100511429D01*
X131351262Y-100148571D01*
X130716262Y-100148571D01*
X131351262Y-99846191D02*
X130716262Y-99846191D01*
X130716262Y-99695000D01*
X130746500Y-99604286D01*
X130806976Y-99543810D01*
X130867452Y-99513571D01*
X130988405Y-99483333D01*
X131079119Y-99483333D01*
X131200071Y-99513571D01*
X131260548Y-99543810D01*
X131321024Y-99604286D01*
X131351262Y-99695000D01*
X131351262Y-99846191D01*
X130716262Y-98697143D02*
X130716262Y-98304047D01*
X130958167Y-98515714D01*
X130958167Y-98425000D01*
X130988405Y-98364524D01*
X131018643Y-98334286D01*
X131079119Y-98304047D01*
X131230310Y-98304047D01*
X131290786Y-98334286D01*
X131321024Y-98364524D01*
X131351262Y-98425000D01*
X131351262Y-98606428D01*
X131321024Y-98666905D01*
X131290786Y-98697143D01*
X131290786Y-98031905D02*
X131321024Y-98001666D01*
X131351262Y-98031905D01*
X131321024Y-98062143D01*
X131290786Y-98031905D01*
X131351262Y-98031905D01*
X130716262Y-97790000D02*
X130716262Y-97396904D01*
X130958167Y-97608571D01*
X130958167Y-97517857D01*
X130988405Y-97457381D01*
X131018643Y-97427143D01*
X131079119Y-97396904D01*
X131230310Y-97396904D01*
X131290786Y-97427143D01*
X131321024Y-97457381D01*
X131351262Y-97517857D01*
X131351262Y-97699285D01*
X131321024Y-97759762D01*
X131290786Y-97790000D01*
X130927929Y-97185238D02*
X131351262Y-97034047D01*
X130927929Y-96882857D01*
X131290786Y-95658214D02*
X131321024Y-95688452D01*
X131351262Y-95779167D01*
X131351262Y-95839643D01*
X131321024Y-95930357D01*
X131260548Y-95990833D01*
X131200071Y-96021072D01*
X131079119Y-96051310D01*
X130988405Y-96051310D01*
X130867452Y-96021072D01*
X130806976Y-95990833D01*
X130746500Y-95930357D01*
X130716262Y-95839643D01*
X130716262Y-95779167D01*
X130746500Y-95688452D01*
X130776738Y-95658214D01*
X131321024Y-95416310D02*
X131351262Y-95325595D01*
X131351262Y-95174405D01*
X131321024Y-95113929D01*
X131290786Y-95083691D01*
X131230310Y-95053452D01*
X131169833Y-95053452D01*
X131109357Y-95083691D01*
X131079119Y-95113929D01*
X131048881Y-95174405D01*
X131018643Y-95295357D01*
X130988405Y-95355833D01*
X130958167Y-95386072D01*
X130897690Y-95416310D01*
X130837214Y-95416310D01*
X130776738Y-95386072D01*
X130746500Y-95355833D01*
X130716262Y-95295357D01*
X130716262Y-95144167D01*
X130746500Y-95053452D01*
X130776738Y-94811548D02*
X130746500Y-94781310D01*
X130716262Y-94720833D01*
X130716262Y-94569643D01*
X130746500Y-94509167D01*
X130776738Y-94478929D01*
X130837214Y-94448690D01*
X130897690Y-94448690D01*
X130988405Y-94478929D01*
X131351262Y-94841786D01*
X131351262Y-94448690D01*
D12*
X128270000Y-93980000D02*
X130810000Y-93980000D01*
X130810000Y-109220000D02*
X128270000Y-109220000D01*
X128270000Y-109220000D02*
X128270000Y-93980000D01*
X128270000Y-96520000D02*
X130810000Y-96520000D01*
D13*
X116078000Y-90424000D02*
G75*
G03X116078000Y-90424000I-127000J0D01*
G74*
G01*
X114808000Y-90424000D02*
X115824000Y-90424000D01*
X115824000Y-90424000D02*
X115824000Y-91948000D01*
X115824000Y-91948000D02*
X114808000Y-91948000D01*
X113792000Y-91948000D02*
X112776000Y-91948000D01*
X112776000Y-91948000D02*
X112776000Y-90424000D01*
X112776000Y-90424000D02*
X113792000Y-90424000D01*
X112776000Y-98552000D02*
G75*
G03X112776000Y-98552000I-127000J0D01*
G74*
G01*
X113792000Y-98552000D02*
X112776000Y-98552000D01*
X112776000Y-98552000D02*
X112776000Y-97028000D01*
X112776000Y-97028000D02*
X113792000Y-97028000D01*
X114808000Y-97028000D02*
X115824000Y-97028000D01*
X115824000Y-97028000D02*
X115824000Y-98552000D01*
X115824000Y-98552000D02*
X114808000Y-98552000D01*
D14*
X114411760Y-94988380D02*
X114411760Y-95686880D01*
X114411760Y-93987620D02*
X114411760Y-93289120D01*
X115712240Y-94988380D02*
X115712240Y-95686880D01*
X115712240Y-93289120D02*
X115712240Y-93987620D01*
X115697000Y-95686880D02*
X114427000Y-95686880D01*
X114427000Y-93289120D02*
X115697000Y-93289120D01*
D13*
X116078000Y-104648000D02*
G75*
G03X116078000Y-104648000I-127000J0D01*
G74*
G01*
X114808000Y-104648000D02*
X115824000Y-104648000D01*
X115824000Y-104648000D02*
X115824000Y-106172000D01*
X115824000Y-106172000D02*
X114808000Y-106172000D01*
X113792000Y-106172000D02*
X112776000Y-106172000D01*
X112776000Y-106172000D02*
X112776000Y-104648000D01*
X112776000Y-104648000D02*
X113792000Y-104648000D01*
X112776000Y-112776000D02*
G75*
G03X112776000Y-112776000I-127000J0D01*
G74*
G01*
X113792000Y-112776000D02*
X112776000Y-112776000D01*
X112776000Y-112776000D02*
X112776000Y-111252000D01*
X112776000Y-111252000D02*
X113792000Y-111252000D01*
X114808000Y-111252000D02*
X115824000Y-111252000D01*
X115824000Y-111252000D02*
X115824000Y-112776000D01*
X115824000Y-112776000D02*
X114808000Y-112776000D01*
D14*
X114411760Y-109212380D02*
X114411760Y-109910880D01*
X114411760Y-108211620D02*
X114411760Y-107513120D01*
X115712240Y-109212380D02*
X115712240Y-109910880D01*
X115712240Y-107513120D02*
X115712240Y-108211620D01*
X115697000Y-109910880D02*
X114427000Y-109910880D01*
X114427000Y-107513120D02*
X115697000Y-107513120D01*
X118610380Y-99202240D02*
X119308880Y-99202240D01*
X117609620Y-99202240D02*
X116911120Y-99202240D01*
X118610380Y-97901760D02*
X119308880Y-97901760D01*
X116911120Y-97901760D02*
X117609620Y-97901760D01*
X119308880Y-97917000D02*
X119308880Y-99187000D01*
X116911120Y-99187000D02*
X116911120Y-97917000D01*
X118610380Y-113426240D02*
X119308880Y-113426240D01*
X117609620Y-113426240D02*
X116911120Y-113426240D01*
X118610380Y-112125760D02*
X119308880Y-112125760D01*
X116911120Y-112125760D02*
X117609620Y-112125760D01*
X119308880Y-112141000D02*
X119308880Y-113411000D01*
X116911120Y-113411000D02*
X116911120Y-112141000D01*
D15*
X109601000Y-90551000D02*
X111887000Y-90551000D01*
X111887000Y-90551000D02*
X111887000Y-91821000D01*
X111887000Y-91821000D02*
X109601000Y-91821000D01*
X109601000Y-91821000D02*
X109601000Y-90551000D01*
X109601000Y-97155000D02*
X111887000Y-97155000D01*
X111887000Y-97155000D02*
X111887000Y-98425000D01*
X111887000Y-98425000D02*
X109601000Y-98425000D01*
X109601000Y-98425000D02*
X109601000Y-97155000D01*
X109601000Y-104775000D02*
X111887000Y-104775000D01*
X111887000Y-104775000D02*
X111887000Y-106045000D01*
X111887000Y-106045000D02*
X109601000Y-106045000D01*
X109601000Y-106045000D02*
X109601000Y-104775000D01*
X109601000Y-111379000D02*
X111887000Y-111379000D01*
X111887000Y-111379000D02*
X111887000Y-112649000D01*
X111887000Y-112649000D02*
X109601000Y-112649000D01*
X109601000Y-112649000D02*
X109601000Y-111379000D01*
X107670600Y-98552000D02*
X107670600Y-90424000D01*
X101904800Y-98552000D02*
X101904800Y-90424000D01*
X101904800Y-90424000D02*
X108915200Y-90424000D01*
X108915200Y-90424000D02*
X108915200Y-98552000D01*
X108915200Y-98552000D02*
X101904800Y-98552000D01*
X107670600Y-112776000D02*
X107670600Y-104648000D01*
X101904800Y-112776000D02*
X101904800Y-104648000D01*
X101904800Y-104648000D02*
X108915200Y-104648000D01*
X108915200Y-104648000D02*
X108915200Y-112776000D01*
X108915200Y-112776000D02*
X101904800Y-112776000D01*
X122562620Y-101917500D02*
X121856500Y-101917500D01*
X121856500Y-101917500D02*
X121856500Y-103314500D01*
X121856500Y-103314500D02*
X122562620Y-103314500D01*
X124269500Y-101917500D02*
X123563380Y-101917500D01*
X124269500Y-101917500D02*
X124269500Y-103314500D01*
X124269500Y-103314500D02*
X123563380Y-103314500D01*
X125737620Y-107251500D02*
X125031500Y-107251500D01*
X125031500Y-107251500D02*
X125031500Y-108648500D01*
X125031500Y-108648500D02*
X125737620Y-108648500D01*
X127444500Y-107251500D02*
X126738380Y-107251500D01*
X127444500Y-107251500D02*
X127444500Y-108648500D01*
X127444500Y-108648500D02*
X126738380Y-108648500D01*
X125737620Y-104711500D02*
X125031500Y-104711500D01*
X125031500Y-104711500D02*
X125031500Y-106108500D01*
X125031500Y-106108500D02*
X125737620Y-106108500D01*
X127444500Y-104711500D02*
X126738380Y-104711500D01*
X127444500Y-104711500D02*
X127444500Y-106108500D01*
X127444500Y-106108500D02*
X126738380Y-106108500D01*
X125737620Y-94551500D02*
X125031500Y-94551500D01*
X125031500Y-94551500D02*
X125031500Y-95948500D01*
X125031500Y-95948500D02*
X125737620Y-95948500D01*
X127444500Y-94551500D02*
X126738380Y-94551500D01*
X127444500Y-94551500D02*
X127444500Y-95948500D01*
X127444500Y-95948500D02*
X126738380Y-95948500D01*
D16*
X112015590Y-95664020D02*
G75*
G03X112015590Y-95664020I-159070J0D01*
G74*
G01*
X110998000Y-93218000D02*
X112014000Y-93218000D01*
X110998000Y-95821500D02*
X112014000Y-95821500D01*
X112014000Y-93218000D02*
X112014000Y-95821500D01*
X110998000Y-95821500D02*
X110998000Y-93218000D01*
X112015590Y-109888020D02*
G75*
G03X112015590Y-109888020I-159070J0D01*
G74*
G01*
X110998000Y-107442000D02*
X112014000Y-107442000D01*
X110998000Y-110045500D02*
X112014000Y-110045500D01*
X112014000Y-107442000D02*
X112014000Y-110045500D01*
X110998000Y-110045500D02*
X110998000Y-107442000D01*
D15*
X118618000Y-91821000D02*
X118491000Y-91821000D01*
X118491000Y-91821000D02*
X118491000Y-97155000D01*
X122301000Y-97155000D02*
X122301000Y-91821000D01*
X122301000Y-91821000D02*
X118618000Y-91821000D01*
X120904000Y-91821000D02*
X120904000Y-92329000D01*
X120904000Y-92329000D02*
X119888000Y-92329000D01*
X119888000Y-92329000D02*
X119888000Y-91821000D01*
X122301000Y-97155000D02*
X118491000Y-97155000D01*
X118618000Y-106045000D02*
X118491000Y-106045000D01*
X118491000Y-106045000D02*
X118491000Y-111379000D01*
X122301000Y-111379000D02*
X122301000Y-106045000D01*
X122301000Y-106045000D02*
X118618000Y-106045000D01*
X120904000Y-106045000D02*
X120904000Y-106553000D01*
X120904000Y-106553000D02*
X119888000Y-106553000D01*
X119888000Y-106553000D02*
X119888000Y-106045000D01*
X122301000Y-111379000D02*
X118491000Y-111379000D01*
D11*
X114194167Y-90142786D02*
X114163929Y-90173024D01*
X114073214Y-90203262D01*
X114012738Y-90203262D01*
X113922024Y-90173024D01*
X113861548Y-90112548D01*
X113831309Y-90052071D01*
X113801071Y-89931119D01*
X113801071Y-89840405D01*
X113831309Y-89719452D01*
X113861548Y-89658976D01*
X113922024Y-89598500D01*
X114012738Y-89568262D01*
X114073214Y-89568262D01*
X114163929Y-89598500D01*
X114194167Y-89628738D01*
X114798929Y-90203262D02*
X114436071Y-90203262D01*
X114617500Y-90203262D02*
X114617500Y-89568262D01*
X114557024Y-89658976D01*
X114496548Y-89719452D01*
X114436071Y-89749690D01*
X114194167Y-96746786D02*
X114163929Y-96777024D01*
X114073214Y-96807262D01*
X114012738Y-96807262D01*
X113922024Y-96777024D01*
X113861548Y-96716548D01*
X113831309Y-96656071D01*
X113801071Y-96535119D01*
X113801071Y-96444405D01*
X113831309Y-96323452D01*
X113861548Y-96262976D01*
X113922024Y-96202500D01*
X114012738Y-96172262D01*
X114073214Y-96172262D01*
X114163929Y-96202500D01*
X114194167Y-96232738D01*
X114436071Y-96232738D02*
X114466309Y-96202500D01*
X114526786Y-96172262D01*
X114677976Y-96172262D01*
X114738452Y-96202500D01*
X114768690Y-96232738D01*
X114798929Y-96293214D01*
X114798929Y-96353690D01*
X114768690Y-96444405D01*
X114405833Y-96807262D01*
X114798929Y-96807262D01*
X114194167Y-92936786D02*
X114163929Y-92967024D01*
X114073214Y-92997262D01*
X114012738Y-92997262D01*
X113922024Y-92967024D01*
X113861548Y-92906548D01*
X113831309Y-92846071D01*
X113801071Y-92725119D01*
X113801071Y-92634405D01*
X113831309Y-92513452D01*
X113861548Y-92452976D01*
X113922024Y-92392500D01*
X114012738Y-92362262D01*
X114073214Y-92362262D01*
X114163929Y-92392500D01*
X114194167Y-92422738D01*
X114405833Y-92362262D02*
X114798929Y-92362262D01*
X114587262Y-92604167D01*
X114677976Y-92604167D01*
X114738452Y-92634405D01*
X114768690Y-92664643D01*
X114798929Y-92725119D01*
X114798929Y-92876310D01*
X114768690Y-92936786D01*
X114738452Y-92967024D01*
X114677976Y-92997262D01*
X114496548Y-92997262D01*
X114436071Y-92967024D01*
X114405833Y-92936786D01*
X114194167Y-104366786D02*
X114163929Y-104397024D01*
X114073214Y-104427262D01*
X114012738Y-104427262D01*
X113922024Y-104397024D01*
X113861548Y-104336548D01*
X113831309Y-104276071D01*
X113801071Y-104155119D01*
X113801071Y-104064405D01*
X113831309Y-103943452D01*
X113861548Y-103882976D01*
X113922024Y-103822500D01*
X114012738Y-103792262D01*
X114073214Y-103792262D01*
X114163929Y-103822500D01*
X114194167Y-103852738D01*
X114738452Y-104003929D02*
X114738452Y-104427262D01*
X114587262Y-103762024D02*
X114436071Y-104215595D01*
X114829167Y-104215595D01*
X114194167Y-110970786D02*
X114163929Y-111001024D01*
X114073214Y-111031262D01*
X114012738Y-111031262D01*
X113922024Y-111001024D01*
X113861548Y-110940548D01*
X113831309Y-110880071D01*
X113801071Y-110759119D01*
X113801071Y-110668405D01*
X113831309Y-110547452D01*
X113861548Y-110486976D01*
X113922024Y-110426500D01*
X114012738Y-110396262D01*
X114073214Y-110396262D01*
X114163929Y-110426500D01*
X114194167Y-110456738D01*
X114768690Y-110396262D02*
X114466309Y-110396262D01*
X114436071Y-110698643D01*
X114466309Y-110668405D01*
X114526786Y-110638167D01*
X114677976Y-110638167D01*
X114738452Y-110668405D01*
X114768690Y-110698643D01*
X114798929Y-110759119D01*
X114798929Y-110910310D01*
X114768690Y-110970786D01*
X114738452Y-111001024D01*
X114677976Y-111031262D01*
X114526786Y-111031262D01*
X114466309Y-111001024D01*
X114436071Y-110970786D01*
X114448167Y-107160786D02*
X114417929Y-107191024D01*
X114327214Y-107221262D01*
X114266738Y-107221262D01*
X114176024Y-107191024D01*
X114115548Y-107130548D01*
X114085309Y-107070071D01*
X114055071Y-106949119D01*
X114055071Y-106858405D01*
X114085309Y-106737452D01*
X114115548Y-106676976D01*
X114176024Y-106616500D01*
X114266738Y-106586262D01*
X114327214Y-106586262D01*
X114417929Y-106616500D01*
X114448167Y-106646738D01*
X114992452Y-106586262D02*
X114871500Y-106586262D01*
X114811024Y-106616500D01*
X114780786Y-106646738D01*
X114720309Y-106737452D01*
X114690071Y-106858405D01*
X114690071Y-107100310D01*
X114720309Y-107160786D01*
X114750548Y-107191024D01*
X114811024Y-107221262D01*
X114931976Y-107221262D01*
X114992452Y-107191024D01*
X115022690Y-107160786D01*
X115052929Y-107100310D01*
X115052929Y-106949119D01*
X115022690Y-106888643D01*
X114992452Y-106858405D01*
X114931976Y-106828167D01*
X114811024Y-106828167D01*
X114750548Y-106858405D01*
X114720309Y-106888643D01*
X114690071Y-106949119D01*
X120036167Y-99286786D02*
X120005929Y-99317024D01*
X119915214Y-99347262D01*
X119854738Y-99347262D01*
X119764024Y-99317024D01*
X119703548Y-99256548D01*
X119673309Y-99196071D01*
X119643071Y-99075119D01*
X119643071Y-98984405D01*
X119673309Y-98863452D01*
X119703548Y-98802976D01*
X119764024Y-98742500D01*
X119854738Y-98712262D01*
X119915214Y-98712262D01*
X120005929Y-98742500D01*
X120036167Y-98772738D01*
X120247833Y-98712262D02*
X120671167Y-98712262D01*
X120399024Y-99347262D01*
X120036167Y-113510786D02*
X120005929Y-113541024D01*
X119915214Y-113571262D01*
X119854738Y-113571262D01*
X119764024Y-113541024D01*
X119703548Y-113480548D01*
X119673309Y-113420071D01*
X119643071Y-113299119D01*
X119643071Y-113208405D01*
X119673309Y-113087452D01*
X119703548Y-113026976D01*
X119764024Y-112966500D01*
X119854738Y-112936262D01*
X119915214Y-112936262D01*
X120005929Y-112966500D01*
X120036167Y-112996738D01*
X120399024Y-113208405D02*
X120338548Y-113178167D01*
X120308309Y-113147929D01*
X120278071Y-113087452D01*
X120278071Y-113057214D01*
X120308309Y-112996738D01*
X120338548Y-112966500D01*
X120399024Y-112936262D01*
X120519976Y-112936262D01*
X120580452Y-112966500D01*
X120610690Y-112996738D01*
X120640929Y-113057214D01*
X120640929Y-113087452D01*
X120610690Y-113147929D01*
X120580452Y-113178167D01*
X120519976Y-113208405D01*
X120399024Y-113208405D01*
X120338548Y-113238643D01*
X120308309Y-113268881D01*
X120278071Y-113329357D01*
X120278071Y-113450310D01*
X120308309Y-113510786D01*
X120338548Y-113541024D01*
X120399024Y-113571262D01*
X120519976Y-113571262D01*
X120580452Y-113541024D01*
X120610690Y-113510786D01*
X120640929Y-113450310D01*
X120640929Y-113329357D01*
X120610690Y-113268881D01*
X120580452Y-113238643D01*
X120519976Y-113208405D01*
X110214833Y-89870643D02*
X110003166Y-89870643D01*
X110003166Y-90203262D02*
X110003166Y-89568262D01*
X110305547Y-89568262D01*
X110759119Y-89870643D02*
X110849833Y-89900881D01*
X110880072Y-89931119D01*
X110910310Y-89991595D01*
X110910310Y-90082310D01*
X110880072Y-90142786D01*
X110849833Y-90173024D01*
X110789357Y-90203262D01*
X110547452Y-90203262D01*
X110547452Y-89568262D01*
X110759119Y-89568262D01*
X110819595Y-89598500D01*
X110849833Y-89628738D01*
X110880072Y-89689214D01*
X110880072Y-89749690D01*
X110849833Y-89810167D01*
X110819595Y-89840405D01*
X110759119Y-89870643D01*
X110547452Y-89870643D01*
X111515072Y-90203262D02*
X111152214Y-90203262D01*
X111333643Y-90203262D02*
X111333643Y-89568262D01*
X111273167Y-89658976D01*
X111212691Y-89719452D01*
X111152214Y-89749690D01*
X110214833Y-96474643D02*
X110003166Y-96474643D01*
X110003166Y-96807262D02*
X110003166Y-96172262D01*
X110305547Y-96172262D01*
X110759119Y-96474643D02*
X110849833Y-96504881D01*
X110880072Y-96535119D01*
X110910310Y-96595595D01*
X110910310Y-96686310D01*
X110880072Y-96746786D01*
X110849833Y-96777024D01*
X110789357Y-96807262D01*
X110547452Y-96807262D01*
X110547452Y-96172262D01*
X110759119Y-96172262D01*
X110819595Y-96202500D01*
X110849833Y-96232738D01*
X110880072Y-96293214D01*
X110880072Y-96353690D01*
X110849833Y-96414167D01*
X110819595Y-96444405D01*
X110759119Y-96474643D01*
X110547452Y-96474643D01*
X111152214Y-96232738D02*
X111182452Y-96202500D01*
X111242929Y-96172262D01*
X111394119Y-96172262D01*
X111454595Y-96202500D01*
X111484833Y-96232738D01*
X111515072Y-96293214D01*
X111515072Y-96353690D01*
X111484833Y-96444405D01*
X111121976Y-96807262D01*
X111515072Y-96807262D01*
X110214833Y-104094643D02*
X110003166Y-104094643D01*
X110003166Y-104427262D02*
X110003166Y-103792262D01*
X110305547Y-103792262D01*
X110759119Y-104094643D02*
X110849833Y-104124881D01*
X110880072Y-104155119D01*
X110910310Y-104215595D01*
X110910310Y-104306310D01*
X110880072Y-104366786D01*
X110849833Y-104397024D01*
X110789357Y-104427262D01*
X110547452Y-104427262D01*
X110547452Y-103792262D01*
X110759119Y-103792262D01*
X110819595Y-103822500D01*
X110849833Y-103852738D01*
X110880072Y-103913214D01*
X110880072Y-103973690D01*
X110849833Y-104034167D01*
X110819595Y-104064405D01*
X110759119Y-104094643D01*
X110547452Y-104094643D01*
X111121976Y-103792262D02*
X111515072Y-103792262D01*
X111303405Y-104034167D01*
X111394119Y-104034167D01*
X111454595Y-104064405D01*
X111484833Y-104094643D01*
X111515072Y-104155119D01*
X111515072Y-104306310D01*
X111484833Y-104366786D01*
X111454595Y-104397024D01*
X111394119Y-104427262D01*
X111212691Y-104427262D01*
X111152214Y-104397024D01*
X111121976Y-104366786D01*
X109960833Y-110698643D02*
X109749166Y-110698643D01*
X109749166Y-111031262D02*
X109749166Y-110396262D01*
X110051547Y-110396262D01*
X110505119Y-110698643D02*
X110595833Y-110728881D01*
X110626072Y-110759119D01*
X110656310Y-110819595D01*
X110656310Y-110910310D01*
X110626072Y-110970786D01*
X110595833Y-111001024D01*
X110535357Y-111031262D01*
X110293452Y-111031262D01*
X110293452Y-110396262D01*
X110505119Y-110396262D01*
X110565595Y-110426500D01*
X110595833Y-110456738D01*
X110626072Y-110517214D01*
X110626072Y-110577690D01*
X110595833Y-110638167D01*
X110565595Y-110668405D01*
X110505119Y-110698643D01*
X110293452Y-110698643D01*
X111200595Y-110607929D02*
X111200595Y-111031262D01*
X111049405Y-110366024D02*
X110898214Y-110819595D01*
X111291310Y-110819595D01*
D15*
X101908429Y-89371714D02*
X102343858Y-89371714D01*
X102126144Y-90133714D02*
X102126144Y-89371714D01*
X103033286Y-90061143D02*
X102997000Y-90097429D01*
X102888143Y-90133714D01*
X102815572Y-90133714D01*
X102706715Y-90097429D01*
X102634143Y-90024857D01*
X102597858Y-89952286D01*
X102561572Y-89807143D01*
X102561572Y-89698286D01*
X102597858Y-89553143D01*
X102634143Y-89480571D01*
X102706715Y-89408000D01*
X102815572Y-89371714D01*
X102888143Y-89371714D01*
X102997000Y-89408000D01*
X103033286Y-89444286D01*
X103323572Y-89444286D02*
X103359858Y-89408000D01*
X103432429Y-89371714D01*
X103613858Y-89371714D01*
X103686429Y-89408000D01*
X103722715Y-89444286D01*
X103759000Y-89516857D01*
X103759000Y-89589429D01*
X103722715Y-89698286D01*
X103287286Y-90133714D01*
X103759000Y-90133714D01*
X101908429Y-113120714D02*
X102343858Y-113120714D01*
X102126144Y-113882714D02*
X102126144Y-113120714D01*
X103033286Y-113810143D02*
X102997000Y-113846429D01*
X102888143Y-113882714D01*
X102815572Y-113882714D01*
X102706715Y-113846429D01*
X102634143Y-113773857D01*
X102597858Y-113701286D01*
X102561572Y-113556143D01*
X102561572Y-113447286D01*
X102597858Y-113302143D01*
X102634143Y-113229571D01*
X102706715Y-113157000D01*
X102815572Y-113120714D01*
X102888143Y-113120714D01*
X102997000Y-113157000D01*
X103033286Y-113193286D01*
X103759000Y-113882714D02*
X103323572Y-113882714D01*
X103541286Y-113882714D02*
X103541286Y-113120714D01*
X103468715Y-113229571D01*
X103396143Y-113302143D01*
X103323572Y-113338429D01*
D11*
X123973167Y-101506262D02*
X123761500Y-101203881D01*
X123610309Y-101506262D02*
X123610309Y-100871262D01*
X123852214Y-100871262D01*
X123912690Y-100901500D01*
X123942929Y-100931738D01*
X123973167Y-100992214D01*
X123973167Y-101082929D01*
X123942929Y-101143405D01*
X123912690Y-101173643D01*
X123852214Y-101203881D01*
X123610309Y-101203881D01*
X124577929Y-101506262D02*
X124215071Y-101506262D01*
X124396500Y-101506262D02*
X124396500Y-100871262D01*
X124336024Y-100961976D01*
X124275548Y-101022452D01*
X124215071Y-101052690D01*
X127148167Y-109761262D02*
X126936500Y-109458881D01*
X126785309Y-109761262D02*
X126785309Y-109126262D01*
X127027214Y-109126262D01*
X127087690Y-109156500D01*
X127117929Y-109186738D01*
X127148167Y-109247214D01*
X127148167Y-109337929D01*
X127117929Y-109398405D01*
X127087690Y-109428643D01*
X127027214Y-109458881D01*
X126785309Y-109458881D01*
X127390071Y-109186738D02*
X127420309Y-109156500D01*
X127480786Y-109126262D01*
X127631976Y-109126262D01*
X127692452Y-109156500D01*
X127722690Y-109186738D01*
X127752929Y-109247214D01*
X127752929Y-109307690D01*
X127722690Y-109398405D01*
X127359833Y-109761262D01*
X127752929Y-109761262D01*
X125878167Y-104427262D02*
X125666500Y-104124881D01*
X125515309Y-104427262D02*
X125515309Y-103792262D01*
X125757214Y-103792262D01*
X125817690Y-103822500D01*
X125847929Y-103852738D01*
X125878167Y-103913214D01*
X125878167Y-104003929D01*
X125847929Y-104064405D01*
X125817690Y-104094643D01*
X125757214Y-104124881D01*
X125515309Y-104124881D01*
X126089833Y-103792262D02*
X126482929Y-103792262D01*
X126271262Y-104034167D01*
X126361976Y-104034167D01*
X126422452Y-104064405D01*
X126452690Y-104094643D01*
X126482929Y-104155119D01*
X126482929Y-104306310D01*
X126452690Y-104366786D01*
X126422452Y-104397024D01*
X126361976Y-104427262D01*
X126180548Y-104427262D01*
X126120071Y-104397024D01*
X126089833Y-104366786D01*
X125878167Y-94267262D02*
X125666500Y-93964881D01*
X125515309Y-94267262D02*
X125515309Y-93632262D01*
X125757214Y-93632262D01*
X125817690Y-93662500D01*
X125847929Y-93692738D01*
X125878167Y-93753214D01*
X125878167Y-93843929D01*
X125847929Y-93904405D01*
X125817690Y-93934643D01*
X125757214Y-93964881D01*
X125515309Y-93964881D01*
X126422452Y-93843929D02*
X126422452Y-94267262D01*
X126271262Y-93602024D02*
X126120071Y-94055595D01*
X126513167Y-94055595D01*
X109752190Y-92870262D02*
X109752190Y-93384310D01*
X109782429Y-93444786D01*
X109812667Y-93475024D01*
X109873143Y-93505262D01*
X109994095Y-93505262D01*
X110054571Y-93475024D01*
X110084810Y-93444786D01*
X110115048Y-93384310D01*
X110115048Y-92870262D01*
X110750048Y-93505262D02*
X110387190Y-93505262D01*
X110568619Y-93505262D02*
X110568619Y-92870262D01*
X110508143Y-92960976D01*
X110447667Y-93021452D01*
X110387190Y-93051690D01*
X109752190Y-107094262D02*
X109752190Y-107608310D01*
X109782429Y-107668786D01*
X109812667Y-107699024D01*
X109873143Y-107729262D01*
X109994095Y-107729262D01*
X110054571Y-107699024D01*
X110084810Y-107668786D01*
X110115048Y-107608310D01*
X110115048Y-107094262D01*
X110387190Y-107154738D02*
X110417428Y-107124500D01*
X110477905Y-107094262D01*
X110629095Y-107094262D01*
X110689571Y-107124500D01*
X110719809Y-107154738D01*
X110750048Y-107215214D01*
X110750048Y-107275690D01*
X110719809Y-107366405D01*
X110356952Y-107729262D01*
X110750048Y-107729262D01*
X121436190Y-90838262D02*
X121436190Y-91352310D01*
X121466429Y-91412786D01*
X121496667Y-91443024D01*
X121557143Y-91473262D01*
X121678095Y-91473262D01*
X121738571Y-91443024D01*
X121768810Y-91412786D01*
X121799048Y-91352310D01*
X121799048Y-90838262D01*
X122040952Y-90838262D02*
X122434048Y-90838262D01*
X122222381Y-91080167D01*
X122313095Y-91080167D01*
X122373571Y-91110405D01*
X122403809Y-91140643D01*
X122434048Y-91201119D01*
X122434048Y-91352310D01*
X122403809Y-91412786D01*
X122373571Y-91443024D01*
X122313095Y-91473262D01*
X122131667Y-91473262D01*
X122071190Y-91443024D01*
X122040952Y-91412786D01*
X120928190Y-105062262D02*
X120928190Y-105576310D01*
X120958429Y-105636786D01*
X120988667Y-105667024D01*
X121049143Y-105697262D01*
X121170095Y-105697262D01*
X121230571Y-105667024D01*
X121260810Y-105636786D01*
X121291048Y-105576310D01*
X121291048Y-105062262D01*
X121865571Y-105273929D02*
X121865571Y-105697262D01*
X121714381Y-105032024D02*
X121563190Y-105485595D01*
X121956286Y-105485595D01*
M02*
