%FSLAX46Y46*%
G04 Gerber Fmt 4.6, Leading zero omitted, Abs format (unit mm)*
G04 Created by KiCad (PCBNEW (2014-07-09 BZR 4988)-product) date Wed 13 Aug 2014 10:14:38 AM PDT*
%MOMM*%
G01*
G04 APERTURE LIST*
%ADD10C,0.050000*%
%ADD11C,0.101600*%
%ADD12C,0.002540*%
G04 APERTURE END LIST*
D10*
D11*
X115066838Y-97148952D02*
X115036600Y-97179190D01*
X115006362Y-97239667D01*
X115006362Y-97390857D01*
X115036600Y-97451333D01*
X115066838Y-97481571D01*
X115127314Y-97511810D01*
X115187790Y-97511810D01*
X115278505Y-97481571D01*
X115641362Y-97118714D01*
X115641362Y-97511810D01*
X115006362Y-97904905D02*
X115006362Y-97965381D01*
X115036600Y-98025857D01*
X115066838Y-98056095D01*
X115127314Y-98086333D01*
X115248267Y-98116572D01*
X115399457Y-98116572D01*
X115520410Y-98086333D01*
X115580886Y-98056095D01*
X115611124Y-98025857D01*
X115641362Y-97965381D01*
X115641362Y-97904905D01*
X115611124Y-97844429D01*
X115580886Y-97814191D01*
X115520410Y-97783952D01*
X115399457Y-97753714D01*
X115248267Y-97753714D01*
X115127314Y-97783952D01*
X115066838Y-97814191D01*
X115036600Y-97844429D01*
X115006362Y-97904905D01*
X115641362Y-98721334D02*
X115641362Y-98358476D01*
X115641362Y-98539905D02*
X115006362Y-98539905D01*
X115097076Y-98479429D01*
X115157552Y-98418953D01*
X115187790Y-98358476D01*
X115218029Y-99265619D02*
X115641362Y-99265619D01*
X114976124Y-99114429D02*
X115429695Y-98963238D01*
X115429695Y-99356334D01*
X115399457Y-99598238D02*
X115399457Y-100082048D01*
X115006362Y-100505381D02*
X115006362Y-100565857D01*
X115036600Y-100626333D01*
X115066838Y-100656571D01*
X115127314Y-100686809D01*
X115248267Y-100717048D01*
X115399457Y-100717048D01*
X115520410Y-100686809D01*
X115580886Y-100656571D01*
X115611124Y-100626333D01*
X115641362Y-100565857D01*
X115641362Y-100505381D01*
X115611124Y-100444905D01*
X115580886Y-100414667D01*
X115520410Y-100384428D01*
X115399457Y-100354190D01*
X115248267Y-100354190D01*
X115127314Y-100384428D01*
X115066838Y-100414667D01*
X115036600Y-100444905D01*
X115006362Y-100505381D01*
X115278505Y-101079905D02*
X115248267Y-101019429D01*
X115218029Y-100989190D01*
X115157552Y-100958952D01*
X115127314Y-100958952D01*
X115066838Y-100989190D01*
X115036600Y-101019429D01*
X115006362Y-101079905D01*
X115006362Y-101200857D01*
X115036600Y-101261333D01*
X115066838Y-101291571D01*
X115127314Y-101321810D01*
X115157552Y-101321810D01*
X115218029Y-101291571D01*
X115248267Y-101261333D01*
X115278505Y-101200857D01*
X115278505Y-101079905D01*
X115308743Y-101019429D01*
X115338981Y-100989190D01*
X115399457Y-100958952D01*
X115520410Y-100958952D01*
X115580886Y-100989190D01*
X115611124Y-101019429D01*
X115641362Y-101079905D01*
X115641362Y-101200857D01*
X115611124Y-101261333D01*
X115580886Y-101291571D01*
X115520410Y-101321810D01*
X115399457Y-101321810D01*
X115338981Y-101291571D01*
X115308743Y-101261333D01*
X115278505Y-101200857D01*
X115399457Y-101593952D02*
X115399457Y-102077762D01*
X115641362Y-102712762D02*
X115641362Y-102349904D01*
X115641362Y-102531333D02*
X115006362Y-102531333D01*
X115097076Y-102470857D01*
X115157552Y-102410381D01*
X115187790Y-102349904D01*
X115066838Y-102954666D02*
X115036600Y-102984904D01*
X115006362Y-103045381D01*
X115006362Y-103196571D01*
X115036600Y-103257047D01*
X115066838Y-103287285D01*
X115127314Y-103317524D01*
X115187790Y-103317524D01*
X115278505Y-103287285D01*
X115641362Y-102924428D01*
X115641362Y-103317524D01*
X116631962Y-97179190D02*
X115996962Y-97179190D01*
X115996962Y-97330381D01*
X116027200Y-97421095D01*
X116087676Y-97481571D01*
X116148152Y-97511810D01*
X116269105Y-97542048D01*
X116359819Y-97542048D01*
X116480771Y-97511810D01*
X116541248Y-97481571D01*
X116601724Y-97421095D01*
X116631962Y-97330381D01*
X116631962Y-97179190D01*
X116208629Y-98086333D02*
X116631962Y-98086333D01*
X116208629Y-97814190D02*
X116541248Y-97814190D01*
X116601724Y-97844429D01*
X116631962Y-97904905D01*
X116631962Y-97995619D01*
X116601724Y-98056095D01*
X116571486Y-98086333D01*
X116631962Y-98660857D02*
X116299343Y-98660857D01*
X116238867Y-98630619D01*
X116208629Y-98570143D01*
X116208629Y-98449191D01*
X116238867Y-98388714D01*
X116601724Y-98660857D02*
X116631962Y-98600381D01*
X116631962Y-98449191D01*
X116601724Y-98388714D01*
X116541248Y-98358476D01*
X116480771Y-98358476D01*
X116420295Y-98388714D01*
X116390057Y-98449191D01*
X116390057Y-98600381D01*
X116359819Y-98660857D01*
X116631962Y-99053953D02*
X116601724Y-98993477D01*
X116541248Y-98963238D01*
X115996962Y-98963238D01*
X116631962Y-99779667D02*
X115996962Y-99779667D01*
X116450533Y-99991334D01*
X115996962Y-100203001D01*
X116631962Y-100203001D01*
X116450533Y-100475143D02*
X116450533Y-100777524D01*
X116631962Y-100414667D02*
X115996962Y-100626334D01*
X116631962Y-100838001D01*
X115996962Y-100989191D02*
X116631962Y-101412525D01*
X115996962Y-101412525D02*
X116631962Y-100989191D01*
X115996962Y-101593953D02*
X115996962Y-101987049D01*
X116238867Y-101775382D01*
X116238867Y-101866096D01*
X116269105Y-101926572D01*
X116299343Y-101956810D01*
X116359819Y-101987049D01*
X116511010Y-101987049D01*
X116571486Y-101956810D01*
X116601724Y-101926572D01*
X116631962Y-101866096D01*
X116631962Y-101684668D01*
X116601724Y-101624191D01*
X116571486Y-101593953D01*
X116631962Y-102591811D02*
X116631962Y-102228953D01*
X116631962Y-102410382D02*
X115996962Y-102410382D01*
X116087676Y-102349906D01*
X116148152Y-102289430D01*
X116178390Y-102228953D01*
X116269105Y-102954668D02*
X116238867Y-102894192D01*
X116208629Y-102863953D01*
X116148152Y-102833715D01*
X116117914Y-102833715D01*
X116057438Y-102863953D01*
X116027200Y-102894192D01*
X115996962Y-102954668D01*
X115996962Y-103075620D01*
X116027200Y-103136096D01*
X116057438Y-103166334D01*
X116117914Y-103196573D01*
X116148152Y-103196573D01*
X116208629Y-103166334D01*
X116238867Y-103136096D01*
X116269105Y-103075620D01*
X116269105Y-102954668D01*
X116299343Y-102894192D01*
X116329581Y-102863953D01*
X116390057Y-102833715D01*
X116511010Y-102833715D01*
X116571486Y-102863953D01*
X116601724Y-102894192D01*
X116631962Y-102954668D01*
X116631962Y-103075620D01*
X116601724Y-103136096D01*
X116571486Y-103166334D01*
X116511010Y-103196573D01*
X116390057Y-103196573D01*
X116329581Y-103166334D01*
X116299343Y-103136096D01*
X116269105Y-103075620D01*
X115996962Y-103771096D02*
X115996962Y-103468715D01*
X116299343Y-103438477D01*
X116269105Y-103468715D01*
X116238867Y-103529192D01*
X116238867Y-103680382D01*
X116269105Y-103740858D01*
X116299343Y-103771096D01*
X116359819Y-103801335D01*
X116511010Y-103801335D01*
X116571486Y-103771096D01*
X116601724Y-103740858D01*
X116631962Y-103680382D01*
X116631962Y-103529192D01*
X116601724Y-103468715D01*
X116571486Y-103438477D01*
X115996962Y-104375858D02*
X115996962Y-104073477D01*
X116299343Y-104043239D01*
X116269105Y-104073477D01*
X116238867Y-104133954D01*
X116238867Y-104285144D01*
X116269105Y-104345620D01*
X116299343Y-104375858D01*
X116359819Y-104406097D01*
X116511010Y-104406097D01*
X116571486Y-104375858D01*
X116601724Y-104345620D01*
X116631962Y-104285144D01*
X116631962Y-104133954D01*
X116601724Y-104073477D01*
X116571486Y-104043239D01*
X115996962Y-105071335D02*
X116631962Y-105283002D01*
X115996962Y-105494669D01*
X116601724Y-105948240D02*
X116631962Y-105887764D01*
X116631962Y-105766812D01*
X116601724Y-105706335D01*
X116541248Y-105676097D01*
X116299343Y-105676097D01*
X116238867Y-105706335D01*
X116208629Y-105766812D01*
X116208629Y-105887764D01*
X116238867Y-105948240D01*
X116299343Y-105978478D01*
X116359819Y-105978478D01*
X116420295Y-105676097D01*
X116631962Y-106250621D02*
X116208629Y-106250621D01*
X116329581Y-106250621D02*
X116269105Y-106280860D01*
X116238867Y-106311098D01*
X116208629Y-106371574D01*
X116208629Y-106432050D01*
X115996962Y-106764669D02*
X115996962Y-106825145D01*
X116027200Y-106885621D01*
X116057438Y-106915859D01*
X116117914Y-106946097D01*
X116238867Y-106976336D01*
X116390057Y-106976336D01*
X116511010Y-106946097D01*
X116571486Y-106915859D01*
X116601724Y-106885621D01*
X116631962Y-106825145D01*
X116631962Y-106764669D01*
X116601724Y-106704193D01*
X116571486Y-106673955D01*
X116511010Y-106643716D01*
X116390057Y-106613478D01*
X116238867Y-106613478D01*
X116117914Y-106643716D01*
X116057438Y-106673955D01*
X116027200Y-106704193D01*
X115996962Y-106764669D01*
X117622562Y-97179190D02*
X116987562Y-97179190D01*
X116987562Y-97330381D01*
X117017800Y-97421095D01*
X117078276Y-97481571D01*
X117138752Y-97511810D01*
X117259705Y-97542048D01*
X117350419Y-97542048D01*
X117471371Y-97511810D01*
X117531848Y-97481571D01*
X117592324Y-97421095D01*
X117622562Y-97330381D01*
X117622562Y-97179190D01*
X117592324Y-98056095D02*
X117622562Y-97995619D01*
X117622562Y-97874667D01*
X117592324Y-97814190D01*
X117531848Y-97783952D01*
X117289943Y-97783952D01*
X117229467Y-97814190D01*
X117199229Y-97874667D01*
X117199229Y-97995619D01*
X117229467Y-98056095D01*
X117289943Y-98086333D01*
X117350419Y-98086333D01*
X117410895Y-97783952D01*
X117592324Y-98328238D02*
X117622562Y-98388715D01*
X117622562Y-98509667D01*
X117592324Y-98570143D01*
X117531848Y-98600381D01*
X117501610Y-98600381D01*
X117441133Y-98570143D01*
X117410895Y-98509667D01*
X117410895Y-98418953D01*
X117380657Y-98358476D01*
X117320181Y-98328238D01*
X117289943Y-98328238D01*
X117229467Y-98358476D01*
X117199229Y-98418953D01*
X117199229Y-98509667D01*
X117229467Y-98570143D01*
X117622562Y-98872524D02*
X117199229Y-98872524D01*
X116987562Y-98872524D02*
X117017800Y-98842286D01*
X117048038Y-98872524D01*
X117017800Y-98902763D01*
X116987562Y-98872524D01*
X117048038Y-98872524D01*
X117199229Y-99447048D02*
X117713276Y-99447048D01*
X117773752Y-99416810D01*
X117803990Y-99386572D01*
X117834229Y-99326096D01*
X117834229Y-99235382D01*
X117803990Y-99174905D01*
X117592324Y-99447048D02*
X117622562Y-99386572D01*
X117622562Y-99265620D01*
X117592324Y-99205144D01*
X117562086Y-99174905D01*
X117501610Y-99144667D01*
X117320181Y-99144667D01*
X117259705Y-99174905D01*
X117229467Y-99205144D01*
X117199229Y-99265620D01*
X117199229Y-99386572D01*
X117229467Y-99447048D01*
X117199229Y-99749429D02*
X117622562Y-99749429D01*
X117259705Y-99749429D02*
X117229467Y-99779668D01*
X117199229Y-99840144D01*
X117199229Y-99930858D01*
X117229467Y-99991334D01*
X117289943Y-100021572D01*
X117622562Y-100021572D01*
X117592324Y-100565858D02*
X117622562Y-100505382D01*
X117622562Y-100384430D01*
X117592324Y-100323953D01*
X117531848Y-100293715D01*
X117289943Y-100293715D01*
X117229467Y-100323953D01*
X117199229Y-100384430D01*
X117199229Y-100505382D01*
X117229467Y-100565858D01*
X117289943Y-100596096D01*
X117350419Y-100596096D01*
X117410895Y-100293715D01*
X117622562Y-101140382D02*
X116987562Y-101140382D01*
X117592324Y-101140382D02*
X117622562Y-101079906D01*
X117622562Y-100958954D01*
X117592324Y-100898478D01*
X117562086Y-100868239D01*
X117501610Y-100838001D01*
X117320181Y-100838001D01*
X117259705Y-100868239D01*
X117229467Y-100898478D01*
X117199229Y-100958954D01*
X117199229Y-101079906D01*
X117229467Y-101140382D01*
X117622562Y-102198716D02*
X117289943Y-102198716D01*
X117229467Y-102168478D01*
X117199229Y-102108002D01*
X117199229Y-101987050D01*
X117229467Y-101926573D01*
X117592324Y-102198716D02*
X117622562Y-102138240D01*
X117622562Y-101987050D01*
X117592324Y-101926573D01*
X117531848Y-101896335D01*
X117471371Y-101896335D01*
X117410895Y-101926573D01*
X117380657Y-101987050D01*
X117380657Y-102138240D01*
X117350419Y-102198716D01*
X117199229Y-102501097D02*
X117622562Y-102501097D01*
X117259705Y-102501097D02*
X117229467Y-102531336D01*
X117199229Y-102591812D01*
X117199229Y-102682526D01*
X117229467Y-102743002D01*
X117289943Y-102773240D01*
X117622562Y-102773240D01*
X117622562Y-103347764D02*
X116987562Y-103347764D01*
X117592324Y-103347764D02*
X117622562Y-103287288D01*
X117622562Y-103166336D01*
X117592324Y-103105860D01*
X117562086Y-103075621D01*
X117501610Y-103045383D01*
X117320181Y-103045383D01*
X117259705Y-103075621D01*
X117229467Y-103105860D01*
X117199229Y-103166336D01*
X117199229Y-103287288D01*
X117229467Y-103347764D01*
X117622562Y-104133955D02*
X116987562Y-104133955D01*
X117441133Y-104345622D01*
X116987562Y-104557289D01*
X117622562Y-104557289D01*
X117622562Y-105131812D02*
X117289943Y-105131812D01*
X117229467Y-105101574D01*
X117199229Y-105041098D01*
X117199229Y-104920146D01*
X117229467Y-104859669D01*
X117592324Y-105131812D02*
X117622562Y-105071336D01*
X117622562Y-104920146D01*
X117592324Y-104859669D01*
X117531848Y-104829431D01*
X117471371Y-104829431D01*
X117410895Y-104859669D01*
X117380657Y-104920146D01*
X117380657Y-105071336D01*
X117350419Y-105131812D01*
X117622562Y-105706336D02*
X116987562Y-105706336D01*
X117592324Y-105706336D02*
X117622562Y-105645860D01*
X117622562Y-105524908D01*
X117592324Y-105464432D01*
X117562086Y-105434193D01*
X117501610Y-105403955D01*
X117320181Y-105403955D01*
X117259705Y-105434193D01*
X117229467Y-105464432D01*
X117199229Y-105524908D01*
X117199229Y-105645860D01*
X117229467Y-105706336D01*
X117592324Y-106250622D02*
X117622562Y-106190146D01*
X117622562Y-106069194D01*
X117592324Y-106008717D01*
X117531848Y-105978479D01*
X117289943Y-105978479D01*
X117229467Y-106008717D01*
X117199229Y-106069194D01*
X117199229Y-106190146D01*
X117229467Y-106250622D01*
X117289943Y-106280860D01*
X117350419Y-106280860D01*
X117410895Y-105978479D01*
X117622562Y-107036813D02*
X117199229Y-107036813D01*
X116987562Y-107036813D02*
X117017800Y-107006575D01*
X117048038Y-107036813D01*
X117017800Y-107067052D01*
X116987562Y-107036813D01*
X117048038Y-107036813D01*
X117199229Y-107339194D02*
X117622562Y-107339194D01*
X117259705Y-107339194D02*
X117229467Y-107369433D01*
X117199229Y-107429909D01*
X117199229Y-107520623D01*
X117229467Y-107581099D01*
X117289943Y-107611337D01*
X117622562Y-107611337D01*
X116987562Y-108397528D02*
X117501610Y-108397528D01*
X117562086Y-108427767D01*
X117592324Y-108458005D01*
X117622562Y-108518481D01*
X117622562Y-108639433D01*
X117592324Y-108699909D01*
X117562086Y-108730148D01*
X117501610Y-108760386D01*
X116987562Y-108760386D01*
X117592324Y-109032528D02*
X117622562Y-109123243D01*
X117622562Y-109274433D01*
X117592324Y-109334909D01*
X117562086Y-109365147D01*
X117501610Y-109395386D01*
X117441133Y-109395386D01*
X117380657Y-109365147D01*
X117350419Y-109334909D01*
X117320181Y-109274433D01*
X117289943Y-109153481D01*
X117259705Y-109093005D01*
X117229467Y-109062766D01*
X117168990Y-109032528D01*
X117108514Y-109032528D01*
X117048038Y-109062766D01*
X117017800Y-109093005D01*
X116987562Y-109153481D01*
X116987562Y-109304671D01*
X117017800Y-109395386D01*
X117441133Y-109637290D02*
X117441133Y-109939671D01*
X117622562Y-109576814D02*
X116987562Y-109788481D01*
X117622562Y-110000148D01*
X118280543Y-97390857D02*
X118280543Y-97179190D01*
X118613162Y-97179190D02*
X117978162Y-97179190D01*
X117978162Y-97481571D01*
X118613162Y-97723476D02*
X118189829Y-97723476D01*
X118310781Y-97723476D02*
X118250305Y-97753715D01*
X118220067Y-97783953D01*
X118189829Y-97844429D01*
X118189829Y-97904905D01*
X118582924Y-98358476D02*
X118613162Y-98298000D01*
X118613162Y-98177048D01*
X118582924Y-98116571D01*
X118522448Y-98086333D01*
X118280543Y-98086333D01*
X118220067Y-98116571D01*
X118189829Y-98177048D01*
X118189829Y-98298000D01*
X118220067Y-98358476D01*
X118280543Y-98388714D01*
X118341019Y-98388714D01*
X118401495Y-98086333D01*
X118582924Y-98902762D02*
X118613162Y-98842286D01*
X118613162Y-98721334D01*
X118582924Y-98660857D01*
X118522448Y-98630619D01*
X118280543Y-98630619D01*
X118220067Y-98660857D01*
X118189829Y-98721334D01*
X118189829Y-98842286D01*
X118220067Y-98902762D01*
X118280543Y-98933000D01*
X118341019Y-98933000D01*
X118401495Y-98630619D01*
X118613162Y-99961096D02*
X118280543Y-99961096D01*
X118220067Y-99930858D01*
X118189829Y-99870382D01*
X118189829Y-99749430D01*
X118220067Y-99688953D01*
X118582924Y-99961096D02*
X118613162Y-99900620D01*
X118613162Y-99749430D01*
X118582924Y-99688953D01*
X118522448Y-99658715D01*
X118461971Y-99658715D01*
X118401495Y-99688953D01*
X118371257Y-99749430D01*
X118371257Y-99900620D01*
X118341019Y-99961096D01*
X118582924Y-100233239D02*
X118613162Y-100293716D01*
X118613162Y-100414668D01*
X118582924Y-100475144D01*
X118522448Y-100505382D01*
X118492210Y-100505382D01*
X118431733Y-100475144D01*
X118401495Y-100414668D01*
X118401495Y-100323954D01*
X118371257Y-100263477D01*
X118310781Y-100233239D01*
X118280543Y-100233239D01*
X118220067Y-100263477D01*
X118189829Y-100323954D01*
X118189829Y-100414668D01*
X118220067Y-100475144D01*
X118613162Y-101261335D02*
X118189829Y-101261335D01*
X117978162Y-101261335D02*
X118008400Y-101231097D01*
X118038638Y-101261335D01*
X118008400Y-101291574D01*
X117978162Y-101261335D01*
X118038638Y-101261335D01*
X118189829Y-101563716D02*
X118613162Y-101563716D01*
X118250305Y-101563716D02*
X118220067Y-101593955D01*
X118189829Y-101654431D01*
X118189829Y-101745145D01*
X118220067Y-101805621D01*
X118280543Y-101835859D01*
X118613162Y-101835859D01*
X118280543Y-102833717D02*
X118280543Y-102622050D01*
X118613162Y-102622050D02*
X117978162Y-102622050D01*
X117978162Y-102924431D01*
X118613162Y-103166336D02*
X118189829Y-103166336D01*
X118310781Y-103166336D02*
X118250305Y-103196575D01*
X118220067Y-103226813D01*
X118189829Y-103287289D01*
X118189829Y-103347765D01*
X118582924Y-103801336D02*
X118613162Y-103740860D01*
X118613162Y-103619908D01*
X118582924Y-103559431D01*
X118522448Y-103529193D01*
X118280543Y-103529193D01*
X118220067Y-103559431D01*
X118189829Y-103619908D01*
X118189829Y-103740860D01*
X118220067Y-103801336D01*
X118280543Y-103831574D01*
X118341019Y-103831574D01*
X118401495Y-103529193D01*
X118582924Y-104345622D02*
X118613162Y-104285146D01*
X118613162Y-104164194D01*
X118582924Y-104103717D01*
X118522448Y-104073479D01*
X118280543Y-104073479D01*
X118220067Y-104103717D01*
X118189829Y-104164194D01*
X118189829Y-104285146D01*
X118220067Y-104345622D01*
X118280543Y-104375860D01*
X118341019Y-104375860D01*
X118401495Y-104073479D01*
X118613162Y-104920146D02*
X117978162Y-104920146D01*
X118582924Y-104920146D02*
X118613162Y-104859670D01*
X118613162Y-104738718D01*
X118582924Y-104678242D01*
X118552686Y-104648003D01*
X118492210Y-104617765D01*
X118310781Y-104617765D01*
X118250305Y-104648003D01*
X118220067Y-104678242D01*
X118189829Y-104738718D01*
X118189829Y-104859670D01*
X118220067Y-104920146D01*
X118613162Y-105313242D02*
X118582924Y-105252766D01*
X118552686Y-105222527D01*
X118492210Y-105192289D01*
X118310781Y-105192289D01*
X118250305Y-105222527D01*
X118220067Y-105252766D01*
X118189829Y-105313242D01*
X118189829Y-105403956D01*
X118220067Y-105464432D01*
X118250305Y-105494670D01*
X118310781Y-105524908D01*
X118492210Y-105524908D01*
X118552686Y-105494670D01*
X118582924Y-105464432D01*
X118613162Y-105403956D01*
X118613162Y-105313242D01*
X118613162Y-105797051D02*
X118189829Y-105797051D01*
X118250305Y-105797051D02*
X118220067Y-105827290D01*
X118189829Y-105887766D01*
X118189829Y-105978480D01*
X118220067Y-106038956D01*
X118280543Y-106069194D01*
X118613162Y-106069194D01*
X118280543Y-106069194D02*
X118220067Y-106099432D01*
X118189829Y-106159909D01*
X118189829Y-106250623D01*
X118220067Y-106311099D01*
X118280543Y-106341337D01*
X118613162Y-106341337D01*
X118552686Y-106643718D02*
X118582924Y-106673957D01*
X118613162Y-106643718D01*
X118582924Y-106613480D01*
X118552686Y-106643718D01*
X118613162Y-106643718D01*
X118371257Y-106643718D02*
X118008400Y-106613480D01*
X117978162Y-106643718D01*
X118008400Y-106673957D01*
X118371257Y-106643718D01*
X117978162Y-106643718D01*
D12*
G36*
X111536480Y-98488500D02*
X111539020Y-98488500D01*
X111539020Y-98496120D01*
X111536480Y-98521520D01*
X111533940Y-98557080D01*
X111531400Y-98607880D01*
X111528860Y-98666300D01*
X111523780Y-98732340D01*
X111518700Y-98808540D01*
X111516160Y-98866960D01*
X111508540Y-98945700D01*
X111506000Y-99021900D01*
X111500920Y-99090480D01*
X111498380Y-99151440D01*
X111495840Y-99202240D01*
X111493300Y-99242880D01*
X111490760Y-99268280D01*
X111493300Y-99278440D01*
X111493300Y-99311460D01*
X112595660Y-99136200D01*
X112730280Y-99115880D01*
X112857280Y-99093020D01*
X112981740Y-99075240D01*
X113101120Y-99054920D01*
X113212880Y-99037140D01*
X113314480Y-99021900D01*
X113408460Y-99006660D01*
X113492280Y-98991420D01*
X113563400Y-98981260D01*
X113621820Y-98971100D01*
X113667540Y-98963480D01*
X113698020Y-98958400D01*
X113715800Y-98955860D01*
X113715800Y-98955860D01*
X113733580Y-98955860D01*
X113738660Y-98963480D01*
X113741200Y-98976180D01*
X113738660Y-98986340D01*
X113736120Y-99014280D01*
X113731040Y-99057460D01*
X113725960Y-99113340D01*
X113718340Y-99179380D01*
X113710720Y-99260660D01*
X113700560Y-99349560D01*
X113690400Y-99451160D01*
X113677700Y-99560380D01*
X113665000Y-99674680D01*
X113652300Y-99796600D01*
X113639600Y-99926140D01*
X113624360Y-100042980D01*
X113611660Y-100175060D01*
X113596420Y-100302060D01*
X113583720Y-100421440D01*
X113571020Y-100535740D01*
X113560860Y-100642420D01*
X113550700Y-100741480D01*
X113540540Y-100827840D01*
X113532920Y-100906580D01*
X113525300Y-100970080D01*
X113520220Y-101023420D01*
X113515140Y-101061520D01*
X113512600Y-101084380D01*
X113512600Y-101092000D01*
X113520220Y-101092000D01*
X113543080Y-101081840D01*
X113578640Y-101069140D01*
X113624360Y-101051360D01*
X113680240Y-101028500D01*
X113743740Y-101000560D01*
X113817400Y-100970080D01*
X113893600Y-100937060D01*
X113941860Y-100916740D01*
X114020600Y-100883720D01*
X114096800Y-100850700D01*
X114165380Y-100822760D01*
X114226340Y-100797360D01*
X114279680Y-100774500D01*
X114320320Y-100756720D01*
X114350800Y-100744020D01*
X114366040Y-100738940D01*
X114371120Y-100738940D01*
X114371120Y-100746560D01*
X114373660Y-100771960D01*
X114381280Y-100810060D01*
X114386360Y-100860860D01*
X114396520Y-100926900D01*
X114406680Y-101000560D01*
X114416840Y-101084380D01*
X114421920Y-101130100D01*
X114137440Y-101130100D01*
X114127280Y-101132640D01*
X114106960Y-101140260D01*
X114073940Y-101150420D01*
X114028220Y-101168200D01*
X113977420Y-101185980D01*
X113921540Y-101208840D01*
X113860580Y-101231700D01*
X113799620Y-101257100D01*
X113736120Y-101279960D01*
X113677700Y-101302820D01*
X113621820Y-101325680D01*
X113573560Y-101343460D01*
X113532920Y-101361240D01*
X113502440Y-101373940D01*
X113484660Y-101381560D01*
X113479580Y-101381560D01*
X113479580Y-101391720D01*
X113474500Y-101414580D01*
X113471960Y-101452680D01*
X113464340Y-101506020D01*
X113456720Y-101566980D01*
X113449100Y-101640640D01*
X113446560Y-101676200D01*
X113329720Y-101676200D01*
X113327180Y-101676200D01*
X113319560Y-101683820D01*
X113304320Y-101704140D01*
X113284000Y-101729540D01*
X113266220Y-101757480D01*
X113228120Y-101810820D01*
X113179860Y-101864160D01*
X113139220Y-101907340D01*
X113108740Y-101935280D01*
X113085880Y-101958140D01*
X113070640Y-101975920D01*
X113063020Y-101983540D01*
X113063020Y-101983540D01*
X113073180Y-101983540D01*
X113093500Y-101981000D01*
X113126520Y-101975920D01*
X113162080Y-101970840D01*
X113200180Y-101965760D01*
X113238280Y-101960680D01*
X113271300Y-101955600D01*
X113291620Y-101950520D01*
X113296700Y-101950520D01*
X113304320Y-101947980D01*
X113309400Y-101942900D01*
X113311940Y-101930200D01*
X113317020Y-101909880D01*
X113319560Y-101879400D01*
X113322100Y-101833680D01*
X113322100Y-101820980D01*
X113324640Y-101775260D01*
X113327180Y-101737160D01*
X113329720Y-101706680D01*
X113332260Y-101688900D01*
X113332260Y-101683820D01*
X113329720Y-101676200D01*
X113446560Y-101676200D01*
X113441480Y-101721920D01*
X113431320Y-101810820D01*
X113421160Y-101907340D01*
X113411000Y-102008940D01*
X113398300Y-102113080D01*
X113388140Y-102219760D01*
X113375440Y-102326440D01*
X113365280Y-102433120D01*
X113352580Y-102539800D01*
X113342420Y-102641400D01*
X113332260Y-102740460D01*
X113322100Y-102831900D01*
X113314480Y-102918260D01*
X113306860Y-102994460D01*
X113299240Y-103063040D01*
X113294160Y-103118920D01*
X113289080Y-103164640D01*
X113286540Y-103195120D01*
X113284000Y-103210360D01*
X113284000Y-103212900D01*
X113294160Y-103210360D01*
X113317020Y-103205280D01*
X113355120Y-103195120D01*
X113403380Y-103179880D01*
X113461800Y-103162100D01*
X113532920Y-103139240D01*
X113609120Y-103116380D01*
X113692940Y-103088440D01*
X113781840Y-103060500D01*
X113809780Y-103052880D01*
X113941860Y-103009700D01*
X114058700Y-102971600D01*
X114162840Y-102938580D01*
X114251740Y-102910640D01*
X114330480Y-102885240D01*
X114393980Y-102864920D01*
X114449860Y-102847140D01*
X114495580Y-102831900D01*
X114531140Y-102819200D01*
X114561620Y-102809040D01*
X114581940Y-102801420D01*
X114597180Y-102796340D01*
X114609880Y-102791260D01*
X114614960Y-102788720D01*
X114617500Y-102786180D01*
X114620040Y-102783640D01*
X114617500Y-102781100D01*
X114617500Y-102778560D01*
X114617500Y-102778560D01*
X114614960Y-102763320D01*
X114612420Y-102735380D01*
X114607340Y-102702360D01*
X114607340Y-102692200D01*
X114604800Y-102656640D01*
X114599720Y-102636320D01*
X114594640Y-102626160D01*
X114587020Y-102623620D01*
X114587020Y-102623620D01*
X114569240Y-102623620D01*
X114554000Y-102616000D01*
X114541300Y-102610920D01*
X114526060Y-102608380D01*
X114503200Y-102608380D01*
X114477800Y-102613460D01*
X114442240Y-102621080D01*
X114396520Y-102631240D01*
X114340640Y-102649020D01*
X114272060Y-102669340D01*
X114188240Y-102694740D01*
X114175540Y-102699820D01*
X114091720Y-102725220D01*
X114020600Y-102748080D01*
X113962180Y-102765860D01*
X113913920Y-102778560D01*
X113875820Y-102788720D01*
X113847880Y-102796340D01*
X113825020Y-102798880D01*
X113804700Y-102801420D01*
X113789460Y-102798880D01*
X113781840Y-102798880D01*
X113736120Y-102781100D01*
X113698020Y-102750620D01*
X113667540Y-102704900D01*
X113647220Y-102646480D01*
X113634520Y-102577900D01*
X113631980Y-102496620D01*
X113637060Y-102402640D01*
X113639600Y-102384860D01*
X113657380Y-102285800D01*
X113685320Y-102196900D01*
X113723420Y-102120700D01*
X113771680Y-102057200D01*
X113779300Y-102052120D01*
X113802160Y-102029260D01*
X113830100Y-102008940D01*
X113860580Y-101988620D01*
X113885980Y-101973380D01*
X113906300Y-101965760D01*
X113916460Y-101965760D01*
X113919000Y-101975920D01*
X113919000Y-101998780D01*
X113921540Y-102034340D01*
X113924080Y-102074980D01*
X113924080Y-102085140D01*
X113929160Y-102196900D01*
X113898680Y-102214680D01*
X113860580Y-102250240D01*
X113832640Y-102295960D01*
X113817400Y-102351840D01*
X113814860Y-102417880D01*
X113817400Y-102445820D01*
X113822480Y-102478840D01*
X113830100Y-102501700D01*
X113842800Y-102516940D01*
X113845340Y-102519480D01*
X113875820Y-102534720D01*
X113908840Y-102534720D01*
X113941860Y-102522020D01*
X113957100Y-102509320D01*
X113972340Y-102496620D01*
X113982500Y-102478840D01*
X113990120Y-102453440D01*
X113997740Y-102420420D01*
X114002820Y-102377240D01*
X114007900Y-102318820D01*
X114010440Y-102275640D01*
X114015520Y-102227380D01*
X114020600Y-102179120D01*
X114023140Y-102138480D01*
X114028220Y-102108000D01*
X114028220Y-102102920D01*
X114046000Y-102041960D01*
X114071400Y-101981000D01*
X114104420Y-101927660D01*
X114134900Y-101887020D01*
X114183160Y-101851460D01*
X114233960Y-101826060D01*
X114287300Y-101813360D01*
X114338100Y-101813360D01*
X114386360Y-101826060D01*
X114429540Y-101851460D01*
X114432080Y-101854000D01*
X114444780Y-101864160D01*
X114452400Y-101866700D01*
X114452400Y-101864160D01*
X114449860Y-101851460D01*
X114444780Y-101826060D01*
X114439700Y-101793040D01*
X114432080Y-101757480D01*
X114424460Y-101719380D01*
X114419380Y-101688900D01*
X114414300Y-101666040D01*
X114409220Y-101655880D01*
X114409220Y-101655880D01*
X114399060Y-101655880D01*
X114376200Y-101658420D01*
X114343180Y-101660960D01*
X114307620Y-101668580D01*
X114269520Y-101673660D01*
X114239040Y-101678740D01*
X114216180Y-101681280D01*
X114208560Y-101681280D01*
X114208560Y-101673660D01*
X114203480Y-101648260D01*
X114198400Y-101612700D01*
X114193320Y-101564440D01*
X114185700Y-101508560D01*
X114178080Y-101447600D01*
X114173000Y-101406960D01*
X114165380Y-101340920D01*
X114157760Y-101279960D01*
X114150140Y-101226620D01*
X114145060Y-101183440D01*
X114139980Y-101150420D01*
X114137440Y-101132640D01*
X114137440Y-101130100D01*
X114421920Y-101130100D01*
X114429540Y-101175820D01*
X114442240Y-101277420D01*
X114454940Y-101381560D01*
X114470180Y-101493320D01*
X114485420Y-101610160D01*
X114500660Y-101727000D01*
X114515900Y-101846380D01*
X114531140Y-101965760D01*
X114543840Y-102062280D01*
X114282220Y-102062280D01*
X114246660Y-102072440D01*
X114213640Y-102092760D01*
X114208560Y-102097840D01*
X114190780Y-102118160D01*
X114178080Y-102143560D01*
X114167920Y-102179120D01*
X114160300Y-102224840D01*
X114155220Y-102262940D01*
X114147600Y-102308660D01*
X114139980Y-102356920D01*
X114134900Y-102397560D01*
X114132360Y-102402640D01*
X114127280Y-102433120D01*
X114124740Y-102455980D01*
X114124740Y-102468680D01*
X114124740Y-102468680D01*
X114132360Y-102466140D01*
X114152680Y-102461060D01*
X114180620Y-102453440D01*
X114211100Y-102443280D01*
X114239040Y-102430580D01*
X114261900Y-102420420D01*
X114264440Y-102420420D01*
X114307620Y-102389940D01*
X114345720Y-102344220D01*
X114373660Y-102290880D01*
X114383820Y-102250240D01*
X114386360Y-102217220D01*
X114386360Y-102176580D01*
X114378740Y-102138480D01*
X114371120Y-102108000D01*
X114368580Y-102102920D01*
X114348260Y-102077520D01*
X114317780Y-102064820D01*
X114282220Y-102062280D01*
X114543840Y-102062280D01*
X114546380Y-102085140D01*
X114561620Y-102199440D01*
X114564160Y-102222300D01*
X114518440Y-102222300D01*
X114513360Y-102227380D01*
X114505740Y-102242620D01*
X114503200Y-102252780D01*
X114493040Y-102280720D01*
X114477800Y-102313740D01*
X114467640Y-102331520D01*
X114442240Y-102374700D01*
X114482880Y-102372160D01*
X114513360Y-102369620D01*
X114531140Y-102364540D01*
X114541300Y-102356920D01*
X114543840Y-102341680D01*
X114538760Y-102313740D01*
X114533680Y-102285800D01*
X114528600Y-102255320D01*
X114523520Y-102232460D01*
X114518440Y-102222300D01*
X114564160Y-102222300D01*
X114576860Y-102313740D01*
X114589560Y-102422960D01*
X114602260Y-102524560D01*
X114614960Y-102621080D01*
X114627660Y-102707440D01*
X114637820Y-102786180D01*
X114645440Y-102854760D01*
X114653060Y-102910640D01*
X114658140Y-102956360D01*
X114660680Y-102984300D01*
X114663220Y-102999540D01*
X114663220Y-102999540D01*
X114660680Y-103009700D01*
X114650520Y-103017320D01*
X114630200Y-103027480D01*
X114597180Y-103040180D01*
X114589560Y-103042720D01*
X114515900Y-103065580D01*
X114559080Y-103080820D01*
X114620040Y-103108760D01*
X114670840Y-103149400D01*
X114678460Y-103162100D01*
X114317780Y-103162100D01*
X114269520Y-103164640D01*
X114223800Y-103172260D01*
X114198400Y-103177340D01*
X114142520Y-103195120D01*
X114086640Y-103217980D01*
X114035840Y-103245920D01*
X113990120Y-103273860D01*
X113967260Y-103291640D01*
X113921540Y-103339900D01*
X113885980Y-103390700D01*
X113863120Y-103441500D01*
X113852960Y-103492300D01*
X113855500Y-103538020D01*
X113870740Y-103581200D01*
X113898680Y-103616760D01*
X113929160Y-103637080D01*
X113959640Y-103647240D01*
X114002820Y-103652320D01*
X114056160Y-103649780D01*
X114112040Y-103642160D01*
X114167920Y-103629460D01*
X114175540Y-103626920D01*
X114259360Y-103596440D01*
X114335560Y-103560880D01*
X114396520Y-103520240D01*
X114447320Y-103474520D01*
X114485420Y-103423720D01*
X114508280Y-103372920D01*
X114515900Y-103319580D01*
X114510820Y-103273860D01*
X114490500Y-103233220D01*
X114460020Y-103197660D01*
X114432080Y-103174800D01*
X114404140Y-103167180D01*
X114366040Y-103162100D01*
X114317780Y-103162100D01*
X114678460Y-103162100D01*
X114708940Y-103200200D01*
X114734340Y-103258620D01*
X114747040Y-103322120D01*
X114744500Y-103390700D01*
X114731800Y-103446580D01*
X114698780Y-103517700D01*
X114653060Y-103588820D01*
X114592100Y-103654860D01*
X114518440Y-103718360D01*
X114432080Y-103774240D01*
X114338100Y-103825040D01*
X114266980Y-103855520D01*
X114170460Y-103888540D01*
X114081560Y-103911400D01*
X113997740Y-103926640D01*
X113913920Y-103931720D01*
X113901220Y-103931720D01*
X113855500Y-103931720D01*
X113825020Y-103929180D01*
X113799620Y-103926640D01*
X113779300Y-103921560D01*
X113758980Y-103913940D01*
X113738660Y-103903780D01*
X113690400Y-103875840D01*
X113654840Y-103840280D01*
X113629440Y-103794560D01*
X113614200Y-103738680D01*
X113611660Y-103672640D01*
X113616740Y-103601520D01*
X113637060Y-103532940D01*
X113670080Y-103464360D01*
X113718340Y-103395780D01*
X113738660Y-103370380D01*
X113756440Y-103347520D01*
X113769140Y-103329740D01*
X113771680Y-103322120D01*
X113771680Y-103322120D01*
X113764060Y-103324660D01*
X113743740Y-103332280D01*
X113708180Y-103342440D01*
X113667540Y-103355140D01*
X113616740Y-103370380D01*
X113563400Y-103388160D01*
X113512600Y-103403400D01*
X113217960Y-103403400D01*
X113210340Y-103408480D01*
X113192560Y-103421180D01*
X113162080Y-103444040D01*
X113123980Y-103471980D01*
X113078260Y-103507540D01*
X113024920Y-103548180D01*
X112966500Y-103591360D01*
X112930940Y-103619300D01*
X112872520Y-103665020D01*
X112816640Y-103708200D01*
X112768380Y-103748840D01*
X112727740Y-103781860D01*
X112692180Y-103809800D01*
X112669320Y-103830120D01*
X112656620Y-103840280D01*
X112656620Y-103842820D01*
X112666780Y-103850440D01*
X112689640Y-103863140D01*
X112722660Y-103878380D01*
X112765840Y-103898700D01*
X112811560Y-103921560D01*
X112864900Y-103946960D01*
X112918240Y-103972360D01*
X112974120Y-103997760D01*
X113024920Y-104020620D01*
X113073180Y-104043480D01*
X113111280Y-104061260D01*
X113144300Y-104073960D01*
X113164620Y-104081580D01*
X113172240Y-104084120D01*
X113172240Y-104073960D01*
X113174780Y-104051100D01*
X113177320Y-104015540D01*
X113182400Y-103967280D01*
X113187480Y-103913940D01*
X113190020Y-103852980D01*
X113195100Y-103789480D01*
X113200180Y-103723440D01*
X113205260Y-103657400D01*
X113207800Y-103596440D01*
X113212880Y-103538020D01*
X113215420Y-103487220D01*
X113217960Y-103449120D01*
X113217960Y-103418640D01*
X113217960Y-103405940D01*
X113217960Y-103403400D01*
X113512600Y-103403400D01*
X113507520Y-103405940D01*
X113451640Y-103423720D01*
X113398300Y-103441500D01*
X113350040Y-103456740D01*
X113309400Y-103469440D01*
X113276380Y-103479600D01*
X113258600Y-103487220D01*
X113250980Y-103489760D01*
X113248440Y-103499920D01*
X113245900Y-103525320D01*
X113240820Y-103563420D01*
X113235740Y-103611680D01*
X113228120Y-103670100D01*
X113223040Y-103738680D01*
X113215420Y-103809800D01*
X113207800Y-103888540D01*
X113200180Y-103967280D01*
X113192560Y-104048560D01*
X113184940Y-104127300D01*
X113177320Y-104203500D01*
X113172240Y-104277160D01*
X113167160Y-104343200D01*
X113162080Y-104399080D01*
X113159540Y-104421940D01*
X113154460Y-104493060D01*
X113151920Y-104559100D01*
X113146840Y-104614980D01*
X113144300Y-104665780D01*
X113139220Y-104701340D01*
X113139220Y-104726740D01*
X113136680Y-104736900D01*
X113136680Y-104736900D01*
X113129060Y-104731820D01*
X113108740Y-104721660D01*
X113075720Y-104701340D01*
X113032540Y-104675940D01*
X112979200Y-104645460D01*
X112918240Y-104607360D01*
X112849660Y-104566720D01*
X112776000Y-104523540D01*
X112702340Y-104477820D01*
X112610900Y-104421940D01*
X112532160Y-104376220D01*
X112468660Y-104338120D01*
X112415320Y-104305100D01*
X112369600Y-104279700D01*
X112336580Y-104259380D01*
X112308640Y-104246680D01*
X112288320Y-104236520D01*
X112273080Y-104228900D01*
X112262920Y-104226360D01*
X112255300Y-104223820D01*
X112250220Y-104226360D01*
X112247680Y-104226360D01*
X112240060Y-104233980D01*
X112217200Y-104251760D01*
X112186720Y-104279700D01*
X112143540Y-104312720D01*
X112095280Y-104355900D01*
X112036860Y-104404160D01*
X111973360Y-104457500D01*
X111902240Y-104515920D01*
X111828580Y-104576880D01*
X111777780Y-104620060D01*
X111701580Y-104683560D01*
X111630460Y-104741980D01*
X111564420Y-104797860D01*
X111503460Y-104848660D01*
X111450120Y-104894380D01*
X111404400Y-104932480D01*
X111366300Y-104960420D01*
X111340900Y-104983280D01*
X111325660Y-104995980D01*
X111323120Y-104998520D01*
X111320580Y-104988360D01*
X111323120Y-104965500D01*
X111325660Y-104927400D01*
X111328200Y-104881680D01*
X111330740Y-104823260D01*
X111333280Y-104759760D01*
X111338360Y-104696260D01*
X111358680Y-104396540D01*
X111635540Y-104185720D01*
X111696500Y-104140000D01*
X111749840Y-104099360D01*
X111800640Y-104061260D01*
X111841280Y-104028240D01*
X111874300Y-104000300D01*
X111897160Y-103982520D01*
X111907320Y-103972360D01*
X111909860Y-103969820D01*
X111899700Y-103964740D01*
X111879380Y-103954580D01*
X111846360Y-103936800D01*
X111803180Y-103916480D01*
X111752380Y-103891080D01*
X111696500Y-103860600D01*
X111666020Y-103847900D01*
X111427260Y-103728520D01*
X111419640Y-103665020D01*
X111417100Y-103642160D01*
X111417100Y-103606600D01*
X111419640Y-103563420D01*
X111419640Y-103510080D01*
X111422180Y-103451660D01*
X111424720Y-103390700D01*
X111427260Y-103329740D01*
X111432340Y-103271320D01*
X111434880Y-103215440D01*
X111437420Y-103169720D01*
X111442500Y-103134160D01*
X111445040Y-103108760D01*
X111447580Y-103101140D01*
X111455200Y-103103680D01*
X111475520Y-103113840D01*
X111511080Y-103134160D01*
X111556800Y-103159560D01*
X111615220Y-103192580D01*
X111681260Y-103233220D01*
X111757460Y-103278940D01*
X111843820Y-103329740D01*
X111866680Y-103344980D01*
X111942880Y-103390700D01*
X112014000Y-103433880D01*
X112082580Y-103474520D01*
X112141000Y-103510080D01*
X112191800Y-103540560D01*
X112234980Y-103563420D01*
X112265460Y-103581200D01*
X112285780Y-103591360D01*
X112290860Y-103593900D01*
X112298480Y-103588820D01*
X112318800Y-103571040D01*
X112346740Y-103548180D01*
X112387380Y-103515160D01*
X112433100Y-103474520D01*
X112486440Y-103431340D01*
X112544860Y-103380540D01*
X112608360Y-103327200D01*
X112674400Y-103271320D01*
X112742980Y-103215440D01*
X112809020Y-103157020D01*
X112875060Y-103098600D01*
X112941100Y-103042720D01*
X113004600Y-102989380D01*
X113060480Y-102941120D01*
X113113820Y-102895400D01*
X113159540Y-102857300D01*
X113195100Y-102826820D01*
X113223040Y-102801420D01*
X113240820Y-102786180D01*
X113243360Y-102783640D01*
X113250980Y-102776020D01*
X113256060Y-102763320D01*
X113258600Y-102745540D01*
X113263680Y-102720140D01*
X113266220Y-102682040D01*
X113268760Y-102631240D01*
X113271300Y-102613460D01*
X113273840Y-102562660D01*
X113276380Y-102519480D01*
X113276380Y-102486460D01*
X113278920Y-102463600D01*
X113276380Y-102453440D01*
X113268760Y-102455980D01*
X113243360Y-102458520D01*
X113205260Y-102463600D01*
X113154460Y-102471220D01*
X113088420Y-102481380D01*
X113012220Y-102494080D01*
X112925860Y-102506780D01*
X112831880Y-102522020D01*
X112730280Y-102539800D01*
X112618520Y-102557580D01*
X112504220Y-102575360D01*
X112382300Y-102595680D01*
X112372140Y-102595680D01*
X112250220Y-102616000D01*
X112135920Y-102633780D01*
X112024160Y-102651560D01*
X111920020Y-102669340D01*
X111823500Y-102684580D01*
X111737140Y-102697280D01*
X111660940Y-102709980D01*
X111594900Y-102720140D01*
X111541560Y-102727760D01*
X111503460Y-102735380D01*
X111478060Y-102737920D01*
X111467900Y-102740460D01*
X111467900Y-102730300D01*
X111470440Y-102707440D01*
X111472980Y-102671880D01*
X111475520Y-102628700D01*
X111478060Y-102575360D01*
X111480600Y-102522020D01*
X111485680Y-102463600D01*
X111490760Y-102407720D01*
X111493300Y-102354380D01*
X111495840Y-102308660D01*
X111500920Y-102268020D01*
X111503460Y-102242620D01*
X111503460Y-102227380D01*
X111503460Y-102224840D01*
X111513620Y-102224840D01*
X111536480Y-102219760D01*
X111574580Y-102212140D01*
X111625380Y-102204520D01*
X111686340Y-102194360D01*
X111757460Y-102181660D01*
X111836200Y-102168960D01*
X111922560Y-102153720D01*
X112014000Y-102138480D01*
X112039400Y-102135940D01*
X112133380Y-102120700D01*
X112222280Y-102105460D01*
X112306100Y-102092760D01*
X112384840Y-102080060D01*
X112453420Y-102067360D01*
X112511840Y-102057200D01*
X112557560Y-102049580D01*
X112590580Y-102044500D01*
X112610900Y-102039420D01*
X112610900Y-102039420D01*
X112638840Y-102031800D01*
X112674400Y-102016560D01*
X112712500Y-102001320D01*
X112725200Y-101996240D01*
X112798860Y-101950520D01*
X112864900Y-101892100D01*
X112918240Y-101823520D01*
X112958880Y-101744780D01*
X112986820Y-101655880D01*
X113002060Y-101561900D01*
X113002060Y-101511100D01*
X112999520Y-101445060D01*
X112986820Y-101391720D01*
X112966500Y-101348540D01*
X112951260Y-101328220D01*
X112925860Y-101305360D01*
X112897920Y-101287580D01*
X112864900Y-101277420D01*
X112819180Y-101272340D01*
X112791240Y-101269800D01*
X112776000Y-101269800D01*
X112755680Y-101269800D01*
X112735360Y-101272340D01*
X112707420Y-101274880D01*
X112676940Y-101277420D01*
X112636300Y-101282500D01*
X112588040Y-101290120D01*
X112532160Y-101297740D01*
X112463580Y-101307900D01*
X112382300Y-101320600D01*
X112288320Y-101335840D01*
X112179100Y-101353620D01*
X112153700Y-101356160D01*
X112059720Y-101371400D01*
X111968280Y-101386640D01*
X111884460Y-101401880D01*
X111805720Y-101412040D01*
X111737140Y-101424740D01*
X111678720Y-101434900D01*
X111633000Y-101442520D01*
X111599980Y-101447600D01*
X111579660Y-101450140D01*
X111577120Y-101450140D01*
X111564420Y-101452680D01*
X111559340Y-101445060D01*
X111556800Y-101427280D01*
X111556800Y-101419660D01*
X111559340Y-101401880D01*
X111559340Y-101368860D01*
X111561880Y-101325680D01*
X111564420Y-101272340D01*
X111569500Y-101213920D01*
X111572040Y-101160580D01*
X111577120Y-101094540D01*
X111579660Y-101043740D01*
X111582200Y-101005640D01*
X111587280Y-100977700D01*
X111589820Y-100957380D01*
X111592360Y-100947220D01*
X111597440Y-100939600D01*
X111602520Y-100937060D01*
X111605060Y-100937060D01*
X111615220Y-100934520D01*
X111640620Y-100929440D01*
X111681260Y-100921820D01*
X111734600Y-100914200D01*
X111798100Y-100904040D01*
X111871760Y-100891340D01*
X111955580Y-100878640D01*
X112044480Y-100863400D01*
X112138460Y-100848160D01*
X112201960Y-100838000D01*
X112313720Y-100820220D01*
X112412780Y-100802440D01*
X112496600Y-100789740D01*
X112567720Y-100779580D01*
X112628680Y-100769420D01*
X112682020Y-100761800D01*
X112725200Y-100756720D01*
X112760760Y-100751640D01*
X112791240Y-100749100D01*
X112816640Y-100746560D01*
X112842040Y-100744020D01*
X112867440Y-100744020D01*
X112892840Y-100741480D01*
X112910620Y-100741480D01*
X112974120Y-100744020D01*
X113022380Y-100744020D01*
X113063020Y-100749100D01*
X113098580Y-100759260D01*
X113134140Y-100771960D01*
X113172240Y-100789740D01*
X113182400Y-100794820D01*
X113248440Y-100838000D01*
X113304320Y-100893880D01*
X113344960Y-100957380D01*
X113360200Y-100985320D01*
X113370360Y-101000560D01*
X113375440Y-101003100D01*
X113375440Y-100992940D01*
X113375440Y-100982780D01*
X113375440Y-100970080D01*
X113377980Y-100942140D01*
X113380520Y-100898960D01*
X113383060Y-100843080D01*
X113388140Y-100777040D01*
X113393220Y-100698300D01*
X113398300Y-100611940D01*
X113405920Y-100517960D01*
X113411000Y-100416360D01*
X113418620Y-100309680D01*
X113421160Y-100251260D01*
X113428780Y-100144580D01*
X113436400Y-100040440D01*
X113441480Y-99943920D01*
X113446560Y-99855020D01*
X113451640Y-99776280D01*
X113456720Y-99705160D01*
X113459260Y-99646740D01*
X113461800Y-99598480D01*
X113464340Y-99565460D01*
X113464340Y-99547680D01*
X113464340Y-99545140D01*
X113456720Y-99545140D01*
X113431320Y-99550220D01*
X113393220Y-99555300D01*
X113342420Y-99562920D01*
X113281460Y-99573080D01*
X113207800Y-99585780D01*
X113123980Y-99598480D01*
X113035080Y-99613720D01*
X112936020Y-99628960D01*
X112834420Y-99644200D01*
X112727740Y-99661980D01*
X112618520Y-99679760D01*
X112506760Y-99697540D01*
X112395000Y-99715320D01*
X112283240Y-99733100D01*
X112174020Y-99750880D01*
X112067340Y-99768660D01*
X111963200Y-99783900D01*
X111866680Y-99799140D01*
X111777780Y-99814380D01*
X111696500Y-99827080D01*
X111625380Y-99839780D01*
X111564420Y-99849940D01*
X111513620Y-99857560D01*
X111478060Y-99862640D01*
X111457740Y-99867720D01*
X111450120Y-99867720D01*
X111450120Y-99877880D01*
X111447580Y-99900740D01*
X111445040Y-99938840D01*
X111442500Y-99987100D01*
X111437420Y-100045520D01*
X111432340Y-100114100D01*
X111427260Y-100190300D01*
X111422180Y-100266500D01*
X111417100Y-100347780D01*
X111412020Y-100423980D01*
X111406940Y-100495100D01*
X111404400Y-100556060D01*
X111399320Y-100606860D01*
X111396780Y-100644960D01*
X111396780Y-100672900D01*
X111394240Y-100683060D01*
X111391700Y-100688140D01*
X111386620Y-100693220D01*
X111376460Y-100698300D01*
X111358680Y-100700840D01*
X111330740Y-100705920D01*
X111292640Y-100713540D01*
X111241840Y-100721160D01*
X111180880Y-100731320D01*
X111122460Y-100738940D01*
X111071660Y-100746560D01*
X111028480Y-100751640D01*
X110992920Y-100756720D01*
X110972600Y-100759260D01*
X110967520Y-100759260D01*
X110967520Y-100749100D01*
X110967520Y-100726240D01*
X110970060Y-100685600D01*
X110972600Y-100634800D01*
X110977680Y-100571300D01*
X110980220Y-100495100D01*
X110987840Y-100411280D01*
X110992920Y-100317300D01*
X110998000Y-100218240D01*
X111005620Y-100111560D01*
X111013240Y-99999800D01*
X111020860Y-99885500D01*
X111028480Y-99768660D01*
X111036100Y-99651820D01*
X111043720Y-99532440D01*
X111051340Y-99418140D01*
X111058960Y-99303840D01*
X111066580Y-99192080D01*
X111074200Y-99087940D01*
X111081820Y-98988880D01*
X111086900Y-98897440D01*
X111094520Y-98813620D01*
X111099600Y-98739960D01*
X111102140Y-98679000D01*
X111107220Y-98628200D01*
X111109760Y-98592640D01*
X111112300Y-98569780D01*
X111112300Y-98564700D01*
X111122460Y-98562160D01*
X111145320Y-98557080D01*
X111178340Y-98549460D01*
X111221520Y-98541840D01*
X111269780Y-98531680D01*
X111320580Y-98524060D01*
X111371380Y-98513900D01*
X111422180Y-98506280D01*
X111465360Y-98498660D01*
X111500920Y-98493580D01*
X111526320Y-98488500D01*
X111536480Y-98488500D01*
X111536480Y-98488500D01*
X111536480Y-98488500D01*
G37*
X111536480Y-98488500D02*
X111539020Y-98488500D01*
X111539020Y-98496120D01*
X111536480Y-98521520D01*
X111533940Y-98557080D01*
X111531400Y-98607880D01*
X111528860Y-98666300D01*
X111523780Y-98732340D01*
X111518700Y-98808540D01*
X111516160Y-98866960D01*
X111508540Y-98945700D01*
X111506000Y-99021900D01*
X111500920Y-99090480D01*
X111498380Y-99151440D01*
X111495840Y-99202240D01*
X111493300Y-99242880D01*
X111490760Y-99268280D01*
X111493300Y-99278440D01*
X111493300Y-99311460D01*
X112595660Y-99136200D01*
X112730280Y-99115880D01*
X112857280Y-99093020D01*
X112981740Y-99075240D01*
X113101120Y-99054920D01*
X113212880Y-99037140D01*
X113314480Y-99021900D01*
X113408460Y-99006660D01*
X113492280Y-98991420D01*
X113563400Y-98981260D01*
X113621820Y-98971100D01*
X113667540Y-98963480D01*
X113698020Y-98958400D01*
X113715800Y-98955860D01*
X113715800Y-98955860D01*
X113733580Y-98955860D01*
X113738660Y-98963480D01*
X113741200Y-98976180D01*
X113738660Y-98986340D01*
X113736120Y-99014280D01*
X113731040Y-99057460D01*
X113725960Y-99113340D01*
X113718340Y-99179380D01*
X113710720Y-99260660D01*
X113700560Y-99349560D01*
X113690400Y-99451160D01*
X113677700Y-99560380D01*
X113665000Y-99674680D01*
X113652300Y-99796600D01*
X113639600Y-99926140D01*
X113624360Y-100042980D01*
X113611660Y-100175060D01*
X113596420Y-100302060D01*
X113583720Y-100421440D01*
X113571020Y-100535740D01*
X113560860Y-100642420D01*
X113550700Y-100741480D01*
X113540540Y-100827840D01*
X113532920Y-100906580D01*
X113525300Y-100970080D01*
X113520220Y-101023420D01*
X113515140Y-101061520D01*
X113512600Y-101084380D01*
X113512600Y-101092000D01*
X113520220Y-101092000D01*
X113543080Y-101081840D01*
X113578640Y-101069140D01*
X113624360Y-101051360D01*
X113680240Y-101028500D01*
X113743740Y-101000560D01*
X113817400Y-100970080D01*
X113893600Y-100937060D01*
X113941860Y-100916740D01*
X114020600Y-100883720D01*
X114096800Y-100850700D01*
X114165380Y-100822760D01*
X114226340Y-100797360D01*
X114279680Y-100774500D01*
X114320320Y-100756720D01*
X114350800Y-100744020D01*
X114366040Y-100738940D01*
X114371120Y-100738940D01*
X114371120Y-100746560D01*
X114373660Y-100771960D01*
X114381280Y-100810060D01*
X114386360Y-100860860D01*
X114396520Y-100926900D01*
X114406680Y-101000560D01*
X114416840Y-101084380D01*
X114421920Y-101130100D01*
X114137440Y-101130100D01*
X114127280Y-101132640D01*
X114106960Y-101140260D01*
X114073940Y-101150420D01*
X114028220Y-101168200D01*
X113977420Y-101185980D01*
X113921540Y-101208840D01*
X113860580Y-101231700D01*
X113799620Y-101257100D01*
X113736120Y-101279960D01*
X113677700Y-101302820D01*
X113621820Y-101325680D01*
X113573560Y-101343460D01*
X113532920Y-101361240D01*
X113502440Y-101373940D01*
X113484660Y-101381560D01*
X113479580Y-101381560D01*
X113479580Y-101391720D01*
X113474500Y-101414580D01*
X113471960Y-101452680D01*
X113464340Y-101506020D01*
X113456720Y-101566980D01*
X113449100Y-101640640D01*
X113446560Y-101676200D01*
X113329720Y-101676200D01*
X113327180Y-101676200D01*
X113319560Y-101683820D01*
X113304320Y-101704140D01*
X113284000Y-101729540D01*
X113266220Y-101757480D01*
X113228120Y-101810820D01*
X113179860Y-101864160D01*
X113139220Y-101907340D01*
X113108740Y-101935280D01*
X113085880Y-101958140D01*
X113070640Y-101975920D01*
X113063020Y-101983540D01*
X113063020Y-101983540D01*
X113073180Y-101983540D01*
X113093500Y-101981000D01*
X113126520Y-101975920D01*
X113162080Y-101970840D01*
X113200180Y-101965760D01*
X113238280Y-101960680D01*
X113271300Y-101955600D01*
X113291620Y-101950520D01*
X113296700Y-101950520D01*
X113304320Y-101947980D01*
X113309400Y-101942900D01*
X113311940Y-101930200D01*
X113317020Y-101909880D01*
X113319560Y-101879400D01*
X113322100Y-101833680D01*
X113322100Y-101820980D01*
X113324640Y-101775260D01*
X113327180Y-101737160D01*
X113329720Y-101706680D01*
X113332260Y-101688900D01*
X113332260Y-101683820D01*
X113329720Y-101676200D01*
X113446560Y-101676200D01*
X113441480Y-101721920D01*
X113431320Y-101810820D01*
X113421160Y-101907340D01*
X113411000Y-102008940D01*
X113398300Y-102113080D01*
X113388140Y-102219760D01*
X113375440Y-102326440D01*
X113365280Y-102433120D01*
X113352580Y-102539800D01*
X113342420Y-102641400D01*
X113332260Y-102740460D01*
X113322100Y-102831900D01*
X113314480Y-102918260D01*
X113306860Y-102994460D01*
X113299240Y-103063040D01*
X113294160Y-103118920D01*
X113289080Y-103164640D01*
X113286540Y-103195120D01*
X113284000Y-103210360D01*
X113284000Y-103212900D01*
X113294160Y-103210360D01*
X113317020Y-103205280D01*
X113355120Y-103195120D01*
X113403380Y-103179880D01*
X113461800Y-103162100D01*
X113532920Y-103139240D01*
X113609120Y-103116380D01*
X113692940Y-103088440D01*
X113781840Y-103060500D01*
X113809780Y-103052880D01*
X113941860Y-103009700D01*
X114058700Y-102971600D01*
X114162840Y-102938580D01*
X114251740Y-102910640D01*
X114330480Y-102885240D01*
X114393980Y-102864920D01*
X114449860Y-102847140D01*
X114495580Y-102831900D01*
X114531140Y-102819200D01*
X114561620Y-102809040D01*
X114581940Y-102801420D01*
X114597180Y-102796340D01*
X114609880Y-102791260D01*
X114614960Y-102788720D01*
X114617500Y-102786180D01*
X114620040Y-102783640D01*
X114617500Y-102781100D01*
X114617500Y-102778560D01*
X114617500Y-102778560D01*
X114614960Y-102763320D01*
X114612420Y-102735380D01*
X114607340Y-102702360D01*
X114607340Y-102692200D01*
X114604800Y-102656640D01*
X114599720Y-102636320D01*
X114594640Y-102626160D01*
X114587020Y-102623620D01*
X114587020Y-102623620D01*
X114569240Y-102623620D01*
X114554000Y-102616000D01*
X114541300Y-102610920D01*
X114526060Y-102608380D01*
X114503200Y-102608380D01*
X114477800Y-102613460D01*
X114442240Y-102621080D01*
X114396520Y-102631240D01*
X114340640Y-102649020D01*
X114272060Y-102669340D01*
X114188240Y-102694740D01*
X114175540Y-102699820D01*
X114091720Y-102725220D01*
X114020600Y-102748080D01*
X113962180Y-102765860D01*
X113913920Y-102778560D01*
X113875820Y-102788720D01*
X113847880Y-102796340D01*
X113825020Y-102798880D01*
X113804700Y-102801420D01*
X113789460Y-102798880D01*
X113781840Y-102798880D01*
X113736120Y-102781100D01*
X113698020Y-102750620D01*
X113667540Y-102704900D01*
X113647220Y-102646480D01*
X113634520Y-102577900D01*
X113631980Y-102496620D01*
X113637060Y-102402640D01*
X113639600Y-102384860D01*
X113657380Y-102285800D01*
X113685320Y-102196900D01*
X113723420Y-102120700D01*
X113771680Y-102057200D01*
X113779300Y-102052120D01*
X113802160Y-102029260D01*
X113830100Y-102008940D01*
X113860580Y-101988620D01*
X113885980Y-101973380D01*
X113906300Y-101965760D01*
X113916460Y-101965760D01*
X113919000Y-101975920D01*
X113919000Y-101998780D01*
X113921540Y-102034340D01*
X113924080Y-102074980D01*
X113924080Y-102085140D01*
X113929160Y-102196900D01*
X113898680Y-102214680D01*
X113860580Y-102250240D01*
X113832640Y-102295960D01*
X113817400Y-102351840D01*
X113814860Y-102417880D01*
X113817400Y-102445820D01*
X113822480Y-102478840D01*
X113830100Y-102501700D01*
X113842800Y-102516940D01*
X113845340Y-102519480D01*
X113875820Y-102534720D01*
X113908840Y-102534720D01*
X113941860Y-102522020D01*
X113957100Y-102509320D01*
X113972340Y-102496620D01*
X113982500Y-102478840D01*
X113990120Y-102453440D01*
X113997740Y-102420420D01*
X114002820Y-102377240D01*
X114007900Y-102318820D01*
X114010440Y-102275640D01*
X114015520Y-102227380D01*
X114020600Y-102179120D01*
X114023140Y-102138480D01*
X114028220Y-102108000D01*
X114028220Y-102102920D01*
X114046000Y-102041960D01*
X114071400Y-101981000D01*
X114104420Y-101927660D01*
X114134900Y-101887020D01*
X114183160Y-101851460D01*
X114233960Y-101826060D01*
X114287300Y-101813360D01*
X114338100Y-101813360D01*
X114386360Y-101826060D01*
X114429540Y-101851460D01*
X114432080Y-101854000D01*
X114444780Y-101864160D01*
X114452400Y-101866700D01*
X114452400Y-101864160D01*
X114449860Y-101851460D01*
X114444780Y-101826060D01*
X114439700Y-101793040D01*
X114432080Y-101757480D01*
X114424460Y-101719380D01*
X114419380Y-101688900D01*
X114414300Y-101666040D01*
X114409220Y-101655880D01*
X114409220Y-101655880D01*
X114399060Y-101655880D01*
X114376200Y-101658420D01*
X114343180Y-101660960D01*
X114307620Y-101668580D01*
X114269520Y-101673660D01*
X114239040Y-101678740D01*
X114216180Y-101681280D01*
X114208560Y-101681280D01*
X114208560Y-101673660D01*
X114203480Y-101648260D01*
X114198400Y-101612700D01*
X114193320Y-101564440D01*
X114185700Y-101508560D01*
X114178080Y-101447600D01*
X114173000Y-101406960D01*
X114165380Y-101340920D01*
X114157760Y-101279960D01*
X114150140Y-101226620D01*
X114145060Y-101183440D01*
X114139980Y-101150420D01*
X114137440Y-101132640D01*
X114137440Y-101130100D01*
X114421920Y-101130100D01*
X114429540Y-101175820D01*
X114442240Y-101277420D01*
X114454940Y-101381560D01*
X114470180Y-101493320D01*
X114485420Y-101610160D01*
X114500660Y-101727000D01*
X114515900Y-101846380D01*
X114531140Y-101965760D01*
X114543840Y-102062280D01*
X114282220Y-102062280D01*
X114246660Y-102072440D01*
X114213640Y-102092760D01*
X114208560Y-102097840D01*
X114190780Y-102118160D01*
X114178080Y-102143560D01*
X114167920Y-102179120D01*
X114160300Y-102224840D01*
X114155220Y-102262940D01*
X114147600Y-102308660D01*
X114139980Y-102356920D01*
X114134900Y-102397560D01*
X114132360Y-102402640D01*
X114127280Y-102433120D01*
X114124740Y-102455980D01*
X114124740Y-102468680D01*
X114124740Y-102468680D01*
X114132360Y-102466140D01*
X114152680Y-102461060D01*
X114180620Y-102453440D01*
X114211100Y-102443280D01*
X114239040Y-102430580D01*
X114261900Y-102420420D01*
X114264440Y-102420420D01*
X114307620Y-102389940D01*
X114345720Y-102344220D01*
X114373660Y-102290880D01*
X114383820Y-102250240D01*
X114386360Y-102217220D01*
X114386360Y-102176580D01*
X114378740Y-102138480D01*
X114371120Y-102108000D01*
X114368580Y-102102920D01*
X114348260Y-102077520D01*
X114317780Y-102064820D01*
X114282220Y-102062280D01*
X114543840Y-102062280D01*
X114546380Y-102085140D01*
X114561620Y-102199440D01*
X114564160Y-102222300D01*
X114518440Y-102222300D01*
X114513360Y-102227380D01*
X114505740Y-102242620D01*
X114503200Y-102252780D01*
X114493040Y-102280720D01*
X114477800Y-102313740D01*
X114467640Y-102331520D01*
X114442240Y-102374700D01*
X114482880Y-102372160D01*
X114513360Y-102369620D01*
X114531140Y-102364540D01*
X114541300Y-102356920D01*
X114543840Y-102341680D01*
X114538760Y-102313740D01*
X114533680Y-102285800D01*
X114528600Y-102255320D01*
X114523520Y-102232460D01*
X114518440Y-102222300D01*
X114564160Y-102222300D01*
X114576860Y-102313740D01*
X114589560Y-102422960D01*
X114602260Y-102524560D01*
X114614960Y-102621080D01*
X114627660Y-102707440D01*
X114637820Y-102786180D01*
X114645440Y-102854760D01*
X114653060Y-102910640D01*
X114658140Y-102956360D01*
X114660680Y-102984300D01*
X114663220Y-102999540D01*
X114663220Y-102999540D01*
X114660680Y-103009700D01*
X114650520Y-103017320D01*
X114630200Y-103027480D01*
X114597180Y-103040180D01*
X114589560Y-103042720D01*
X114515900Y-103065580D01*
X114559080Y-103080820D01*
X114620040Y-103108760D01*
X114670840Y-103149400D01*
X114678460Y-103162100D01*
X114317780Y-103162100D01*
X114269520Y-103164640D01*
X114223800Y-103172260D01*
X114198400Y-103177340D01*
X114142520Y-103195120D01*
X114086640Y-103217980D01*
X114035840Y-103245920D01*
X113990120Y-103273860D01*
X113967260Y-103291640D01*
X113921540Y-103339900D01*
X113885980Y-103390700D01*
X113863120Y-103441500D01*
X113852960Y-103492300D01*
X113855500Y-103538020D01*
X113870740Y-103581200D01*
X113898680Y-103616760D01*
X113929160Y-103637080D01*
X113959640Y-103647240D01*
X114002820Y-103652320D01*
X114056160Y-103649780D01*
X114112040Y-103642160D01*
X114167920Y-103629460D01*
X114175540Y-103626920D01*
X114259360Y-103596440D01*
X114335560Y-103560880D01*
X114396520Y-103520240D01*
X114447320Y-103474520D01*
X114485420Y-103423720D01*
X114508280Y-103372920D01*
X114515900Y-103319580D01*
X114510820Y-103273860D01*
X114490500Y-103233220D01*
X114460020Y-103197660D01*
X114432080Y-103174800D01*
X114404140Y-103167180D01*
X114366040Y-103162100D01*
X114317780Y-103162100D01*
X114678460Y-103162100D01*
X114708940Y-103200200D01*
X114734340Y-103258620D01*
X114747040Y-103322120D01*
X114744500Y-103390700D01*
X114731800Y-103446580D01*
X114698780Y-103517700D01*
X114653060Y-103588820D01*
X114592100Y-103654860D01*
X114518440Y-103718360D01*
X114432080Y-103774240D01*
X114338100Y-103825040D01*
X114266980Y-103855520D01*
X114170460Y-103888540D01*
X114081560Y-103911400D01*
X113997740Y-103926640D01*
X113913920Y-103931720D01*
X113901220Y-103931720D01*
X113855500Y-103931720D01*
X113825020Y-103929180D01*
X113799620Y-103926640D01*
X113779300Y-103921560D01*
X113758980Y-103913940D01*
X113738660Y-103903780D01*
X113690400Y-103875840D01*
X113654840Y-103840280D01*
X113629440Y-103794560D01*
X113614200Y-103738680D01*
X113611660Y-103672640D01*
X113616740Y-103601520D01*
X113637060Y-103532940D01*
X113670080Y-103464360D01*
X113718340Y-103395780D01*
X113738660Y-103370380D01*
X113756440Y-103347520D01*
X113769140Y-103329740D01*
X113771680Y-103322120D01*
X113771680Y-103322120D01*
X113764060Y-103324660D01*
X113743740Y-103332280D01*
X113708180Y-103342440D01*
X113667540Y-103355140D01*
X113616740Y-103370380D01*
X113563400Y-103388160D01*
X113512600Y-103403400D01*
X113217960Y-103403400D01*
X113210340Y-103408480D01*
X113192560Y-103421180D01*
X113162080Y-103444040D01*
X113123980Y-103471980D01*
X113078260Y-103507540D01*
X113024920Y-103548180D01*
X112966500Y-103591360D01*
X112930940Y-103619300D01*
X112872520Y-103665020D01*
X112816640Y-103708200D01*
X112768380Y-103748840D01*
X112727740Y-103781860D01*
X112692180Y-103809800D01*
X112669320Y-103830120D01*
X112656620Y-103840280D01*
X112656620Y-103842820D01*
X112666780Y-103850440D01*
X112689640Y-103863140D01*
X112722660Y-103878380D01*
X112765840Y-103898700D01*
X112811560Y-103921560D01*
X112864900Y-103946960D01*
X112918240Y-103972360D01*
X112974120Y-103997760D01*
X113024920Y-104020620D01*
X113073180Y-104043480D01*
X113111280Y-104061260D01*
X113144300Y-104073960D01*
X113164620Y-104081580D01*
X113172240Y-104084120D01*
X113172240Y-104073960D01*
X113174780Y-104051100D01*
X113177320Y-104015540D01*
X113182400Y-103967280D01*
X113187480Y-103913940D01*
X113190020Y-103852980D01*
X113195100Y-103789480D01*
X113200180Y-103723440D01*
X113205260Y-103657400D01*
X113207800Y-103596440D01*
X113212880Y-103538020D01*
X113215420Y-103487220D01*
X113217960Y-103449120D01*
X113217960Y-103418640D01*
X113217960Y-103405940D01*
X113217960Y-103403400D01*
X113512600Y-103403400D01*
X113507520Y-103405940D01*
X113451640Y-103423720D01*
X113398300Y-103441500D01*
X113350040Y-103456740D01*
X113309400Y-103469440D01*
X113276380Y-103479600D01*
X113258600Y-103487220D01*
X113250980Y-103489760D01*
X113248440Y-103499920D01*
X113245900Y-103525320D01*
X113240820Y-103563420D01*
X113235740Y-103611680D01*
X113228120Y-103670100D01*
X113223040Y-103738680D01*
X113215420Y-103809800D01*
X113207800Y-103888540D01*
X113200180Y-103967280D01*
X113192560Y-104048560D01*
X113184940Y-104127300D01*
X113177320Y-104203500D01*
X113172240Y-104277160D01*
X113167160Y-104343200D01*
X113162080Y-104399080D01*
X113159540Y-104421940D01*
X113154460Y-104493060D01*
X113151920Y-104559100D01*
X113146840Y-104614980D01*
X113144300Y-104665780D01*
X113139220Y-104701340D01*
X113139220Y-104726740D01*
X113136680Y-104736900D01*
X113136680Y-104736900D01*
X113129060Y-104731820D01*
X113108740Y-104721660D01*
X113075720Y-104701340D01*
X113032540Y-104675940D01*
X112979200Y-104645460D01*
X112918240Y-104607360D01*
X112849660Y-104566720D01*
X112776000Y-104523540D01*
X112702340Y-104477820D01*
X112610900Y-104421940D01*
X112532160Y-104376220D01*
X112468660Y-104338120D01*
X112415320Y-104305100D01*
X112369600Y-104279700D01*
X112336580Y-104259380D01*
X112308640Y-104246680D01*
X112288320Y-104236520D01*
X112273080Y-104228900D01*
X112262920Y-104226360D01*
X112255300Y-104223820D01*
X112250220Y-104226360D01*
X112247680Y-104226360D01*
X112240060Y-104233980D01*
X112217200Y-104251760D01*
X112186720Y-104279700D01*
X112143540Y-104312720D01*
X112095280Y-104355900D01*
X112036860Y-104404160D01*
X111973360Y-104457500D01*
X111902240Y-104515920D01*
X111828580Y-104576880D01*
X111777780Y-104620060D01*
X111701580Y-104683560D01*
X111630460Y-104741980D01*
X111564420Y-104797860D01*
X111503460Y-104848660D01*
X111450120Y-104894380D01*
X111404400Y-104932480D01*
X111366300Y-104960420D01*
X111340900Y-104983280D01*
X111325660Y-104995980D01*
X111323120Y-104998520D01*
X111320580Y-104988360D01*
X111323120Y-104965500D01*
X111325660Y-104927400D01*
X111328200Y-104881680D01*
X111330740Y-104823260D01*
X111333280Y-104759760D01*
X111338360Y-104696260D01*
X111358680Y-104396540D01*
X111635540Y-104185720D01*
X111696500Y-104140000D01*
X111749840Y-104099360D01*
X111800640Y-104061260D01*
X111841280Y-104028240D01*
X111874300Y-104000300D01*
X111897160Y-103982520D01*
X111907320Y-103972360D01*
X111909860Y-103969820D01*
X111899700Y-103964740D01*
X111879380Y-103954580D01*
X111846360Y-103936800D01*
X111803180Y-103916480D01*
X111752380Y-103891080D01*
X111696500Y-103860600D01*
X111666020Y-103847900D01*
X111427260Y-103728520D01*
X111419640Y-103665020D01*
X111417100Y-103642160D01*
X111417100Y-103606600D01*
X111419640Y-103563420D01*
X111419640Y-103510080D01*
X111422180Y-103451660D01*
X111424720Y-103390700D01*
X111427260Y-103329740D01*
X111432340Y-103271320D01*
X111434880Y-103215440D01*
X111437420Y-103169720D01*
X111442500Y-103134160D01*
X111445040Y-103108760D01*
X111447580Y-103101140D01*
X111455200Y-103103680D01*
X111475520Y-103113840D01*
X111511080Y-103134160D01*
X111556800Y-103159560D01*
X111615220Y-103192580D01*
X111681260Y-103233220D01*
X111757460Y-103278940D01*
X111843820Y-103329740D01*
X111866680Y-103344980D01*
X111942880Y-103390700D01*
X112014000Y-103433880D01*
X112082580Y-103474520D01*
X112141000Y-103510080D01*
X112191800Y-103540560D01*
X112234980Y-103563420D01*
X112265460Y-103581200D01*
X112285780Y-103591360D01*
X112290860Y-103593900D01*
X112298480Y-103588820D01*
X112318800Y-103571040D01*
X112346740Y-103548180D01*
X112387380Y-103515160D01*
X112433100Y-103474520D01*
X112486440Y-103431340D01*
X112544860Y-103380540D01*
X112608360Y-103327200D01*
X112674400Y-103271320D01*
X112742980Y-103215440D01*
X112809020Y-103157020D01*
X112875060Y-103098600D01*
X112941100Y-103042720D01*
X113004600Y-102989380D01*
X113060480Y-102941120D01*
X113113820Y-102895400D01*
X113159540Y-102857300D01*
X113195100Y-102826820D01*
X113223040Y-102801420D01*
X113240820Y-102786180D01*
X113243360Y-102783640D01*
X113250980Y-102776020D01*
X113256060Y-102763320D01*
X113258600Y-102745540D01*
X113263680Y-102720140D01*
X113266220Y-102682040D01*
X113268760Y-102631240D01*
X113271300Y-102613460D01*
X113273840Y-102562660D01*
X113276380Y-102519480D01*
X113276380Y-102486460D01*
X113278920Y-102463600D01*
X113276380Y-102453440D01*
X113268760Y-102455980D01*
X113243360Y-102458520D01*
X113205260Y-102463600D01*
X113154460Y-102471220D01*
X113088420Y-102481380D01*
X113012220Y-102494080D01*
X112925860Y-102506780D01*
X112831880Y-102522020D01*
X112730280Y-102539800D01*
X112618520Y-102557580D01*
X112504220Y-102575360D01*
X112382300Y-102595680D01*
X112372140Y-102595680D01*
X112250220Y-102616000D01*
X112135920Y-102633780D01*
X112024160Y-102651560D01*
X111920020Y-102669340D01*
X111823500Y-102684580D01*
X111737140Y-102697280D01*
X111660940Y-102709980D01*
X111594900Y-102720140D01*
X111541560Y-102727760D01*
X111503460Y-102735380D01*
X111478060Y-102737920D01*
X111467900Y-102740460D01*
X111467900Y-102730300D01*
X111470440Y-102707440D01*
X111472980Y-102671880D01*
X111475520Y-102628700D01*
X111478060Y-102575360D01*
X111480600Y-102522020D01*
X111485680Y-102463600D01*
X111490760Y-102407720D01*
X111493300Y-102354380D01*
X111495840Y-102308660D01*
X111500920Y-102268020D01*
X111503460Y-102242620D01*
X111503460Y-102227380D01*
X111503460Y-102224840D01*
X111513620Y-102224840D01*
X111536480Y-102219760D01*
X111574580Y-102212140D01*
X111625380Y-102204520D01*
X111686340Y-102194360D01*
X111757460Y-102181660D01*
X111836200Y-102168960D01*
X111922560Y-102153720D01*
X112014000Y-102138480D01*
X112039400Y-102135940D01*
X112133380Y-102120700D01*
X112222280Y-102105460D01*
X112306100Y-102092760D01*
X112384840Y-102080060D01*
X112453420Y-102067360D01*
X112511840Y-102057200D01*
X112557560Y-102049580D01*
X112590580Y-102044500D01*
X112610900Y-102039420D01*
X112610900Y-102039420D01*
X112638840Y-102031800D01*
X112674400Y-102016560D01*
X112712500Y-102001320D01*
X112725200Y-101996240D01*
X112798860Y-101950520D01*
X112864900Y-101892100D01*
X112918240Y-101823520D01*
X112958880Y-101744780D01*
X112986820Y-101655880D01*
X113002060Y-101561900D01*
X113002060Y-101511100D01*
X112999520Y-101445060D01*
X112986820Y-101391720D01*
X112966500Y-101348540D01*
X112951260Y-101328220D01*
X112925860Y-101305360D01*
X112897920Y-101287580D01*
X112864900Y-101277420D01*
X112819180Y-101272340D01*
X112791240Y-101269800D01*
X112776000Y-101269800D01*
X112755680Y-101269800D01*
X112735360Y-101272340D01*
X112707420Y-101274880D01*
X112676940Y-101277420D01*
X112636300Y-101282500D01*
X112588040Y-101290120D01*
X112532160Y-101297740D01*
X112463580Y-101307900D01*
X112382300Y-101320600D01*
X112288320Y-101335840D01*
X112179100Y-101353620D01*
X112153700Y-101356160D01*
X112059720Y-101371400D01*
X111968280Y-101386640D01*
X111884460Y-101401880D01*
X111805720Y-101412040D01*
X111737140Y-101424740D01*
X111678720Y-101434900D01*
X111633000Y-101442520D01*
X111599980Y-101447600D01*
X111579660Y-101450140D01*
X111577120Y-101450140D01*
X111564420Y-101452680D01*
X111559340Y-101445060D01*
X111556800Y-101427280D01*
X111556800Y-101419660D01*
X111559340Y-101401880D01*
X111559340Y-101368860D01*
X111561880Y-101325680D01*
X111564420Y-101272340D01*
X111569500Y-101213920D01*
X111572040Y-101160580D01*
X111577120Y-101094540D01*
X111579660Y-101043740D01*
X111582200Y-101005640D01*
X111587280Y-100977700D01*
X111589820Y-100957380D01*
X111592360Y-100947220D01*
X111597440Y-100939600D01*
X111602520Y-100937060D01*
X111605060Y-100937060D01*
X111615220Y-100934520D01*
X111640620Y-100929440D01*
X111681260Y-100921820D01*
X111734600Y-100914200D01*
X111798100Y-100904040D01*
X111871760Y-100891340D01*
X111955580Y-100878640D01*
X112044480Y-100863400D01*
X112138460Y-100848160D01*
X112201960Y-100838000D01*
X112313720Y-100820220D01*
X112412780Y-100802440D01*
X112496600Y-100789740D01*
X112567720Y-100779580D01*
X112628680Y-100769420D01*
X112682020Y-100761800D01*
X112725200Y-100756720D01*
X112760760Y-100751640D01*
X112791240Y-100749100D01*
X112816640Y-100746560D01*
X112842040Y-100744020D01*
X112867440Y-100744020D01*
X112892840Y-100741480D01*
X112910620Y-100741480D01*
X112974120Y-100744020D01*
X113022380Y-100744020D01*
X113063020Y-100749100D01*
X113098580Y-100759260D01*
X113134140Y-100771960D01*
X113172240Y-100789740D01*
X113182400Y-100794820D01*
X113248440Y-100838000D01*
X113304320Y-100893880D01*
X113344960Y-100957380D01*
X113360200Y-100985320D01*
X113370360Y-101000560D01*
X113375440Y-101003100D01*
X113375440Y-100992940D01*
X113375440Y-100982780D01*
X113375440Y-100970080D01*
X113377980Y-100942140D01*
X113380520Y-100898960D01*
X113383060Y-100843080D01*
X113388140Y-100777040D01*
X113393220Y-100698300D01*
X113398300Y-100611940D01*
X113405920Y-100517960D01*
X113411000Y-100416360D01*
X113418620Y-100309680D01*
X113421160Y-100251260D01*
X113428780Y-100144580D01*
X113436400Y-100040440D01*
X113441480Y-99943920D01*
X113446560Y-99855020D01*
X113451640Y-99776280D01*
X113456720Y-99705160D01*
X113459260Y-99646740D01*
X113461800Y-99598480D01*
X113464340Y-99565460D01*
X113464340Y-99547680D01*
X113464340Y-99545140D01*
X113456720Y-99545140D01*
X113431320Y-99550220D01*
X113393220Y-99555300D01*
X113342420Y-99562920D01*
X113281460Y-99573080D01*
X113207800Y-99585780D01*
X113123980Y-99598480D01*
X113035080Y-99613720D01*
X112936020Y-99628960D01*
X112834420Y-99644200D01*
X112727740Y-99661980D01*
X112618520Y-99679760D01*
X112506760Y-99697540D01*
X112395000Y-99715320D01*
X112283240Y-99733100D01*
X112174020Y-99750880D01*
X112067340Y-99768660D01*
X111963200Y-99783900D01*
X111866680Y-99799140D01*
X111777780Y-99814380D01*
X111696500Y-99827080D01*
X111625380Y-99839780D01*
X111564420Y-99849940D01*
X111513620Y-99857560D01*
X111478060Y-99862640D01*
X111457740Y-99867720D01*
X111450120Y-99867720D01*
X111450120Y-99877880D01*
X111447580Y-99900740D01*
X111445040Y-99938840D01*
X111442500Y-99987100D01*
X111437420Y-100045520D01*
X111432340Y-100114100D01*
X111427260Y-100190300D01*
X111422180Y-100266500D01*
X111417100Y-100347780D01*
X111412020Y-100423980D01*
X111406940Y-100495100D01*
X111404400Y-100556060D01*
X111399320Y-100606860D01*
X111396780Y-100644960D01*
X111396780Y-100672900D01*
X111394240Y-100683060D01*
X111391700Y-100688140D01*
X111386620Y-100693220D01*
X111376460Y-100698300D01*
X111358680Y-100700840D01*
X111330740Y-100705920D01*
X111292640Y-100713540D01*
X111241840Y-100721160D01*
X111180880Y-100731320D01*
X111122460Y-100738940D01*
X111071660Y-100746560D01*
X111028480Y-100751640D01*
X110992920Y-100756720D01*
X110972600Y-100759260D01*
X110967520Y-100759260D01*
X110967520Y-100749100D01*
X110967520Y-100726240D01*
X110970060Y-100685600D01*
X110972600Y-100634800D01*
X110977680Y-100571300D01*
X110980220Y-100495100D01*
X110987840Y-100411280D01*
X110992920Y-100317300D01*
X110998000Y-100218240D01*
X111005620Y-100111560D01*
X111013240Y-99999800D01*
X111020860Y-99885500D01*
X111028480Y-99768660D01*
X111036100Y-99651820D01*
X111043720Y-99532440D01*
X111051340Y-99418140D01*
X111058960Y-99303840D01*
X111066580Y-99192080D01*
X111074200Y-99087940D01*
X111081820Y-98988880D01*
X111086900Y-98897440D01*
X111094520Y-98813620D01*
X111099600Y-98739960D01*
X111102140Y-98679000D01*
X111107220Y-98628200D01*
X111109760Y-98592640D01*
X111112300Y-98569780D01*
X111112300Y-98564700D01*
X111122460Y-98562160D01*
X111145320Y-98557080D01*
X111178340Y-98549460D01*
X111221520Y-98541840D01*
X111269780Y-98531680D01*
X111320580Y-98524060D01*
X111371380Y-98513900D01*
X111422180Y-98506280D01*
X111465360Y-98498660D01*
X111500920Y-98493580D01*
X111526320Y-98488500D01*
X111536480Y-98488500D01*
X111536480Y-98488500D01*
G36*
X111127540Y-97307400D02*
X111145320Y-97312480D01*
X111165640Y-97327720D01*
X111191040Y-97353120D01*
X111224060Y-97391220D01*
X111231680Y-97398840D01*
X111254540Y-97426780D01*
X111277400Y-97452180D01*
X111305340Y-97475040D01*
X111335820Y-97502980D01*
X111376460Y-97530920D01*
X111429800Y-97563940D01*
X111480600Y-97596960D01*
X111541560Y-97637600D01*
X111589820Y-97665540D01*
X111627920Y-97688400D01*
X111660940Y-97706180D01*
X111686340Y-97716340D01*
X111706660Y-97723960D01*
X111726980Y-97729040D01*
X111729520Y-97729040D01*
X111762540Y-97729040D01*
X111795560Y-97721420D01*
X111833660Y-97701100D01*
X111876840Y-97673160D01*
X111930180Y-97632520D01*
X111947960Y-97617280D01*
X112006380Y-97569020D01*
X112057180Y-97530920D01*
X112102900Y-97500440D01*
X112143540Y-97477580D01*
X112184180Y-97459800D01*
X112191800Y-97457260D01*
X112280700Y-97429320D01*
X112374680Y-97406460D01*
X112478820Y-97388680D01*
X112595660Y-97378520D01*
X112725200Y-97370900D01*
X112740440Y-97370900D01*
X112905540Y-97370900D01*
X113060480Y-97381060D01*
X113202720Y-97403920D01*
X113332260Y-97436940D01*
X113454180Y-97480120D01*
X113507520Y-97505520D01*
X113545620Y-97523300D01*
X113576100Y-97533460D01*
X113601500Y-97536000D01*
X113626900Y-97528380D01*
X113652300Y-97513140D01*
X113685320Y-97485200D01*
X113710720Y-97459800D01*
X113748820Y-97429320D01*
X113776760Y-97411540D01*
X113797080Y-97411540D01*
X113814860Y-97424240D01*
X113814860Y-97426780D01*
X113822480Y-97449640D01*
X113822480Y-97485200D01*
X113822480Y-97538540D01*
X113817400Y-97602040D01*
X113807240Y-97678240D01*
X113802160Y-97723960D01*
X113794540Y-97762060D01*
X113792000Y-97797620D01*
X113786920Y-97830640D01*
X113784380Y-97866200D01*
X113781840Y-97904300D01*
X113781840Y-97944940D01*
X113779300Y-97995740D01*
X113779300Y-98056700D01*
X113779300Y-98130360D01*
X113779300Y-98201480D01*
X113779300Y-98287840D01*
X113779300Y-98358960D01*
X113776760Y-98414840D01*
X113776760Y-98460560D01*
X113774220Y-98496120D01*
X113774220Y-98521520D01*
X113771680Y-98539300D01*
X113769140Y-98549460D01*
X113766600Y-98557080D01*
X113746280Y-98579940D01*
X113720880Y-98585020D01*
X113690400Y-98577400D01*
X113652300Y-98554540D01*
X113609120Y-98516440D01*
X113565940Y-98473260D01*
X113535460Y-98440240D01*
X113507520Y-98417380D01*
X113484660Y-98407220D01*
X113456720Y-98404680D01*
X113426240Y-98412300D01*
X113416080Y-98414840D01*
X113355120Y-98432620D01*
X113304320Y-98445320D01*
X113266220Y-98455480D01*
X113233200Y-98460560D01*
X113205260Y-98465640D01*
X113179860Y-98468180D01*
X113151920Y-98470720D01*
X113118900Y-98470720D01*
X113093500Y-98470720D01*
X113042700Y-98470720D01*
X112979200Y-98465640D01*
X112910620Y-98460560D01*
X112836960Y-98452940D01*
X112768380Y-98445320D01*
X112699800Y-98435160D01*
X112638840Y-98425000D01*
X112590580Y-98417380D01*
X112582960Y-98414840D01*
X112539780Y-98399600D01*
X112486440Y-98379280D01*
X112425480Y-98351340D01*
X112351820Y-98315780D01*
X112303560Y-98287840D01*
X112237520Y-98254820D01*
X112184180Y-98229420D01*
X112141000Y-98209100D01*
X112105440Y-98198940D01*
X112069880Y-98191320D01*
X112039400Y-98188780D01*
X112003840Y-98193860D01*
X111965740Y-98198940D01*
X111960660Y-98201480D01*
X111876840Y-98214180D01*
X111803180Y-98221800D01*
X111734600Y-98216720D01*
X111693960Y-98211640D01*
X111615220Y-98191320D01*
X111549180Y-98158300D01*
X111493300Y-98115120D01*
X111447580Y-98059240D01*
X111424720Y-98021140D01*
X111412020Y-97995740D01*
X111401860Y-97975420D01*
X111391700Y-97955100D01*
X111384080Y-97927160D01*
X111373920Y-97894140D01*
X111363760Y-97850960D01*
X111348520Y-97805240D01*
X111330740Y-97764600D01*
X111310420Y-97723960D01*
X111279940Y-97680780D01*
X111262160Y-97655380D01*
X111203740Y-97576640D01*
X111160560Y-97505520D01*
X111132620Y-97442020D01*
X111114840Y-97388680D01*
X111109760Y-97345500D01*
X111109760Y-97322640D01*
X111114840Y-97312480D01*
X111125000Y-97307400D01*
X111127540Y-97307400D01*
X111127540Y-97307400D01*
X111127540Y-97307400D01*
G37*
X111127540Y-97307400D02*
X111145320Y-97312480D01*
X111165640Y-97327720D01*
X111191040Y-97353120D01*
X111224060Y-97391220D01*
X111231680Y-97398840D01*
X111254540Y-97426780D01*
X111277400Y-97452180D01*
X111305340Y-97475040D01*
X111335820Y-97502980D01*
X111376460Y-97530920D01*
X111429800Y-97563940D01*
X111480600Y-97596960D01*
X111541560Y-97637600D01*
X111589820Y-97665540D01*
X111627920Y-97688400D01*
X111660940Y-97706180D01*
X111686340Y-97716340D01*
X111706660Y-97723960D01*
X111726980Y-97729040D01*
X111729520Y-97729040D01*
X111762540Y-97729040D01*
X111795560Y-97721420D01*
X111833660Y-97701100D01*
X111876840Y-97673160D01*
X111930180Y-97632520D01*
X111947960Y-97617280D01*
X112006380Y-97569020D01*
X112057180Y-97530920D01*
X112102900Y-97500440D01*
X112143540Y-97477580D01*
X112184180Y-97459800D01*
X112191800Y-97457260D01*
X112280700Y-97429320D01*
X112374680Y-97406460D01*
X112478820Y-97388680D01*
X112595660Y-97378520D01*
X112725200Y-97370900D01*
X112740440Y-97370900D01*
X112905540Y-97370900D01*
X113060480Y-97381060D01*
X113202720Y-97403920D01*
X113332260Y-97436940D01*
X113454180Y-97480120D01*
X113507520Y-97505520D01*
X113545620Y-97523300D01*
X113576100Y-97533460D01*
X113601500Y-97536000D01*
X113626900Y-97528380D01*
X113652300Y-97513140D01*
X113685320Y-97485200D01*
X113710720Y-97459800D01*
X113748820Y-97429320D01*
X113776760Y-97411540D01*
X113797080Y-97411540D01*
X113814860Y-97424240D01*
X113814860Y-97426780D01*
X113822480Y-97449640D01*
X113822480Y-97485200D01*
X113822480Y-97538540D01*
X113817400Y-97602040D01*
X113807240Y-97678240D01*
X113802160Y-97723960D01*
X113794540Y-97762060D01*
X113792000Y-97797620D01*
X113786920Y-97830640D01*
X113784380Y-97866200D01*
X113781840Y-97904300D01*
X113781840Y-97944940D01*
X113779300Y-97995740D01*
X113779300Y-98056700D01*
X113779300Y-98130360D01*
X113779300Y-98201480D01*
X113779300Y-98287840D01*
X113779300Y-98358960D01*
X113776760Y-98414840D01*
X113776760Y-98460560D01*
X113774220Y-98496120D01*
X113774220Y-98521520D01*
X113771680Y-98539300D01*
X113769140Y-98549460D01*
X113766600Y-98557080D01*
X113746280Y-98579940D01*
X113720880Y-98585020D01*
X113690400Y-98577400D01*
X113652300Y-98554540D01*
X113609120Y-98516440D01*
X113565940Y-98473260D01*
X113535460Y-98440240D01*
X113507520Y-98417380D01*
X113484660Y-98407220D01*
X113456720Y-98404680D01*
X113426240Y-98412300D01*
X113416080Y-98414840D01*
X113355120Y-98432620D01*
X113304320Y-98445320D01*
X113266220Y-98455480D01*
X113233200Y-98460560D01*
X113205260Y-98465640D01*
X113179860Y-98468180D01*
X113151920Y-98470720D01*
X113118900Y-98470720D01*
X113093500Y-98470720D01*
X113042700Y-98470720D01*
X112979200Y-98465640D01*
X112910620Y-98460560D01*
X112836960Y-98452940D01*
X112768380Y-98445320D01*
X112699800Y-98435160D01*
X112638840Y-98425000D01*
X112590580Y-98417380D01*
X112582960Y-98414840D01*
X112539780Y-98399600D01*
X112486440Y-98379280D01*
X112425480Y-98351340D01*
X112351820Y-98315780D01*
X112303560Y-98287840D01*
X112237520Y-98254820D01*
X112184180Y-98229420D01*
X112141000Y-98209100D01*
X112105440Y-98198940D01*
X112069880Y-98191320D01*
X112039400Y-98188780D01*
X112003840Y-98193860D01*
X111965740Y-98198940D01*
X111960660Y-98201480D01*
X111876840Y-98214180D01*
X111803180Y-98221800D01*
X111734600Y-98216720D01*
X111693960Y-98211640D01*
X111615220Y-98191320D01*
X111549180Y-98158300D01*
X111493300Y-98115120D01*
X111447580Y-98059240D01*
X111424720Y-98021140D01*
X111412020Y-97995740D01*
X111401860Y-97975420D01*
X111391700Y-97955100D01*
X111384080Y-97927160D01*
X111373920Y-97894140D01*
X111363760Y-97850960D01*
X111348520Y-97805240D01*
X111330740Y-97764600D01*
X111310420Y-97723960D01*
X111279940Y-97680780D01*
X111262160Y-97655380D01*
X111203740Y-97576640D01*
X111160560Y-97505520D01*
X111132620Y-97442020D01*
X111114840Y-97388680D01*
X111109760Y-97345500D01*
X111109760Y-97322640D01*
X111114840Y-97312480D01*
X111125000Y-97307400D01*
X111127540Y-97307400D01*
X111127540Y-97307400D01*
M02*
