G04 #@! TF.FileFunction,Soldermask,Top*
%FSLAX46Y46*%
G04 Gerber Fmt 4.6, Leading zero omitted, Abs format (unit mm)*
G04 Created by KiCad (PCBNEW (2014-11-09 BZR 5259)-product) date Sat 15 Nov 2014 10:42:28 PM PST*
%MOMM*%
G01*
G04 APERTURE LIST*
%ADD10C,0.050000*%
%ADD11R,1.524000X1.524000*%
%ADD12C,1.778000*%
%ADD13C,1.651000*%
%ADD14R,0.889000X1.397000*%
%ADD15R,1.143000X0.635000*%
%ADD16R,0.635000X1.143000*%
%ADD17R,1.000760X0.800100*%
%ADD18R,1.399540X0.599440*%
%ADD19C,3.556000*%
%ADD20C,5.080000*%
%ADD21R,1.397000X0.431800*%
%ADD22C,1.968500*%
G04 APERTURE END LIST*
D10*
D11*
X130556000Y-93980000D03*
D12*
X130556000Y-96520000D03*
D13*
X130556000Y-99060000D03*
X130556000Y-101600000D03*
X130556000Y-104140000D03*
X130556000Y-106680000D03*
X130556000Y-109220000D03*
D14*
X115252500Y-106172000D03*
X113347500Y-106172000D03*
X113347500Y-112776000D03*
X115252500Y-112776000D03*
D15*
X115062000Y-108712000D03*
X115062000Y-110236000D03*
D14*
X115252500Y-90170000D03*
X113347500Y-90170000D03*
X113347500Y-96774000D03*
X115252500Y-96774000D03*
D15*
X115062000Y-92710000D03*
X115062000Y-94234000D03*
D16*
X118364000Y-113284000D03*
X116840000Y-113284000D03*
X118186200Y-97282000D03*
X119710200Y-97282000D03*
X109982000Y-106172000D03*
X111506000Y-106172000D03*
X109982000Y-112776000D03*
X111506000Y-112776000D03*
X109982000Y-90170000D03*
X111506000Y-90170000D03*
X109982000Y-96774000D03*
X111506000Y-96774000D03*
X117596920Y-101831140D03*
X119120920Y-101831140D03*
D15*
X121793000Y-97282000D03*
X121793000Y-98806000D03*
D16*
X125095000Y-97155000D03*
X123571000Y-97155000D03*
D15*
X125196600Y-109016800D03*
X125196600Y-107492800D03*
D17*
X110406180Y-109474000D03*
X112605820Y-108521500D03*
X112605820Y-110426500D03*
X110406180Y-93472000D03*
X112605820Y-92519500D03*
X112605820Y-94424500D03*
D18*
X123063000Y-107569000D03*
X117729000Y-107569000D03*
X123063000Y-108839000D03*
X123063000Y-110109000D03*
X123063000Y-111379000D03*
X117729000Y-108839000D03*
X117729000Y-110109000D03*
X117729000Y-111379000D03*
X123063000Y-91567000D03*
X117729000Y-91567000D03*
X123063000Y-92837000D03*
X123063000Y-94107000D03*
X123063000Y-95377000D03*
X117729000Y-92837000D03*
X117729000Y-94107000D03*
X117729000Y-95377000D03*
D19*
X127254000Y-90932000D03*
X127254000Y-112268000D03*
D20*
X104648000Y-101600000D03*
D21*
X120904000Y-101193600D03*
X120904000Y-101828600D03*
X120904000Y-102489000D03*
X120904000Y-103124000D03*
X120904000Y-103784400D03*
X120904000Y-104432100D03*
X120904000Y-105079800D03*
X126492000Y-105079800D03*
X126492000Y-104432100D03*
X126492000Y-103784400D03*
X126492000Y-103124000D03*
X126492000Y-102476300D03*
X126492000Y-101828600D03*
X126492000Y-101180900D03*
D22*
X105410000Y-107724000D03*
X105410000Y-111224000D03*
X105410000Y-91722000D03*
X105410000Y-95222000D03*
D16*
X118186200Y-99161600D03*
X119710200Y-99161600D03*
X128016000Y-99568000D03*
X126492000Y-99568000D03*
M02*
