G04 #@! TF.FileFunction,Copper,L1,Top,Signal*
%FSLAX46Y46*%
G04 Gerber Fmt 4.6, Leading zero omitted, Abs format (unit mm)*
G04 Created by KiCad (PCBNEW (2014-11-09 BZR 5259)-product) date Sat 15 Nov 2014 10:42:28 PM PST*
%MOMM*%
G01*
G04 APERTURE LIST*
%ADD10C,0.050000*%
%ADD11R,1.524000X1.524000*%
%ADD12C,1.778000*%
%ADD13C,1.651000*%
%ADD14R,0.889000X1.397000*%
%ADD15R,1.143000X0.635000*%
%ADD16R,0.635000X1.143000*%
%ADD17R,1.000760X0.800100*%
%ADD18R,1.399540X0.599440*%
%ADD19C,3.556000*%
%ADD20C,5.080000*%
%ADD21R,1.397000X0.431800*%
%ADD22C,1.968500*%
%ADD23C,0.889000*%
%ADD24C,0.254000*%
%ADD25C,0.508000*%
%ADD26C,0.304800*%
%ADD27C,0.635000*%
%ADD28C,0.203200*%
G04 APERTURE END LIST*
D10*
D11*
X130556000Y-93980000D03*
D12*
X130556000Y-96520000D03*
D13*
X130556000Y-99060000D03*
X130556000Y-101600000D03*
X130556000Y-104140000D03*
X130556000Y-106680000D03*
X130556000Y-109220000D03*
D14*
X115252500Y-106172000D03*
X113347500Y-106172000D03*
X113347500Y-112776000D03*
X115252500Y-112776000D03*
D15*
X115062000Y-108712000D03*
X115062000Y-110236000D03*
D14*
X115252500Y-90170000D03*
X113347500Y-90170000D03*
X113347500Y-96774000D03*
X115252500Y-96774000D03*
D15*
X115062000Y-92710000D03*
X115062000Y-94234000D03*
D16*
X118364000Y-113284000D03*
X116840000Y-113284000D03*
X118186200Y-97282000D03*
X119710200Y-97282000D03*
X109982000Y-106172000D03*
X111506000Y-106172000D03*
X109982000Y-112776000D03*
X111506000Y-112776000D03*
X109982000Y-90170000D03*
X111506000Y-90170000D03*
X109982000Y-96774000D03*
X111506000Y-96774000D03*
X117596920Y-101831140D03*
X119120920Y-101831140D03*
D15*
X121793000Y-97282000D03*
X121793000Y-98806000D03*
D16*
X125095000Y-97155000D03*
X123571000Y-97155000D03*
D15*
X125196600Y-109016800D03*
X125196600Y-107492800D03*
D17*
X110406180Y-109474000D03*
X112605820Y-108521500D03*
X112605820Y-110426500D03*
X110406180Y-93472000D03*
X112605820Y-92519500D03*
X112605820Y-94424500D03*
D18*
X123063000Y-107569000D03*
X117729000Y-107569000D03*
X123063000Y-108839000D03*
X123063000Y-110109000D03*
X123063000Y-111379000D03*
X117729000Y-108839000D03*
X117729000Y-110109000D03*
X117729000Y-111379000D03*
X123063000Y-91567000D03*
X117729000Y-91567000D03*
X123063000Y-92837000D03*
X123063000Y-94107000D03*
X123063000Y-95377000D03*
X117729000Y-92837000D03*
X117729000Y-94107000D03*
X117729000Y-95377000D03*
D19*
X127254000Y-90932000D03*
X127254000Y-112268000D03*
D20*
X104648000Y-101600000D03*
D21*
X120904000Y-101193600D03*
X120904000Y-101828600D03*
X120904000Y-102489000D03*
X120904000Y-103124000D03*
X120904000Y-103784400D03*
X120904000Y-104432100D03*
X120904000Y-105079800D03*
X126492000Y-105079800D03*
X126492000Y-104432100D03*
X126492000Y-103784400D03*
X126492000Y-103124000D03*
X126492000Y-102476300D03*
X126492000Y-101828600D03*
X126492000Y-101180900D03*
D22*
X105410000Y-107724000D03*
X105410000Y-111224000D03*
X105410000Y-91722000D03*
X105410000Y-95222000D03*
D16*
X118186200Y-99161600D03*
X119710200Y-99161600D03*
X128016000Y-99568000D03*
X126492000Y-99568000D03*
D23*
X116636800Y-90170000D03*
X120396000Y-95910400D03*
X117043200Y-99568000D03*
X122123200Y-105841800D03*
X128828800Y-98069400D03*
X121666000Y-113030000D03*
X116001800Y-111582200D03*
X126974600Y-106299000D03*
X120764300Y-100215700D03*
X115951000Y-100533200D03*
D24*
X115252500Y-90170000D02*
X116636800Y-90170000D01*
X130556000Y-109220000D02*
X130556000Y-109143800D01*
X119710200Y-96596200D02*
X120396000Y-95910400D01*
X119710200Y-97282000D02*
X119710200Y-96596200D01*
X117449600Y-99161600D02*
X117043200Y-99568000D01*
X118186200Y-99161600D02*
X117449600Y-99161600D01*
X121361200Y-105079800D02*
X122123200Y-105841800D01*
X120904000Y-105079800D02*
X121361200Y-105079800D01*
X115760500Y-113284000D02*
X115252500Y-112776000D01*
X116840000Y-113284000D02*
X115760500Y-113284000D01*
X115252500Y-112776000D02*
X115252500Y-112331500D01*
X128016000Y-98882200D02*
X128828800Y-98069400D01*
X128016000Y-99568000D02*
X128016000Y-98882200D01*
X115252500Y-112331500D02*
X116001800Y-111582200D01*
D25*
X111506000Y-106172000D02*
X113347500Y-106172000D01*
X111506000Y-107421680D02*
X112605820Y-108521500D01*
X111506000Y-106172000D02*
X111506000Y-107421680D01*
X114871500Y-108521500D02*
X115062000Y-108712000D01*
X112605820Y-108521500D02*
X114871500Y-108521500D01*
X115189000Y-108839000D02*
X115062000Y-108712000D01*
X117729000Y-108839000D02*
X115189000Y-108839000D01*
X111506000Y-112776000D02*
X113347500Y-112776000D01*
X111506000Y-111526320D02*
X112605820Y-110426500D01*
X111506000Y-112776000D02*
X111506000Y-111526320D01*
X114871500Y-110426500D02*
X115062000Y-110236000D01*
X112605820Y-110426500D02*
X114871500Y-110426500D01*
X115189000Y-110109000D02*
X115062000Y-110236000D01*
X117729000Y-110109000D02*
X115189000Y-110109000D01*
X111506000Y-91419680D02*
X112605820Y-92519500D01*
X111506000Y-90170000D02*
X111506000Y-91419680D01*
X111506000Y-90170000D02*
X113347500Y-90170000D01*
X115189000Y-92837000D02*
X117729000Y-92837000D01*
X114871500Y-92519500D02*
X115189000Y-92837000D01*
X112605820Y-92519500D02*
X114871500Y-92519500D01*
X111506000Y-95524320D02*
X112605820Y-94424500D01*
X111506000Y-96774000D02*
X111506000Y-95524320D01*
X111506000Y-96774000D02*
X113347500Y-96774000D01*
X115189000Y-94107000D02*
X117729000Y-94107000D01*
X114871500Y-94424500D02*
X115189000Y-94107000D01*
X112605820Y-94424500D02*
X114871500Y-94424500D01*
D26*
X126974600Y-106299000D02*
X126974600Y-105308400D01*
X126974600Y-105308400D02*
X126746000Y-105079800D01*
X126746000Y-105079800D02*
X126492000Y-105079800D01*
D24*
X116001800Y-100533200D02*
X115951000Y-100533200D01*
X118186200Y-97282000D02*
X118186200Y-96977200D01*
X118186200Y-96977200D02*
X118186200Y-97282000D01*
X117729000Y-96520000D02*
X118186200Y-96977200D01*
X117729000Y-95377000D02*
X117729000Y-96520000D01*
X120904000Y-100355400D02*
X120764300Y-100215700D01*
X120904000Y-101193600D02*
X120904000Y-100355400D01*
X120764300Y-100215700D02*
X119710200Y-99161600D01*
X117983000Y-111379000D02*
X117729000Y-111379000D01*
X118364000Y-111760000D02*
X117983000Y-111379000D01*
X118364000Y-113284000D02*
X118364000Y-111760000D01*
D26*
X117805200Y-97282000D02*
X118186200Y-97282000D01*
X116001800Y-99085400D02*
X117805200Y-97282000D01*
X116001800Y-101600000D02*
X116001800Y-100533200D01*
X116001800Y-100533200D02*
X116001800Y-99085400D01*
X116001800Y-103708200D02*
X119380000Y-107086400D01*
X119380000Y-107086400D02*
X119380000Y-110871000D01*
X119380000Y-110871000D02*
X118872000Y-111379000D01*
X118872000Y-111379000D02*
X117729000Y-111379000D01*
X116001800Y-101600000D02*
X116001800Y-103708200D01*
D27*
X106962000Y-106172000D02*
X105410000Y-107724000D01*
X109982000Y-106172000D02*
X106962000Y-106172000D01*
X106962000Y-112776000D02*
X105410000Y-111224000D01*
X109982000Y-112776000D02*
X106962000Y-112776000D01*
X106962000Y-90170000D02*
X105410000Y-91722000D01*
X109982000Y-90170000D02*
X106962000Y-90170000D01*
X106962000Y-96774000D02*
X105410000Y-95222000D01*
X109982000Y-96774000D02*
X106962000Y-96774000D01*
D28*
X129679700Y-102476300D02*
X130556000Y-101600000D01*
X126492000Y-102476300D02*
X129679700Y-102476300D01*
X130556000Y-106349800D02*
X130556000Y-106680000D01*
X127990600Y-103784400D02*
X130556000Y-106349800D01*
X126492000Y-103784400D02*
X127990600Y-103784400D01*
X130556000Y-99314000D02*
X130556000Y-99060000D01*
X128041400Y-101828600D02*
X130556000Y-99314000D01*
X126492000Y-101828600D02*
X128041400Y-101828600D01*
X129540000Y-103124000D02*
X130556000Y-104140000D01*
X126492000Y-103124000D02*
X129540000Y-103124000D01*
X117596920Y-101300280D02*
X117596920Y-101831140D01*
X122174000Y-92837000D02*
X118948200Y-96062800D01*
X118948200Y-96062800D02*
X118948200Y-99949000D01*
X118948200Y-99949000D02*
X117596920Y-101300280D01*
X123063000Y-92837000D02*
X122174000Y-92837000D01*
X122148600Y-108839000D02*
X120319800Y-107010200D01*
X120319800Y-107010200D02*
X120319800Y-106400600D01*
X120319800Y-106400600D02*
X117596920Y-103677720D01*
X117596920Y-103677720D02*
X117596920Y-101831140D01*
X123063000Y-108839000D02*
X122148600Y-108839000D01*
X123063000Y-94107000D02*
X122504200Y-94107000D01*
D24*
X123063000Y-94107000D02*
X123571000Y-94107000D01*
D28*
X121666000Y-97282000D02*
X121793000Y-97282000D01*
X122275600Y-94107000D02*
X121310400Y-95072200D01*
X121310400Y-95072200D02*
X121310400Y-96926400D01*
X121310400Y-96926400D02*
X121666000Y-97282000D01*
X123063000Y-94107000D02*
X122275600Y-94107000D01*
X124764800Y-97485200D02*
X125095000Y-97155000D01*
X126365000Y-106984800D02*
X124764800Y-105384600D01*
X126365000Y-109575600D02*
X126365000Y-106984800D01*
X124764800Y-105384600D02*
X124764800Y-97485200D01*
X124561600Y-111379000D02*
X126365000Y-109575600D01*
X123063000Y-111379000D02*
X124561600Y-111379000D01*
X124256800Y-95377000D02*
X125095000Y-96215200D01*
X125095000Y-96215200D02*
X125095000Y-97155000D01*
X123063000Y-95377000D02*
X124256800Y-95377000D01*
X124104400Y-110109000D02*
X125196600Y-109016800D01*
X123063000Y-110109000D02*
X124104400Y-110109000D01*
X120901460Y-101831140D02*
X120904000Y-101828600D01*
X119120920Y-101831140D02*
X120901460Y-101831140D01*
X122047000Y-98806000D02*
X121793000Y-98806000D01*
X121818400Y-102489000D02*
X122428000Y-101879400D01*
X122428000Y-101879400D02*
X122428000Y-99187000D01*
X122428000Y-99187000D02*
X122047000Y-98806000D01*
X120904000Y-102489000D02*
X121818400Y-102489000D01*
X123571000Y-101396800D02*
X121843800Y-103124000D01*
X121843800Y-103124000D02*
X120904000Y-103124000D01*
X123571000Y-97155000D02*
X123571000Y-101396800D01*
X125196600Y-107264200D02*
X125196600Y-107492800D01*
X121716800Y-103784400D02*
X125196600Y-107264200D01*
X120904000Y-103784400D02*
X121716800Y-103784400D01*
D26*
X126492000Y-99568000D02*
X126492000Y-101180900D01*
X130556000Y-96520000D02*
X128066800Y-96520000D01*
X126492000Y-98094800D02*
X126492000Y-99568000D01*
X128066800Y-96520000D02*
X126492000Y-98094800D01*
D24*
G36*
X116987000Y-113411000D02*
X116967000Y-113411000D01*
X116967000Y-113431000D01*
X116713000Y-113431000D01*
X116713000Y-113411000D01*
X116693000Y-113411000D01*
X116693000Y-113157000D01*
X116713000Y-113157000D01*
X116713000Y-113137000D01*
X116967000Y-113137000D01*
X116967000Y-113157000D01*
X116987000Y-113157000D01*
X116987000Y-113411000D01*
X116987000Y-113411000D01*
G37*
X116987000Y-113411000D02*
X116967000Y-113411000D01*
X116967000Y-113431000D01*
X116713000Y-113431000D01*
X116713000Y-113411000D01*
X116693000Y-113411000D01*
X116693000Y-113157000D01*
X116713000Y-113157000D01*
X116713000Y-113137000D01*
X116967000Y-113137000D01*
X116967000Y-113157000D01*
X116987000Y-113157000D01*
X116987000Y-113411000D01*
G36*
X117914539Y-106734491D02*
X117856000Y-106793030D01*
X117856000Y-107442000D01*
X117876000Y-107442000D01*
X117876000Y-107696000D01*
X117856000Y-107696000D01*
X117856000Y-107716000D01*
X117602000Y-107716000D01*
X117602000Y-107696000D01*
X117602000Y-107442000D01*
X117602000Y-106793030D01*
X117443250Y-106634280D01*
X117155539Y-106634280D01*
X116902920Y-106634280D01*
X116669531Y-106730953D01*
X116490903Y-106909582D01*
X116394230Y-107142971D01*
X116394230Y-107283250D01*
X116552980Y-107442000D01*
X117602000Y-107442000D01*
X117602000Y-107696000D01*
X116552980Y-107696000D01*
X116394230Y-107854750D01*
X116394230Y-107950000D01*
X116332000Y-107950000D01*
X116332000Y-106996810D01*
X116332000Y-106744191D01*
X116332000Y-106457750D01*
X116332000Y-105886250D01*
X116332000Y-105599809D01*
X116332000Y-105347190D01*
X116235327Y-105113801D01*
X116056698Y-104935173D01*
X115823309Y-104838500D01*
X115538250Y-104838500D01*
X115379500Y-104997250D01*
X115379500Y-106045000D01*
X116173250Y-106045000D01*
X116332000Y-105886250D01*
X116332000Y-106457750D01*
X116173250Y-106299000D01*
X115379500Y-106299000D01*
X115379500Y-107346750D01*
X115538250Y-107505500D01*
X115823309Y-107505500D01*
X116056698Y-107408827D01*
X116235327Y-107230199D01*
X116332000Y-106996810D01*
X116332000Y-107950000D01*
X116087025Y-107950000D01*
X115993199Y-107856173D01*
X115759810Y-107759500D01*
X115507191Y-107759500D01*
X115300498Y-107759500D01*
X115211706Y-107700171D01*
X114871500Y-107632500D01*
X113515275Y-107632500D01*
X113465899Y-107583123D01*
X113278500Y-107505500D01*
X113918309Y-107505500D01*
X114151698Y-107408827D01*
X114300000Y-107260525D01*
X114448302Y-107408827D01*
X114681691Y-107505500D01*
X114966750Y-107505500D01*
X115125500Y-107346750D01*
X115125500Y-106299000D01*
X115105500Y-106299000D01*
X115105500Y-106045000D01*
X115125500Y-106045000D01*
X115125500Y-104997250D01*
X114966750Y-104838500D01*
X114681691Y-104838500D01*
X114448302Y-104935173D01*
X114299999Y-105083474D01*
X114151699Y-104935173D01*
X113918310Y-104838500D01*
X113665691Y-104838500D01*
X112776691Y-104838500D01*
X112543302Y-104935173D01*
X112364673Y-105113801D01*
X112326641Y-105205616D01*
X112183199Y-105062173D01*
X111949810Y-104965500D01*
X111697191Y-104965500D01*
X111062191Y-104965500D01*
X110828802Y-105062173D01*
X110744000Y-105146974D01*
X110659199Y-105062173D01*
X110425810Y-104965500D01*
X110173191Y-104965500D01*
X109538191Y-104965500D01*
X109304802Y-105062173D01*
X109147474Y-105219500D01*
X107823018Y-105219500D01*
X107823018Y-100968543D01*
X107339685Y-99801583D01*
X107339584Y-99801431D01*
X106912744Y-99514862D01*
X106733138Y-99694467D01*
X106733138Y-99335256D01*
X106446569Y-98908416D01*
X105279637Y-98425018D01*
X104016543Y-98424982D01*
X102849583Y-98908315D01*
X102849431Y-98908416D01*
X102562862Y-99335256D01*
X104648000Y-101420395D01*
X106733138Y-99335256D01*
X106733138Y-99694467D01*
X104827605Y-101600000D01*
X106912744Y-103685138D01*
X107339584Y-103398569D01*
X107822982Y-102231637D01*
X107823018Y-100968543D01*
X107823018Y-105219500D01*
X106962000Y-105219500D01*
X106733138Y-105265023D01*
X106733138Y-103864744D01*
X104648000Y-101779605D01*
X102562862Y-103864744D01*
X102849431Y-104291584D01*
X104016363Y-104774982D01*
X105279457Y-104775018D01*
X106446417Y-104291685D01*
X106446569Y-104291584D01*
X106733138Y-103864744D01*
X106733138Y-105265023D01*
X106597494Y-105292005D01*
X106288480Y-105498481D01*
X105681974Y-106104987D01*
X105089324Y-106104470D01*
X104493967Y-106350466D01*
X104038067Y-106805571D01*
X103791032Y-107400498D01*
X103790470Y-108044676D01*
X104036466Y-108640033D01*
X104491571Y-109095933D01*
X105086498Y-109342968D01*
X105730676Y-109343530D01*
X106326033Y-109097534D01*
X106781933Y-108642429D01*
X107028968Y-108047502D01*
X107029487Y-107451550D01*
X107356538Y-107124500D01*
X109147474Y-107124500D01*
X109304801Y-107281827D01*
X109538190Y-107378500D01*
X109790809Y-107378500D01*
X110425809Y-107378500D01*
X110617000Y-107299306D01*
X110617000Y-107421680D01*
X110684671Y-107761886D01*
X110877382Y-108050298D01*
X111470440Y-108643356D01*
X111470440Y-108775942D01*
X111444887Y-108714252D01*
X111266259Y-108535623D01*
X111032870Y-108438950D01*
X110780251Y-108438950D01*
X110691930Y-108438950D01*
X110533180Y-108597700D01*
X110533180Y-109347000D01*
X111382810Y-109347000D01*
X111532390Y-109197419D01*
X111567113Y-109281248D01*
X111745741Y-109459877D01*
X111779837Y-109474000D01*
X111745742Y-109488123D01*
X111567113Y-109666751D01*
X111532389Y-109750579D01*
X111382810Y-109601000D01*
X110533180Y-109601000D01*
X110533180Y-110350300D01*
X110691930Y-110509050D01*
X110780251Y-110509050D01*
X111032870Y-110509050D01*
X111266259Y-110412377D01*
X111444887Y-110233748D01*
X111470440Y-110172057D01*
X111470440Y-110304644D01*
X110877382Y-110897702D01*
X110684671Y-111186114D01*
X110617000Y-111526320D01*
X110617000Y-111648693D01*
X110425810Y-111569500D01*
X110279180Y-111569500D01*
X110279180Y-110350300D01*
X110279180Y-109601000D01*
X110279180Y-109347000D01*
X110279180Y-108597700D01*
X110120430Y-108438950D01*
X110032109Y-108438950D01*
X109779490Y-108438950D01*
X109546101Y-108535623D01*
X109367473Y-108714252D01*
X109270800Y-108947641D01*
X109270800Y-109188250D01*
X109429550Y-109347000D01*
X110279180Y-109347000D01*
X110279180Y-109601000D01*
X109429550Y-109601000D01*
X109270800Y-109759750D01*
X109270800Y-110000359D01*
X109367473Y-110233748D01*
X109546101Y-110412377D01*
X109779490Y-110509050D01*
X110032109Y-110509050D01*
X110120430Y-110509050D01*
X110279180Y-110350300D01*
X110279180Y-111569500D01*
X110173191Y-111569500D01*
X109538191Y-111569500D01*
X109304802Y-111666173D01*
X109147474Y-111823500D01*
X107356538Y-111823500D01*
X107029012Y-111495974D01*
X107029530Y-110903324D01*
X106783534Y-110307967D01*
X106328429Y-109852067D01*
X105733502Y-109605032D01*
X105089324Y-109604470D01*
X104493967Y-109850466D01*
X104038067Y-110305571D01*
X103791032Y-110900498D01*
X103790470Y-111544676D01*
X104036466Y-112140033D01*
X104491571Y-112595933D01*
X105086498Y-112842968D01*
X105682449Y-112843487D01*
X106288480Y-113449519D01*
X106288481Y-113449519D01*
X106597494Y-113655995D01*
X106962000Y-113728500D01*
X109147474Y-113728500D01*
X109304801Y-113885827D01*
X109538190Y-113982500D01*
X109790809Y-113982500D01*
X110425809Y-113982500D01*
X110659198Y-113885827D01*
X110743999Y-113801025D01*
X110828801Y-113885827D01*
X111062190Y-113982500D01*
X111314809Y-113982500D01*
X111949809Y-113982500D01*
X112183198Y-113885827D01*
X112326642Y-113742383D01*
X112364673Y-113834198D01*
X112543301Y-114012827D01*
X112776690Y-114109500D01*
X113029309Y-114109500D01*
X113918309Y-114109500D01*
X114151698Y-114012827D01*
X114300000Y-113864525D01*
X114448302Y-114012827D01*
X114681691Y-114109500D01*
X114966750Y-114109500D01*
X115125500Y-113950750D01*
X115125500Y-112903000D01*
X115105500Y-112903000D01*
X115105500Y-112649000D01*
X115125500Y-112649000D01*
X115125500Y-111601250D01*
X114966750Y-111442500D01*
X114681691Y-111442500D01*
X114448302Y-111539173D01*
X114299999Y-111687474D01*
X114151699Y-111539173D01*
X113918310Y-111442500D01*
X113665691Y-111442500D01*
X113278499Y-111442500D01*
X113465898Y-111364877D01*
X113515275Y-111315500D01*
X114871500Y-111315500D01*
X115211705Y-111247829D01*
X115211706Y-111247829D01*
X115300497Y-111188500D01*
X115300498Y-111188500D01*
X115759809Y-111188500D01*
X115993198Y-111091827D01*
X116087025Y-110998000D01*
X116394230Y-110998000D01*
X116394230Y-111205589D01*
X116394230Y-111805029D01*
X116490903Y-112038418D01*
X116529984Y-112077500D01*
X116396191Y-112077500D01*
X116332000Y-112104088D01*
X116332000Y-111951190D01*
X116235327Y-111717801D01*
X116056698Y-111539173D01*
X115823309Y-111442500D01*
X115538250Y-111442500D01*
X115379500Y-111601250D01*
X115379500Y-112649000D01*
X115399500Y-112649000D01*
X115399500Y-112903000D01*
X115379500Y-112903000D01*
X115379500Y-113950750D01*
X115538250Y-114109500D01*
X115823309Y-114109500D01*
X115923244Y-114068105D01*
X115945982Y-114123000D01*
X102285000Y-114123000D01*
X102285000Y-103619171D01*
X102383256Y-103685138D01*
X104468395Y-101600000D01*
X102383256Y-99514862D01*
X102285000Y-99580828D01*
X102285000Y-89077000D01*
X109287974Y-89077000D01*
X109147474Y-89217500D01*
X106962000Y-89217500D01*
X106597494Y-89290005D01*
X106288480Y-89496481D01*
X105681974Y-90102987D01*
X105089324Y-90102470D01*
X104493967Y-90348466D01*
X104038067Y-90803571D01*
X103791032Y-91398498D01*
X103790470Y-92042676D01*
X104036466Y-92638033D01*
X104491571Y-93093933D01*
X105086498Y-93340968D01*
X105730676Y-93341530D01*
X106326033Y-93095534D01*
X106781933Y-92640429D01*
X107028968Y-92045502D01*
X107029487Y-91449550D01*
X107356538Y-91122500D01*
X109147474Y-91122500D01*
X109304801Y-91279827D01*
X109538190Y-91376500D01*
X109790809Y-91376500D01*
X110425809Y-91376500D01*
X110617000Y-91297306D01*
X110617000Y-91419680D01*
X110684671Y-91759886D01*
X110877382Y-92048298D01*
X111470440Y-92641356D01*
X111470440Y-92773942D01*
X111444887Y-92712252D01*
X111266259Y-92533623D01*
X111032870Y-92436950D01*
X110780251Y-92436950D01*
X110691930Y-92436950D01*
X110533180Y-92595700D01*
X110533180Y-93345000D01*
X111382810Y-93345000D01*
X111532390Y-93195419D01*
X111567113Y-93279248D01*
X111745741Y-93457877D01*
X111779837Y-93472000D01*
X111745742Y-93486123D01*
X111567113Y-93664751D01*
X111532389Y-93748579D01*
X111382810Y-93599000D01*
X110533180Y-93599000D01*
X110533180Y-94348300D01*
X110691930Y-94507050D01*
X110780251Y-94507050D01*
X111032870Y-94507050D01*
X111266259Y-94410377D01*
X111444887Y-94231748D01*
X111470440Y-94170057D01*
X111470440Y-94302644D01*
X110877382Y-94895702D01*
X110684671Y-95184114D01*
X110617000Y-95524320D01*
X110617000Y-95646693D01*
X110425810Y-95567500D01*
X110279180Y-95567500D01*
X110279180Y-94348300D01*
X110279180Y-93599000D01*
X110279180Y-93345000D01*
X110279180Y-92595700D01*
X110120430Y-92436950D01*
X110032109Y-92436950D01*
X109779490Y-92436950D01*
X109546101Y-92533623D01*
X109367473Y-92712252D01*
X109270800Y-92945641D01*
X109270800Y-93186250D01*
X109429550Y-93345000D01*
X110279180Y-93345000D01*
X110279180Y-93599000D01*
X109429550Y-93599000D01*
X109270800Y-93757750D01*
X109270800Y-93998359D01*
X109367473Y-94231748D01*
X109546101Y-94410377D01*
X109779490Y-94507050D01*
X110032109Y-94507050D01*
X110120430Y-94507050D01*
X110279180Y-94348300D01*
X110279180Y-95567500D01*
X110173191Y-95567500D01*
X109538191Y-95567500D01*
X109304802Y-95664173D01*
X109147474Y-95821500D01*
X107356538Y-95821500D01*
X107029012Y-95493974D01*
X107029530Y-94901324D01*
X106783534Y-94305967D01*
X106328429Y-93850067D01*
X105733502Y-93603032D01*
X105089324Y-93602470D01*
X104493967Y-93848466D01*
X104038067Y-94303571D01*
X103791032Y-94898498D01*
X103790470Y-95542676D01*
X104036466Y-96138033D01*
X104491571Y-96593933D01*
X105086498Y-96840968D01*
X105682449Y-96841487D01*
X106288480Y-97447519D01*
X106288481Y-97447519D01*
X106597494Y-97653995D01*
X106962000Y-97726500D01*
X109147474Y-97726500D01*
X109304801Y-97883827D01*
X109538190Y-97980500D01*
X109790809Y-97980500D01*
X110425809Y-97980500D01*
X110659198Y-97883827D01*
X110743999Y-97799025D01*
X110828801Y-97883827D01*
X111062190Y-97980500D01*
X111314809Y-97980500D01*
X111949809Y-97980500D01*
X112183198Y-97883827D01*
X112326642Y-97740383D01*
X112364673Y-97832198D01*
X112543301Y-98010827D01*
X112776690Y-98107500D01*
X113029309Y-98107500D01*
X113918309Y-98107500D01*
X114151698Y-98010827D01*
X114300000Y-97862525D01*
X114448302Y-98010827D01*
X114681691Y-98107500D01*
X114966750Y-98107500D01*
X115125500Y-97948750D01*
X115125500Y-96901000D01*
X115105500Y-96901000D01*
X115105500Y-96647000D01*
X115125500Y-96647000D01*
X115125500Y-95599250D01*
X114966750Y-95440500D01*
X114681691Y-95440500D01*
X114448302Y-95537173D01*
X114299999Y-95685474D01*
X114151699Y-95537173D01*
X113918310Y-95440500D01*
X113665691Y-95440500D01*
X113278499Y-95440500D01*
X113465898Y-95362877D01*
X113515275Y-95313500D01*
X114871500Y-95313500D01*
X115211705Y-95245829D01*
X115211706Y-95245829D01*
X115300497Y-95186500D01*
X115300498Y-95186500D01*
X115759809Y-95186500D01*
X115993198Y-95089827D01*
X116087025Y-94996000D01*
X116394230Y-94996000D01*
X116394230Y-95203589D01*
X116394230Y-95803029D01*
X116490903Y-96036418D01*
X116669531Y-96215047D01*
X116902920Y-96311720D01*
X116967000Y-96311720D01*
X116967000Y-96520000D01*
X117025004Y-96811605D01*
X117079894Y-96893753D01*
X116301708Y-97671939D01*
X116332000Y-97598810D01*
X116332000Y-97346191D01*
X116332000Y-97059750D01*
X116332000Y-96488250D01*
X116332000Y-96201809D01*
X116332000Y-95949190D01*
X116235327Y-95715801D01*
X116056698Y-95537173D01*
X115823309Y-95440500D01*
X115538250Y-95440500D01*
X115379500Y-95599250D01*
X115379500Y-96647000D01*
X116173250Y-96647000D01*
X116332000Y-96488250D01*
X116332000Y-97059750D01*
X116173250Y-96901000D01*
X115379500Y-96901000D01*
X115379500Y-97948750D01*
X115538250Y-98107500D01*
X115823309Y-98107500D01*
X115896439Y-98077208D01*
X115445024Y-98528624D01*
X115274337Y-98784075D01*
X115214400Y-99085400D01*
X115214400Y-99743202D01*
X115036378Y-99920914D01*
X114871687Y-100317532D01*
X114871313Y-100746984D01*
X115035311Y-101143889D01*
X115214400Y-101323290D01*
X115214400Y-101600000D01*
X115214400Y-103708200D01*
X115274337Y-104009525D01*
X115445024Y-104264976D01*
X117914539Y-106734491D01*
X117914539Y-106734491D01*
G37*
X117914539Y-106734491D02*
X117856000Y-106793030D01*
X117856000Y-107442000D01*
X117876000Y-107442000D01*
X117876000Y-107696000D01*
X117856000Y-107696000D01*
X117856000Y-107716000D01*
X117602000Y-107716000D01*
X117602000Y-107696000D01*
X117602000Y-107442000D01*
X117602000Y-106793030D01*
X117443250Y-106634280D01*
X117155539Y-106634280D01*
X116902920Y-106634280D01*
X116669531Y-106730953D01*
X116490903Y-106909582D01*
X116394230Y-107142971D01*
X116394230Y-107283250D01*
X116552980Y-107442000D01*
X117602000Y-107442000D01*
X117602000Y-107696000D01*
X116552980Y-107696000D01*
X116394230Y-107854750D01*
X116394230Y-107950000D01*
X116332000Y-107950000D01*
X116332000Y-106996810D01*
X116332000Y-106744191D01*
X116332000Y-106457750D01*
X116332000Y-105886250D01*
X116332000Y-105599809D01*
X116332000Y-105347190D01*
X116235327Y-105113801D01*
X116056698Y-104935173D01*
X115823309Y-104838500D01*
X115538250Y-104838500D01*
X115379500Y-104997250D01*
X115379500Y-106045000D01*
X116173250Y-106045000D01*
X116332000Y-105886250D01*
X116332000Y-106457750D01*
X116173250Y-106299000D01*
X115379500Y-106299000D01*
X115379500Y-107346750D01*
X115538250Y-107505500D01*
X115823309Y-107505500D01*
X116056698Y-107408827D01*
X116235327Y-107230199D01*
X116332000Y-106996810D01*
X116332000Y-107950000D01*
X116087025Y-107950000D01*
X115993199Y-107856173D01*
X115759810Y-107759500D01*
X115507191Y-107759500D01*
X115300498Y-107759500D01*
X115211706Y-107700171D01*
X114871500Y-107632500D01*
X113515275Y-107632500D01*
X113465899Y-107583123D01*
X113278500Y-107505500D01*
X113918309Y-107505500D01*
X114151698Y-107408827D01*
X114300000Y-107260525D01*
X114448302Y-107408827D01*
X114681691Y-107505500D01*
X114966750Y-107505500D01*
X115125500Y-107346750D01*
X115125500Y-106299000D01*
X115105500Y-106299000D01*
X115105500Y-106045000D01*
X115125500Y-106045000D01*
X115125500Y-104997250D01*
X114966750Y-104838500D01*
X114681691Y-104838500D01*
X114448302Y-104935173D01*
X114299999Y-105083474D01*
X114151699Y-104935173D01*
X113918310Y-104838500D01*
X113665691Y-104838500D01*
X112776691Y-104838500D01*
X112543302Y-104935173D01*
X112364673Y-105113801D01*
X112326641Y-105205616D01*
X112183199Y-105062173D01*
X111949810Y-104965500D01*
X111697191Y-104965500D01*
X111062191Y-104965500D01*
X110828802Y-105062173D01*
X110744000Y-105146974D01*
X110659199Y-105062173D01*
X110425810Y-104965500D01*
X110173191Y-104965500D01*
X109538191Y-104965500D01*
X109304802Y-105062173D01*
X109147474Y-105219500D01*
X107823018Y-105219500D01*
X107823018Y-100968543D01*
X107339685Y-99801583D01*
X107339584Y-99801431D01*
X106912744Y-99514862D01*
X106733138Y-99694467D01*
X106733138Y-99335256D01*
X106446569Y-98908416D01*
X105279637Y-98425018D01*
X104016543Y-98424982D01*
X102849583Y-98908315D01*
X102849431Y-98908416D01*
X102562862Y-99335256D01*
X104648000Y-101420395D01*
X106733138Y-99335256D01*
X106733138Y-99694467D01*
X104827605Y-101600000D01*
X106912744Y-103685138D01*
X107339584Y-103398569D01*
X107822982Y-102231637D01*
X107823018Y-100968543D01*
X107823018Y-105219500D01*
X106962000Y-105219500D01*
X106733138Y-105265023D01*
X106733138Y-103864744D01*
X104648000Y-101779605D01*
X102562862Y-103864744D01*
X102849431Y-104291584D01*
X104016363Y-104774982D01*
X105279457Y-104775018D01*
X106446417Y-104291685D01*
X106446569Y-104291584D01*
X106733138Y-103864744D01*
X106733138Y-105265023D01*
X106597494Y-105292005D01*
X106288480Y-105498481D01*
X105681974Y-106104987D01*
X105089324Y-106104470D01*
X104493967Y-106350466D01*
X104038067Y-106805571D01*
X103791032Y-107400498D01*
X103790470Y-108044676D01*
X104036466Y-108640033D01*
X104491571Y-109095933D01*
X105086498Y-109342968D01*
X105730676Y-109343530D01*
X106326033Y-109097534D01*
X106781933Y-108642429D01*
X107028968Y-108047502D01*
X107029487Y-107451550D01*
X107356538Y-107124500D01*
X109147474Y-107124500D01*
X109304801Y-107281827D01*
X109538190Y-107378500D01*
X109790809Y-107378500D01*
X110425809Y-107378500D01*
X110617000Y-107299306D01*
X110617000Y-107421680D01*
X110684671Y-107761886D01*
X110877382Y-108050298D01*
X111470440Y-108643356D01*
X111470440Y-108775942D01*
X111444887Y-108714252D01*
X111266259Y-108535623D01*
X111032870Y-108438950D01*
X110780251Y-108438950D01*
X110691930Y-108438950D01*
X110533180Y-108597700D01*
X110533180Y-109347000D01*
X111382810Y-109347000D01*
X111532390Y-109197419D01*
X111567113Y-109281248D01*
X111745741Y-109459877D01*
X111779837Y-109474000D01*
X111745742Y-109488123D01*
X111567113Y-109666751D01*
X111532389Y-109750579D01*
X111382810Y-109601000D01*
X110533180Y-109601000D01*
X110533180Y-110350300D01*
X110691930Y-110509050D01*
X110780251Y-110509050D01*
X111032870Y-110509050D01*
X111266259Y-110412377D01*
X111444887Y-110233748D01*
X111470440Y-110172057D01*
X111470440Y-110304644D01*
X110877382Y-110897702D01*
X110684671Y-111186114D01*
X110617000Y-111526320D01*
X110617000Y-111648693D01*
X110425810Y-111569500D01*
X110279180Y-111569500D01*
X110279180Y-110350300D01*
X110279180Y-109601000D01*
X110279180Y-109347000D01*
X110279180Y-108597700D01*
X110120430Y-108438950D01*
X110032109Y-108438950D01*
X109779490Y-108438950D01*
X109546101Y-108535623D01*
X109367473Y-108714252D01*
X109270800Y-108947641D01*
X109270800Y-109188250D01*
X109429550Y-109347000D01*
X110279180Y-109347000D01*
X110279180Y-109601000D01*
X109429550Y-109601000D01*
X109270800Y-109759750D01*
X109270800Y-110000359D01*
X109367473Y-110233748D01*
X109546101Y-110412377D01*
X109779490Y-110509050D01*
X110032109Y-110509050D01*
X110120430Y-110509050D01*
X110279180Y-110350300D01*
X110279180Y-111569500D01*
X110173191Y-111569500D01*
X109538191Y-111569500D01*
X109304802Y-111666173D01*
X109147474Y-111823500D01*
X107356538Y-111823500D01*
X107029012Y-111495974D01*
X107029530Y-110903324D01*
X106783534Y-110307967D01*
X106328429Y-109852067D01*
X105733502Y-109605032D01*
X105089324Y-109604470D01*
X104493967Y-109850466D01*
X104038067Y-110305571D01*
X103791032Y-110900498D01*
X103790470Y-111544676D01*
X104036466Y-112140033D01*
X104491571Y-112595933D01*
X105086498Y-112842968D01*
X105682449Y-112843487D01*
X106288480Y-113449519D01*
X106288481Y-113449519D01*
X106597494Y-113655995D01*
X106962000Y-113728500D01*
X109147474Y-113728500D01*
X109304801Y-113885827D01*
X109538190Y-113982500D01*
X109790809Y-113982500D01*
X110425809Y-113982500D01*
X110659198Y-113885827D01*
X110743999Y-113801025D01*
X110828801Y-113885827D01*
X111062190Y-113982500D01*
X111314809Y-113982500D01*
X111949809Y-113982500D01*
X112183198Y-113885827D01*
X112326642Y-113742383D01*
X112364673Y-113834198D01*
X112543301Y-114012827D01*
X112776690Y-114109500D01*
X113029309Y-114109500D01*
X113918309Y-114109500D01*
X114151698Y-114012827D01*
X114300000Y-113864525D01*
X114448302Y-114012827D01*
X114681691Y-114109500D01*
X114966750Y-114109500D01*
X115125500Y-113950750D01*
X115125500Y-112903000D01*
X115105500Y-112903000D01*
X115105500Y-112649000D01*
X115125500Y-112649000D01*
X115125500Y-111601250D01*
X114966750Y-111442500D01*
X114681691Y-111442500D01*
X114448302Y-111539173D01*
X114299999Y-111687474D01*
X114151699Y-111539173D01*
X113918310Y-111442500D01*
X113665691Y-111442500D01*
X113278499Y-111442500D01*
X113465898Y-111364877D01*
X113515275Y-111315500D01*
X114871500Y-111315500D01*
X115211705Y-111247829D01*
X115211706Y-111247829D01*
X115300497Y-111188500D01*
X115300498Y-111188500D01*
X115759809Y-111188500D01*
X115993198Y-111091827D01*
X116087025Y-110998000D01*
X116394230Y-110998000D01*
X116394230Y-111205589D01*
X116394230Y-111805029D01*
X116490903Y-112038418D01*
X116529984Y-112077500D01*
X116396191Y-112077500D01*
X116332000Y-112104088D01*
X116332000Y-111951190D01*
X116235327Y-111717801D01*
X116056698Y-111539173D01*
X115823309Y-111442500D01*
X115538250Y-111442500D01*
X115379500Y-111601250D01*
X115379500Y-112649000D01*
X115399500Y-112649000D01*
X115399500Y-112903000D01*
X115379500Y-112903000D01*
X115379500Y-113950750D01*
X115538250Y-114109500D01*
X115823309Y-114109500D01*
X115923244Y-114068105D01*
X115945982Y-114123000D01*
X102285000Y-114123000D01*
X102285000Y-103619171D01*
X102383256Y-103685138D01*
X104468395Y-101600000D01*
X102383256Y-99514862D01*
X102285000Y-99580828D01*
X102285000Y-89077000D01*
X109287974Y-89077000D01*
X109147474Y-89217500D01*
X106962000Y-89217500D01*
X106597494Y-89290005D01*
X106288480Y-89496481D01*
X105681974Y-90102987D01*
X105089324Y-90102470D01*
X104493967Y-90348466D01*
X104038067Y-90803571D01*
X103791032Y-91398498D01*
X103790470Y-92042676D01*
X104036466Y-92638033D01*
X104491571Y-93093933D01*
X105086498Y-93340968D01*
X105730676Y-93341530D01*
X106326033Y-93095534D01*
X106781933Y-92640429D01*
X107028968Y-92045502D01*
X107029487Y-91449550D01*
X107356538Y-91122500D01*
X109147474Y-91122500D01*
X109304801Y-91279827D01*
X109538190Y-91376500D01*
X109790809Y-91376500D01*
X110425809Y-91376500D01*
X110617000Y-91297306D01*
X110617000Y-91419680D01*
X110684671Y-91759886D01*
X110877382Y-92048298D01*
X111470440Y-92641356D01*
X111470440Y-92773942D01*
X111444887Y-92712252D01*
X111266259Y-92533623D01*
X111032870Y-92436950D01*
X110780251Y-92436950D01*
X110691930Y-92436950D01*
X110533180Y-92595700D01*
X110533180Y-93345000D01*
X111382810Y-93345000D01*
X111532390Y-93195419D01*
X111567113Y-93279248D01*
X111745741Y-93457877D01*
X111779837Y-93472000D01*
X111745742Y-93486123D01*
X111567113Y-93664751D01*
X111532389Y-93748579D01*
X111382810Y-93599000D01*
X110533180Y-93599000D01*
X110533180Y-94348300D01*
X110691930Y-94507050D01*
X110780251Y-94507050D01*
X111032870Y-94507050D01*
X111266259Y-94410377D01*
X111444887Y-94231748D01*
X111470440Y-94170057D01*
X111470440Y-94302644D01*
X110877382Y-94895702D01*
X110684671Y-95184114D01*
X110617000Y-95524320D01*
X110617000Y-95646693D01*
X110425810Y-95567500D01*
X110279180Y-95567500D01*
X110279180Y-94348300D01*
X110279180Y-93599000D01*
X110279180Y-93345000D01*
X110279180Y-92595700D01*
X110120430Y-92436950D01*
X110032109Y-92436950D01*
X109779490Y-92436950D01*
X109546101Y-92533623D01*
X109367473Y-92712252D01*
X109270800Y-92945641D01*
X109270800Y-93186250D01*
X109429550Y-93345000D01*
X110279180Y-93345000D01*
X110279180Y-93599000D01*
X109429550Y-93599000D01*
X109270800Y-93757750D01*
X109270800Y-93998359D01*
X109367473Y-94231748D01*
X109546101Y-94410377D01*
X109779490Y-94507050D01*
X110032109Y-94507050D01*
X110120430Y-94507050D01*
X110279180Y-94348300D01*
X110279180Y-95567500D01*
X110173191Y-95567500D01*
X109538191Y-95567500D01*
X109304802Y-95664173D01*
X109147474Y-95821500D01*
X107356538Y-95821500D01*
X107029012Y-95493974D01*
X107029530Y-94901324D01*
X106783534Y-94305967D01*
X106328429Y-93850067D01*
X105733502Y-93603032D01*
X105089324Y-93602470D01*
X104493967Y-93848466D01*
X104038067Y-94303571D01*
X103791032Y-94898498D01*
X103790470Y-95542676D01*
X104036466Y-96138033D01*
X104491571Y-96593933D01*
X105086498Y-96840968D01*
X105682449Y-96841487D01*
X106288480Y-97447519D01*
X106288481Y-97447519D01*
X106597494Y-97653995D01*
X106962000Y-97726500D01*
X109147474Y-97726500D01*
X109304801Y-97883827D01*
X109538190Y-97980500D01*
X109790809Y-97980500D01*
X110425809Y-97980500D01*
X110659198Y-97883827D01*
X110743999Y-97799025D01*
X110828801Y-97883827D01*
X111062190Y-97980500D01*
X111314809Y-97980500D01*
X111949809Y-97980500D01*
X112183198Y-97883827D01*
X112326642Y-97740383D01*
X112364673Y-97832198D01*
X112543301Y-98010827D01*
X112776690Y-98107500D01*
X113029309Y-98107500D01*
X113918309Y-98107500D01*
X114151698Y-98010827D01*
X114300000Y-97862525D01*
X114448302Y-98010827D01*
X114681691Y-98107500D01*
X114966750Y-98107500D01*
X115125500Y-97948750D01*
X115125500Y-96901000D01*
X115105500Y-96901000D01*
X115105500Y-96647000D01*
X115125500Y-96647000D01*
X115125500Y-95599250D01*
X114966750Y-95440500D01*
X114681691Y-95440500D01*
X114448302Y-95537173D01*
X114299999Y-95685474D01*
X114151699Y-95537173D01*
X113918310Y-95440500D01*
X113665691Y-95440500D01*
X113278499Y-95440500D01*
X113465898Y-95362877D01*
X113515275Y-95313500D01*
X114871500Y-95313500D01*
X115211705Y-95245829D01*
X115211706Y-95245829D01*
X115300497Y-95186500D01*
X115300498Y-95186500D01*
X115759809Y-95186500D01*
X115993198Y-95089827D01*
X116087025Y-94996000D01*
X116394230Y-94996000D01*
X116394230Y-95203589D01*
X116394230Y-95803029D01*
X116490903Y-96036418D01*
X116669531Y-96215047D01*
X116902920Y-96311720D01*
X116967000Y-96311720D01*
X116967000Y-96520000D01*
X117025004Y-96811605D01*
X117079894Y-96893753D01*
X116301708Y-97671939D01*
X116332000Y-97598810D01*
X116332000Y-97346191D01*
X116332000Y-97059750D01*
X116332000Y-96488250D01*
X116332000Y-96201809D01*
X116332000Y-95949190D01*
X116235327Y-95715801D01*
X116056698Y-95537173D01*
X115823309Y-95440500D01*
X115538250Y-95440500D01*
X115379500Y-95599250D01*
X115379500Y-96647000D01*
X116173250Y-96647000D01*
X116332000Y-96488250D01*
X116332000Y-97059750D01*
X116173250Y-96901000D01*
X115379500Y-96901000D01*
X115379500Y-97948750D01*
X115538250Y-98107500D01*
X115823309Y-98107500D01*
X115896439Y-98077208D01*
X115445024Y-98528624D01*
X115274337Y-98784075D01*
X115214400Y-99085400D01*
X115214400Y-99743202D01*
X115036378Y-99920914D01*
X114871687Y-100317532D01*
X114871313Y-100746984D01*
X115035311Y-101143889D01*
X115214400Y-101323290D01*
X115214400Y-101600000D01*
X115214400Y-103708200D01*
X115274337Y-104009525D01*
X115445024Y-104264976D01*
X117914539Y-106734491D01*
G36*
X118211600Y-99308600D02*
X118059200Y-99308600D01*
X118059200Y-99288600D01*
X117392450Y-99288600D01*
X117233700Y-99447350D01*
X117233700Y-99606791D01*
X117233700Y-99859410D01*
X117330373Y-100092799D01*
X117509002Y-100271427D01*
X117562078Y-100293411D01*
X117230850Y-100624640D01*
X117153111Y-100624640D01*
X117030376Y-100675478D01*
X117030687Y-100319416D01*
X116866689Y-99922511D01*
X116789200Y-99844886D01*
X116789200Y-99411552D01*
X117279301Y-98921451D01*
X117392450Y-99034600D01*
X118059200Y-99034600D01*
X118059200Y-99014600D01*
X118211600Y-99014600D01*
X118211600Y-99308600D01*
X118211600Y-99308600D01*
G37*
X118211600Y-99308600D02*
X118059200Y-99308600D01*
X118059200Y-99288600D01*
X117392450Y-99288600D01*
X117233700Y-99447350D01*
X117233700Y-99606791D01*
X117233700Y-99859410D01*
X117330373Y-100092799D01*
X117509002Y-100271427D01*
X117562078Y-100293411D01*
X117230850Y-100624640D01*
X117153111Y-100624640D01*
X117030376Y-100675478D01*
X117030687Y-100319416D01*
X116866689Y-99922511D01*
X116789200Y-99844886D01*
X116789200Y-99411552D01*
X117279301Y-98921451D01*
X117392450Y-99034600D01*
X118059200Y-99034600D01*
X118059200Y-99014600D01*
X118211600Y-99014600D01*
X118211600Y-99308600D01*
G36*
X119857200Y-97409000D02*
X119837200Y-97409000D01*
X119837200Y-97429000D01*
X119684800Y-97429000D01*
X119684800Y-97135000D01*
X119837200Y-97135000D01*
X119837200Y-97155000D01*
X119857200Y-97155000D01*
X119857200Y-97409000D01*
X119857200Y-97409000D01*
G37*
X119857200Y-97409000D02*
X119837200Y-97409000D01*
X119837200Y-97429000D01*
X119684800Y-97429000D01*
X119684800Y-97135000D01*
X119837200Y-97135000D01*
X119837200Y-97155000D01*
X119857200Y-97155000D01*
X119857200Y-97409000D01*
G36*
X120573800Y-96369566D02*
X120566027Y-96350801D01*
X120387398Y-96172173D01*
X120154009Y-96075500D01*
X119995950Y-96075500D01*
X119837202Y-96234248D01*
X119837202Y-96215508D01*
X120573800Y-95478910D01*
X120573800Y-96369566D01*
X120573800Y-96369566D01*
G37*
X120573800Y-96369566D02*
X120566027Y-96350801D01*
X120387398Y-96172173D01*
X120154009Y-96075500D01*
X119995950Y-96075500D01*
X119837202Y-96234248D01*
X119837202Y-96215508D01*
X120573800Y-95478910D01*
X120573800Y-96369566D01*
G36*
X123524970Y-106634280D02*
X122236921Y-106634280D01*
X122003532Y-106730953D01*
X121824903Y-106909581D01*
X121728230Y-107142970D01*
X121728230Y-107376920D01*
X121056400Y-106705090D01*
X121056400Y-106400600D01*
X121000330Y-106118716D01*
X121000330Y-106118715D01*
X120840655Y-105879745D01*
X120754930Y-105794020D01*
X120777000Y-105771950D01*
X120777000Y-105283000D01*
X121031000Y-105283000D01*
X121031000Y-105771950D01*
X121189750Y-105930700D01*
X121476191Y-105930700D01*
X121728810Y-105930700D01*
X121962199Y-105834027D01*
X122140827Y-105655398D01*
X122237500Y-105422009D01*
X122237500Y-105346810D01*
X123524970Y-106634280D01*
X123524970Y-106634280D01*
G37*
X123524970Y-106634280D02*
X122236921Y-106634280D01*
X122003532Y-106730953D01*
X121824903Y-106909581D01*
X121728230Y-107142970D01*
X121728230Y-107376920D01*
X121056400Y-106705090D01*
X121056400Y-106400600D01*
X121000330Y-106118716D01*
X121000330Y-106118715D01*
X120840655Y-105879745D01*
X120754930Y-105794020D01*
X120777000Y-105771950D01*
X120777000Y-105283000D01*
X121031000Y-105283000D01*
X121031000Y-105771950D01*
X121189750Y-105930700D01*
X121476191Y-105930700D01*
X121728810Y-105930700D01*
X121962199Y-105834027D01*
X122140827Y-105655398D01*
X122237500Y-105422009D01*
X122237500Y-105346810D01*
X123524970Y-106634280D01*
G36*
X129725558Y-97825333D02*
X129318570Y-98231613D01*
X129095754Y-98768214D01*
X129095247Y-99349237D01*
X129207464Y-99620825D01*
X128968500Y-99859790D01*
X128968500Y-99853750D01*
X128968500Y-99282250D01*
X128968500Y-99122809D01*
X128968500Y-98870190D01*
X128871827Y-98636801D01*
X128693198Y-98458173D01*
X128459809Y-98361500D01*
X128301750Y-98361500D01*
X128143000Y-98520250D01*
X128143000Y-99441000D01*
X128809750Y-99441000D01*
X128968500Y-99282250D01*
X128968500Y-99853750D01*
X128809750Y-99695000D01*
X128143000Y-99695000D01*
X128143000Y-100615750D01*
X128177770Y-100650520D01*
X127825500Y-101002790D01*
X127825500Y-100838691D01*
X127778800Y-100725949D01*
X127889000Y-100615750D01*
X127889000Y-99695000D01*
X127869000Y-99695000D01*
X127869000Y-99441000D01*
X127889000Y-99441000D01*
X127889000Y-98520250D01*
X127730250Y-98361500D01*
X127572191Y-98361500D01*
X127338802Y-98458173D01*
X127279400Y-98517574D01*
X127279400Y-98420952D01*
X128392952Y-97307400D01*
X129232376Y-97307400D01*
X129263262Y-97382149D01*
X129691596Y-97811231D01*
X129725558Y-97825333D01*
X129725558Y-97825333D01*
G37*
X129725558Y-97825333D02*
X129318570Y-98231613D01*
X129095754Y-98768214D01*
X129095247Y-99349237D01*
X129207464Y-99620825D01*
X128968500Y-99859790D01*
X128968500Y-99853750D01*
X128968500Y-99282250D01*
X128968500Y-99122809D01*
X128968500Y-98870190D01*
X128871827Y-98636801D01*
X128693198Y-98458173D01*
X128459809Y-98361500D01*
X128301750Y-98361500D01*
X128143000Y-98520250D01*
X128143000Y-99441000D01*
X128809750Y-99441000D01*
X128968500Y-99282250D01*
X128968500Y-99853750D01*
X128809750Y-99695000D01*
X128143000Y-99695000D01*
X128143000Y-100615750D01*
X128177770Y-100650520D01*
X127825500Y-101002790D01*
X127825500Y-100838691D01*
X127778800Y-100725949D01*
X127889000Y-100615750D01*
X127889000Y-99695000D01*
X127869000Y-99695000D01*
X127869000Y-99441000D01*
X127889000Y-99441000D01*
X127889000Y-98520250D01*
X127730250Y-98361500D01*
X127572191Y-98361500D01*
X127338802Y-98458173D01*
X127279400Y-98517574D01*
X127279400Y-98420952D01*
X128392952Y-97307400D01*
X129232376Y-97307400D01*
X129263262Y-97382149D01*
X129691596Y-97811231D01*
X129725558Y-97825333D01*
G36*
X131903000Y-92970980D02*
X131856327Y-92858302D01*
X131677699Y-92679673D01*
X131444310Y-92583000D01*
X131191691Y-92583000D01*
X129672753Y-92583000D01*
X129672753Y-91382082D01*
X129660876Y-90422204D01*
X129316398Y-89590561D01*
X128968745Y-89396860D01*
X127433605Y-90932000D01*
X128968745Y-92467140D01*
X129316398Y-92273439D01*
X129672753Y-91382082D01*
X129672753Y-92583000D01*
X129667691Y-92583000D01*
X129434302Y-92679673D01*
X129255673Y-92858301D01*
X129159000Y-93091690D01*
X129159000Y-93344309D01*
X129159000Y-94868309D01*
X129255673Y-95101698D01*
X129434301Y-95280327D01*
X129580167Y-95340747D01*
X129264769Y-95655596D01*
X129232794Y-95732600D01*
X128789140Y-95732600D01*
X128789140Y-92646745D01*
X127254000Y-91111605D01*
X127074395Y-91291210D01*
X127074395Y-90932000D01*
X125539255Y-89396860D01*
X125191602Y-89590561D01*
X124835247Y-90481918D01*
X124847124Y-91441796D01*
X125191602Y-92273439D01*
X125539255Y-92467140D01*
X127074395Y-90932000D01*
X127074395Y-91291210D01*
X125718860Y-92646745D01*
X125912561Y-92994398D01*
X126803918Y-93350753D01*
X127763796Y-93338876D01*
X128595439Y-92994398D01*
X128789140Y-92646745D01*
X128789140Y-95732600D01*
X128066805Y-95732600D01*
X128066800Y-95732599D01*
X127765475Y-95792537D01*
X127510024Y-95963224D01*
X126047500Y-97425748D01*
X126047500Y-96457191D01*
X125950827Y-96223802D01*
X125804131Y-96077105D01*
X125775530Y-95933316D01*
X125775530Y-95933315D01*
X125615855Y-95694345D01*
X124777655Y-94856145D01*
X124538685Y-94696470D01*
X124345950Y-94658133D01*
X124397770Y-94533030D01*
X124397770Y-94280411D01*
X124397770Y-93680971D01*
X124311211Y-93472000D01*
X124397770Y-93263030D01*
X124397770Y-93010411D01*
X124397770Y-92410971D01*
X124311211Y-92202000D01*
X124397770Y-91993030D01*
X124397770Y-91740411D01*
X124397770Y-91140971D01*
X124301097Y-90907582D01*
X124122469Y-90728953D01*
X123889080Y-90632280D01*
X123636461Y-90632280D01*
X122236921Y-90632280D01*
X122003532Y-90728953D01*
X121824903Y-90907581D01*
X121728230Y-91140970D01*
X121728230Y-91393589D01*
X121728230Y-91993029D01*
X121814788Y-92201999D01*
X121811272Y-92210487D01*
X121653145Y-92316145D01*
X119050457Y-94918832D01*
X118977211Y-94742000D01*
X119063770Y-94533030D01*
X119063770Y-94280411D01*
X119063770Y-93680971D01*
X118977211Y-93472000D01*
X119063770Y-93263030D01*
X119063770Y-93010411D01*
X119063770Y-92410971D01*
X118977211Y-92202000D01*
X119063770Y-91993029D01*
X119063770Y-91852750D01*
X119063770Y-91281250D01*
X119063770Y-91140971D01*
X118967097Y-90907582D01*
X118788469Y-90728953D01*
X118555080Y-90632280D01*
X118302461Y-90632280D01*
X118014750Y-90632280D01*
X117856000Y-90791030D01*
X117856000Y-91440000D01*
X118905020Y-91440000D01*
X119063770Y-91281250D01*
X119063770Y-91852750D01*
X118905020Y-91694000D01*
X117856000Y-91694000D01*
X117856000Y-91714000D01*
X117602000Y-91714000D01*
X117602000Y-91694000D01*
X117602000Y-91440000D01*
X117602000Y-90791030D01*
X117443250Y-90632280D01*
X117155539Y-90632280D01*
X116902920Y-90632280D01*
X116669531Y-90728953D01*
X116490903Y-90907582D01*
X116394230Y-91140971D01*
X116394230Y-91281250D01*
X116552980Y-91440000D01*
X117602000Y-91440000D01*
X117602000Y-91694000D01*
X116552980Y-91694000D01*
X116394230Y-91852750D01*
X116394230Y-91948000D01*
X116332000Y-91948000D01*
X116332000Y-90994810D01*
X116332000Y-90742191D01*
X116332000Y-90455750D01*
X116173250Y-90297000D01*
X115379500Y-90297000D01*
X115379500Y-91344750D01*
X115538250Y-91503500D01*
X115823309Y-91503500D01*
X116056698Y-91406827D01*
X116235327Y-91228199D01*
X116332000Y-90994810D01*
X116332000Y-91948000D01*
X116087025Y-91948000D01*
X115993199Y-91854173D01*
X115759810Y-91757500D01*
X115507191Y-91757500D01*
X115300498Y-91757500D01*
X115211706Y-91698171D01*
X114871500Y-91630500D01*
X113515275Y-91630500D01*
X113465899Y-91581123D01*
X113278500Y-91503500D01*
X113918309Y-91503500D01*
X114151698Y-91406827D01*
X114300000Y-91258525D01*
X114448302Y-91406827D01*
X114681691Y-91503500D01*
X114966750Y-91503500D01*
X115125500Y-91344750D01*
X115125500Y-90297000D01*
X115105500Y-90297000D01*
X115105500Y-90043000D01*
X115125500Y-90043000D01*
X115125500Y-90023000D01*
X115379500Y-90023000D01*
X115379500Y-90043000D01*
X116173250Y-90043000D01*
X116332000Y-89884250D01*
X116332000Y-89597809D01*
X116332000Y-89345190D01*
X116235327Y-89111801D01*
X116200525Y-89077000D01*
X125797005Y-89077000D01*
X125718860Y-89217255D01*
X127254000Y-90752395D01*
X128789140Y-89217255D01*
X128710994Y-89077000D01*
X131903000Y-89077000D01*
X131903000Y-92970980D01*
X131903000Y-92970980D01*
G37*
X131903000Y-92970980D02*
X131856327Y-92858302D01*
X131677699Y-92679673D01*
X131444310Y-92583000D01*
X131191691Y-92583000D01*
X129672753Y-92583000D01*
X129672753Y-91382082D01*
X129660876Y-90422204D01*
X129316398Y-89590561D01*
X128968745Y-89396860D01*
X127433605Y-90932000D01*
X128968745Y-92467140D01*
X129316398Y-92273439D01*
X129672753Y-91382082D01*
X129672753Y-92583000D01*
X129667691Y-92583000D01*
X129434302Y-92679673D01*
X129255673Y-92858301D01*
X129159000Y-93091690D01*
X129159000Y-93344309D01*
X129159000Y-94868309D01*
X129255673Y-95101698D01*
X129434301Y-95280327D01*
X129580167Y-95340747D01*
X129264769Y-95655596D01*
X129232794Y-95732600D01*
X128789140Y-95732600D01*
X128789140Y-92646745D01*
X127254000Y-91111605D01*
X127074395Y-91291210D01*
X127074395Y-90932000D01*
X125539255Y-89396860D01*
X125191602Y-89590561D01*
X124835247Y-90481918D01*
X124847124Y-91441796D01*
X125191602Y-92273439D01*
X125539255Y-92467140D01*
X127074395Y-90932000D01*
X127074395Y-91291210D01*
X125718860Y-92646745D01*
X125912561Y-92994398D01*
X126803918Y-93350753D01*
X127763796Y-93338876D01*
X128595439Y-92994398D01*
X128789140Y-92646745D01*
X128789140Y-95732600D01*
X128066805Y-95732600D01*
X128066800Y-95732599D01*
X127765475Y-95792537D01*
X127510024Y-95963224D01*
X126047500Y-97425748D01*
X126047500Y-96457191D01*
X125950827Y-96223802D01*
X125804131Y-96077105D01*
X125775530Y-95933316D01*
X125775530Y-95933315D01*
X125615855Y-95694345D01*
X124777655Y-94856145D01*
X124538685Y-94696470D01*
X124345950Y-94658133D01*
X124397770Y-94533030D01*
X124397770Y-94280411D01*
X124397770Y-93680971D01*
X124311211Y-93472000D01*
X124397770Y-93263030D01*
X124397770Y-93010411D01*
X124397770Y-92410971D01*
X124311211Y-92202000D01*
X124397770Y-91993030D01*
X124397770Y-91740411D01*
X124397770Y-91140971D01*
X124301097Y-90907582D01*
X124122469Y-90728953D01*
X123889080Y-90632280D01*
X123636461Y-90632280D01*
X122236921Y-90632280D01*
X122003532Y-90728953D01*
X121824903Y-90907581D01*
X121728230Y-91140970D01*
X121728230Y-91393589D01*
X121728230Y-91993029D01*
X121814788Y-92201999D01*
X121811272Y-92210487D01*
X121653145Y-92316145D01*
X119050457Y-94918832D01*
X118977211Y-94742000D01*
X119063770Y-94533030D01*
X119063770Y-94280411D01*
X119063770Y-93680971D01*
X118977211Y-93472000D01*
X119063770Y-93263030D01*
X119063770Y-93010411D01*
X119063770Y-92410971D01*
X118977211Y-92202000D01*
X119063770Y-91993029D01*
X119063770Y-91852750D01*
X119063770Y-91281250D01*
X119063770Y-91140971D01*
X118967097Y-90907582D01*
X118788469Y-90728953D01*
X118555080Y-90632280D01*
X118302461Y-90632280D01*
X118014750Y-90632280D01*
X117856000Y-90791030D01*
X117856000Y-91440000D01*
X118905020Y-91440000D01*
X119063770Y-91281250D01*
X119063770Y-91852750D01*
X118905020Y-91694000D01*
X117856000Y-91694000D01*
X117856000Y-91714000D01*
X117602000Y-91714000D01*
X117602000Y-91694000D01*
X117602000Y-91440000D01*
X117602000Y-90791030D01*
X117443250Y-90632280D01*
X117155539Y-90632280D01*
X116902920Y-90632280D01*
X116669531Y-90728953D01*
X116490903Y-90907582D01*
X116394230Y-91140971D01*
X116394230Y-91281250D01*
X116552980Y-91440000D01*
X117602000Y-91440000D01*
X117602000Y-91694000D01*
X116552980Y-91694000D01*
X116394230Y-91852750D01*
X116394230Y-91948000D01*
X116332000Y-91948000D01*
X116332000Y-90994810D01*
X116332000Y-90742191D01*
X116332000Y-90455750D01*
X116173250Y-90297000D01*
X115379500Y-90297000D01*
X115379500Y-91344750D01*
X115538250Y-91503500D01*
X115823309Y-91503500D01*
X116056698Y-91406827D01*
X116235327Y-91228199D01*
X116332000Y-90994810D01*
X116332000Y-91948000D01*
X116087025Y-91948000D01*
X115993199Y-91854173D01*
X115759810Y-91757500D01*
X115507191Y-91757500D01*
X115300498Y-91757500D01*
X115211706Y-91698171D01*
X114871500Y-91630500D01*
X113515275Y-91630500D01*
X113465899Y-91581123D01*
X113278500Y-91503500D01*
X113918309Y-91503500D01*
X114151698Y-91406827D01*
X114300000Y-91258525D01*
X114448302Y-91406827D01*
X114681691Y-91503500D01*
X114966750Y-91503500D01*
X115125500Y-91344750D01*
X115125500Y-90297000D01*
X115105500Y-90297000D01*
X115105500Y-90043000D01*
X115125500Y-90043000D01*
X115125500Y-90023000D01*
X115379500Y-90023000D01*
X115379500Y-90043000D01*
X116173250Y-90043000D01*
X116332000Y-89884250D01*
X116332000Y-89597809D01*
X116332000Y-89345190D01*
X116235327Y-89111801D01*
X116200525Y-89077000D01*
X125797005Y-89077000D01*
X125718860Y-89217255D01*
X127254000Y-90752395D01*
X128789140Y-89217255D01*
X128710994Y-89077000D01*
X131903000Y-89077000D01*
X131903000Y-92970980D01*
G36*
X131903000Y-114123000D02*
X131402610Y-114123000D01*
X131402610Y-110246215D01*
X130556000Y-109399605D01*
X130376395Y-109579210D01*
X130376395Y-109220000D01*
X129529785Y-108373390D01*
X129281024Y-108450656D01*
X129083660Y-108997131D01*
X129110447Y-109577535D01*
X129281024Y-109989344D01*
X129529785Y-110066610D01*
X130376395Y-109220000D01*
X130376395Y-109579210D01*
X129709390Y-110246215D01*
X129786656Y-110494976D01*
X130333131Y-110692340D01*
X130913535Y-110665553D01*
X131325344Y-110494976D01*
X131402610Y-110246215D01*
X131402610Y-114123000D01*
X129672753Y-114123000D01*
X129672753Y-112718082D01*
X129660876Y-111758204D01*
X129316398Y-110926561D01*
X128968745Y-110732860D01*
X127433605Y-112268000D01*
X128968745Y-113803140D01*
X129316398Y-113609439D01*
X129672753Y-112718082D01*
X129672753Y-114123000D01*
X128710994Y-114123000D01*
X128789140Y-113982745D01*
X127254000Y-112447605D01*
X125718860Y-113982745D01*
X125797005Y-114123000D01*
X119258017Y-114123000D01*
X119316500Y-113981810D01*
X119316500Y-113729191D01*
X119316500Y-112586191D01*
X119219827Y-112352802D01*
X119126000Y-112258974D01*
X119126000Y-112115876D01*
X119173325Y-112106463D01*
X119428776Y-111935776D01*
X119936776Y-111427776D01*
X120107463Y-111172325D01*
X120167400Y-110871000D01*
X120167400Y-107899510D01*
X121627745Y-109359855D01*
X121811273Y-109482484D01*
X121811273Y-109482485D01*
X121728230Y-109682970D01*
X121728230Y-109935589D01*
X121728230Y-110535029D01*
X121814788Y-110743999D01*
X121728230Y-110952970D01*
X121728230Y-111205589D01*
X121728230Y-111805029D01*
X121824903Y-112038418D01*
X122003531Y-112217047D01*
X122236920Y-112313720D01*
X122489539Y-112313720D01*
X123889079Y-112313720D01*
X124122468Y-112217047D01*
X124223915Y-112115600D01*
X124561600Y-112115600D01*
X124838249Y-112060571D01*
X124847124Y-112777796D01*
X125191602Y-113609439D01*
X125539255Y-113803140D01*
X127074395Y-112268000D01*
X127060252Y-112253857D01*
X127239857Y-112074252D01*
X127254000Y-112088395D01*
X128789140Y-110553255D01*
X128595439Y-110205602D01*
X127704082Y-109849247D01*
X127045547Y-109857395D01*
X127101600Y-109575600D01*
X127101600Y-107378611D01*
X127188384Y-107378687D01*
X127585289Y-107214689D01*
X127889222Y-106911286D01*
X128053913Y-106514668D01*
X128054287Y-106085216D01*
X127890289Y-105688311D01*
X127766541Y-105564347D01*
X127825500Y-105422010D01*
X127825500Y-105169391D01*
X127825500Y-104774310D01*
X127825500Y-104737591D01*
X127825500Y-104661010D01*
X129229824Y-106065334D01*
X129095754Y-106388214D01*
X129095247Y-106969237D01*
X129317126Y-107506226D01*
X129727613Y-107917430D01*
X129790365Y-107943487D01*
X129786656Y-107945024D01*
X129709390Y-108193785D01*
X130556000Y-109040395D01*
X131402610Y-108193785D01*
X131325344Y-107945024D01*
X131321925Y-107943789D01*
X131382226Y-107918874D01*
X131793430Y-107508387D01*
X131903000Y-107244512D01*
X131903000Y-108624537D01*
X131830976Y-108450656D01*
X131582215Y-108373390D01*
X130735605Y-109220000D01*
X131582215Y-110066610D01*
X131830976Y-109989344D01*
X131903000Y-109789919D01*
X131903000Y-114123000D01*
X131903000Y-114123000D01*
G37*
X131903000Y-114123000D02*
X131402610Y-114123000D01*
X131402610Y-110246215D01*
X130556000Y-109399605D01*
X130376395Y-109579210D01*
X130376395Y-109220000D01*
X129529785Y-108373390D01*
X129281024Y-108450656D01*
X129083660Y-108997131D01*
X129110447Y-109577535D01*
X129281024Y-109989344D01*
X129529785Y-110066610D01*
X130376395Y-109220000D01*
X130376395Y-109579210D01*
X129709390Y-110246215D01*
X129786656Y-110494976D01*
X130333131Y-110692340D01*
X130913535Y-110665553D01*
X131325344Y-110494976D01*
X131402610Y-110246215D01*
X131402610Y-114123000D01*
X129672753Y-114123000D01*
X129672753Y-112718082D01*
X129660876Y-111758204D01*
X129316398Y-110926561D01*
X128968745Y-110732860D01*
X127433605Y-112268000D01*
X128968745Y-113803140D01*
X129316398Y-113609439D01*
X129672753Y-112718082D01*
X129672753Y-114123000D01*
X128710994Y-114123000D01*
X128789140Y-113982745D01*
X127254000Y-112447605D01*
X125718860Y-113982745D01*
X125797005Y-114123000D01*
X119258017Y-114123000D01*
X119316500Y-113981810D01*
X119316500Y-113729191D01*
X119316500Y-112586191D01*
X119219827Y-112352802D01*
X119126000Y-112258974D01*
X119126000Y-112115876D01*
X119173325Y-112106463D01*
X119428776Y-111935776D01*
X119936776Y-111427776D01*
X120107463Y-111172325D01*
X120167400Y-110871000D01*
X120167400Y-107899510D01*
X121627745Y-109359855D01*
X121811273Y-109482484D01*
X121811273Y-109482485D01*
X121728230Y-109682970D01*
X121728230Y-109935589D01*
X121728230Y-110535029D01*
X121814788Y-110743999D01*
X121728230Y-110952970D01*
X121728230Y-111205589D01*
X121728230Y-111805029D01*
X121824903Y-112038418D01*
X122003531Y-112217047D01*
X122236920Y-112313720D01*
X122489539Y-112313720D01*
X123889079Y-112313720D01*
X124122468Y-112217047D01*
X124223915Y-112115600D01*
X124561600Y-112115600D01*
X124838249Y-112060571D01*
X124847124Y-112777796D01*
X125191602Y-113609439D01*
X125539255Y-113803140D01*
X127074395Y-112268000D01*
X127060252Y-112253857D01*
X127239857Y-112074252D01*
X127254000Y-112088395D01*
X128789140Y-110553255D01*
X128595439Y-110205602D01*
X127704082Y-109849247D01*
X127045547Y-109857395D01*
X127101600Y-109575600D01*
X127101600Y-107378611D01*
X127188384Y-107378687D01*
X127585289Y-107214689D01*
X127889222Y-106911286D01*
X128053913Y-106514668D01*
X128054287Y-106085216D01*
X127890289Y-105688311D01*
X127766541Y-105564347D01*
X127825500Y-105422010D01*
X127825500Y-105169391D01*
X127825500Y-104774310D01*
X127825500Y-104737591D01*
X127825500Y-104661010D01*
X129229824Y-106065334D01*
X129095754Y-106388214D01*
X129095247Y-106969237D01*
X129317126Y-107506226D01*
X129727613Y-107917430D01*
X129790365Y-107943487D01*
X129786656Y-107945024D01*
X129709390Y-108193785D01*
X130556000Y-109040395D01*
X131402610Y-108193785D01*
X131325344Y-107945024D01*
X131321925Y-107943789D01*
X131382226Y-107918874D01*
X131793430Y-107508387D01*
X131903000Y-107244512D01*
X131903000Y-108624537D01*
X131830976Y-108450656D01*
X131582215Y-108373390D01*
X130735605Y-109220000D01*
X131582215Y-110066610D01*
X131830976Y-109989344D01*
X131903000Y-109789919D01*
X131903000Y-114123000D01*
M02*
