G04 #@! TF.FileFunction,Copper,L2,Bot,Signal*
%FSLAX46Y46*%
G04 Gerber Fmt 4.6, Leading zero omitted, Abs format (unit mm)*
G04 Created by KiCad (PCBNEW (2014-11-09 BZR 5259)-product) date Sat 15 Nov 2014 10:42:28 PM PST*
%MOMM*%
G01*
G04 APERTURE LIST*
%ADD10C,0.050000*%
%ADD11R,1.524000X1.524000*%
%ADD12C,1.778000*%
%ADD13C,1.651000*%
%ADD14C,3.556000*%
%ADD15C,5.080000*%
%ADD16C,1.968500*%
%ADD17C,0.889000*%
%ADD18C,0.254000*%
%ADD19C,0.304800*%
G04 APERTURE END LIST*
D10*
D11*
X130556000Y-93980000D03*
D12*
X130556000Y-96520000D03*
D13*
X130556000Y-99060000D03*
X130556000Y-101600000D03*
X130556000Y-104140000D03*
X130556000Y-106680000D03*
X130556000Y-109220000D03*
D14*
X127254000Y-90932000D03*
X127254000Y-112268000D03*
D15*
X104648000Y-101600000D03*
D16*
X105410000Y-107724000D03*
X105410000Y-111224000D03*
X105410000Y-91722000D03*
X105410000Y-95222000D03*
D17*
X116636800Y-90170000D03*
X120396000Y-95910400D03*
X117043200Y-99568000D03*
X122123200Y-105841800D03*
X128828800Y-98069400D03*
X121666000Y-113030000D03*
X116001800Y-111582200D03*
X126974600Y-106299000D03*
X120764300Y-100215700D03*
X115951000Y-100533200D03*
D18*
X120218200Y-111582200D02*
X121666000Y-113030000D01*
X116001800Y-111582200D02*
X120218200Y-111582200D01*
D19*
X126974600Y-106299000D02*
X126847600Y-106299000D01*
X126847600Y-106299000D02*
X120764300Y-100215700D01*
X130556000Y-93980000D02*
X127000000Y-93980000D01*
X127000000Y-93980000D02*
X120764300Y-100215700D01*
D18*
X120446800Y-100533200D02*
X115951000Y-100533200D01*
X120446800Y-100533200D02*
X120764300Y-100215700D01*
D19*
X130556000Y-93980000D02*
X130530600Y-93980000D01*
D18*
G36*
X131903000Y-114123000D02*
X131402610Y-114123000D01*
X131402610Y-110246215D01*
X130556000Y-109399605D01*
X130376395Y-109579210D01*
X130376395Y-109220000D01*
X129529785Y-108373390D01*
X129281024Y-108450656D01*
X129083660Y-108997131D01*
X129110447Y-109577535D01*
X129281024Y-109989344D01*
X129529785Y-110066610D01*
X130376395Y-109220000D01*
X130376395Y-109579210D01*
X129709390Y-110246215D01*
X129786656Y-110494976D01*
X130333131Y-110692340D01*
X130913535Y-110665553D01*
X131325344Y-110494976D01*
X131402610Y-110246215D01*
X131402610Y-114123000D01*
X129672753Y-114123000D01*
X129672753Y-112718082D01*
X129660876Y-111758204D01*
X129316398Y-110926561D01*
X128968745Y-110732860D01*
X128789140Y-110912465D01*
X128789140Y-110553255D01*
X128595439Y-110205602D01*
X127704082Y-109849247D01*
X126744204Y-109861124D01*
X125912561Y-110205602D01*
X125718860Y-110553255D01*
X127254000Y-112088395D01*
X128789140Y-110553255D01*
X128789140Y-110912465D01*
X127433605Y-112268000D01*
X128968745Y-113803140D01*
X129316398Y-113609439D01*
X129672753Y-112718082D01*
X129672753Y-114123000D01*
X128710994Y-114123000D01*
X128789140Y-113982745D01*
X127254000Y-112447605D01*
X127074395Y-112627210D01*
X127074395Y-112268000D01*
X125539255Y-110732860D01*
X125191602Y-110926561D01*
X124835247Y-111817918D01*
X124847124Y-112777796D01*
X125191602Y-113609439D01*
X125539255Y-113803140D01*
X127074395Y-112268000D01*
X127074395Y-112627210D01*
X125718860Y-113982745D01*
X125797005Y-114123000D01*
X107823018Y-114123000D01*
X107823018Y-100968543D01*
X107339685Y-99801583D01*
X107339584Y-99801431D01*
X107029530Y-99593269D01*
X107029530Y-94901324D01*
X107029530Y-91401324D01*
X106783534Y-90805967D01*
X106328429Y-90350067D01*
X105733502Y-90103032D01*
X105089324Y-90102470D01*
X104493967Y-90348466D01*
X104038067Y-90803571D01*
X103791032Y-91398498D01*
X103790470Y-92042676D01*
X104036466Y-92638033D01*
X104491571Y-93093933D01*
X105086498Y-93340968D01*
X105730676Y-93341530D01*
X106326033Y-93095534D01*
X106781933Y-92640429D01*
X107028968Y-92045502D01*
X107029530Y-91401324D01*
X107029530Y-94901324D01*
X106783534Y-94305967D01*
X106328429Y-93850067D01*
X105733502Y-93603032D01*
X105089324Y-93602470D01*
X104493967Y-93848466D01*
X104038067Y-94303571D01*
X103791032Y-94898498D01*
X103790470Y-95542676D01*
X104036466Y-96138033D01*
X104491571Y-96593933D01*
X105086498Y-96840968D01*
X105730676Y-96841530D01*
X106326033Y-96595534D01*
X106781933Y-96140429D01*
X107028968Y-95545502D01*
X107029530Y-94901324D01*
X107029530Y-99593269D01*
X106912744Y-99514862D01*
X106733138Y-99694467D01*
X106733138Y-99335256D01*
X106446569Y-98908416D01*
X105279637Y-98425018D01*
X104016543Y-98424982D01*
X102849583Y-98908315D01*
X102849431Y-98908416D01*
X102562862Y-99335256D01*
X104648000Y-101420395D01*
X106733138Y-99335256D01*
X106733138Y-99694467D01*
X104827605Y-101600000D01*
X106912744Y-103685138D01*
X107339584Y-103398569D01*
X107822982Y-102231637D01*
X107823018Y-100968543D01*
X107823018Y-114123000D01*
X107029530Y-114123000D01*
X107029530Y-110903324D01*
X107029530Y-107403324D01*
X106783534Y-106807967D01*
X106733138Y-106757482D01*
X106733138Y-103864744D01*
X104648000Y-101779605D01*
X102562862Y-103864744D01*
X102849431Y-104291584D01*
X104016363Y-104774982D01*
X105279457Y-104775018D01*
X106446417Y-104291685D01*
X106446569Y-104291584D01*
X106733138Y-103864744D01*
X106733138Y-106757482D01*
X106328429Y-106352067D01*
X105733502Y-106105032D01*
X105089324Y-106104470D01*
X104493967Y-106350466D01*
X104038067Y-106805571D01*
X103791032Y-107400498D01*
X103790470Y-108044676D01*
X104036466Y-108640033D01*
X104491571Y-109095933D01*
X105086498Y-109342968D01*
X105730676Y-109343530D01*
X106326033Y-109097534D01*
X106781933Y-108642429D01*
X107028968Y-108047502D01*
X107029530Y-107403324D01*
X107029530Y-110903324D01*
X106783534Y-110307967D01*
X106328429Y-109852067D01*
X105733502Y-109605032D01*
X105089324Y-109604470D01*
X104493967Y-109850466D01*
X104038067Y-110305571D01*
X103791032Y-110900498D01*
X103790470Y-111544676D01*
X104036466Y-112140033D01*
X104491571Y-112595933D01*
X105086498Y-112842968D01*
X105730676Y-112843530D01*
X106326033Y-112597534D01*
X106781933Y-112142429D01*
X107028968Y-111547502D01*
X107029530Y-110903324D01*
X107029530Y-114123000D01*
X102285000Y-114123000D01*
X102285000Y-103619171D01*
X102383256Y-103685138D01*
X104468395Y-101600000D01*
X102383256Y-99514862D01*
X102285000Y-99580828D01*
X102285000Y-89077000D01*
X125797005Y-89077000D01*
X125718860Y-89217255D01*
X127254000Y-90752395D01*
X128789140Y-89217255D01*
X128710994Y-89077000D01*
X131903000Y-89077000D01*
X131903000Y-92970980D01*
X131856327Y-92858302D01*
X131677699Y-92679673D01*
X131444310Y-92583000D01*
X131191691Y-92583000D01*
X129672753Y-92583000D01*
X129672753Y-91382082D01*
X129660876Y-90422204D01*
X129316398Y-89590561D01*
X128968745Y-89396860D01*
X127433605Y-90932000D01*
X128968745Y-92467140D01*
X129316398Y-92273439D01*
X129672753Y-91382082D01*
X129672753Y-92583000D01*
X129667691Y-92583000D01*
X129434302Y-92679673D01*
X129255673Y-92858301D01*
X129159000Y-93091690D01*
X129159000Y-93192600D01*
X128116937Y-93192600D01*
X128595439Y-92994398D01*
X128789140Y-92646745D01*
X127254000Y-91111605D01*
X127074395Y-91291210D01*
X127074395Y-90932000D01*
X125539255Y-89396860D01*
X125191602Y-89590561D01*
X124835247Y-90481918D01*
X124847124Y-91441796D01*
X125191602Y-92273439D01*
X125539255Y-92467140D01*
X127074395Y-90932000D01*
X127074395Y-91291210D01*
X125718860Y-92646745D01*
X125912561Y-92994398D01*
X126646106Y-93287661D01*
X126443224Y-93423224D01*
X120730278Y-99136169D01*
X120550516Y-99136013D01*
X120153611Y-99300011D01*
X119849678Y-99603414D01*
X119780006Y-99771200D01*
X116715641Y-99771200D01*
X116563286Y-99618578D01*
X116166668Y-99453887D01*
X115737216Y-99453513D01*
X115340311Y-99617511D01*
X115036378Y-99920914D01*
X114871687Y-100317532D01*
X114871313Y-100746984D01*
X115035311Y-101143889D01*
X115338714Y-101447822D01*
X115735332Y-101612513D01*
X116164784Y-101612887D01*
X116561689Y-101448889D01*
X116715646Y-101295200D01*
X120446800Y-101295200D01*
X120446800Y-101295199D01*
X120515954Y-101281444D01*
X120548632Y-101295013D01*
X120730219Y-101295171D01*
X125894959Y-106459911D01*
X125894913Y-106512784D01*
X126058911Y-106909689D01*
X126362314Y-107213622D01*
X126758932Y-107378313D01*
X127188384Y-107378687D01*
X127585289Y-107214689D01*
X127889222Y-106911286D01*
X128053913Y-106514668D01*
X128054287Y-106085216D01*
X127890289Y-105688311D01*
X127586886Y-105384378D01*
X127190268Y-105219687D01*
X126881570Y-105219418D01*
X121877852Y-100215700D01*
X127326152Y-94767400D01*
X129159000Y-94767400D01*
X129159000Y-94868309D01*
X129255673Y-95101698D01*
X129434301Y-95280327D01*
X129580167Y-95340747D01*
X129264769Y-95655596D01*
X129032265Y-96215528D01*
X129031736Y-96821812D01*
X129263262Y-97382149D01*
X129691596Y-97811231D01*
X129725558Y-97825333D01*
X129318570Y-98231613D01*
X129095754Y-98768214D01*
X129095247Y-99349237D01*
X129317126Y-99886226D01*
X129727613Y-100297430D01*
X129805578Y-100329804D01*
X129729774Y-100361126D01*
X129318570Y-100771613D01*
X129095754Y-101308214D01*
X129095247Y-101889237D01*
X129317126Y-102426226D01*
X129727613Y-102837430D01*
X129805578Y-102869804D01*
X129729774Y-102901126D01*
X129318570Y-103311613D01*
X129095754Y-103848214D01*
X129095247Y-104429237D01*
X129317126Y-104966226D01*
X129727613Y-105377430D01*
X129805578Y-105409804D01*
X129729774Y-105441126D01*
X129318570Y-105851613D01*
X129095754Y-106388214D01*
X129095247Y-106969237D01*
X129317126Y-107506226D01*
X129727613Y-107917430D01*
X129790365Y-107943487D01*
X129786656Y-107945024D01*
X129709390Y-108193785D01*
X130556000Y-109040395D01*
X131402610Y-108193785D01*
X131325344Y-107945024D01*
X131321925Y-107943789D01*
X131382226Y-107918874D01*
X131793430Y-107508387D01*
X131903000Y-107244512D01*
X131903000Y-108624537D01*
X131830976Y-108450656D01*
X131582215Y-108373390D01*
X130735605Y-109220000D01*
X131582215Y-110066610D01*
X131830976Y-109989344D01*
X131903000Y-109789919D01*
X131903000Y-114123000D01*
X131903000Y-114123000D01*
G37*
X131903000Y-114123000D02*
X131402610Y-114123000D01*
X131402610Y-110246215D01*
X130556000Y-109399605D01*
X130376395Y-109579210D01*
X130376395Y-109220000D01*
X129529785Y-108373390D01*
X129281024Y-108450656D01*
X129083660Y-108997131D01*
X129110447Y-109577535D01*
X129281024Y-109989344D01*
X129529785Y-110066610D01*
X130376395Y-109220000D01*
X130376395Y-109579210D01*
X129709390Y-110246215D01*
X129786656Y-110494976D01*
X130333131Y-110692340D01*
X130913535Y-110665553D01*
X131325344Y-110494976D01*
X131402610Y-110246215D01*
X131402610Y-114123000D01*
X129672753Y-114123000D01*
X129672753Y-112718082D01*
X129660876Y-111758204D01*
X129316398Y-110926561D01*
X128968745Y-110732860D01*
X128789140Y-110912465D01*
X128789140Y-110553255D01*
X128595439Y-110205602D01*
X127704082Y-109849247D01*
X126744204Y-109861124D01*
X125912561Y-110205602D01*
X125718860Y-110553255D01*
X127254000Y-112088395D01*
X128789140Y-110553255D01*
X128789140Y-110912465D01*
X127433605Y-112268000D01*
X128968745Y-113803140D01*
X129316398Y-113609439D01*
X129672753Y-112718082D01*
X129672753Y-114123000D01*
X128710994Y-114123000D01*
X128789140Y-113982745D01*
X127254000Y-112447605D01*
X127074395Y-112627210D01*
X127074395Y-112268000D01*
X125539255Y-110732860D01*
X125191602Y-110926561D01*
X124835247Y-111817918D01*
X124847124Y-112777796D01*
X125191602Y-113609439D01*
X125539255Y-113803140D01*
X127074395Y-112268000D01*
X127074395Y-112627210D01*
X125718860Y-113982745D01*
X125797005Y-114123000D01*
X107823018Y-114123000D01*
X107823018Y-100968543D01*
X107339685Y-99801583D01*
X107339584Y-99801431D01*
X107029530Y-99593269D01*
X107029530Y-94901324D01*
X107029530Y-91401324D01*
X106783534Y-90805967D01*
X106328429Y-90350067D01*
X105733502Y-90103032D01*
X105089324Y-90102470D01*
X104493967Y-90348466D01*
X104038067Y-90803571D01*
X103791032Y-91398498D01*
X103790470Y-92042676D01*
X104036466Y-92638033D01*
X104491571Y-93093933D01*
X105086498Y-93340968D01*
X105730676Y-93341530D01*
X106326033Y-93095534D01*
X106781933Y-92640429D01*
X107028968Y-92045502D01*
X107029530Y-91401324D01*
X107029530Y-94901324D01*
X106783534Y-94305967D01*
X106328429Y-93850067D01*
X105733502Y-93603032D01*
X105089324Y-93602470D01*
X104493967Y-93848466D01*
X104038067Y-94303571D01*
X103791032Y-94898498D01*
X103790470Y-95542676D01*
X104036466Y-96138033D01*
X104491571Y-96593933D01*
X105086498Y-96840968D01*
X105730676Y-96841530D01*
X106326033Y-96595534D01*
X106781933Y-96140429D01*
X107028968Y-95545502D01*
X107029530Y-94901324D01*
X107029530Y-99593269D01*
X106912744Y-99514862D01*
X106733138Y-99694467D01*
X106733138Y-99335256D01*
X106446569Y-98908416D01*
X105279637Y-98425018D01*
X104016543Y-98424982D01*
X102849583Y-98908315D01*
X102849431Y-98908416D01*
X102562862Y-99335256D01*
X104648000Y-101420395D01*
X106733138Y-99335256D01*
X106733138Y-99694467D01*
X104827605Y-101600000D01*
X106912744Y-103685138D01*
X107339584Y-103398569D01*
X107822982Y-102231637D01*
X107823018Y-100968543D01*
X107823018Y-114123000D01*
X107029530Y-114123000D01*
X107029530Y-110903324D01*
X107029530Y-107403324D01*
X106783534Y-106807967D01*
X106733138Y-106757482D01*
X106733138Y-103864744D01*
X104648000Y-101779605D01*
X102562862Y-103864744D01*
X102849431Y-104291584D01*
X104016363Y-104774982D01*
X105279457Y-104775018D01*
X106446417Y-104291685D01*
X106446569Y-104291584D01*
X106733138Y-103864744D01*
X106733138Y-106757482D01*
X106328429Y-106352067D01*
X105733502Y-106105032D01*
X105089324Y-106104470D01*
X104493967Y-106350466D01*
X104038067Y-106805571D01*
X103791032Y-107400498D01*
X103790470Y-108044676D01*
X104036466Y-108640033D01*
X104491571Y-109095933D01*
X105086498Y-109342968D01*
X105730676Y-109343530D01*
X106326033Y-109097534D01*
X106781933Y-108642429D01*
X107028968Y-108047502D01*
X107029530Y-107403324D01*
X107029530Y-110903324D01*
X106783534Y-110307967D01*
X106328429Y-109852067D01*
X105733502Y-109605032D01*
X105089324Y-109604470D01*
X104493967Y-109850466D01*
X104038067Y-110305571D01*
X103791032Y-110900498D01*
X103790470Y-111544676D01*
X104036466Y-112140033D01*
X104491571Y-112595933D01*
X105086498Y-112842968D01*
X105730676Y-112843530D01*
X106326033Y-112597534D01*
X106781933Y-112142429D01*
X107028968Y-111547502D01*
X107029530Y-110903324D01*
X107029530Y-114123000D01*
X102285000Y-114123000D01*
X102285000Y-103619171D01*
X102383256Y-103685138D01*
X104468395Y-101600000D01*
X102383256Y-99514862D01*
X102285000Y-99580828D01*
X102285000Y-89077000D01*
X125797005Y-89077000D01*
X125718860Y-89217255D01*
X127254000Y-90752395D01*
X128789140Y-89217255D01*
X128710994Y-89077000D01*
X131903000Y-89077000D01*
X131903000Y-92970980D01*
X131856327Y-92858302D01*
X131677699Y-92679673D01*
X131444310Y-92583000D01*
X131191691Y-92583000D01*
X129672753Y-92583000D01*
X129672753Y-91382082D01*
X129660876Y-90422204D01*
X129316398Y-89590561D01*
X128968745Y-89396860D01*
X127433605Y-90932000D01*
X128968745Y-92467140D01*
X129316398Y-92273439D01*
X129672753Y-91382082D01*
X129672753Y-92583000D01*
X129667691Y-92583000D01*
X129434302Y-92679673D01*
X129255673Y-92858301D01*
X129159000Y-93091690D01*
X129159000Y-93192600D01*
X128116937Y-93192600D01*
X128595439Y-92994398D01*
X128789140Y-92646745D01*
X127254000Y-91111605D01*
X127074395Y-91291210D01*
X127074395Y-90932000D01*
X125539255Y-89396860D01*
X125191602Y-89590561D01*
X124835247Y-90481918D01*
X124847124Y-91441796D01*
X125191602Y-92273439D01*
X125539255Y-92467140D01*
X127074395Y-90932000D01*
X127074395Y-91291210D01*
X125718860Y-92646745D01*
X125912561Y-92994398D01*
X126646106Y-93287661D01*
X126443224Y-93423224D01*
X120730278Y-99136169D01*
X120550516Y-99136013D01*
X120153611Y-99300011D01*
X119849678Y-99603414D01*
X119780006Y-99771200D01*
X116715641Y-99771200D01*
X116563286Y-99618578D01*
X116166668Y-99453887D01*
X115737216Y-99453513D01*
X115340311Y-99617511D01*
X115036378Y-99920914D01*
X114871687Y-100317532D01*
X114871313Y-100746984D01*
X115035311Y-101143889D01*
X115338714Y-101447822D01*
X115735332Y-101612513D01*
X116164784Y-101612887D01*
X116561689Y-101448889D01*
X116715646Y-101295200D01*
X120446800Y-101295200D01*
X120446800Y-101295199D01*
X120515954Y-101281444D01*
X120548632Y-101295013D01*
X120730219Y-101295171D01*
X125894959Y-106459911D01*
X125894913Y-106512784D01*
X126058911Y-106909689D01*
X126362314Y-107213622D01*
X126758932Y-107378313D01*
X127188384Y-107378687D01*
X127585289Y-107214689D01*
X127889222Y-106911286D01*
X128053913Y-106514668D01*
X128054287Y-106085216D01*
X127890289Y-105688311D01*
X127586886Y-105384378D01*
X127190268Y-105219687D01*
X126881570Y-105219418D01*
X121877852Y-100215700D01*
X127326152Y-94767400D01*
X129159000Y-94767400D01*
X129159000Y-94868309D01*
X129255673Y-95101698D01*
X129434301Y-95280327D01*
X129580167Y-95340747D01*
X129264769Y-95655596D01*
X129032265Y-96215528D01*
X129031736Y-96821812D01*
X129263262Y-97382149D01*
X129691596Y-97811231D01*
X129725558Y-97825333D01*
X129318570Y-98231613D01*
X129095754Y-98768214D01*
X129095247Y-99349237D01*
X129317126Y-99886226D01*
X129727613Y-100297430D01*
X129805578Y-100329804D01*
X129729774Y-100361126D01*
X129318570Y-100771613D01*
X129095754Y-101308214D01*
X129095247Y-101889237D01*
X129317126Y-102426226D01*
X129727613Y-102837430D01*
X129805578Y-102869804D01*
X129729774Y-102901126D01*
X129318570Y-103311613D01*
X129095754Y-103848214D01*
X129095247Y-104429237D01*
X129317126Y-104966226D01*
X129727613Y-105377430D01*
X129805578Y-105409804D01*
X129729774Y-105441126D01*
X129318570Y-105851613D01*
X129095754Y-106388214D01*
X129095247Y-106969237D01*
X129317126Y-107506226D01*
X129727613Y-107917430D01*
X129790365Y-107943487D01*
X129786656Y-107945024D01*
X129709390Y-108193785D01*
X130556000Y-109040395D01*
X131402610Y-108193785D01*
X131325344Y-107945024D01*
X131321925Y-107943789D01*
X131382226Y-107918874D01*
X131793430Y-107508387D01*
X131903000Y-107244512D01*
X131903000Y-108624537D01*
X131830976Y-108450656D01*
X131582215Y-108373390D01*
X130735605Y-109220000D01*
X131582215Y-110066610D01*
X131830976Y-109989344D01*
X131903000Y-109789919D01*
X131903000Y-114123000D01*
M02*
