M48
;DRILL file {kicad (2014-11-09 BZR 5259)-product} date Sat 15 Nov 2014 10:42:26 PM PST
;FORMAT={-:-/ absolute / inch / decimal}
FMAT,2
INCH,TZ
T1C0.025
T2C0.040
T3C0.047
T4C0.120
%
G90
G05
M72
T1
X4.565Y-3.958
X4.567Y-4.393
X4.592Y-3.55
X4.608Y-3.92
X4.74Y-3.776
X4.7545Y-3.9455
X4.79Y-4.45
X4.808Y-4.167
X4.999Y-4.185
X5.072Y-3.861
T2
X5.14Y-3.7
X5.14Y-3.8
X5.14Y-3.9
X5.14Y-4.
X5.14Y-4.1
X5.14Y-4.2
X5.14Y-4.3
T3
X4.15Y-3.6111
X4.15Y-3.7489
X4.15Y-4.2411
X4.15Y-4.3789
T4
X4.12Y-4.
X5.01Y-3.58
X5.01Y-4.42
T0
M30
