%FSLAX46Y46*%
G04 Gerber Fmt 4.6, Leading zero omitted, Abs format (unit mm)*
G04 Created by KiCad (PCBNEW (2014-07-09 BZR 4988)-product) date Thu 14 Aug 2014 11:57:35 AM PDT*
%MOMM*%
G01*
G04 APERTURE LIST*
%ADD10C,0.050000*%
%ADD11R,1.397000X1.397000*%
%ADD12C,1.397000*%
%ADD13C,1.968500*%
%ADD14C,0.889000*%
%ADD15C,0.254000*%
%ADD16C,0.304800*%
G04 APERTURE END LIST*
D10*
D11*
X130556000Y-93980000D03*
D12*
X130556000Y-96520000D03*
X130556000Y-99060000D03*
X130556000Y-101600000D03*
X130556000Y-104140000D03*
X130556000Y-106680000D03*
X130556000Y-109220000D03*
D13*
X105410000Y-107724000D03*
X105410000Y-111224000D03*
X105410000Y-91722000D03*
X105410000Y-95222000D03*
D14*
X116636800Y-90170000D03*
X120396000Y-95910400D03*
X117043200Y-99568000D03*
X122123200Y-105841800D03*
X128828800Y-98069400D03*
X121666000Y-113030000D03*
X116001800Y-111582200D03*
X120764300Y-100215700D03*
X115951000Y-100533200D03*
D15*
X120218200Y-111582200D02*
X121666000Y-113030000D01*
X116001800Y-111582200D02*
X120218200Y-111582200D01*
X120446800Y-100533200D02*
X115951000Y-100533200D01*
X120446800Y-100533200D02*
X120764300Y-100215700D01*
D16*
X130556000Y-93980000D02*
X130530600Y-93980000D01*
D15*
G36*
X131903000Y-114123000D02*
X131901927Y-114123000D01*
X131901927Y-109412520D01*
X131889731Y-109188035D01*
X131889731Y-106415914D01*
X131687146Y-105925620D01*
X131312353Y-105550173D01*
X130974553Y-105409906D01*
X131310380Y-105271146D01*
X131685827Y-104896353D01*
X131889268Y-104406413D01*
X131889731Y-103875914D01*
X131687146Y-103385620D01*
X131312353Y-103010173D01*
X130974553Y-102869906D01*
X131310380Y-102731146D01*
X131685827Y-102356353D01*
X131889268Y-101866413D01*
X131889731Y-101335914D01*
X131687146Y-100845620D01*
X131312353Y-100470173D01*
X130974553Y-100329906D01*
X131310380Y-100191146D01*
X131685827Y-99816353D01*
X131889268Y-99326413D01*
X131889731Y-98795914D01*
X131687146Y-98305620D01*
X131312353Y-97930173D01*
X130974553Y-97789906D01*
X131310380Y-97651146D01*
X131685827Y-97276353D01*
X131889268Y-96786413D01*
X131889731Y-96255914D01*
X131687146Y-95765620D01*
X131312353Y-95390173D01*
X131127704Y-95313500D01*
X131380809Y-95313500D01*
X131614198Y-95216827D01*
X131792827Y-95038199D01*
X131889500Y-94804810D01*
X131889500Y-94552191D01*
X131889500Y-93155191D01*
X131792827Y-92921802D01*
X131614199Y-92743173D01*
X131380810Y-92646500D01*
X131128191Y-92646500D01*
X129731191Y-92646500D01*
X129497802Y-92743173D01*
X129319173Y-92921801D01*
X129222500Y-93155190D01*
X129222500Y-93407809D01*
X129222500Y-94804809D01*
X129319173Y-95038198D01*
X129497801Y-95216827D01*
X129731190Y-95313500D01*
X129983809Y-95313500D01*
X129983990Y-95313500D01*
X129801620Y-95388854D01*
X129426173Y-95763647D01*
X129222732Y-96253587D01*
X129222269Y-96784086D01*
X129424854Y-97274380D01*
X129799647Y-97649827D01*
X130137446Y-97790093D01*
X129801620Y-97928854D01*
X129426173Y-98303647D01*
X129222732Y-98793587D01*
X129222269Y-99324086D01*
X129424854Y-99814380D01*
X129799647Y-100189827D01*
X130137446Y-100330093D01*
X129801620Y-100468854D01*
X129426173Y-100843647D01*
X129222732Y-101333587D01*
X129222269Y-101864086D01*
X129424854Y-102354380D01*
X129799647Y-102729827D01*
X130137446Y-102870093D01*
X129801620Y-103008854D01*
X129426173Y-103383647D01*
X129222732Y-103873587D01*
X129222269Y-104404086D01*
X129424854Y-104894380D01*
X129799647Y-105269827D01*
X130137446Y-105410093D01*
X129801620Y-105548854D01*
X129426173Y-105923647D01*
X129222732Y-106413587D01*
X129222269Y-106944086D01*
X129424854Y-107434380D01*
X129799647Y-107809827D01*
X130121118Y-107943313D01*
X129863071Y-108050200D01*
X129801417Y-108285812D01*
X130556000Y-109040395D01*
X131310583Y-108285812D01*
X131248929Y-108050200D01*
X130969688Y-107951916D01*
X131310380Y-107811146D01*
X131685827Y-107436353D01*
X131889268Y-106946413D01*
X131889731Y-106415914D01*
X131889731Y-109188035D01*
X131873148Y-108882801D01*
X131725800Y-108527071D01*
X131490188Y-108465417D01*
X130735605Y-109220000D01*
X131490188Y-109974583D01*
X131725800Y-109912929D01*
X131901927Y-109412520D01*
X131901927Y-114123000D01*
X131310583Y-114123000D01*
X131310583Y-110154188D01*
X130556000Y-109399605D01*
X130376395Y-109579210D01*
X130376395Y-109220000D01*
X129621812Y-108465417D01*
X129386200Y-108527071D01*
X129210073Y-109027480D01*
X129238852Y-109557199D01*
X129386200Y-109912929D01*
X129621812Y-109974583D01*
X130376395Y-109220000D01*
X130376395Y-109579210D01*
X129801417Y-110154188D01*
X129863071Y-110389800D01*
X130363480Y-110565927D01*
X130893199Y-110537148D01*
X131248929Y-110389800D01*
X131310583Y-110154188D01*
X131310583Y-114123000D01*
X128811238Y-114123000D01*
X129298449Y-113636639D01*
X129666580Y-112750081D01*
X129667417Y-111790130D01*
X129300834Y-110902931D01*
X128622639Y-110223551D01*
X127736081Y-109855420D01*
X126776130Y-109854583D01*
X125888931Y-110221166D01*
X125209551Y-110899361D01*
X124841420Y-111785919D01*
X124840583Y-112745870D01*
X125207166Y-113633069D01*
X125696242Y-114123000D01*
X121843987Y-114123000D01*
X121843987Y-100001916D01*
X121679989Y-99605011D01*
X121376586Y-99301078D01*
X120979968Y-99136387D01*
X120550516Y-99136013D01*
X120153611Y-99300011D01*
X119849678Y-99603414D01*
X119780006Y-99771200D01*
X116715641Y-99771200D01*
X116563286Y-99618578D01*
X116166668Y-99453887D01*
X115737216Y-99453513D01*
X115340311Y-99617511D01*
X115036378Y-99920914D01*
X114871687Y-100317532D01*
X114871313Y-100746984D01*
X115035311Y-101143889D01*
X115338714Y-101447822D01*
X115735332Y-101612513D01*
X116164784Y-101612887D01*
X116561689Y-101448889D01*
X116715646Y-101295200D01*
X120446800Y-101295200D01*
X120446800Y-101295199D01*
X120515954Y-101281444D01*
X120548632Y-101295013D01*
X120978084Y-101295387D01*
X121374989Y-101131389D01*
X121678922Y-100827986D01*
X121843613Y-100431368D01*
X121843987Y-100001916D01*
X121843987Y-114123000D01*
X107029530Y-114123000D01*
X107029530Y-110903324D01*
X107029530Y-107403324D01*
X106783534Y-106807967D01*
X106328429Y-106352067D01*
X105733502Y-106105032D01*
X105089324Y-106104470D01*
X104493967Y-106350466D01*
X104038067Y-106805571D01*
X103791032Y-107400498D01*
X103790470Y-108044676D01*
X104036466Y-108640033D01*
X104491571Y-109095933D01*
X105086498Y-109342968D01*
X105730676Y-109343530D01*
X106326033Y-109097534D01*
X106781933Y-108642429D01*
X107028968Y-108047502D01*
X107029530Y-107403324D01*
X107029530Y-110903324D01*
X106783534Y-110307967D01*
X106328429Y-109852067D01*
X105733502Y-109605032D01*
X105089324Y-109604470D01*
X104493967Y-109850466D01*
X104038067Y-110305571D01*
X103791032Y-110900498D01*
X103790470Y-111544676D01*
X104036466Y-112140033D01*
X104491571Y-112595933D01*
X105086498Y-112842968D01*
X105730676Y-112843530D01*
X106326033Y-112597534D01*
X106781933Y-112142429D01*
X107028968Y-111547502D01*
X107029530Y-110903324D01*
X107029530Y-114123000D01*
X102285000Y-114123000D01*
X102285000Y-102199888D01*
X102601166Y-102965069D01*
X103279361Y-103644449D01*
X104165919Y-104012580D01*
X105125870Y-104013417D01*
X106013069Y-103646834D01*
X106692449Y-102968639D01*
X107060580Y-102082081D01*
X107061417Y-101122130D01*
X107029530Y-101044957D01*
X107029530Y-94901324D01*
X107029530Y-91401324D01*
X106783534Y-90805967D01*
X106328429Y-90350067D01*
X105733502Y-90103032D01*
X105089324Y-90102470D01*
X104493967Y-90348466D01*
X104038067Y-90803571D01*
X103791032Y-91398498D01*
X103790470Y-92042676D01*
X104036466Y-92638033D01*
X104491571Y-93093933D01*
X105086498Y-93340968D01*
X105730676Y-93341530D01*
X106326033Y-93095534D01*
X106781933Y-92640429D01*
X107028968Y-92045502D01*
X107029530Y-91401324D01*
X107029530Y-94901324D01*
X106783534Y-94305967D01*
X106328429Y-93850067D01*
X105733502Y-93603032D01*
X105089324Y-93602470D01*
X104493967Y-93848466D01*
X104038067Y-94303571D01*
X103791032Y-94898498D01*
X103790470Y-95542676D01*
X104036466Y-96138033D01*
X104491571Y-96593933D01*
X105086498Y-96840968D01*
X105730676Y-96841530D01*
X106326033Y-96595534D01*
X106781933Y-96140429D01*
X107028968Y-95545502D01*
X107029530Y-94901324D01*
X107029530Y-101044957D01*
X106694834Y-100234931D01*
X106016639Y-99555551D01*
X105130081Y-99187420D01*
X104170130Y-99186583D01*
X103282931Y-99553166D01*
X102603551Y-100231361D01*
X102285000Y-100998517D01*
X102285000Y-89077000D01*
X125442318Y-89077000D01*
X125209551Y-89309361D01*
X124841420Y-90195919D01*
X124840583Y-91155870D01*
X125207166Y-92043069D01*
X125885361Y-92722449D01*
X126771919Y-93090580D01*
X127731870Y-93091417D01*
X128619069Y-92724834D01*
X129298449Y-92046639D01*
X129666580Y-91160081D01*
X129667417Y-90200130D01*
X129300834Y-89312931D01*
X129065314Y-89077000D01*
X131903000Y-89077000D01*
X131903000Y-114123000D01*
X131903000Y-114123000D01*
G37*
X131903000Y-114123000D02*
X131901927Y-114123000D01*
X131901927Y-109412520D01*
X131889731Y-109188035D01*
X131889731Y-106415914D01*
X131687146Y-105925620D01*
X131312353Y-105550173D01*
X130974553Y-105409906D01*
X131310380Y-105271146D01*
X131685827Y-104896353D01*
X131889268Y-104406413D01*
X131889731Y-103875914D01*
X131687146Y-103385620D01*
X131312353Y-103010173D01*
X130974553Y-102869906D01*
X131310380Y-102731146D01*
X131685827Y-102356353D01*
X131889268Y-101866413D01*
X131889731Y-101335914D01*
X131687146Y-100845620D01*
X131312353Y-100470173D01*
X130974553Y-100329906D01*
X131310380Y-100191146D01*
X131685827Y-99816353D01*
X131889268Y-99326413D01*
X131889731Y-98795914D01*
X131687146Y-98305620D01*
X131312353Y-97930173D01*
X130974553Y-97789906D01*
X131310380Y-97651146D01*
X131685827Y-97276353D01*
X131889268Y-96786413D01*
X131889731Y-96255914D01*
X131687146Y-95765620D01*
X131312353Y-95390173D01*
X131127704Y-95313500D01*
X131380809Y-95313500D01*
X131614198Y-95216827D01*
X131792827Y-95038199D01*
X131889500Y-94804810D01*
X131889500Y-94552191D01*
X131889500Y-93155191D01*
X131792827Y-92921802D01*
X131614199Y-92743173D01*
X131380810Y-92646500D01*
X131128191Y-92646500D01*
X129731191Y-92646500D01*
X129497802Y-92743173D01*
X129319173Y-92921801D01*
X129222500Y-93155190D01*
X129222500Y-93407809D01*
X129222500Y-94804809D01*
X129319173Y-95038198D01*
X129497801Y-95216827D01*
X129731190Y-95313500D01*
X129983809Y-95313500D01*
X129983990Y-95313500D01*
X129801620Y-95388854D01*
X129426173Y-95763647D01*
X129222732Y-96253587D01*
X129222269Y-96784086D01*
X129424854Y-97274380D01*
X129799647Y-97649827D01*
X130137446Y-97790093D01*
X129801620Y-97928854D01*
X129426173Y-98303647D01*
X129222732Y-98793587D01*
X129222269Y-99324086D01*
X129424854Y-99814380D01*
X129799647Y-100189827D01*
X130137446Y-100330093D01*
X129801620Y-100468854D01*
X129426173Y-100843647D01*
X129222732Y-101333587D01*
X129222269Y-101864086D01*
X129424854Y-102354380D01*
X129799647Y-102729827D01*
X130137446Y-102870093D01*
X129801620Y-103008854D01*
X129426173Y-103383647D01*
X129222732Y-103873587D01*
X129222269Y-104404086D01*
X129424854Y-104894380D01*
X129799647Y-105269827D01*
X130137446Y-105410093D01*
X129801620Y-105548854D01*
X129426173Y-105923647D01*
X129222732Y-106413587D01*
X129222269Y-106944086D01*
X129424854Y-107434380D01*
X129799647Y-107809827D01*
X130121118Y-107943313D01*
X129863071Y-108050200D01*
X129801417Y-108285812D01*
X130556000Y-109040395D01*
X131310583Y-108285812D01*
X131248929Y-108050200D01*
X130969688Y-107951916D01*
X131310380Y-107811146D01*
X131685827Y-107436353D01*
X131889268Y-106946413D01*
X131889731Y-106415914D01*
X131889731Y-109188035D01*
X131873148Y-108882801D01*
X131725800Y-108527071D01*
X131490188Y-108465417D01*
X130735605Y-109220000D01*
X131490188Y-109974583D01*
X131725800Y-109912929D01*
X131901927Y-109412520D01*
X131901927Y-114123000D01*
X131310583Y-114123000D01*
X131310583Y-110154188D01*
X130556000Y-109399605D01*
X130376395Y-109579210D01*
X130376395Y-109220000D01*
X129621812Y-108465417D01*
X129386200Y-108527071D01*
X129210073Y-109027480D01*
X129238852Y-109557199D01*
X129386200Y-109912929D01*
X129621812Y-109974583D01*
X130376395Y-109220000D01*
X130376395Y-109579210D01*
X129801417Y-110154188D01*
X129863071Y-110389800D01*
X130363480Y-110565927D01*
X130893199Y-110537148D01*
X131248929Y-110389800D01*
X131310583Y-110154188D01*
X131310583Y-114123000D01*
X128811238Y-114123000D01*
X129298449Y-113636639D01*
X129666580Y-112750081D01*
X129667417Y-111790130D01*
X129300834Y-110902931D01*
X128622639Y-110223551D01*
X127736081Y-109855420D01*
X126776130Y-109854583D01*
X125888931Y-110221166D01*
X125209551Y-110899361D01*
X124841420Y-111785919D01*
X124840583Y-112745870D01*
X125207166Y-113633069D01*
X125696242Y-114123000D01*
X121843987Y-114123000D01*
X121843987Y-100001916D01*
X121679989Y-99605011D01*
X121376586Y-99301078D01*
X120979968Y-99136387D01*
X120550516Y-99136013D01*
X120153611Y-99300011D01*
X119849678Y-99603414D01*
X119780006Y-99771200D01*
X116715641Y-99771200D01*
X116563286Y-99618578D01*
X116166668Y-99453887D01*
X115737216Y-99453513D01*
X115340311Y-99617511D01*
X115036378Y-99920914D01*
X114871687Y-100317532D01*
X114871313Y-100746984D01*
X115035311Y-101143889D01*
X115338714Y-101447822D01*
X115735332Y-101612513D01*
X116164784Y-101612887D01*
X116561689Y-101448889D01*
X116715646Y-101295200D01*
X120446800Y-101295200D01*
X120446800Y-101295199D01*
X120515954Y-101281444D01*
X120548632Y-101295013D01*
X120978084Y-101295387D01*
X121374989Y-101131389D01*
X121678922Y-100827986D01*
X121843613Y-100431368D01*
X121843987Y-100001916D01*
X121843987Y-114123000D01*
X107029530Y-114123000D01*
X107029530Y-110903324D01*
X107029530Y-107403324D01*
X106783534Y-106807967D01*
X106328429Y-106352067D01*
X105733502Y-106105032D01*
X105089324Y-106104470D01*
X104493967Y-106350466D01*
X104038067Y-106805571D01*
X103791032Y-107400498D01*
X103790470Y-108044676D01*
X104036466Y-108640033D01*
X104491571Y-109095933D01*
X105086498Y-109342968D01*
X105730676Y-109343530D01*
X106326033Y-109097534D01*
X106781933Y-108642429D01*
X107028968Y-108047502D01*
X107029530Y-107403324D01*
X107029530Y-110903324D01*
X106783534Y-110307967D01*
X106328429Y-109852067D01*
X105733502Y-109605032D01*
X105089324Y-109604470D01*
X104493967Y-109850466D01*
X104038067Y-110305571D01*
X103791032Y-110900498D01*
X103790470Y-111544676D01*
X104036466Y-112140033D01*
X104491571Y-112595933D01*
X105086498Y-112842968D01*
X105730676Y-112843530D01*
X106326033Y-112597534D01*
X106781933Y-112142429D01*
X107028968Y-111547502D01*
X107029530Y-110903324D01*
X107029530Y-114123000D01*
X102285000Y-114123000D01*
X102285000Y-102199888D01*
X102601166Y-102965069D01*
X103279361Y-103644449D01*
X104165919Y-104012580D01*
X105125870Y-104013417D01*
X106013069Y-103646834D01*
X106692449Y-102968639D01*
X107060580Y-102082081D01*
X107061417Y-101122130D01*
X107029530Y-101044957D01*
X107029530Y-94901324D01*
X107029530Y-91401324D01*
X106783534Y-90805967D01*
X106328429Y-90350067D01*
X105733502Y-90103032D01*
X105089324Y-90102470D01*
X104493967Y-90348466D01*
X104038067Y-90803571D01*
X103791032Y-91398498D01*
X103790470Y-92042676D01*
X104036466Y-92638033D01*
X104491571Y-93093933D01*
X105086498Y-93340968D01*
X105730676Y-93341530D01*
X106326033Y-93095534D01*
X106781933Y-92640429D01*
X107028968Y-92045502D01*
X107029530Y-91401324D01*
X107029530Y-94901324D01*
X106783534Y-94305967D01*
X106328429Y-93850067D01*
X105733502Y-93603032D01*
X105089324Y-93602470D01*
X104493967Y-93848466D01*
X104038067Y-94303571D01*
X103791032Y-94898498D01*
X103790470Y-95542676D01*
X104036466Y-96138033D01*
X104491571Y-96593933D01*
X105086498Y-96840968D01*
X105730676Y-96841530D01*
X106326033Y-96595534D01*
X106781933Y-96140429D01*
X107028968Y-95545502D01*
X107029530Y-94901324D01*
X107029530Y-101044957D01*
X106694834Y-100234931D01*
X106016639Y-99555551D01*
X105130081Y-99187420D01*
X104170130Y-99186583D01*
X103282931Y-99553166D01*
X102603551Y-100231361D01*
X102285000Y-100998517D01*
X102285000Y-89077000D01*
X125442318Y-89077000D01*
X125209551Y-89309361D01*
X124841420Y-90195919D01*
X124840583Y-91155870D01*
X125207166Y-92043069D01*
X125885361Y-92722449D01*
X126771919Y-93090580D01*
X127731870Y-93091417D01*
X128619069Y-92724834D01*
X129298449Y-92046639D01*
X129666580Y-91160081D01*
X129667417Y-90200130D01*
X129300834Y-89312931D01*
X129065314Y-89077000D01*
X131903000Y-89077000D01*
X131903000Y-114123000D01*
M02*
