%FSLAX46Y46*%
G04 Gerber Fmt 4.6, Leading zero omitted, Abs format (unit mm)*
G04 Created by KiCad (PCBNEW (2014-07-09 BZR 4988)-product) date Thu 14 Aug 2014 11:57:35 AM PDT*
%MOMM*%
G01*
G04 APERTURE LIST*
%ADD10C,0.050000*%
%ADD11C,0.101600*%
%ADD12C,0.002540*%
G04 APERTURE END LIST*
D10*
D11*
X111409238Y-94812152D02*
X111379000Y-94842390D01*
X111348762Y-94902867D01*
X111348762Y-95054057D01*
X111379000Y-95114533D01*
X111409238Y-95144771D01*
X111469714Y-95175010D01*
X111530190Y-95175010D01*
X111620905Y-95144771D01*
X111983762Y-94781914D01*
X111983762Y-95175010D01*
X111348762Y-95568105D02*
X111348762Y-95628581D01*
X111379000Y-95689057D01*
X111409238Y-95719295D01*
X111469714Y-95749533D01*
X111590667Y-95779772D01*
X111741857Y-95779772D01*
X111862810Y-95749533D01*
X111923286Y-95719295D01*
X111953524Y-95689057D01*
X111983762Y-95628581D01*
X111983762Y-95568105D01*
X111953524Y-95507629D01*
X111923286Y-95477391D01*
X111862810Y-95447152D01*
X111741857Y-95416914D01*
X111590667Y-95416914D01*
X111469714Y-95447152D01*
X111409238Y-95477391D01*
X111379000Y-95507629D01*
X111348762Y-95568105D01*
X111983762Y-96384534D02*
X111983762Y-96021676D01*
X111983762Y-96203105D02*
X111348762Y-96203105D01*
X111439476Y-96142629D01*
X111499952Y-96082153D01*
X111530190Y-96021676D01*
X111560429Y-96928819D02*
X111983762Y-96928819D01*
X111318524Y-96777629D02*
X111772095Y-96626438D01*
X111772095Y-97019534D01*
X111741857Y-97261438D02*
X111741857Y-97745248D01*
X111348762Y-98168581D02*
X111348762Y-98229057D01*
X111379000Y-98289533D01*
X111409238Y-98319771D01*
X111469714Y-98350009D01*
X111590667Y-98380248D01*
X111741857Y-98380248D01*
X111862810Y-98350009D01*
X111923286Y-98319771D01*
X111953524Y-98289533D01*
X111983762Y-98229057D01*
X111983762Y-98168581D01*
X111953524Y-98108105D01*
X111923286Y-98077867D01*
X111862810Y-98047628D01*
X111741857Y-98017390D01*
X111590667Y-98017390D01*
X111469714Y-98047628D01*
X111409238Y-98077867D01*
X111379000Y-98108105D01*
X111348762Y-98168581D01*
X111620905Y-98743105D02*
X111590667Y-98682629D01*
X111560429Y-98652390D01*
X111499952Y-98622152D01*
X111469714Y-98622152D01*
X111409238Y-98652390D01*
X111379000Y-98682629D01*
X111348762Y-98743105D01*
X111348762Y-98864057D01*
X111379000Y-98924533D01*
X111409238Y-98954771D01*
X111469714Y-98985010D01*
X111499952Y-98985010D01*
X111560429Y-98954771D01*
X111590667Y-98924533D01*
X111620905Y-98864057D01*
X111620905Y-98743105D01*
X111651143Y-98682629D01*
X111681381Y-98652390D01*
X111741857Y-98622152D01*
X111862810Y-98622152D01*
X111923286Y-98652390D01*
X111953524Y-98682629D01*
X111983762Y-98743105D01*
X111983762Y-98864057D01*
X111953524Y-98924533D01*
X111923286Y-98954771D01*
X111862810Y-98985010D01*
X111741857Y-98985010D01*
X111681381Y-98954771D01*
X111651143Y-98924533D01*
X111620905Y-98864057D01*
X111741857Y-99257152D02*
X111741857Y-99740962D01*
X111983762Y-100375962D02*
X111983762Y-100013104D01*
X111983762Y-100194533D02*
X111348762Y-100194533D01*
X111439476Y-100134057D01*
X111499952Y-100073581D01*
X111530190Y-100013104D01*
X111409238Y-100617866D02*
X111379000Y-100648104D01*
X111348762Y-100708581D01*
X111348762Y-100859771D01*
X111379000Y-100920247D01*
X111409238Y-100950485D01*
X111469714Y-100980724D01*
X111530190Y-100980724D01*
X111620905Y-100950485D01*
X111983762Y-100587628D01*
X111983762Y-100980724D01*
X112974362Y-94842390D02*
X112339362Y-94842390D01*
X112339362Y-94993581D01*
X112369600Y-95084295D01*
X112430076Y-95144771D01*
X112490552Y-95175010D01*
X112611505Y-95205248D01*
X112702219Y-95205248D01*
X112823171Y-95175010D01*
X112883648Y-95144771D01*
X112944124Y-95084295D01*
X112974362Y-94993581D01*
X112974362Y-94842390D01*
X112551029Y-95749533D02*
X112974362Y-95749533D01*
X112551029Y-95477390D02*
X112883648Y-95477390D01*
X112944124Y-95507629D01*
X112974362Y-95568105D01*
X112974362Y-95658819D01*
X112944124Y-95719295D01*
X112913886Y-95749533D01*
X112974362Y-96324057D02*
X112641743Y-96324057D01*
X112581267Y-96293819D01*
X112551029Y-96233343D01*
X112551029Y-96112391D01*
X112581267Y-96051914D01*
X112944124Y-96324057D02*
X112974362Y-96263581D01*
X112974362Y-96112391D01*
X112944124Y-96051914D01*
X112883648Y-96021676D01*
X112823171Y-96021676D01*
X112762695Y-96051914D01*
X112732457Y-96112391D01*
X112732457Y-96263581D01*
X112702219Y-96324057D01*
X112974362Y-96717153D02*
X112944124Y-96656677D01*
X112883648Y-96626438D01*
X112339362Y-96626438D01*
X112974362Y-97442867D02*
X112339362Y-97442867D01*
X112792933Y-97654534D01*
X112339362Y-97866201D01*
X112974362Y-97866201D01*
X112792933Y-98138343D02*
X112792933Y-98440724D01*
X112974362Y-98077867D02*
X112339362Y-98289534D01*
X112974362Y-98501201D01*
X112339362Y-98652391D02*
X112974362Y-99075725D01*
X112339362Y-99075725D02*
X112974362Y-98652391D01*
X112339362Y-99257153D02*
X112339362Y-99650249D01*
X112581267Y-99438582D01*
X112581267Y-99529296D01*
X112611505Y-99589772D01*
X112641743Y-99620010D01*
X112702219Y-99650249D01*
X112853410Y-99650249D01*
X112913886Y-99620010D01*
X112944124Y-99589772D01*
X112974362Y-99529296D01*
X112974362Y-99347868D01*
X112944124Y-99287391D01*
X112913886Y-99257153D01*
X112974362Y-100255011D02*
X112974362Y-99892153D01*
X112974362Y-100073582D02*
X112339362Y-100073582D01*
X112430076Y-100013106D01*
X112490552Y-99952630D01*
X112520790Y-99892153D01*
X112611505Y-100617868D02*
X112581267Y-100557392D01*
X112551029Y-100527153D01*
X112490552Y-100496915D01*
X112460314Y-100496915D01*
X112399838Y-100527153D01*
X112369600Y-100557392D01*
X112339362Y-100617868D01*
X112339362Y-100738820D01*
X112369600Y-100799296D01*
X112399838Y-100829534D01*
X112460314Y-100859773D01*
X112490552Y-100859773D01*
X112551029Y-100829534D01*
X112581267Y-100799296D01*
X112611505Y-100738820D01*
X112611505Y-100617868D01*
X112641743Y-100557392D01*
X112671981Y-100527153D01*
X112732457Y-100496915D01*
X112853410Y-100496915D01*
X112913886Y-100527153D01*
X112944124Y-100557392D01*
X112974362Y-100617868D01*
X112974362Y-100738820D01*
X112944124Y-100799296D01*
X112913886Y-100829534D01*
X112853410Y-100859773D01*
X112732457Y-100859773D01*
X112671981Y-100829534D01*
X112641743Y-100799296D01*
X112611505Y-100738820D01*
X112339362Y-101434296D02*
X112339362Y-101131915D01*
X112641743Y-101101677D01*
X112611505Y-101131915D01*
X112581267Y-101192392D01*
X112581267Y-101343582D01*
X112611505Y-101404058D01*
X112641743Y-101434296D01*
X112702219Y-101464535D01*
X112853410Y-101464535D01*
X112913886Y-101434296D01*
X112944124Y-101404058D01*
X112974362Y-101343582D01*
X112974362Y-101192392D01*
X112944124Y-101131915D01*
X112913886Y-101101677D01*
X112339362Y-102039058D02*
X112339362Y-101736677D01*
X112641743Y-101706439D01*
X112611505Y-101736677D01*
X112581267Y-101797154D01*
X112581267Y-101948344D01*
X112611505Y-102008820D01*
X112641743Y-102039058D01*
X112702219Y-102069297D01*
X112853410Y-102069297D01*
X112913886Y-102039058D01*
X112944124Y-102008820D01*
X112974362Y-101948344D01*
X112974362Y-101797154D01*
X112944124Y-101736677D01*
X112913886Y-101706439D01*
X112339362Y-102734535D02*
X112974362Y-102946202D01*
X112339362Y-103157869D01*
X112944124Y-103611440D02*
X112974362Y-103550964D01*
X112974362Y-103430012D01*
X112944124Y-103369535D01*
X112883648Y-103339297D01*
X112641743Y-103339297D01*
X112581267Y-103369535D01*
X112551029Y-103430012D01*
X112551029Y-103550964D01*
X112581267Y-103611440D01*
X112641743Y-103641678D01*
X112702219Y-103641678D01*
X112762695Y-103339297D01*
X112974362Y-103913821D02*
X112551029Y-103913821D01*
X112671981Y-103913821D02*
X112611505Y-103944060D01*
X112581267Y-103974298D01*
X112551029Y-104034774D01*
X112551029Y-104095250D01*
X112339362Y-104427869D02*
X112339362Y-104488345D01*
X112369600Y-104548821D01*
X112399838Y-104579059D01*
X112460314Y-104609297D01*
X112581267Y-104639536D01*
X112732457Y-104639536D01*
X112853410Y-104609297D01*
X112913886Y-104579059D01*
X112944124Y-104548821D01*
X112974362Y-104488345D01*
X112974362Y-104427869D01*
X112944124Y-104367393D01*
X112913886Y-104337155D01*
X112853410Y-104306916D01*
X112732457Y-104276678D01*
X112581267Y-104276678D01*
X112460314Y-104306916D01*
X112399838Y-104337155D01*
X112369600Y-104367393D01*
X112339362Y-104427869D01*
X113964962Y-94842390D02*
X113329962Y-94842390D01*
X113329962Y-94993581D01*
X113360200Y-95084295D01*
X113420676Y-95144771D01*
X113481152Y-95175010D01*
X113602105Y-95205248D01*
X113692819Y-95205248D01*
X113813771Y-95175010D01*
X113874248Y-95144771D01*
X113934724Y-95084295D01*
X113964962Y-94993581D01*
X113964962Y-94842390D01*
X113934724Y-95719295D02*
X113964962Y-95658819D01*
X113964962Y-95537867D01*
X113934724Y-95477390D01*
X113874248Y-95447152D01*
X113632343Y-95447152D01*
X113571867Y-95477390D01*
X113541629Y-95537867D01*
X113541629Y-95658819D01*
X113571867Y-95719295D01*
X113632343Y-95749533D01*
X113692819Y-95749533D01*
X113753295Y-95447152D01*
X113934724Y-95991438D02*
X113964962Y-96051915D01*
X113964962Y-96172867D01*
X113934724Y-96233343D01*
X113874248Y-96263581D01*
X113844010Y-96263581D01*
X113783533Y-96233343D01*
X113753295Y-96172867D01*
X113753295Y-96082153D01*
X113723057Y-96021676D01*
X113662581Y-95991438D01*
X113632343Y-95991438D01*
X113571867Y-96021676D01*
X113541629Y-96082153D01*
X113541629Y-96172867D01*
X113571867Y-96233343D01*
X113964962Y-96535724D02*
X113541629Y-96535724D01*
X113329962Y-96535724D02*
X113360200Y-96505486D01*
X113390438Y-96535724D01*
X113360200Y-96565963D01*
X113329962Y-96535724D01*
X113390438Y-96535724D01*
X113541629Y-97110248D02*
X114055676Y-97110248D01*
X114116152Y-97080010D01*
X114146390Y-97049772D01*
X114176629Y-96989296D01*
X114176629Y-96898582D01*
X114146390Y-96838105D01*
X113934724Y-97110248D02*
X113964962Y-97049772D01*
X113964962Y-96928820D01*
X113934724Y-96868344D01*
X113904486Y-96838105D01*
X113844010Y-96807867D01*
X113662581Y-96807867D01*
X113602105Y-96838105D01*
X113571867Y-96868344D01*
X113541629Y-96928820D01*
X113541629Y-97049772D01*
X113571867Y-97110248D01*
X113541629Y-97412629D02*
X113964962Y-97412629D01*
X113602105Y-97412629D02*
X113571867Y-97442868D01*
X113541629Y-97503344D01*
X113541629Y-97594058D01*
X113571867Y-97654534D01*
X113632343Y-97684772D01*
X113964962Y-97684772D01*
X113934724Y-98229058D02*
X113964962Y-98168582D01*
X113964962Y-98047630D01*
X113934724Y-97987153D01*
X113874248Y-97956915D01*
X113632343Y-97956915D01*
X113571867Y-97987153D01*
X113541629Y-98047630D01*
X113541629Y-98168582D01*
X113571867Y-98229058D01*
X113632343Y-98259296D01*
X113692819Y-98259296D01*
X113753295Y-97956915D01*
X113964962Y-98803582D02*
X113329962Y-98803582D01*
X113934724Y-98803582D02*
X113964962Y-98743106D01*
X113964962Y-98622154D01*
X113934724Y-98561678D01*
X113904486Y-98531439D01*
X113844010Y-98501201D01*
X113662581Y-98501201D01*
X113602105Y-98531439D01*
X113571867Y-98561678D01*
X113541629Y-98622154D01*
X113541629Y-98743106D01*
X113571867Y-98803582D01*
X113964962Y-99861916D02*
X113632343Y-99861916D01*
X113571867Y-99831678D01*
X113541629Y-99771202D01*
X113541629Y-99650250D01*
X113571867Y-99589773D01*
X113934724Y-99861916D02*
X113964962Y-99801440D01*
X113964962Y-99650250D01*
X113934724Y-99589773D01*
X113874248Y-99559535D01*
X113813771Y-99559535D01*
X113753295Y-99589773D01*
X113723057Y-99650250D01*
X113723057Y-99801440D01*
X113692819Y-99861916D01*
X113541629Y-100164297D02*
X113964962Y-100164297D01*
X113602105Y-100164297D02*
X113571867Y-100194536D01*
X113541629Y-100255012D01*
X113541629Y-100345726D01*
X113571867Y-100406202D01*
X113632343Y-100436440D01*
X113964962Y-100436440D01*
X113964962Y-101010964D02*
X113329962Y-101010964D01*
X113934724Y-101010964D02*
X113964962Y-100950488D01*
X113964962Y-100829536D01*
X113934724Y-100769060D01*
X113904486Y-100738821D01*
X113844010Y-100708583D01*
X113662581Y-100708583D01*
X113602105Y-100738821D01*
X113571867Y-100769060D01*
X113541629Y-100829536D01*
X113541629Y-100950488D01*
X113571867Y-101010964D01*
X113964962Y-101797155D02*
X113329962Y-101797155D01*
X113783533Y-102008822D01*
X113329962Y-102220489D01*
X113964962Y-102220489D01*
X113964962Y-102795012D02*
X113632343Y-102795012D01*
X113571867Y-102764774D01*
X113541629Y-102704298D01*
X113541629Y-102583346D01*
X113571867Y-102522869D01*
X113934724Y-102795012D02*
X113964962Y-102734536D01*
X113964962Y-102583346D01*
X113934724Y-102522869D01*
X113874248Y-102492631D01*
X113813771Y-102492631D01*
X113753295Y-102522869D01*
X113723057Y-102583346D01*
X113723057Y-102734536D01*
X113692819Y-102795012D01*
X113964962Y-103369536D02*
X113329962Y-103369536D01*
X113934724Y-103369536D02*
X113964962Y-103309060D01*
X113964962Y-103188108D01*
X113934724Y-103127632D01*
X113904486Y-103097393D01*
X113844010Y-103067155D01*
X113662581Y-103067155D01*
X113602105Y-103097393D01*
X113571867Y-103127632D01*
X113541629Y-103188108D01*
X113541629Y-103309060D01*
X113571867Y-103369536D01*
X113934724Y-103913822D02*
X113964962Y-103853346D01*
X113964962Y-103732394D01*
X113934724Y-103671917D01*
X113874248Y-103641679D01*
X113632343Y-103641679D01*
X113571867Y-103671917D01*
X113541629Y-103732394D01*
X113541629Y-103853346D01*
X113571867Y-103913822D01*
X113632343Y-103944060D01*
X113692819Y-103944060D01*
X113753295Y-103641679D01*
X113964962Y-104700013D02*
X113541629Y-104700013D01*
X113329962Y-104700013D02*
X113360200Y-104669775D01*
X113390438Y-104700013D01*
X113360200Y-104730252D01*
X113329962Y-104700013D01*
X113390438Y-104700013D01*
X113541629Y-105002394D02*
X113964962Y-105002394D01*
X113602105Y-105002394D02*
X113571867Y-105032633D01*
X113541629Y-105093109D01*
X113541629Y-105183823D01*
X113571867Y-105244299D01*
X113632343Y-105274537D01*
X113964962Y-105274537D01*
X113329962Y-106060728D02*
X113844010Y-106060728D01*
X113904486Y-106090967D01*
X113934724Y-106121205D01*
X113964962Y-106181681D01*
X113964962Y-106302633D01*
X113934724Y-106363109D01*
X113904486Y-106393348D01*
X113844010Y-106423586D01*
X113329962Y-106423586D01*
X113934724Y-106695728D02*
X113964962Y-106786443D01*
X113964962Y-106937633D01*
X113934724Y-106998109D01*
X113904486Y-107028347D01*
X113844010Y-107058586D01*
X113783533Y-107058586D01*
X113723057Y-107028347D01*
X113692819Y-106998109D01*
X113662581Y-106937633D01*
X113632343Y-106816681D01*
X113602105Y-106756205D01*
X113571867Y-106725966D01*
X113511390Y-106695728D01*
X113450914Y-106695728D01*
X113390438Y-106725966D01*
X113360200Y-106756205D01*
X113329962Y-106816681D01*
X113329962Y-106967871D01*
X113360200Y-107058586D01*
X113783533Y-107300490D02*
X113783533Y-107602871D01*
X113964962Y-107240014D02*
X113329962Y-107451681D01*
X113964962Y-107663348D01*
X114622943Y-95054057D02*
X114622943Y-94842390D01*
X114955562Y-94842390D02*
X114320562Y-94842390D01*
X114320562Y-95144771D01*
X114955562Y-95386676D02*
X114532229Y-95386676D01*
X114653181Y-95386676D02*
X114592705Y-95416915D01*
X114562467Y-95447153D01*
X114532229Y-95507629D01*
X114532229Y-95568105D01*
X114925324Y-96021676D02*
X114955562Y-95961200D01*
X114955562Y-95840248D01*
X114925324Y-95779771D01*
X114864848Y-95749533D01*
X114622943Y-95749533D01*
X114562467Y-95779771D01*
X114532229Y-95840248D01*
X114532229Y-95961200D01*
X114562467Y-96021676D01*
X114622943Y-96051914D01*
X114683419Y-96051914D01*
X114743895Y-95749533D01*
X114925324Y-96565962D02*
X114955562Y-96505486D01*
X114955562Y-96384534D01*
X114925324Y-96324057D01*
X114864848Y-96293819D01*
X114622943Y-96293819D01*
X114562467Y-96324057D01*
X114532229Y-96384534D01*
X114532229Y-96505486D01*
X114562467Y-96565962D01*
X114622943Y-96596200D01*
X114683419Y-96596200D01*
X114743895Y-96293819D01*
X114955562Y-97624296D02*
X114622943Y-97624296D01*
X114562467Y-97594058D01*
X114532229Y-97533582D01*
X114532229Y-97412630D01*
X114562467Y-97352153D01*
X114925324Y-97624296D02*
X114955562Y-97563820D01*
X114955562Y-97412630D01*
X114925324Y-97352153D01*
X114864848Y-97321915D01*
X114804371Y-97321915D01*
X114743895Y-97352153D01*
X114713657Y-97412630D01*
X114713657Y-97563820D01*
X114683419Y-97624296D01*
X114925324Y-97896439D02*
X114955562Y-97956916D01*
X114955562Y-98077868D01*
X114925324Y-98138344D01*
X114864848Y-98168582D01*
X114834610Y-98168582D01*
X114774133Y-98138344D01*
X114743895Y-98077868D01*
X114743895Y-97987154D01*
X114713657Y-97926677D01*
X114653181Y-97896439D01*
X114622943Y-97896439D01*
X114562467Y-97926677D01*
X114532229Y-97987154D01*
X114532229Y-98077868D01*
X114562467Y-98138344D01*
X114955562Y-98924535D02*
X114532229Y-98924535D01*
X114320562Y-98924535D02*
X114350800Y-98894297D01*
X114381038Y-98924535D01*
X114350800Y-98954774D01*
X114320562Y-98924535D01*
X114381038Y-98924535D01*
X114532229Y-99226916D02*
X114955562Y-99226916D01*
X114592705Y-99226916D02*
X114562467Y-99257155D01*
X114532229Y-99317631D01*
X114532229Y-99408345D01*
X114562467Y-99468821D01*
X114622943Y-99499059D01*
X114955562Y-99499059D01*
X114622943Y-100496917D02*
X114622943Y-100285250D01*
X114955562Y-100285250D02*
X114320562Y-100285250D01*
X114320562Y-100587631D01*
X114955562Y-100829536D02*
X114532229Y-100829536D01*
X114653181Y-100829536D02*
X114592705Y-100859775D01*
X114562467Y-100890013D01*
X114532229Y-100950489D01*
X114532229Y-101010965D01*
X114925324Y-101464536D02*
X114955562Y-101404060D01*
X114955562Y-101283108D01*
X114925324Y-101222631D01*
X114864848Y-101192393D01*
X114622943Y-101192393D01*
X114562467Y-101222631D01*
X114532229Y-101283108D01*
X114532229Y-101404060D01*
X114562467Y-101464536D01*
X114622943Y-101494774D01*
X114683419Y-101494774D01*
X114743895Y-101192393D01*
X114925324Y-102008822D02*
X114955562Y-101948346D01*
X114955562Y-101827394D01*
X114925324Y-101766917D01*
X114864848Y-101736679D01*
X114622943Y-101736679D01*
X114562467Y-101766917D01*
X114532229Y-101827394D01*
X114532229Y-101948346D01*
X114562467Y-102008822D01*
X114622943Y-102039060D01*
X114683419Y-102039060D01*
X114743895Y-101736679D01*
X114955562Y-102583346D02*
X114320562Y-102583346D01*
X114925324Y-102583346D02*
X114955562Y-102522870D01*
X114955562Y-102401918D01*
X114925324Y-102341442D01*
X114895086Y-102311203D01*
X114834610Y-102280965D01*
X114653181Y-102280965D01*
X114592705Y-102311203D01*
X114562467Y-102341442D01*
X114532229Y-102401918D01*
X114532229Y-102522870D01*
X114562467Y-102583346D01*
X114955562Y-102976442D02*
X114925324Y-102915966D01*
X114895086Y-102885727D01*
X114834610Y-102855489D01*
X114653181Y-102855489D01*
X114592705Y-102885727D01*
X114562467Y-102915966D01*
X114532229Y-102976442D01*
X114532229Y-103067156D01*
X114562467Y-103127632D01*
X114592705Y-103157870D01*
X114653181Y-103188108D01*
X114834610Y-103188108D01*
X114895086Y-103157870D01*
X114925324Y-103127632D01*
X114955562Y-103067156D01*
X114955562Y-102976442D01*
X114955562Y-103460251D02*
X114532229Y-103460251D01*
X114592705Y-103460251D02*
X114562467Y-103490490D01*
X114532229Y-103550966D01*
X114532229Y-103641680D01*
X114562467Y-103702156D01*
X114622943Y-103732394D01*
X114955562Y-103732394D01*
X114622943Y-103732394D02*
X114562467Y-103762632D01*
X114532229Y-103823109D01*
X114532229Y-103913823D01*
X114562467Y-103974299D01*
X114622943Y-104004537D01*
X114955562Y-104004537D01*
X114895086Y-104306918D02*
X114925324Y-104337157D01*
X114955562Y-104306918D01*
X114925324Y-104276680D01*
X114895086Y-104306918D01*
X114955562Y-104306918D01*
X114713657Y-104306918D02*
X114350800Y-104276680D01*
X114320562Y-104306918D01*
X114350800Y-104337157D01*
X114713657Y-104306918D01*
X114320562Y-104306918D01*
D12*
G36*
X108234480Y-98869500D02*
X108237020Y-98869500D01*
X108237020Y-98877120D01*
X108234480Y-98902520D01*
X108231940Y-98938080D01*
X108229400Y-98988880D01*
X108226860Y-99047300D01*
X108221780Y-99113340D01*
X108216700Y-99189540D01*
X108214160Y-99247960D01*
X108206540Y-99326700D01*
X108204000Y-99402900D01*
X108198920Y-99471480D01*
X108196380Y-99532440D01*
X108193840Y-99583240D01*
X108191300Y-99623880D01*
X108188760Y-99649280D01*
X108191300Y-99659440D01*
X108191300Y-99692460D01*
X109293660Y-99517200D01*
X109428280Y-99496880D01*
X109555280Y-99474020D01*
X109679740Y-99456240D01*
X109799120Y-99435920D01*
X109910880Y-99418140D01*
X110012480Y-99402900D01*
X110106460Y-99387660D01*
X110190280Y-99372420D01*
X110261400Y-99362260D01*
X110319820Y-99352100D01*
X110365540Y-99344480D01*
X110396020Y-99339400D01*
X110413800Y-99336860D01*
X110413800Y-99336860D01*
X110431580Y-99336860D01*
X110436660Y-99344480D01*
X110439200Y-99357180D01*
X110436660Y-99367340D01*
X110434120Y-99395280D01*
X110429040Y-99438460D01*
X110423960Y-99494340D01*
X110416340Y-99560380D01*
X110408720Y-99641660D01*
X110398560Y-99730560D01*
X110388400Y-99832160D01*
X110375700Y-99941380D01*
X110363000Y-100055680D01*
X110350300Y-100177600D01*
X110337600Y-100307140D01*
X110322360Y-100423980D01*
X110309660Y-100556060D01*
X110294420Y-100683060D01*
X110281720Y-100802440D01*
X110269020Y-100916740D01*
X110258860Y-101023420D01*
X110248700Y-101122480D01*
X110238540Y-101208840D01*
X110230920Y-101287580D01*
X110223300Y-101351080D01*
X110218220Y-101404420D01*
X110213140Y-101442520D01*
X110210600Y-101465380D01*
X110210600Y-101473000D01*
X110218220Y-101473000D01*
X110241080Y-101462840D01*
X110276640Y-101450140D01*
X110322360Y-101432360D01*
X110378240Y-101409500D01*
X110441740Y-101381560D01*
X110515400Y-101351080D01*
X110591600Y-101318060D01*
X110639860Y-101297740D01*
X110718600Y-101264720D01*
X110794800Y-101231700D01*
X110863380Y-101203760D01*
X110924340Y-101178360D01*
X110977680Y-101155500D01*
X111018320Y-101137720D01*
X111048800Y-101125020D01*
X111064040Y-101119940D01*
X111069120Y-101119940D01*
X111069120Y-101127560D01*
X111071660Y-101152960D01*
X111079280Y-101191060D01*
X111084360Y-101241860D01*
X111094520Y-101307900D01*
X111104680Y-101381560D01*
X111114840Y-101465380D01*
X111119920Y-101511100D01*
X110835440Y-101511100D01*
X110825280Y-101513640D01*
X110804960Y-101521260D01*
X110771940Y-101531420D01*
X110726220Y-101549200D01*
X110675420Y-101566980D01*
X110619540Y-101589840D01*
X110558580Y-101612700D01*
X110497620Y-101638100D01*
X110434120Y-101660960D01*
X110375700Y-101683820D01*
X110319820Y-101706680D01*
X110271560Y-101724460D01*
X110230920Y-101742240D01*
X110200440Y-101754940D01*
X110182660Y-101762560D01*
X110177580Y-101762560D01*
X110177580Y-101772720D01*
X110172500Y-101795580D01*
X110169960Y-101833680D01*
X110162340Y-101887020D01*
X110154720Y-101947980D01*
X110147100Y-102021640D01*
X110144560Y-102057200D01*
X110027720Y-102057200D01*
X110025180Y-102057200D01*
X110017560Y-102064820D01*
X110002320Y-102085140D01*
X109982000Y-102110540D01*
X109964220Y-102138480D01*
X109926120Y-102191820D01*
X109877860Y-102245160D01*
X109837220Y-102288340D01*
X109806740Y-102316280D01*
X109783880Y-102339140D01*
X109768640Y-102356920D01*
X109761020Y-102364540D01*
X109761020Y-102364540D01*
X109771180Y-102364540D01*
X109791500Y-102362000D01*
X109824520Y-102356920D01*
X109860080Y-102351840D01*
X109898180Y-102346760D01*
X109936280Y-102341680D01*
X109969300Y-102336600D01*
X109989620Y-102331520D01*
X109994700Y-102331520D01*
X110002320Y-102328980D01*
X110007400Y-102323900D01*
X110009940Y-102311200D01*
X110015020Y-102290880D01*
X110017560Y-102260400D01*
X110020100Y-102214680D01*
X110020100Y-102201980D01*
X110022640Y-102156260D01*
X110025180Y-102118160D01*
X110027720Y-102087680D01*
X110030260Y-102069900D01*
X110030260Y-102064820D01*
X110027720Y-102057200D01*
X110144560Y-102057200D01*
X110139480Y-102102920D01*
X110129320Y-102191820D01*
X110119160Y-102288340D01*
X110109000Y-102389940D01*
X110096300Y-102494080D01*
X110086140Y-102600760D01*
X110073440Y-102707440D01*
X110063280Y-102814120D01*
X110050580Y-102920800D01*
X110040420Y-103022400D01*
X110030260Y-103121460D01*
X110020100Y-103212900D01*
X110012480Y-103299260D01*
X110004860Y-103375460D01*
X109997240Y-103444040D01*
X109992160Y-103499920D01*
X109987080Y-103545640D01*
X109984540Y-103576120D01*
X109982000Y-103591360D01*
X109982000Y-103593900D01*
X109992160Y-103591360D01*
X110015020Y-103586280D01*
X110053120Y-103576120D01*
X110101380Y-103560880D01*
X110159800Y-103543100D01*
X110230920Y-103520240D01*
X110307120Y-103497380D01*
X110390940Y-103469440D01*
X110479840Y-103441500D01*
X110507780Y-103433880D01*
X110639860Y-103390700D01*
X110756700Y-103352600D01*
X110860840Y-103319580D01*
X110949740Y-103291640D01*
X111028480Y-103266240D01*
X111091980Y-103245920D01*
X111147860Y-103228140D01*
X111193580Y-103212900D01*
X111229140Y-103200200D01*
X111259620Y-103190040D01*
X111279940Y-103182420D01*
X111295180Y-103177340D01*
X111307880Y-103172260D01*
X111312960Y-103169720D01*
X111315500Y-103167180D01*
X111318040Y-103164640D01*
X111315500Y-103162100D01*
X111315500Y-103159560D01*
X111315500Y-103159560D01*
X111312960Y-103144320D01*
X111310420Y-103116380D01*
X111305340Y-103083360D01*
X111305340Y-103073200D01*
X111302800Y-103037640D01*
X111297720Y-103017320D01*
X111292640Y-103007160D01*
X111285020Y-103004620D01*
X111285020Y-103004620D01*
X111267240Y-103004620D01*
X111252000Y-102997000D01*
X111239300Y-102991920D01*
X111224060Y-102989380D01*
X111201200Y-102989380D01*
X111175800Y-102994460D01*
X111140240Y-103002080D01*
X111094520Y-103012240D01*
X111038640Y-103030020D01*
X110970060Y-103050340D01*
X110886240Y-103075740D01*
X110873540Y-103080820D01*
X110789720Y-103106220D01*
X110718600Y-103129080D01*
X110660180Y-103146860D01*
X110611920Y-103159560D01*
X110573820Y-103169720D01*
X110545880Y-103177340D01*
X110523020Y-103179880D01*
X110502700Y-103182420D01*
X110487460Y-103179880D01*
X110479840Y-103179880D01*
X110434120Y-103162100D01*
X110396020Y-103131620D01*
X110365540Y-103085900D01*
X110345220Y-103027480D01*
X110332520Y-102958900D01*
X110329980Y-102877620D01*
X110335060Y-102783640D01*
X110337600Y-102765860D01*
X110355380Y-102666800D01*
X110383320Y-102577900D01*
X110421420Y-102501700D01*
X110469680Y-102438200D01*
X110477300Y-102433120D01*
X110500160Y-102410260D01*
X110528100Y-102389940D01*
X110558580Y-102369620D01*
X110583980Y-102354380D01*
X110604300Y-102346760D01*
X110614460Y-102346760D01*
X110617000Y-102356920D01*
X110617000Y-102379780D01*
X110619540Y-102415340D01*
X110622080Y-102455980D01*
X110622080Y-102466140D01*
X110627160Y-102577900D01*
X110596680Y-102595680D01*
X110558580Y-102631240D01*
X110530640Y-102676960D01*
X110515400Y-102732840D01*
X110512860Y-102798880D01*
X110515400Y-102826820D01*
X110520480Y-102859840D01*
X110528100Y-102882700D01*
X110540800Y-102897940D01*
X110543340Y-102900480D01*
X110573820Y-102915720D01*
X110606840Y-102915720D01*
X110639860Y-102903020D01*
X110655100Y-102890320D01*
X110670340Y-102877620D01*
X110680500Y-102859840D01*
X110688120Y-102834440D01*
X110695740Y-102801420D01*
X110700820Y-102758240D01*
X110705900Y-102699820D01*
X110708440Y-102656640D01*
X110713520Y-102608380D01*
X110718600Y-102560120D01*
X110721140Y-102519480D01*
X110726220Y-102489000D01*
X110726220Y-102483920D01*
X110744000Y-102422960D01*
X110769400Y-102362000D01*
X110802420Y-102308660D01*
X110832900Y-102268020D01*
X110881160Y-102232460D01*
X110931960Y-102207060D01*
X110985300Y-102194360D01*
X111036100Y-102194360D01*
X111084360Y-102207060D01*
X111127540Y-102232460D01*
X111130080Y-102235000D01*
X111142780Y-102245160D01*
X111150400Y-102247700D01*
X111150400Y-102245160D01*
X111147860Y-102232460D01*
X111142780Y-102207060D01*
X111137700Y-102174040D01*
X111130080Y-102138480D01*
X111122460Y-102100380D01*
X111117380Y-102069900D01*
X111112300Y-102047040D01*
X111107220Y-102036880D01*
X111107220Y-102036880D01*
X111097060Y-102036880D01*
X111074200Y-102039420D01*
X111041180Y-102041960D01*
X111005620Y-102049580D01*
X110967520Y-102054660D01*
X110937040Y-102059740D01*
X110914180Y-102062280D01*
X110906560Y-102062280D01*
X110906560Y-102054660D01*
X110901480Y-102029260D01*
X110896400Y-101993700D01*
X110891320Y-101945440D01*
X110883700Y-101889560D01*
X110876080Y-101828600D01*
X110871000Y-101787960D01*
X110863380Y-101721920D01*
X110855760Y-101660960D01*
X110848140Y-101607620D01*
X110843060Y-101564440D01*
X110837980Y-101531420D01*
X110835440Y-101513640D01*
X110835440Y-101511100D01*
X111119920Y-101511100D01*
X111127540Y-101556820D01*
X111140240Y-101658420D01*
X111152940Y-101762560D01*
X111168180Y-101874320D01*
X111183420Y-101991160D01*
X111198660Y-102108000D01*
X111213900Y-102227380D01*
X111229140Y-102346760D01*
X111241840Y-102443280D01*
X110980220Y-102443280D01*
X110944660Y-102453440D01*
X110911640Y-102473760D01*
X110906560Y-102478840D01*
X110888780Y-102499160D01*
X110876080Y-102524560D01*
X110865920Y-102560120D01*
X110858300Y-102605840D01*
X110853220Y-102643940D01*
X110845600Y-102689660D01*
X110837980Y-102737920D01*
X110832900Y-102778560D01*
X110830360Y-102783640D01*
X110825280Y-102814120D01*
X110822740Y-102836980D01*
X110822740Y-102849680D01*
X110822740Y-102849680D01*
X110830360Y-102847140D01*
X110850680Y-102842060D01*
X110878620Y-102834440D01*
X110909100Y-102824280D01*
X110937040Y-102811580D01*
X110959900Y-102801420D01*
X110962440Y-102801420D01*
X111005620Y-102770940D01*
X111043720Y-102725220D01*
X111071660Y-102671880D01*
X111081820Y-102631240D01*
X111084360Y-102598220D01*
X111084360Y-102557580D01*
X111076740Y-102519480D01*
X111069120Y-102489000D01*
X111066580Y-102483920D01*
X111046260Y-102458520D01*
X111015780Y-102445820D01*
X110980220Y-102443280D01*
X111241840Y-102443280D01*
X111244380Y-102466140D01*
X111259620Y-102580440D01*
X111262160Y-102603300D01*
X111216440Y-102603300D01*
X111211360Y-102608380D01*
X111203740Y-102623620D01*
X111201200Y-102633780D01*
X111191040Y-102661720D01*
X111175800Y-102694740D01*
X111165640Y-102712520D01*
X111140240Y-102755700D01*
X111180880Y-102753160D01*
X111211360Y-102750620D01*
X111229140Y-102745540D01*
X111239300Y-102737920D01*
X111241840Y-102722680D01*
X111236760Y-102694740D01*
X111231680Y-102666800D01*
X111226600Y-102636320D01*
X111221520Y-102613460D01*
X111216440Y-102603300D01*
X111262160Y-102603300D01*
X111274860Y-102694740D01*
X111287560Y-102803960D01*
X111300260Y-102905560D01*
X111312960Y-103002080D01*
X111325660Y-103088440D01*
X111335820Y-103167180D01*
X111343440Y-103235760D01*
X111351060Y-103291640D01*
X111356140Y-103337360D01*
X111358680Y-103365300D01*
X111361220Y-103380540D01*
X111361220Y-103380540D01*
X111358680Y-103390700D01*
X111348520Y-103398320D01*
X111328200Y-103408480D01*
X111295180Y-103421180D01*
X111287560Y-103423720D01*
X111213900Y-103446580D01*
X111257080Y-103461820D01*
X111318040Y-103489760D01*
X111368840Y-103530400D01*
X111376460Y-103543100D01*
X111015780Y-103543100D01*
X110967520Y-103545640D01*
X110921800Y-103553260D01*
X110896400Y-103558340D01*
X110840520Y-103576120D01*
X110784640Y-103598980D01*
X110733840Y-103626920D01*
X110688120Y-103654860D01*
X110665260Y-103672640D01*
X110619540Y-103720900D01*
X110583980Y-103771700D01*
X110561120Y-103822500D01*
X110550960Y-103873300D01*
X110553500Y-103919020D01*
X110568740Y-103962200D01*
X110596680Y-103997760D01*
X110627160Y-104018080D01*
X110657640Y-104028240D01*
X110700820Y-104033320D01*
X110754160Y-104030780D01*
X110810040Y-104023160D01*
X110865920Y-104010460D01*
X110873540Y-104007920D01*
X110957360Y-103977440D01*
X111033560Y-103941880D01*
X111094520Y-103901240D01*
X111145320Y-103855520D01*
X111183420Y-103804720D01*
X111206280Y-103753920D01*
X111213900Y-103700580D01*
X111208820Y-103654860D01*
X111188500Y-103614220D01*
X111158020Y-103578660D01*
X111130080Y-103555800D01*
X111102140Y-103548180D01*
X111064040Y-103543100D01*
X111015780Y-103543100D01*
X111376460Y-103543100D01*
X111406940Y-103581200D01*
X111432340Y-103639620D01*
X111445040Y-103703120D01*
X111442500Y-103771700D01*
X111429800Y-103827580D01*
X111396780Y-103898700D01*
X111351060Y-103969820D01*
X111290100Y-104035860D01*
X111216440Y-104099360D01*
X111130080Y-104155240D01*
X111036100Y-104206040D01*
X110964980Y-104236520D01*
X110868460Y-104269540D01*
X110779560Y-104292400D01*
X110695740Y-104307640D01*
X110611920Y-104312720D01*
X110599220Y-104312720D01*
X110553500Y-104312720D01*
X110523020Y-104310180D01*
X110497620Y-104307640D01*
X110477300Y-104302560D01*
X110456980Y-104294940D01*
X110436660Y-104284780D01*
X110388400Y-104256840D01*
X110352840Y-104221280D01*
X110327440Y-104175560D01*
X110312200Y-104119680D01*
X110309660Y-104053640D01*
X110314740Y-103982520D01*
X110335060Y-103913940D01*
X110368080Y-103845360D01*
X110416340Y-103776780D01*
X110436660Y-103751380D01*
X110454440Y-103728520D01*
X110467140Y-103710740D01*
X110469680Y-103703120D01*
X110469680Y-103703120D01*
X110462060Y-103705660D01*
X110441740Y-103713280D01*
X110406180Y-103723440D01*
X110365540Y-103736140D01*
X110314740Y-103751380D01*
X110261400Y-103769160D01*
X110210600Y-103784400D01*
X109915960Y-103784400D01*
X109908340Y-103789480D01*
X109890560Y-103802180D01*
X109860080Y-103825040D01*
X109821980Y-103852980D01*
X109776260Y-103888540D01*
X109722920Y-103929180D01*
X109664500Y-103972360D01*
X109628940Y-104000300D01*
X109570520Y-104046020D01*
X109514640Y-104089200D01*
X109466380Y-104129840D01*
X109425740Y-104162860D01*
X109390180Y-104190800D01*
X109367320Y-104211120D01*
X109354620Y-104221280D01*
X109354620Y-104223820D01*
X109364780Y-104231440D01*
X109387640Y-104244140D01*
X109420660Y-104259380D01*
X109463840Y-104279700D01*
X109509560Y-104302560D01*
X109562900Y-104327960D01*
X109616240Y-104353360D01*
X109672120Y-104378760D01*
X109722920Y-104401620D01*
X109771180Y-104424480D01*
X109809280Y-104442260D01*
X109842300Y-104454960D01*
X109862620Y-104462580D01*
X109870240Y-104465120D01*
X109870240Y-104454960D01*
X109872780Y-104432100D01*
X109875320Y-104396540D01*
X109880400Y-104348280D01*
X109885480Y-104294940D01*
X109888020Y-104233980D01*
X109893100Y-104170480D01*
X109898180Y-104104440D01*
X109903260Y-104038400D01*
X109905800Y-103977440D01*
X109910880Y-103919020D01*
X109913420Y-103868220D01*
X109915960Y-103830120D01*
X109915960Y-103799640D01*
X109915960Y-103786940D01*
X109915960Y-103784400D01*
X110210600Y-103784400D01*
X110205520Y-103786940D01*
X110149640Y-103804720D01*
X110096300Y-103822500D01*
X110048040Y-103837740D01*
X110007400Y-103850440D01*
X109974380Y-103860600D01*
X109956600Y-103868220D01*
X109948980Y-103870760D01*
X109946440Y-103880920D01*
X109943900Y-103906320D01*
X109938820Y-103944420D01*
X109933740Y-103992680D01*
X109926120Y-104051100D01*
X109921040Y-104119680D01*
X109913420Y-104190800D01*
X109905800Y-104269540D01*
X109898180Y-104348280D01*
X109890560Y-104429560D01*
X109882940Y-104508300D01*
X109875320Y-104584500D01*
X109870240Y-104658160D01*
X109865160Y-104724200D01*
X109860080Y-104780080D01*
X109857540Y-104802940D01*
X109852460Y-104874060D01*
X109849920Y-104940100D01*
X109844840Y-104995980D01*
X109842300Y-105046780D01*
X109837220Y-105082340D01*
X109837220Y-105107740D01*
X109834680Y-105117900D01*
X109834680Y-105117900D01*
X109827060Y-105112820D01*
X109806740Y-105102660D01*
X109773720Y-105082340D01*
X109730540Y-105056940D01*
X109677200Y-105026460D01*
X109616240Y-104988360D01*
X109547660Y-104947720D01*
X109474000Y-104904540D01*
X109400340Y-104858820D01*
X109308900Y-104802940D01*
X109230160Y-104757220D01*
X109166660Y-104719120D01*
X109113320Y-104686100D01*
X109067600Y-104660700D01*
X109034580Y-104640380D01*
X109006640Y-104627680D01*
X108986320Y-104617520D01*
X108971080Y-104609900D01*
X108960920Y-104607360D01*
X108953300Y-104604820D01*
X108948220Y-104607360D01*
X108945680Y-104607360D01*
X108938060Y-104614980D01*
X108915200Y-104632760D01*
X108884720Y-104660700D01*
X108841540Y-104693720D01*
X108793280Y-104736900D01*
X108734860Y-104785160D01*
X108671360Y-104838500D01*
X108600240Y-104896920D01*
X108526580Y-104957880D01*
X108475780Y-105001060D01*
X108399580Y-105064560D01*
X108328460Y-105122980D01*
X108262420Y-105178860D01*
X108201460Y-105229660D01*
X108148120Y-105275380D01*
X108102400Y-105313480D01*
X108064300Y-105341420D01*
X108038900Y-105364280D01*
X108023660Y-105376980D01*
X108021120Y-105379520D01*
X108018580Y-105369360D01*
X108021120Y-105346500D01*
X108023660Y-105308400D01*
X108026200Y-105262680D01*
X108028740Y-105204260D01*
X108031280Y-105140760D01*
X108036360Y-105077260D01*
X108056680Y-104777540D01*
X108333540Y-104566720D01*
X108394500Y-104521000D01*
X108447840Y-104480360D01*
X108498640Y-104442260D01*
X108539280Y-104409240D01*
X108572300Y-104381300D01*
X108595160Y-104363520D01*
X108605320Y-104353360D01*
X108607860Y-104350820D01*
X108597700Y-104345740D01*
X108577380Y-104335580D01*
X108544360Y-104317800D01*
X108501180Y-104297480D01*
X108450380Y-104272080D01*
X108394500Y-104241600D01*
X108364020Y-104228900D01*
X108125260Y-104109520D01*
X108117640Y-104046020D01*
X108115100Y-104023160D01*
X108115100Y-103987600D01*
X108117640Y-103944420D01*
X108117640Y-103891080D01*
X108120180Y-103832660D01*
X108122720Y-103771700D01*
X108125260Y-103710740D01*
X108130340Y-103652320D01*
X108132880Y-103596440D01*
X108135420Y-103550720D01*
X108140500Y-103515160D01*
X108143040Y-103489760D01*
X108145580Y-103482140D01*
X108153200Y-103484680D01*
X108173520Y-103494840D01*
X108209080Y-103515160D01*
X108254800Y-103540560D01*
X108313220Y-103573580D01*
X108379260Y-103614220D01*
X108455460Y-103659940D01*
X108541820Y-103710740D01*
X108564680Y-103725980D01*
X108640880Y-103771700D01*
X108712000Y-103814880D01*
X108780580Y-103855520D01*
X108839000Y-103891080D01*
X108889800Y-103921560D01*
X108932980Y-103944420D01*
X108963460Y-103962200D01*
X108983780Y-103972360D01*
X108988860Y-103974900D01*
X108996480Y-103969820D01*
X109016800Y-103952040D01*
X109044740Y-103929180D01*
X109085380Y-103896160D01*
X109131100Y-103855520D01*
X109184440Y-103812340D01*
X109242860Y-103761540D01*
X109306360Y-103708200D01*
X109372400Y-103652320D01*
X109440980Y-103596440D01*
X109507020Y-103538020D01*
X109573060Y-103479600D01*
X109639100Y-103423720D01*
X109702600Y-103370380D01*
X109758480Y-103322120D01*
X109811820Y-103276400D01*
X109857540Y-103238300D01*
X109893100Y-103207820D01*
X109921040Y-103182420D01*
X109938820Y-103167180D01*
X109941360Y-103164640D01*
X109948980Y-103157020D01*
X109954060Y-103144320D01*
X109956600Y-103126540D01*
X109961680Y-103101140D01*
X109964220Y-103063040D01*
X109966760Y-103012240D01*
X109969300Y-102994460D01*
X109971840Y-102943660D01*
X109974380Y-102900480D01*
X109974380Y-102867460D01*
X109976920Y-102844600D01*
X109974380Y-102834440D01*
X109966760Y-102836980D01*
X109941360Y-102839520D01*
X109903260Y-102844600D01*
X109852460Y-102852220D01*
X109786420Y-102862380D01*
X109710220Y-102875080D01*
X109623860Y-102887780D01*
X109529880Y-102903020D01*
X109428280Y-102920800D01*
X109316520Y-102938580D01*
X109202220Y-102956360D01*
X109080300Y-102976680D01*
X109070140Y-102976680D01*
X108948220Y-102997000D01*
X108833920Y-103014780D01*
X108722160Y-103032560D01*
X108618020Y-103050340D01*
X108521500Y-103065580D01*
X108435140Y-103078280D01*
X108358940Y-103090980D01*
X108292900Y-103101140D01*
X108239560Y-103108760D01*
X108201460Y-103116380D01*
X108176060Y-103118920D01*
X108165900Y-103121460D01*
X108165900Y-103111300D01*
X108168440Y-103088440D01*
X108170980Y-103052880D01*
X108173520Y-103009700D01*
X108176060Y-102956360D01*
X108178600Y-102903020D01*
X108183680Y-102844600D01*
X108188760Y-102788720D01*
X108191300Y-102735380D01*
X108193840Y-102689660D01*
X108198920Y-102649020D01*
X108201460Y-102623620D01*
X108201460Y-102608380D01*
X108201460Y-102605840D01*
X108211620Y-102605840D01*
X108234480Y-102600760D01*
X108272580Y-102593140D01*
X108323380Y-102585520D01*
X108384340Y-102575360D01*
X108455460Y-102562660D01*
X108534200Y-102549960D01*
X108620560Y-102534720D01*
X108712000Y-102519480D01*
X108737400Y-102516940D01*
X108831380Y-102501700D01*
X108920280Y-102486460D01*
X109004100Y-102473760D01*
X109082840Y-102461060D01*
X109151420Y-102448360D01*
X109209840Y-102438200D01*
X109255560Y-102430580D01*
X109288580Y-102425500D01*
X109308900Y-102420420D01*
X109308900Y-102420420D01*
X109336840Y-102412800D01*
X109372400Y-102397560D01*
X109410500Y-102382320D01*
X109423200Y-102377240D01*
X109496860Y-102331520D01*
X109562900Y-102273100D01*
X109616240Y-102204520D01*
X109656880Y-102125780D01*
X109684820Y-102036880D01*
X109700060Y-101942900D01*
X109700060Y-101892100D01*
X109697520Y-101826060D01*
X109684820Y-101772720D01*
X109664500Y-101729540D01*
X109649260Y-101709220D01*
X109623860Y-101686360D01*
X109595920Y-101668580D01*
X109562900Y-101658420D01*
X109517180Y-101653340D01*
X109489240Y-101650800D01*
X109474000Y-101650800D01*
X109453680Y-101650800D01*
X109433360Y-101653340D01*
X109405420Y-101655880D01*
X109374940Y-101658420D01*
X109334300Y-101663500D01*
X109286040Y-101671120D01*
X109230160Y-101678740D01*
X109161580Y-101688900D01*
X109080300Y-101701600D01*
X108986320Y-101716840D01*
X108877100Y-101734620D01*
X108851700Y-101737160D01*
X108757720Y-101752400D01*
X108666280Y-101767640D01*
X108582460Y-101782880D01*
X108503720Y-101793040D01*
X108435140Y-101805740D01*
X108376720Y-101815900D01*
X108331000Y-101823520D01*
X108297980Y-101828600D01*
X108277660Y-101831140D01*
X108275120Y-101831140D01*
X108262420Y-101833680D01*
X108257340Y-101826060D01*
X108254800Y-101808280D01*
X108254800Y-101800660D01*
X108257340Y-101782880D01*
X108257340Y-101749860D01*
X108259880Y-101706680D01*
X108262420Y-101653340D01*
X108267500Y-101594920D01*
X108270040Y-101541580D01*
X108275120Y-101475540D01*
X108277660Y-101424740D01*
X108280200Y-101386640D01*
X108285280Y-101358700D01*
X108287820Y-101338380D01*
X108290360Y-101328220D01*
X108295440Y-101320600D01*
X108300520Y-101318060D01*
X108303060Y-101318060D01*
X108313220Y-101315520D01*
X108338620Y-101310440D01*
X108379260Y-101302820D01*
X108432600Y-101295200D01*
X108496100Y-101285040D01*
X108569760Y-101272340D01*
X108653580Y-101259640D01*
X108742480Y-101244400D01*
X108836460Y-101229160D01*
X108899960Y-101219000D01*
X109011720Y-101201220D01*
X109110780Y-101183440D01*
X109194600Y-101170740D01*
X109265720Y-101160580D01*
X109326680Y-101150420D01*
X109380020Y-101142800D01*
X109423200Y-101137720D01*
X109458760Y-101132640D01*
X109489240Y-101130100D01*
X109514640Y-101127560D01*
X109540040Y-101125020D01*
X109565440Y-101125020D01*
X109590840Y-101122480D01*
X109608620Y-101122480D01*
X109672120Y-101125020D01*
X109720380Y-101125020D01*
X109761020Y-101130100D01*
X109796580Y-101140260D01*
X109832140Y-101152960D01*
X109870240Y-101170740D01*
X109880400Y-101175820D01*
X109946440Y-101219000D01*
X110002320Y-101274880D01*
X110042960Y-101338380D01*
X110058200Y-101366320D01*
X110068360Y-101381560D01*
X110073440Y-101384100D01*
X110073440Y-101373940D01*
X110073440Y-101363780D01*
X110073440Y-101351080D01*
X110075980Y-101323140D01*
X110078520Y-101279960D01*
X110081060Y-101224080D01*
X110086140Y-101158040D01*
X110091220Y-101079300D01*
X110096300Y-100992940D01*
X110103920Y-100898960D01*
X110109000Y-100797360D01*
X110116620Y-100690680D01*
X110119160Y-100632260D01*
X110126780Y-100525580D01*
X110134400Y-100421440D01*
X110139480Y-100324920D01*
X110144560Y-100236020D01*
X110149640Y-100157280D01*
X110154720Y-100086160D01*
X110157260Y-100027740D01*
X110159800Y-99979480D01*
X110162340Y-99946460D01*
X110162340Y-99928680D01*
X110162340Y-99926140D01*
X110154720Y-99926140D01*
X110129320Y-99931220D01*
X110091220Y-99936300D01*
X110040420Y-99943920D01*
X109979460Y-99954080D01*
X109905800Y-99966780D01*
X109821980Y-99979480D01*
X109733080Y-99994720D01*
X109634020Y-100009960D01*
X109532420Y-100025200D01*
X109425740Y-100042980D01*
X109316520Y-100060760D01*
X109204760Y-100078540D01*
X109093000Y-100096320D01*
X108981240Y-100114100D01*
X108872020Y-100131880D01*
X108765340Y-100149660D01*
X108661200Y-100164900D01*
X108564680Y-100180140D01*
X108475780Y-100195380D01*
X108394500Y-100208080D01*
X108323380Y-100220780D01*
X108262420Y-100230940D01*
X108211620Y-100238560D01*
X108176060Y-100243640D01*
X108155740Y-100248720D01*
X108148120Y-100248720D01*
X108148120Y-100258880D01*
X108145580Y-100281740D01*
X108143040Y-100319840D01*
X108140500Y-100368100D01*
X108135420Y-100426520D01*
X108130340Y-100495100D01*
X108125260Y-100571300D01*
X108120180Y-100647500D01*
X108115100Y-100728780D01*
X108110020Y-100804980D01*
X108104940Y-100876100D01*
X108102400Y-100937060D01*
X108097320Y-100987860D01*
X108094780Y-101025960D01*
X108094780Y-101053900D01*
X108092240Y-101064060D01*
X108089700Y-101069140D01*
X108084620Y-101074220D01*
X108074460Y-101079300D01*
X108056680Y-101081840D01*
X108028740Y-101086920D01*
X107990640Y-101094540D01*
X107939840Y-101102160D01*
X107878880Y-101112320D01*
X107820460Y-101119940D01*
X107769660Y-101127560D01*
X107726480Y-101132640D01*
X107690920Y-101137720D01*
X107670600Y-101140260D01*
X107665520Y-101140260D01*
X107665520Y-101130100D01*
X107665520Y-101107240D01*
X107668060Y-101066600D01*
X107670600Y-101015800D01*
X107675680Y-100952300D01*
X107678220Y-100876100D01*
X107685840Y-100792280D01*
X107690920Y-100698300D01*
X107696000Y-100599240D01*
X107703620Y-100492560D01*
X107711240Y-100380800D01*
X107718860Y-100266500D01*
X107726480Y-100149660D01*
X107734100Y-100032820D01*
X107741720Y-99913440D01*
X107749340Y-99799140D01*
X107756960Y-99684840D01*
X107764580Y-99573080D01*
X107772200Y-99468940D01*
X107779820Y-99369880D01*
X107784900Y-99278440D01*
X107792520Y-99194620D01*
X107797600Y-99120960D01*
X107800140Y-99060000D01*
X107805220Y-99009200D01*
X107807760Y-98973640D01*
X107810300Y-98950780D01*
X107810300Y-98945700D01*
X107820460Y-98943160D01*
X107843320Y-98938080D01*
X107876340Y-98930460D01*
X107919520Y-98922840D01*
X107967780Y-98912680D01*
X108018580Y-98905060D01*
X108069380Y-98894900D01*
X108120180Y-98887280D01*
X108163360Y-98879660D01*
X108198920Y-98874580D01*
X108224320Y-98869500D01*
X108234480Y-98869500D01*
X108234480Y-98869500D01*
X108234480Y-98869500D01*
G37*
X108234480Y-98869500D02*
X108237020Y-98869500D01*
X108237020Y-98877120D01*
X108234480Y-98902520D01*
X108231940Y-98938080D01*
X108229400Y-98988880D01*
X108226860Y-99047300D01*
X108221780Y-99113340D01*
X108216700Y-99189540D01*
X108214160Y-99247960D01*
X108206540Y-99326700D01*
X108204000Y-99402900D01*
X108198920Y-99471480D01*
X108196380Y-99532440D01*
X108193840Y-99583240D01*
X108191300Y-99623880D01*
X108188760Y-99649280D01*
X108191300Y-99659440D01*
X108191300Y-99692460D01*
X109293660Y-99517200D01*
X109428280Y-99496880D01*
X109555280Y-99474020D01*
X109679740Y-99456240D01*
X109799120Y-99435920D01*
X109910880Y-99418140D01*
X110012480Y-99402900D01*
X110106460Y-99387660D01*
X110190280Y-99372420D01*
X110261400Y-99362260D01*
X110319820Y-99352100D01*
X110365540Y-99344480D01*
X110396020Y-99339400D01*
X110413800Y-99336860D01*
X110413800Y-99336860D01*
X110431580Y-99336860D01*
X110436660Y-99344480D01*
X110439200Y-99357180D01*
X110436660Y-99367340D01*
X110434120Y-99395280D01*
X110429040Y-99438460D01*
X110423960Y-99494340D01*
X110416340Y-99560380D01*
X110408720Y-99641660D01*
X110398560Y-99730560D01*
X110388400Y-99832160D01*
X110375700Y-99941380D01*
X110363000Y-100055680D01*
X110350300Y-100177600D01*
X110337600Y-100307140D01*
X110322360Y-100423980D01*
X110309660Y-100556060D01*
X110294420Y-100683060D01*
X110281720Y-100802440D01*
X110269020Y-100916740D01*
X110258860Y-101023420D01*
X110248700Y-101122480D01*
X110238540Y-101208840D01*
X110230920Y-101287580D01*
X110223300Y-101351080D01*
X110218220Y-101404420D01*
X110213140Y-101442520D01*
X110210600Y-101465380D01*
X110210600Y-101473000D01*
X110218220Y-101473000D01*
X110241080Y-101462840D01*
X110276640Y-101450140D01*
X110322360Y-101432360D01*
X110378240Y-101409500D01*
X110441740Y-101381560D01*
X110515400Y-101351080D01*
X110591600Y-101318060D01*
X110639860Y-101297740D01*
X110718600Y-101264720D01*
X110794800Y-101231700D01*
X110863380Y-101203760D01*
X110924340Y-101178360D01*
X110977680Y-101155500D01*
X111018320Y-101137720D01*
X111048800Y-101125020D01*
X111064040Y-101119940D01*
X111069120Y-101119940D01*
X111069120Y-101127560D01*
X111071660Y-101152960D01*
X111079280Y-101191060D01*
X111084360Y-101241860D01*
X111094520Y-101307900D01*
X111104680Y-101381560D01*
X111114840Y-101465380D01*
X111119920Y-101511100D01*
X110835440Y-101511100D01*
X110825280Y-101513640D01*
X110804960Y-101521260D01*
X110771940Y-101531420D01*
X110726220Y-101549200D01*
X110675420Y-101566980D01*
X110619540Y-101589840D01*
X110558580Y-101612700D01*
X110497620Y-101638100D01*
X110434120Y-101660960D01*
X110375700Y-101683820D01*
X110319820Y-101706680D01*
X110271560Y-101724460D01*
X110230920Y-101742240D01*
X110200440Y-101754940D01*
X110182660Y-101762560D01*
X110177580Y-101762560D01*
X110177580Y-101772720D01*
X110172500Y-101795580D01*
X110169960Y-101833680D01*
X110162340Y-101887020D01*
X110154720Y-101947980D01*
X110147100Y-102021640D01*
X110144560Y-102057200D01*
X110027720Y-102057200D01*
X110025180Y-102057200D01*
X110017560Y-102064820D01*
X110002320Y-102085140D01*
X109982000Y-102110540D01*
X109964220Y-102138480D01*
X109926120Y-102191820D01*
X109877860Y-102245160D01*
X109837220Y-102288340D01*
X109806740Y-102316280D01*
X109783880Y-102339140D01*
X109768640Y-102356920D01*
X109761020Y-102364540D01*
X109761020Y-102364540D01*
X109771180Y-102364540D01*
X109791500Y-102362000D01*
X109824520Y-102356920D01*
X109860080Y-102351840D01*
X109898180Y-102346760D01*
X109936280Y-102341680D01*
X109969300Y-102336600D01*
X109989620Y-102331520D01*
X109994700Y-102331520D01*
X110002320Y-102328980D01*
X110007400Y-102323900D01*
X110009940Y-102311200D01*
X110015020Y-102290880D01*
X110017560Y-102260400D01*
X110020100Y-102214680D01*
X110020100Y-102201980D01*
X110022640Y-102156260D01*
X110025180Y-102118160D01*
X110027720Y-102087680D01*
X110030260Y-102069900D01*
X110030260Y-102064820D01*
X110027720Y-102057200D01*
X110144560Y-102057200D01*
X110139480Y-102102920D01*
X110129320Y-102191820D01*
X110119160Y-102288340D01*
X110109000Y-102389940D01*
X110096300Y-102494080D01*
X110086140Y-102600760D01*
X110073440Y-102707440D01*
X110063280Y-102814120D01*
X110050580Y-102920800D01*
X110040420Y-103022400D01*
X110030260Y-103121460D01*
X110020100Y-103212900D01*
X110012480Y-103299260D01*
X110004860Y-103375460D01*
X109997240Y-103444040D01*
X109992160Y-103499920D01*
X109987080Y-103545640D01*
X109984540Y-103576120D01*
X109982000Y-103591360D01*
X109982000Y-103593900D01*
X109992160Y-103591360D01*
X110015020Y-103586280D01*
X110053120Y-103576120D01*
X110101380Y-103560880D01*
X110159800Y-103543100D01*
X110230920Y-103520240D01*
X110307120Y-103497380D01*
X110390940Y-103469440D01*
X110479840Y-103441500D01*
X110507780Y-103433880D01*
X110639860Y-103390700D01*
X110756700Y-103352600D01*
X110860840Y-103319580D01*
X110949740Y-103291640D01*
X111028480Y-103266240D01*
X111091980Y-103245920D01*
X111147860Y-103228140D01*
X111193580Y-103212900D01*
X111229140Y-103200200D01*
X111259620Y-103190040D01*
X111279940Y-103182420D01*
X111295180Y-103177340D01*
X111307880Y-103172260D01*
X111312960Y-103169720D01*
X111315500Y-103167180D01*
X111318040Y-103164640D01*
X111315500Y-103162100D01*
X111315500Y-103159560D01*
X111315500Y-103159560D01*
X111312960Y-103144320D01*
X111310420Y-103116380D01*
X111305340Y-103083360D01*
X111305340Y-103073200D01*
X111302800Y-103037640D01*
X111297720Y-103017320D01*
X111292640Y-103007160D01*
X111285020Y-103004620D01*
X111285020Y-103004620D01*
X111267240Y-103004620D01*
X111252000Y-102997000D01*
X111239300Y-102991920D01*
X111224060Y-102989380D01*
X111201200Y-102989380D01*
X111175800Y-102994460D01*
X111140240Y-103002080D01*
X111094520Y-103012240D01*
X111038640Y-103030020D01*
X110970060Y-103050340D01*
X110886240Y-103075740D01*
X110873540Y-103080820D01*
X110789720Y-103106220D01*
X110718600Y-103129080D01*
X110660180Y-103146860D01*
X110611920Y-103159560D01*
X110573820Y-103169720D01*
X110545880Y-103177340D01*
X110523020Y-103179880D01*
X110502700Y-103182420D01*
X110487460Y-103179880D01*
X110479840Y-103179880D01*
X110434120Y-103162100D01*
X110396020Y-103131620D01*
X110365540Y-103085900D01*
X110345220Y-103027480D01*
X110332520Y-102958900D01*
X110329980Y-102877620D01*
X110335060Y-102783640D01*
X110337600Y-102765860D01*
X110355380Y-102666800D01*
X110383320Y-102577900D01*
X110421420Y-102501700D01*
X110469680Y-102438200D01*
X110477300Y-102433120D01*
X110500160Y-102410260D01*
X110528100Y-102389940D01*
X110558580Y-102369620D01*
X110583980Y-102354380D01*
X110604300Y-102346760D01*
X110614460Y-102346760D01*
X110617000Y-102356920D01*
X110617000Y-102379780D01*
X110619540Y-102415340D01*
X110622080Y-102455980D01*
X110622080Y-102466140D01*
X110627160Y-102577900D01*
X110596680Y-102595680D01*
X110558580Y-102631240D01*
X110530640Y-102676960D01*
X110515400Y-102732840D01*
X110512860Y-102798880D01*
X110515400Y-102826820D01*
X110520480Y-102859840D01*
X110528100Y-102882700D01*
X110540800Y-102897940D01*
X110543340Y-102900480D01*
X110573820Y-102915720D01*
X110606840Y-102915720D01*
X110639860Y-102903020D01*
X110655100Y-102890320D01*
X110670340Y-102877620D01*
X110680500Y-102859840D01*
X110688120Y-102834440D01*
X110695740Y-102801420D01*
X110700820Y-102758240D01*
X110705900Y-102699820D01*
X110708440Y-102656640D01*
X110713520Y-102608380D01*
X110718600Y-102560120D01*
X110721140Y-102519480D01*
X110726220Y-102489000D01*
X110726220Y-102483920D01*
X110744000Y-102422960D01*
X110769400Y-102362000D01*
X110802420Y-102308660D01*
X110832900Y-102268020D01*
X110881160Y-102232460D01*
X110931960Y-102207060D01*
X110985300Y-102194360D01*
X111036100Y-102194360D01*
X111084360Y-102207060D01*
X111127540Y-102232460D01*
X111130080Y-102235000D01*
X111142780Y-102245160D01*
X111150400Y-102247700D01*
X111150400Y-102245160D01*
X111147860Y-102232460D01*
X111142780Y-102207060D01*
X111137700Y-102174040D01*
X111130080Y-102138480D01*
X111122460Y-102100380D01*
X111117380Y-102069900D01*
X111112300Y-102047040D01*
X111107220Y-102036880D01*
X111107220Y-102036880D01*
X111097060Y-102036880D01*
X111074200Y-102039420D01*
X111041180Y-102041960D01*
X111005620Y-102049580D01*
X110967520Y-102054660D01*
X110937040Y-102059740D01*
X110914180Y-102062280D01*
X110906560Y-102062280D01*
X110906560Y-102054660D01*
X110901480Y-102029260D01*
X110896400Y-101993700D01*
X110891320Y-101945440D01*
X110883700Y-101889560D01*
X110876080Y-101828600D01*
X110871000Y-101787960D01*
X110863380Y-101721920D01*
X110855760Y-101660960D01*
X110848140Y-101607620D01*
X110843060Y-101564440D01*
X110837980Y-101531420D01*
X110835440Y-101513640D01*
X110835440Y-101511100D01*
X111119920Y-101511100D01*
X111127540Y-101556820D01*
X111140240Y-101658420D01*
X111152940Y-101762560D01*
X111168180Y-101874320D01*
X111183420Y-101991160D01*
X111198660Y-102108000D01*
X111213900Y-102227380D01*
X111229140Y-102346760D01*
X111241840Y-102443280D01*
X110980220Y-102443280D01*
X110944660Y-102453440D01*
X110911640Y-102473760D01*
X110906560Y-102478840D01*
X110888780Y-102499160D01*
X110876080Y-102524560D01*
X110865920Y-102560120D01*
X110858300Y-102605840D01*
X110853220Y-102643940D01*
X110845600Y-102689660D01*
X110837980Y-102737920D01*
X110832900Y-102778560D01*
X110830360Y-102783640D01*
X110825280Y-102814120D01*
X110822740Y-102836980D01*
X110822740Y-102849680D01*
X110822740Y-102849680D01*
X110830360Y-102847140D01*
X110850680Y-102842060D01*
X110878620Y-102834440D01*
X110909100Y-102824280D01*
X110937040Y-102811580D01*
X110959900Y-102801420D01*
X110962440Y-102801420D01*
X111005620Y-102770940D01*
X111043720Y-102725220D01*
X111071660Y-102671880D01*
X111081820Y-102631240D01*
X111084360Y-102598220D01*
X111084360Y-102557580D01*
X111076740Y-102519480D01*
X111069120Y-102489000D01*
X111066580Y-102483920D01*
X111046260Y-102458520D01*
X111015780Y-102445820D01*
X110980220Y-102443280D01*
X111241840Y-102443280D01*
X111244380Y-102466140D01*
X111259620Y-102580440D01*
X111262160Y-102603300D01*
X111216440Y-102603300D01*
X111211360Y-102608380D01*
X111203740Y-102623620D01*
X111201200Y-102633780D01*
X111191040Y-102661720D01*
X111175800Y-102694740D01*
X111165640Y-102712520D01*
X111140240Y-102755700D01*
X111180880Y-102753160D01*
X111211360Y-102750620D01*
X111229140Y-102745540D01*
X111239300Y-102737920D01*
X111241840Y-102722680D01*
X111236760Y-102694740D01*
X111231680Y-102666800D01*
X111226600Y-102636320D01*
X111221520Y-102613460D01*
X111216440Y-102603300D01*
X111262160Y-102603300D01*
X111274860Y-102694740D01*
X111287560Y-102803960D01*
X111300260Y-102905560D01*
X111312960Y-103002080D01*
X111325660Y-103088440D01*
X111335820Y-103167180D01*
X111343440Y-103235760D01*
X111351060Y-103291640D01*
X111356140Y-103337360D01*
X111358680Y-103365300D01*
X111361220Y-103380540D01*
X111361220Y-103380540D01*
X111358680Y-103390700D01*
X111348520Y-103398320D01*
X111328200Y-103408480D01*
X111295180Y-103421180D01*
X111287560Y-103423720D01*
X111213900Y-103446580D01*
X111257080Y-103461820D01*
X111318040Y-103489760D01*
X111368840Y-103530400D01*
X111376460Y-103543100D01*
X111015780Y-103543100D01*
X110967520Y-103545640D01*
X110921800Y-103553260D01*
X110896400Y-103558340D01*
X110840520Y-103576120D01*
X110784640Y-103598980D01*
X110733840Y-103626920D01*
X110688120Y-103654860D01*
X110665260Y-103672640D01*
X110619540Y-103720900D01*
X110583980Y-103771700D01*
X110561120Y-103822500D01*
X110550960Y-103873300D01*
X110553500Y-103919020D01*
X110568740Y-103962200D01*
X110596680Y-103997760D01*
X110627160Y-104018080D01*
X110657640Y-104028240D01*
X110700820Y-104033320D01*
X110754160Y-104030780D01*
X110810040Y-104023160D01*
X110865920Y-104010460D01*
X110873540Y-104007920D01*
X110957360Y-103977440D01*
X111033560Y-103941880D01*
X111094520Y-103901240D01*
X111145320Y-103855520D01*
X111183420Y-103804720D01*
X111206280Y-103753920D01*
X111213900Y-103700580D01*
X111208820Y-103654860D01*
X111188500Y-103614220D01*
X111158020Y-103578660D01*
X111130080Y-103555800D01*
X111102140Y-103548180D01*
X111064040Y-103543100D01*
X111015780Y-103543100D01*
X111376460Y-103543100D01*
X111406940Y-103581200D01*
X111432340Y-103639620D01*
X111445040Y-103703120D01*
X111442500Y-103771700D01*
X111429800Y-103827580D01*
X111396780Y-103898700D01*
X111351060Y-103969820D01*
X111290100Y-104035860D01*
X111216440Y-104099360D01*
X111130080Y-104155240D01*
X111036100Y-104206040D01*
X110964980Y-104236520D01*
X110868460Y-104269540D01*
X110779560Y-104292400D01*
X110695740Y-104307640D01*
X110611920Y-104312720D01*
X110599220Y-104312720D01*
X110553500Y-104312720D01*
X110523020Y-104310180D01*
X110497620Y-104307640D01*
X110477300Y-104302560D01*
X110456980Y-104294940D01*
X110436660Y-104284780D01*
X110388400Y-104256840D01*
X110352840Y-104221280D01*
X110327440Y-104175560D01*
X110312200Y-104119680D01*
X110309660Y-104053640D01*
X110314740Y-103982520D01*
X110335060Y-103913940D01*
X110368080Y-103845360D01*
X110416340Y-103776780D01*
X110436660Y-103751380D01*
X110454440Y-103728520D01*
X110467140Y-103710740D01*
X110469680Y-103703120D01*
X110469680Y-103703120D01*
X110462060Y-103705660D01*
X110441740Y-103713280D01*
X110406180Y-103723440D01*
X110365540Y-103736140D01*
X110314740Y-103751380D01*
X110261400Y-103769160D01*
X110210600Y-103784400D01*
X109915960Y-103784400D01*
X109908340Y-103789480D01*
X109890560Y-103802180D01*
X109860080Y-103825040D01*
X109821980Y-103852980D01*
X109776260Y-103888540D01*
X109722920Y-103929180D01*
X109664500Y-103972360D01*
X109628940Y-104000300D01*
X109570520Y-104046020D01*
X109514640Y-104089200D01*
X109466380Y-104129840D01*
X109425740Y-104162860D01*
X109390180Y-104190800D01*
X109367320Y-104211120D01*
X109354620Y-104221280D01*
X109354620Y-104223820D01*
X109364780Y-104231440D01*
X109387640Y-104244140D01*
X109420660Y-104259380D01*
X109463840Y-104279700D01*
X109509560Y-104302560D01*
X109562900Y-104327960D01*
X109616240Y-104353360D01*
X109672120Y-104378760D01*
X109722920Y-104401620D01*
X109771180Y-104424480D01*
X109809280Y-104442260D01*
X109842300Y-104454960D01*
X109862620Y-104462580D01*
X109870240Y-104465120D01*
X109870240Y-104454960D01*
X109872780Y-104432100D01*
X109875320Y-104396540D01*
X109880400Y-104348280D01*
X109885480Y-104294940D01*
X109888020Y-104233980D01*
X109893100Y-104170480D01*
X109898180Y-104104440D01*
X109903260Y-104038400D01*
X109905800Y-103977440D01*
X109910880Y-103919020D01*
X109913420Y-103868220D01*
X109915960Y-103830120D01*
X109915960Y-103799640D01*
X109915960Y-103786940D01*
X109915960Y-103784400D01*
X110210600Y-103784400D01*
X110205520Y-103786940D01*
X110149640Y-103804720D01*
X110096300Y-103822500D01*
X110048040Y-103837740D01*
X110007400Y-103850440D01*
X109974380Y-103860600D01*
X109956600Y-103868220D01*
X109948980Y-103870760D01*
X109946440Y-103880920D01*
X109943900Y-103906320D01*
X109938820Y-103944420D01*
X109933740Y-103992680D01*
X109926120Y-104051100D01*
X109921040Y-104119680D01*
X109913420Y-104190800D01*
X109905800Y-104269540D01*
X109898180Y-104348280D01*
X109890560Y-104429560D01*
X109882940Y-104508300D01*
X109875320Y-104584500D01*
X109870240Y-104658160D01*
X109865160Y-104724200D01*
X109860080Y-104780080D01*
X109857540Y-104802940D01*
X109852460Y-104874060D01*
X109849920Y-104940100D01*
X109844840Y-104995980D01*
X109842300Y-105046780D01*
X109837220Y-105082340D01*
X109837220Y-105107740D01*
X109834680Y-105117900D01*
X109834680Y-105117900D01*
X109827060Y-105112820D01*
X109806740Y-105102660D01*
X109773720Y-105082340D01*
X109730540Y-105056940D01*
X109677200Y-105026460D01*
X109616240Y-104988360D01*
X109547660Y-104947720D01*
X109474000Y-104904540D01*
X109400340Y-104858820D01*
X109308900Y-104802940D01*
X109230160Y-104757220D01*
X109166660Y-104719120D01*
X109113320Y-104686100D01*
X109067600Y-104660700D01*
X109034580Y-104640380D01*
X109006640Y-104627680D01*
X108986320Y-104617520D01*
X108971080Y-104609900D01*
X108960920Y-104607360D01*
X108953300Y-104604820D01*
X108948220Y-104607360D01*
X108945680Y-104607360D01*
X108938060Y-104614980D01*
X108915200Y-104632760D01*
X108884720Y-104660700D01*
X108841540Y-104693720D01*
X108793280Y-104736900D01*
X108734860Y-104785160D01*
X108671360Y-104838500D01*
X108600240Y-104896920D01*
X108526580Y-104957880D01*
X108475780Y-105001060D01*
X108399580Y-105064560D01*
X108328460Y-105122980D01*
X108262420Y-105178860D01*
X108201460Y-105229660D01*
X108148120Y-105275380D01*
X108102400Y-105313480D01*
X108064300Y-105341420D01*
X108038900Y-105364280D01*
X108023660Y-105376980D01*
X108021120Y-105379520D01*
X108018580Y-105369360D01*
X108021120Y-105346500D01*
X108023660Y-105308400D01*
X108026200Y-105262680D01*
X108028740Y-105204260D01*
X108031280Y-105140760D01*
X108036360Y-105077260D01*
X108056680Y-104777540D01*
X108333540Y-104566720D01*
X108394500Y-104521000D01*
X108447840Y-104480360D01*
X108498640Y-104442260D01*
X108539280Y-104409240D01*
X108572300Y-104381300D01*
X108595160Y-104363520D01*
X108605320Y-104353360D01*
X108607860Y-104350820D01*
X108597700Y-104345740D01*
X108577380Y-104335580D01*
X108544360Y-104317800D01*
X108501180Y-104297480D01*
X108450380Y-104272080D01*
X108394500Y-104241600D01*
X108364020Y-104228900D01*
X108125260Y-104109520D01*
X108117640Y-104046020D01*
X108115100Y-104023160D01*
X108115100Y-103987600D01*
X108117640Y-103944420D01*
X108117640Y-103891080D01*
X108120180Y-103832660D01*
X108122720Y-103771700D01*
X108125260Y-103710740D01*
X108130340Y-103652320D01*
X108132880Y-103596440D01*
X108135420Y-103550720D01*
X108140500Y-103515160D01*
X108143040Y-103489760D01*
X108145580Y-103482140D01*
X108153200Y-103484680D01*
X108173520Y-103494840D01*
X108209080Y-103515160D01*
X108254800Y-103540560D01*
X108313220Y-103573580D01*
X108379260Y-103614220D01*
X108455460Y-103659940D01*
X108541820Y-103710740D01*
X108564680Y-103725980D01*
X108640880Y-103771700D01*
X108712000Y-103814880D01*
X108780580Y-103855520D01*
X108839000Y-103891080D01*
X108889800Y-103921560D01*
X108932980Y-103944420D01*
X108963460Y-103962200D01*
X108983780Y-103972360D01*
X108988860Y-103974900D01*
X108996480Y-103969820D01*
X109016800Y-103952040D01*
X109044740Y-103929180D01*
X109085380Y-103896160D01*
X109131100Y-103855520D01*
X109184440Y-103812340D01*
X109242860Y-103761540D01*
X109306360Y-103708200D01*
X109372400Y-103652320D01*
X109440980Y-103596440D01*
X109507020Y-103538020D01*
X109573060Y-103479600D01*
X109639100Y-103423720D01*
X109702600Y-103370380D01*
X109758480Y-103322120D01*
X109811820Y-103276400D01*
X109857540Y-103238300D01*
X109893100Y-103207820D01*
X109921040Y-103182420D01*
X109938820Y-103167180D01*
X109941360Y-103164640D01*
X109948980Y-103157020D01*
X109954060Y-103144320D01*
X109956600Y-103126540D01*
X109961680Y-103101140D01*
X109964220Y-103063040D01*
X109966760Y-103012240D01*
X109969300Y-102994460D01*
X109971840Y-102943660D01*
X109974380Y-102900480D01*
X109974380Y-102867460D01*
X109976920Y-102844600D01*
X109974380Y-102834440D01*
X109966760Y-102836980D01*
X109941360Y-102839520D01*
X109903260Y-102844600D01*
X109852460Y-102852220D01*
X109786420Y-102862380D01*
X109710220Y-102875080D01*
X109623860Y-102887780D01*
X109529880Y-102903020D01*
X109428280Y-102920800D01*
X109316520Y-102938580D01*
X109202220Y-102956360D01*
X109080300Y-102976680D01*
X109070140Y-102976680D01*
X108948220Y-102997000D01*
X108833920Y-103014780D01*
X108722160Y-103032560D01*
X108618020Y-103050340D01*
X108521500Y-103065580D01*
X108435140Y-103078280D01*
X108358940Y-103090980D01*
X108292900Y-103101140D01*
X108239560Y-103108760D01*
X108201460Y-103116380D01*
X108176060Y-103118920D01*
X108165900Y-103121460D01*
X108165900Y-103111300D01*
X108168440Y-103088440D01*
X108170980Y-103052880D01*
X108173520Y-103009700D01*
X108176060Y-102956360D01*
X108178600Y-102903020D01*
X108183680Y-102844600D01*
X108188760Y-102788720D01*
X108191300Y-102735380D01*
X108193840Y-102689660D01*
X108198920Y-102649020D01*
X108201460Y-102623620D01*
X108201460Y-102608380D01*
X108201460Y-102605840D01*
X108211620Y-102605840D01*
X108234480Y-102600760D01*
X108272580Y-102593140D01*
X108323380Y-102585520D01*
X108384340Y-102575360D01*
X108455460Y-102562660D01*
X108534200Y-102549960D01*
X108620560Y-102534720D01*
X108712000Y-102519480D01*
X108737400Y-102516940D01*
X108831380Y-102501700D01*
X108920280Y-102486460D01*
X109004100Y-102473760D01*
X109082840Y-102461060D01*
X109151420Y-102448360D01*
X109209840Y-102438200D01*
X109255560Y-102430580D01*
X109288580Y-102425500D01*
X109308900Y-102420420D01*
X109308900Y-102420420D01*
X109336840Y-102412800D01*
X109372400Y-102397560D01*
X109410500Y-102382320D01*
X109423200Y-102377240D01*
X109496860Y-102331520D01*
X109562900Y-102273100D01*
X109616240Y-102204520D01*
X109656880Y-102125780D01*
X109684820Y-102036880D01*
X109700060Y-101942900D01*
X109700060Y-101892100D01*
X109697520Y-101826060D01*
X109684820Y-101772720D01*
X109664500Y-101729540D01*
X109649260Y-101709220D01*
X109623860Y-101686360D01*
X109595920Y-101668580D01*
X109562900Y-101658420D01*
X109517180Y-101653340D01*
X109489240Y-101650800D01*
X109474000Y-101650800D01*
X109453680Y-101650800D01*
X109433360Y-101653340D01*
X109405420Y-101655880D01*
X109374940Y-101658420D01*
X109334300Y-101663500D01*
X109286040Y-101671120D01*
X109230160Y-101678740D01*
X109161580Y-101688900D01*
X109080300Y-101701600D01*
X108986320Y-101716840D01*
X108877100Y-101734620D01*
X108851700Y-101737160D01*
X108757720Y-101752400D01*
X108666280Y-101767640D01*
X108582460Y-101782880D01*
X108503720Y-101793040D01*
X108435140Y-101805740D01*
X108376720Y-101815900D01*
X108331000Y-101823520D01*
X108297980Y-101828600D01*
X108277660Y-101831140D01*
X108275120Y-101831140D01*
X108262420Y-101833680D01*
X108257340Y-101826060D01*
X108254800Y-101808280D01*
X108254800Y-101800660D01*
X108257340Y-101782880D01*
X108257340Y-101749860D01*
X108259880Y-101706680D01*
X108262420Y-101653340D01*
X108267500Y-101594920D01*
X108270040Y-101541580D01*
X108275120Y-101475540D01*
X108277660Y-101424740D01*
X108280200Y-101386640D01*
X108285280Y-101358700D01*
X108287820Y-101338380D01*
X108290360Y-101328220D01*
X108295440Y-101320600D01*
X108300520Y-101318060D01*
X108303060Y-101318060D01*
X108313220Y-101315520D01*
X108338620Y-101310440D01*
X108379260Y-101302820D01*
X108432600Y-101295200D01*
X108496100Y-101285040D01*
X108569760Y-101272340D01*
X108653580Y-101259640D01*
X108742480Y-101244400D01*
X108836460Y-101229160D01*
X108899960Y-101219000D01*
X109011720Y-101201220D01*
X109110780Y-101183440D01*
X109194600Y-101170740D01*
X109265720Y-101160580D01*
X109326680Y-101150420D01*
X109380020Y-101142800D01*
X109423200Y-101137720D01*
X109458760Y-101132640D01*
X109489240Y-101130100D01*
X109514640Y-101127560D01*
X109540040Y-101125020D01*
X109565440Y-101125020D01*
X109590840Y-101122480D01*
X109608620Y-101122480D01*
X109672120Y-101125020D01*
X109720380Y-101125020D01*
X109761020Y-101130100D01*
X109796580Y-101140260D01*
X109832140Y-101152960D01*
X109870240Y-101170740D01*
X109880400Y-101175820D01*
X109946440Y-101219000D01*
X110002320Y-101274880D01*
X110042960Y-101338380D01*
X110058200Y-101366320D01*
X110068360Y-101381560D01*
X110073440Y-101384100D01*
X110073440Y-101373940D01*
X110073440Y-101363780D01*
X110073440Y-101351080D01*
X110075980Y-101323140D01*
X110078520Y-101279960D01*
X110081060Y-101224080D01*
X110086140Y-101158040D01*
X110091220Y-101079300D01*
X110096300Y-100992940D01*
X110103920Y-100898960D01*
X110109000Y-100797360D01*
X110116620Y-100690680D01*
X110119160Y-100632260D01*
X110126780Y-100525580D01*
X110134400Y-100421440D01*
X110139480Y-100324920D01*
X110144560Y-100236020D01*
X110149640Y-100157280D01*
X110154720Y-100086160D01*
X110157260Y-100027740D01*
X110159800Y-99979480D01*
X110162340Y-99946460D01*
X110162340Y-99928680D01*
X110162340Y-99926140D01*
X110154720Y-99926140D01*
X110129320Y-99931220D01*
X110091220Y-99936300D01*
X110040420Y-99943920D01*
X109979460Y-99954080D01*
X109905800Y-99966780D01*
X109821980Y-99979480D01*
X109733080Y-99994720D01*
X109634020Y-100009960D01*
X109532420Y-100025200D01*
X109425740Y-100042980D01*
X109316520Y-100060760D01*
X109204760Y-100078540D01*
X109093000Y-100096320D01*
X108981240Y-100114100D01*
X108872020Y-100131880D01*
X108765340Y-100149660D01*
X108661200Y-100164900D01*
X108564680Y-100180140D01*
X108475780Y-100195380D01*
X108394500Y-100208080D01*
X108323380Y-100220780D01*
X108262420Y-100230940D01*
X108211620Y-100238560D01*
X108176060Y-100243640D01*
X108155740Y-100248720D01*
X108148120Y-100248720D01*
X108148120Y-100258880D01*
X108145580Y-100281740D01*
X108143040Y-100319840D01*
X108140500Y-100368100D01*
X108135420Y-100426520D01*
X108130340Y-100495100D01*
X108125260Y-100571300D01*
X108120180Y-100647500D01*
X108115100Y-100728780D01*
X108110020Y-100804980D01*
X108104940Y-100876100D01*
X108102400Y-100937060D01*
X108097320Y-100987860D01*
X108094780Y-101025960D01*
X108094780Y-101053900D01*
X108092240Y-101064060D01*
X108089700Y-101069140D01*
X108084620Y-101074220D01*
X108074460Y-101079300D01*
X108056680Y-101081840D01*
X108028740Y-101086920D01*
X107990640Y-101094540D01*
X107939840Y-101102160D01*
X107878880Y-101112320D01*
X107820460Y-101119940D01*
X107769660Y-101127560D01*
X107726480Y-101132640D01*
X107690920Y-101137720D01*
X107670600Y-101140260D01*
X107665520Y-101140260D01*
X107665520Y-101130100D01*
X107665520Y-101107240D01*
X107668060Y-101066600D01*
X107670600Y-101015800D01*
X107675680Y-100952300D01*
X107678220Y-100876100D01*
X107685840Y-100792280D01*
X107690920Y-100698300D01*
X107696000Y-100599240D01*
X107703620Y-100492560D01*
X107711240Y-100380800D01*
X107718860Y-100266500D01*
X107726480Y-100149660D01*
X107734100Y-100032820D01*
X107741720Y-99913440D01*
X107749340Y-99799140D01*
X107756960Y-99684840D01*
X107764580Y-99573080D01*
X107772200Y-99468940D01*
X107779820Y-99369880D01*
X107784900Y-99278440D01*
X107792520Y-99194620D01*
X107797600Y-99120960D01*
X107800140Y-99060000D01*
X107805220Y-99009200D01*
X107807760Y-98973640D01*
X107810300Y-98950780D01*
X107810300Y-98945700D01*
X107820460Y-98943160D01*
X107843320Y-98938080D01*
X107876340Y-98930460D01*
X107919520Y-98922840D01*
X107967780Y-98912680D01*
X108018580Y-98905060D01*
X108069380Y-98894900D01*
X108120180Y-98887280D01*
X108163360Y-98879660D01*
X108198920Y-98874580D01*
X108224320Y-98869500D01*
X108234480Y-98869500D01*
X108234480Y-98869500D01*
G36*
X107825540Y-97688400D02*
X107843320Y-97693480D01*
X107863640Y-97708720D01*
X107889040Y-97734120D01*
X107922060Y-97772220D01*
X107929680Y-97779840D01*
X107952540Y-97807780D01*
X107975400Y-97833180D01*
X108003340Y-97856040D01*
X108033820Y-97883980D01*
X108074460Y-97911920D01*
X108127800Y-97944940D01*
X108178600Y-97977960D01*
X108239560Y-98018600D01*
X108287820Y-98046540D01*
X108325920Y-98069400D01*
X108358940Y-98087180D01*
X108384340Y-98097340D01*
X108404660Y-98104960D01*
X108424980Y-98110040D01*
X108427520Y-98110040D01*
X108460540Y-98110040D01*
X108493560Y-98102420D01*
X108531660Y-98082100D01*
X108574840Y-98054160D01*
X108628180Y-98013520D01*
X108645960Y-97998280D01*
X108704380Y-97950020D01*
X108755180Y-97911920D01*
X108800900Y-97881440D01*
X108841540Y-97858580D01*
X108882180Y-97840800D01*
X108889800Y-97838260D01*
X108978700Y-97810320D01*
X109072680Y-97787460D01*
X109176820Y-97769680D01*
X109293660Y-97759520D01*
X109423200Y-97751900D01*
X109438440Y-97751900D01*
X109603540Y-97751900D01*
X109758480Y-97762060D01*
X109900720Y-97784920D01*
X110030260Y-97817940D01*
X110152180Y-97861120D01*
X110205520Y-97886520D01*
X110243620Y-97904300D01*
X110274100Y-97914460D01*
X110299500Y-97917000D01*
X110324900Y-97909380D01*
X110350300Y-97894140D01*
X110383320Y-97866200D01*
X110408720Y-97840800D01*
X110446820Y-97810320D01*
X110474760Y-97792540D01*
X110495080Y-97792540D01*
X110512860Y-97805240D01*
X110512860Y-97807780D01*
X110520480Y-97830640D01*
X110520480Y-97866200D01*
X110520480Y-97919540D01*
X110515400Y-97983040D01*
X110505240Y-98059240D01*
X110500160Y-98104960D01*
X110492540Y-98143060D01*
X110490000Y-98178620D01*
X110484920Y-98211640D01*
X110482380Y-98247200D01*
X110479840Y-98285300D01*
X110479840Y-98325940D01*
X110477300Y-98376740D01*
X110477300Y-98437700D01*
X110477300Y-98511360D01*
X110477300Y-98582480D01*
X110477300Y-98668840D01*
X110477300Y-98739960D01*
X110474760Y-98795840D01*
X110474760Y-98841560D01*
X110472220Y-98877120D01*
X110472220Y-98902520D01*
X110469680Y-98920300D01*
X110467140Y-98930460D01*
X110464600Y-98938080D01*
X110444280Y-98960940D01*
X110418880Y-98966020D01*
X110388400Y-98958400D01*
X110350300Y-98935540D01*
X110307120Y-98897440D01*
X110263940Y-98854260D01*
X110233460Y-98821240D01*
X110205520Y-98798380D01*
X110182660Y-98788220D01*
X110154720Y-98785680D01*
X110124240Y-98793300D01*
X110114080Y-98795840D01*
X110053120Y-98813620D01*
X110002320Y-98826320D01*
X109964220Y-98836480D01*
X109931200Y-98841560D01*
X109903260Y-98846640D01*
X109877860Y-98849180D01*
X109849920Y-98851720D01*
X109816900Y-98851720D01*
X109791500Y-98851720D01*
X109740700Y-98851720D01*
X109677200Y-98846640D01*
X109608620Y-98841560D01*
X109534960Y-98833940D01*
X109466380Y-98826320D01*
X109397800Y-98816160D01*
X109336840Y-98806000D01*
X109288580Y-98798380D01*
X109280960Y-98795840D01*
X109237780Y-98780600D01*
X109184440Y-98760280D01*
X109123480Y-98732340D01*
X109049820Y-98696780D01*
X109001560Y-98668840D01*
X108935520Y-98635820D01*
X108882180Y-98610420D01*
X108839000Y-98590100D01*
X108803440Y-98579940D01*
X108767880Y-98572320D01*
X108737400Y-98569780D01*
X108701840Y-98574860D01*
X108663740Y-98579940D01*
X108658660Y-98582480D01*
X108574840Y-98595180D01*
X108501180Y-98602800D01*
X108432600Y-98597720D01*
X108391960Y-98592640D01*
X108313220Y-98572320D01*
X108247180Y-98539300D01*
X108191300Y-98496120D01*
X108145580Y-98440240D01*
X108122720Y-98402140D01*
X108110020Y-98376740D01*
X108099860Y-98356420D01*
X108089700Y-98336100D01*
X108082080Y-98308160D01*
X108071920Y-98275140D01*
X108061760Y-98231960D01*
X108046520Y-98186240D01*
X108028740Y-98145600D01*
X108008420Y-98104960D01*
X107977940Y-98061780D01*
X107960160Y-98036380D01*
X107901740Y-97957640D01*
X107858560Y-97886520D01*
X107830620Y-97823020D01*
X107812840Y-97769680D01*
X107807760Y-97726500D01*
X107807760Y-97703640D01*
X107812840Y-97693480D01*
X107823000Y-97688400D01*
X107825540Y-97688400D01*
X107825540Y-97688400D01*
X107825540Y-97688400D01*
G37*
X107825540Y-97688400D02*
X107843320Y-97693480D01*
X107863640Y-97708720D01*
X107889040Y-97734120D01*
X107922060Y-97772220D01*
X107929680Y-97779840D01*
X107952540Y-97807780D01*
X107975400Y-97833180D01*
X108003340Y-97856040D01*
X108033820Y-97883980D01*
X108074460Y-97911920D01*
X108127800Y-97944940D01*
X108178600Y-97977960D01*
X108239560Y-98018600D01*
X108287820Y-98046540D01*
X108325920Y-98069400D01*
X108358940Y-98087180D01*
X108384340Y-98097340D01*
X108404660Y-98104960D01*
X108424980Y-98110040D01*
X108427520Y-98110040D01*
X108460540Y-98110040D01*
X108493560Y-98102420D01*
X108531660Y-98082100D01*
X108574840Y-98054160D01*
X108628180Y-98013520D01*
X108645960Y-97998280D01*
X108704380Y-97950020D01*
X108755180Y-97911920D01*
X108800900Y-97881440D01*
X108841540Y-97858580D01*
X108882180Y-97840800D01*
X108889800Y-97838260D01*
X108978700Y-97810320D01*
X109072680Y-97787460D01*
X109176820Y-97769680D01*
X109293660Y-97759520D01*
X109423200Y-97751900D01*
X109438440Y-97751900D01*
X109603540Y-97751900D01*
X109758480Y-97762060D01*
X109900720Y-97784920D01*
X110030260Y-97817940D01*
X110152180Y-97861120D01*
X110205520Y-97886520D01*
X110243620Y-97904300D01*
X110274100Y-97914460D01*
X110299500Y-97917000D01*
X110324900Y-97909380D01*
X110350300Y-97894140D01*
X110383320Y-97866200D01*
X110408720Y-97840800D01*
X110446820Y-97810320D01*
X110474760Y-97792540D01*
X110495080Y-97792540D01*
X110512860Y-97805240D01*
X110512860Y-97807780D01*
X110520480Y-97830640D01*
X110520480Y-97866200D01*
X110520480Y-97919540D01*
X110515400Y-97983040D01*
X110505240Y-98059240D01*
X110500160Y-98104960D01*
X110492540Y-98143060D01*
X110490000Y-98178620D01*
X110484920Y-98211640D01*
X110482380Y-98247200D01*
X110479840Y-98285300D01*
X110479840Y-98325940D01*
X110477300Y-98376740D01*
X110477300Y-98437700D01*
X110477300Y-98511360D01*
X110477300Y-98582480D01*
X110477300Y-98668840D01*
X110477300Y-98739960D01*
X110474760Y-98795840D01*
X110474760Y-98841560D01*
X110472220Y-98877120D01*
X110472220Y-98902520D01*
X110469680Y-98920300D01*
X110467140Y-98930460D01*
X110464600Y-98938080D01*
X110444280Y-98960940D01*
X110418880Y-98966020D01*
X110388400Y-98958400D01*
X110350300Y-98935540D01*
X110307120Y-98897440D01*
X110263940Y-98854260D01*
X110233460Y-98821240D01*
X110205520Y-98798380D01*
X110182660Y-98788220D01*
X110154720Y-98785680D01*
X110124240Y-98793300D01*
X110114080Y-98795840D01*
X110053120Y-98813620D01*
X110002320Y-98826320D01*
X109964220Y-98836480D01*
X109931200Y-98841560D01*
X109903260Y-98846640D01*
X109877860Y-98849180D01*
X109849920Y-98851720D01*
X109816900Y-98851720D01*
X109791500Y-98851720D01*
X109740700Y-98851720D01*
X109677200Y-98846640D01*
X109608620Y-98841560D01*
X109534960Y-98833940D01*
X109466380Y-98826320D01*
X109397800Y-98816160D01*
X109336840Y-98806000D01*
X109288580Y-98798380D01*
X109280960Y-98795840D01*
X109237780Y-98780600D01*
X109184440Y-98760280D01*
X109123480Y-98732340D01*
X109049820Y-98696780D01*
X109001560Y-98668840D01*
X108935520Y-98635820D01*
X108882180Y-98610420D01*
X108839000Y-98590100D01*
X108803440Y-98579940D01*
X108767880Y-98572320D01*
X108737400Y-98569780D01*
X108701840Y-98574860D01*
X108663740Y-98579940D01*
X108658660Y-98582480D01*
X108574840Y-98595180D01*
X108501180Y-98602800D01*
X108432600Y-98597720D01*
X108391960Y-98592640D01*
X108313220Y-98572320D01*
X108247180Y-98539300D01*
X108191300Y-98496120D01*
X108145580Y-98440240D01*
X108122720Y-98402140D01*
X108110020Y-98376740D01*
X108099860Y-98356420D01*
X108089700Y-98336100D01*
X108082080Y-98308160D01*
X108071920Y-98275140D01*
X108061760Y-98231960D01*
X108046520Y-98186240D01*
X108028740Y-98145600D01*
X108008420Y-98104960D01*
X107977940Y-98061780D01*
X107960160Y-98036380D01*
X107901740Y-97957640D01*
X107858560Y-97886520D01*
X107830620Y-97823020D01*
X107812840Y-97769680D01*
X107807760Y-97726500D01*
X107807760Y-97703640D01*
X107812840Y-97693480D01*
X107823000Y-97688400D01*
X107825540Y-97688400D01*
X107825540Y-97688400D01*
M02*
