%FSLAX46Y46*%
G04 Gerber Fmt 4.6, Leading zero omitted, Abs format (unit mm)*
G04 Created by KiCad (PCBNEW (2014-07-09 BZR 4988)-product) date Thu 14 Aug 2014 11:57:35 AM PDT*
%MOMM*%
G01*
G04 APERTURE LIST*
%ADD10C,0.050000*%
%ADD11C,0.101600*%
%ADD12C,0.099060*%
%ADD13C,0.119380*%
%ADD14C,0.127000*%
%ADD15C,0.078740*%
%ADD16C,0.203200*%
G04 APERTURE END LIST*
D10*
D11*
X128814285Y-96172262D02*
X128511904Y-96172262D01*
X128481666Y-96474643D01*
X128511904Y-96444405D01*
X128572381Y-96414167D01*
X128723571Y-96414167D01*
X128784047Y-96444405D01*
X128814285Y-96474643D01*
X128844524Y-96535119D01*
X128844524Y-96686310D01*
X128814285Y-96746786D01*
X128784047Y-96777024D01*
X128723571Y-96807262D01*
X128572381Y-96807262D01*
X128511904Y-96777024D01*
X128481666Y-96746786D01*
X129056190Y-96383929D02*
X129207381Y-96807262D01*
X129358571Y-96383929D01*
X107668784Y-103919262D02*
X107668784Y-103284262D01*
X107819975Y-103284262D01*
X107910689Y-103314500D01*
X107971165Y-103374976D01*
X108001404Y-103435452D01*
X108031642Y-103556405D01*
X108031642Y-103647119D01*
X108001404Y-103768071D01*
X107971165Y-103828548D01*
X107910689Y-103889024D01*
X107819975Y-103919262D01*
X107668784Y-103919262D01*
X108575927Y-103495929D02*
X108575927Y-103919262D01*
X108303784Y-103495929D02*
X108303784Y-103828548D01*
X108334023Y-103889024D01*
X108394499Y-103919262D01*
X108485213Y-103919262D01*
X108545689Y-103889024D01*
X108575927Y-103858786D01*
X109150451Y-103919262D02*
X109150451Y-103586643D01*
X109120213Y-103526167D01*
X109059737Y-103495929D01*
X108938785Y-103495929D01*
X108878308Y-103526167D01*
X109150451Y-103889024D02*
X109089975Y-103919262D01*
X108938785Y-103919262D01*
X108878308Y-103889024D01*
X108848070Y-103828548D01*
X108848070Y-103768071D01*
X108878308Y-103707595D01*
X108938785Y-103677357D01*
X109089975Y-103677357D01*
X109150451Y-103647119D01*
X109543547Y-103919262D02*
X109483071Y-103889024D01*
X109452832Y-103828548D01*
X109452832Y-103284262D01*
X110269261Y-103919262D02*
X110269261Y-103284262D01*
X110480928Y-103737833D01*
X110692595Y-103284262D01*
X110692595Y-103919262D01*
X110964737Y-103737833D02*
X111267118Y-103737833D01*
X110904261Y-103919262D02*
X111115928Y-103284262D01*
X111327595Y-103919262D01*
X111478785Y-103284262D02*
X111902119Y-103919262D01*
X111902119Y-103284262D02*
X111478785Y-103919262D01*
X112083547Y-103284262D02*
X112476643Y-103284262D01*
X112264976Y-103526167D01*
X112355690Y-103526167D01*
X112416166Y-103556405D01*
X112446404Y-103586643D01*
X112476643Y-103647119D01*
X112476643Y-103798310D01*
X112446404Y-103858786D01*
X112416166Y-103889024D01*
X112355690Y-103919262D01*
X112174262Y-103919262D01*
X112113785Y-103889024D01*
X112083547Y-103858786D01*
X113081405Y-103919262D02*
X112718547Y-103919262D01*
X112899976Y-103919262D02*
X112899976Y-103284262D01*
X112839500Y-103374976D01*
X112779024Y-103435452D01*
X112718547Y-103465690D01*
X113444262Y-103556405D02*
X113383786Y-103526167D01*
X113353547Y-103495929D01*
X113323309Y-103435452D01*
X113323309Y-103405214D01*
X113353547Y-103344738D01*
X113383786Y-103314500D01*
X113444262Y-103284262D01*
X113565214Y-103284262D01*
X113625690Y-103314500D01*
X113655928Y-103344738D01*
X113686167Y-103405214D01*
X113686167Y-103435452D01*
X113655928Y-103495929D01*
X113625690Y-103526167D01*
X113565214Y-103556405D01*
X113444262Y-103556405D01*
X113383786Y-103586643D01*
X113353547Y-103616881D01*
X113323309Y-103677357D01*
X113323309Y-103798310D01*
X113353547Y-103858786D01*
X113383786Y-103889024D01*
X113444262Y-103919262D01*
X113565214Y-103919262D01*
X113625690Y-103889024D01*
X113655928Y-103858786D01*
X113686167Y-103798310D01*
X113686167Y-103677357D01*
X113655928Y-103616881D01*
X113625690Y-103586643D01*
X113565214Y-103556405D01*
X114260690Y-103284262D02*
X113958309Y-103284262D01*
X113928071Y-103586643D01*
X113958309Y-103556405D01*
X114018786Y-103526167D01*
X114169976Y-103526167D01*
X114230452Y-103556405D01*
X114260690Y-103586643D01*
X114290929Y-103647119D01*
X114290929Y-103798310D01*
X114260690Y-103858786D01*
X114230452Y-103889024D01*
X114169976Y-103919262D01*
X114018786Y-103919262D01*
X113958309Y-103889024D01*
X113928071Y-103858786D01*
X114865452Y-103284262D02*
X114563071Y-103284262D01*
X114532833Y-103586643D01*
X114563071Y-103556405D01*
X114623548Y-103526167D01*
X114774738Y-103526167D01*
X114835214Y-103556405D01*
X114865452Y-103586643D01*
X114895691Y-103647119D01*
X114895691Y-103798310D01*
X114865452Y-103858786D01*
X114835214Y-103889024D01*
X114774738Y-103919262D01*
X114623548Y-103919262D01*
X114563071Y-103889024D01*
X114532833Y-103858786D01*
X115591167Y-103495929D02*
X115742358Y-103919262D01*
X115893548Y-103495929D01*
X116377358Y-103889024D02*
X116316882Y-103919262D01*
X116195930Y-103919262D01*
X116135453Y-103889024D01*
X116105215Y-103828548D01*
X116105215Y-103586643D01*
X116135453Y-103526167D01*
X116195930Y-103495929D01*
X116316882Y-103495929D01*
X116377358Y-103526167D01*
X116407596Y-103586643D01*
X116407596Y-103647119D01*
X116105215Y-103707595D01*
X116679739Y-103919262D02*
X116679739Y-103495929D01*
X116679739Y-103616881D02*
X116709978Y-103556405D01*
X116740216Y-103526167D01*
X116800692Y-103495929D01*
X116861168Y-103495929D01*
X117193787Y-103284262D02*
X117254263Y-103284262D01*
X117314739Y-103314500D01*
X117344977Y-103344738D01*
X117375215Y-103405214D01*
X117405454Y-103526167D01*
X117405454Y-103677357D01*
X117375215Y-103798310D01*
X117344977Y-103858786D01*
X117314739Y-103889024D01*
X117254263Y-103919262D01*
X117193787Y-103919262D01*
X117133311Y-103889024D01*
X117103073Y-103858786D01*
X117072834Y-103798310D01*
X117042596Y-103677357D01*
X117042596Y-103526167D01*
X117072834Y-103405214D01*
X117103073Y-103344738D01*
X117133311Y-103314500D01*
X117193787Y-103284262D01*
X109842904Y-102225929D02*
X110084809Y-102225929D01*
X109933618Y-102014262D02*
X109933618Y-102558548D01*
X109963857Y-102619024D01*
X110024333Y-102649262D01*
X110084809Y-102649262D01*
X110568618Y-102225929D02*
X110568618Y-102649262D01*
X110296475Y-102225929D02*
X110296475Y-102558548D01*
X110326714Y-102619024D01*
X110387190Y-102649262D01*
X110477904Y-102649262D01*
X110538380Y-102619024D01*
X110568618Y-102588786D01*
X110810523Y-102649262D02*
X111143142Y-102225929D01*
X110810523Y-102225929D02*
X111143142Y-102649262D01*
X111385047Y-102407357D02*
X111868857Y-102407357D01*
X112261952Y-102649262D02*
X112201476Y-102619024D01*
X112171237Y-102558548D01*
X112171237Y-102014262D01*
X112775999Y-102649262D02*
X112775999Y-102316643D01*
X112745761Y-102256167D01*
X112685285Y-102225929D01*
X112564333Y-102225929D01*
X112503856Y-102256167D01*
X112775999Y-102619024D02*
X112715523Y-102649262D01*
X112564333Y-102649262D01*
X112503856Y-102619024D01*
X112473618Y-102558548D01*
X112473618Y-102498071D01*
X112503856Y-102437595D01*
X112564333Y-102407357D01*
X112715523Y-102407357D01*
X112775999Y-102377119D01*
X113078380Y-102649262D02*
X113078380Y-102014262D01*
X113078380Y-102256167D02*
X113138857Y-102225929D01*
X113259809Y-102225929D01*
X113320285Y-102256167D01*
X113350523Y-102286405D01*
X113380761Y-102346881D01*
X113380761Y-102528310D01*
X113350523Y-102588786D01*
X113320285Y-102619024D01*
X113259809Y-102649262D01*
X113138857Y-102649262D01*
X113078380Y-102619024D01*
X113652904Y-102588786D02*
X113683143Y-102619024D01*
X113652904Y-102649262D01*
X113622666Y-102619024D01*
X113652904Y-102588786D01*
X113652904Y-102649262D01*
X114227428Y-102619024D02*
X114166952Y-102649262D01*
X114046000Y-102649262D01*
X113985524Y-102619024D01*
X113955285Y-102588786D01*
X113925047Y-102528310D01*
X113925047Y-102346881D01*
X113955285Y-102286405D01*
X113985524Y-102256167D01*
X114046000Y-102225929D01*
X114166952Y-102225929D01*
X114227428Y-102256167D01*
X114590286Y-102649262D02*
X114529810Y-102619024D01*
X114499571Y-102588786D01*
X114469333Y-102528310D01*
X114469333Y-102346881D01*
X114499571Y-102286405D01*
X114529810Y-102256167D01*
X114590286Y-102225929D01*
X114681000Y-102225929D01*
X114741476Y-102256167D01*
X114771714Y-102286405D01*
X114801952Y-102346881D01*
X114801952Y-102528310D01*
X114771714Y-102588786D01*
X114741476Y-102619024D01*
X114681000Y-102649262D01*
X114590286Y-102649262D01*
X115074095Y-102649262D02*
X115074095Y-102225929D01*
X115074095Y-102286405D02*
X115104334Y-102256167D01*
X115164810Y-102225929D01*
X115255524Y-102225929D01*
X115316000Y-102256167D01*
X115346238Y-102316643D01*
X115346238Y-102649262D01*
X115346238Y-102316643D02*
X115376476Y-102256167D01*
X115436953Y-102225929D01*
X115527667Y-102225929D01*
X115588143Y-102256167D01*
X115618381Y-102316643D01*
X115618381Y-102649262D01*
X128115786Y-101826786D02*
X128085548Y-101857024D01*
X127994833Y-101887262D01*
X127934357Y-101887262D01*
X127843643Y-101857024D01*
X127783167Y-101796548D01*
X127752928Y-101736071D01*
X127722690Y-101615119D01*
X127722690Y-101524405D01*
X127752928Y-101403452D01*
X127783167Y-101342976D01*
X127843643Y-101282500D01*
X127934357Y-101252262D01*
X127994833Y-101252262D01*
X128085548Y-101282500D01*
X128115786Y-101312738D01*
X128357690Y-101857024D02*
X128448405Y-101887262D01*
X128599595Y-101887262D01*
X128660071Y-101857024D01*
X128690309Y-101826786D01*
X128720548Y-101766310D01*
X128720548Y-101705833D01*
X128690309Y-101645357D01*
X128660071Y-101615119D01*
X128599595Y-101584881D01*
X128478643Y-101554643D01*
X128418167Y-101524405D01*
X128387928Y-101494167D01*
X128357690Y-101433690D01*
X128357690Y-101373214D01*
X128387928Y-101312738D01*
X128418167Y-101282500D01*
X128478643Y-101252262D01*
X128629833Y-101252262D01*
X128720548Y-101282500D01*
X129325310Y-101887262D02*
X128962452Y-101887262D01*
X129143881Y-101887262D02*
X129143881Y-101252262D01*
X129083405Y-101342976D01*
X129022929Y-101403452D01*
X128962452Y-101433690D01*
X127707571Y-104397024D02*
X127798286Y-104427262D01*
X127949476Y-104427262D01*
X128009952Y-104397024D01*
X128040190Y-104366786D01*
X128070429Y-104306310D01*
X128070429Y-104245833D01*
X128040190Y-104185357D01*
X128009952Y-104155119D01*
X127949476Y-104124881D01*
X127828524Y-104094643D01*
X127768048Y-104064405D01*
X127737809Y-104034167D01*
X127707571Y-103973690D01*
X127707571Y-103913214D01*
X127737809Y-103852738D01*
X127768048Y-103822500D01*
X127828524Y-103792262D01*
X127979714Y-103792262D01*
X128070429Y-103822500D01*
X128705429Y-104366786D02*
X128675191Y-104397024D01*
X128584476Y-104427262D01*
X128524000Y-104427262D01*
X128433286Y-104397024D01*
X128372810Y-104336548D01*
X128342571Y-104276071D01*
X128312333Y-104155119D01*
X128312333Y-104064405D01*
X128342571Y-103943452D01*
X128372810Y-103882976D01*
X128433286Y-103822500D01*
X128524000Y-103792262D01*
X128584476Y-103792262D01*
X128675191Y-103822500D01*
X128705429Y-103852738D01*
X128977571Y-104427262D02*
X128977571Y-103792262D01*
X129340429Y-104427262D02*
X129068286Y-104064405D01*
X129340429Y-103792262D02*
X128977571Y-104155119D01*
X129416024Y-99828048D02*
X129446262Y-99737333D01*
X129446262Y-99586143D01*
X129416024Y-99525667D01*
X129385786Y-99495429D01*
X129325310Y-99465190D01*
X129264833Y-99465190D01*
X129204357Y-99495429D01*
X129174119Y-99525667D01*
X129143881Y-99586143D01*
X129113643Y-99707095D01*
X129083405Y-99767571D01*
X129053167Y-99797810D01*
X128992690Y-99828048D01*
X128932214Y-99828048D01*
X128871738Y-99797810D01*
X128841500Y-99767571D01*
X128811262Y-99707095D01*
X128811262Y-99555905D01*
X128841500Y-99465190D01*
X128811262Y-99072095D02*
X128811262Y-98951143D01*
X128841500Y-98890667D01*
X128901976Y-98830190D01*
X129022929Y-98799952D01*
X129234595Y-98799952D01*
X129355548Y-98830190D01*
X129416024Y-98890667D01*
X129446262Y-98951143D01*
X129446262Y-99072095D01*
X129416024Y-99132571D01*
X129355548Y-99193048D01*
X129234595Y-99223286D01*
X129022929Y-99223286D01*
X128901976Y-99193048D01*
X128841500Y-99132571D01*
X128811262Y-99072095D01*
X128040191Y-109029500D02*
X127979714Y-108999262D01*
X127889000Y-108999262D01*
X127798286Y-109029500D01*
X127737810Y-109089976D01*
X127707571Y-109150452D01*
X127677333Y-109271405D01*
X127677333Y-109362119D01*
X127707571Y-109483071D01*
X127737810Y-109543548D01*
X127798286Y-109604024D01*
X127889000Y-109634262D01*
X127949476Y-109634262D01*
X128040191Y-109604024D01*
X128070429Y-109573786D01*
X128070429Y-109362119D01*
X127949476Y-109362119D01*
X128342571Y-109634262D02*
X128342571Y-108999262D01*
X128705429Y-109634262D01*
X128705429Y-108999262D01*
X129007809Y-109634262D02*
X129007809Y-108999262D01*
X129159000Y-108999262D01*
X129249714Y-109029500D01*
X129310190Y-109089976D01*
X129340429Y-109150452D01*
X129370667Y-109271405D01*
X129370667Y-109362119D01*
X129340429Y-109483071D01*
X129310190Y-109543548D01*
X129249714Y-109604024D01*
X129159000Y-109634262D01*
X129007809Y-109634262D01*
X127616857Y-93759262D02*
X128009953Y-93759262D01*
X127798286Y-94001167D01*
X127889000Y-94001167D01*
X127949476Y-94031405D01*
X127979714Y-94061643D01*
X128009953Y-94122119D01*
X128009953Y-94273310D01*
X127979714Y-94333786D01*
X127949476Y-94364024D01*
X127889000Y-94394262D01*
X127707572Y-94394262D01*
X127647095Y-94364024D01*
X127616857Y-94333786D01*
X128282095Y-94333786D02*
X128312334Y-94364024D01*
X128282095Y-94394262D01*
X128251857Y-94364024D01*
X128282095Y-94333786D01*
X128282095Y-94394262D01*
X128524000Y-93759262D02*
X128917096Y-93759262D01*
X128705429Y-94001167D01*
X128796143Y-94001167D01*
X128856619Y-94031405D01*
X128886857Y-94061643D01*
X128917096Y-94122119D01*
X128917096Y-94273310D01*
X128886857Y-94333786D01*
X128856619Y-94364024D01*
X128796143Y-94394262D01*
X128614715Y-94394262D01*
X128554238Y-94364024D01*
X128524000Y-94333786D01*
X129128762Y-93970929D02*
X129279953Y-94394262D01*
X129431143Y-93970929D01*
X128115786Y-106906786D02*
X128085548Y-106937024D01*
X127994833Y-106967262D01*
X127934357Y-106967262D01*
X127843643Y-106937024D01*
X127783167Y-106876548D01*
X127752928Y-106816071D01*
X127722690Y-106695119D01*
X127722690Y-106604405D01*
X127752928Y-106483452D01*
X127783167Y-106422976D01*
X127843643Y-106362500D01*
X127934357Y-106332262D01*
X127994833Y-106332262D01*
X128085548Y-106362500D01*
X128115786Y-106392738D01*
X128357690Y-106937024D02*
X128448405Y-106967262D01*
X128599595Y-106967262D01*
X128660071Y-106937024D01*
X128690309Y-106906786D01*
X128720548Y-106846310D01*
X128720548Y-106785833D01*
X128690309Y-106725357D01*
X128660071Y-106695119D01*
X128599595Y-106664881D01*
X128478643Y-106634643D01*
X128418167Y-106604405D01*
X128387928Y-106574167D01*
X128357690Y-106513690D01*
X128357690Y-106453214D01*
X128387928Y-106392738D01*
X128418167Y-106362500D01*
X128478643Y-106332262D01*
X128629833Y-106332262D01*
X128720548Y-106362500D01*
X128962452Y-106392738D02*
X128992690Y-106362500D01*
X129053167Y-106332262D01*
X129204357Y-106332262D01*
X129264833Y-106362500D01*
X129295071Y-106392738D01*
X129325310Y-106453214D01*
X129325310Y-106513690D01*
X129295071Y-106604405D01*
X128932214Y-106967262D01*
X129325310Y-106967262D01*
D12*
X116078000Y-105410000D02*
G75*
G03X116078000Y-105410000I-127000J0D01*
G74*
G01*
X114808000Y-105410000D02*
X115824000Y-105410000D01*
X115824000Y-105410000D02*
X115824000Y-106934000D01*
X115824000Y-106934000D02*
X114808000Y-106934000D01*
X113792000Y-106934000D02*
X112776000Y-106934000D01*
X112776000Y-106934000D02*
X112776000Y-105410000D01*
X112776000Y-105410000D02*
X113792000Y-105410000D01*
X112776000Y-113538000D02*
G75*
G03X112776000Y-113538000I-127000J0D01*
G74*
G01*
X113792000Y-113538000D02*
X112776000Y-113538000D01*
X112776000Y-113538000D02*
X112776000Y-112014000D01*
X112776000Y-112014000D02*
X113792000Y-112014000D01*
X114808000Y-112014000D02*
X115824000Y-112014000D01*
X115824000Y-112014000D02*
X115824000Y-113538000D01*
X115824000Y-113538000D02*
X114808000Y-113538000D01*
D13*
X114411760Y-109974380D02*
X114411760Y-110672880D01*
X114411760Y-108973620D02*
X114411760Y-108275120D01*
X115712240Y-109974380D02*
X115712240Y-110672880D01*
X115712240Y-108275120D02*
X115712240Y-108973620D01*
X115697000Y-110672880D02*
X114427000Y-110672880D01*
X114427000Y-108275120D02*
X115697000Y-108275120D01*
D12*
X116078000Y-89408000D02*
G75*
G03X116078000Y-89408000I-127000J0D01*
G74*
G01*
X114808000Y-89408000D02*
X115824000Y-89408000D01*
X115824000Y-89408000D02*
X115824000Y-90932000D01*
X115824000Y-90932000D02*
X114808000Y-90932000D01*
X113792000Y-90932000D02*
X112776000Y-90932000D01*
X112776000Y-90932000D02*
X112776000Y-89408000D01*
X112776000Y-89408000D02*
X113792000Y-89408000D01*
X112776000Y-97536000D02*
G75*
G03X112776000Y-97536000I-127000J0D01*
G74*
G01*
X113792000Y-97536000D02*
X112776000Y-97536000D01*
X112776000Y-97536000D02*
X112776000Y-96012000D01*
X112776000Y-96012000D02*
X113792000Y-96012000D01*
X114808000Y-96012000D02*
X115824000Y-96012000D01*
X115824000Y-96012000D02*
X115824000Y-97536000D01*
X115824000Y-97536000D02*
X114808000Y-97536000D01*
D13*
X114411760Y-93972380D02*
X114411760Y-94670880D01*
X114411760Y-92971620D02*
X114411760Y-92273120D01*
X115712240Y-93972380D02*
X115712240Y-94670880D01*
X115712240Y-92273120D02*
X115712240Y-92971620D01*
X115697000Y-94670880D02*
X114427000Y-94670880D01*
X114427000Y-92273120D02*
X115697000Y-92273120D01*
X117101620Y-112633760D02*
X116403120Y-112633760D01*
X118102380Y-112633760D02*
X118800880Y-112633760D01*
X117101620Y-113934240D02*
X116403120Y-113934240D01*
X118800880Y-113934240D02*
X118102380Y-113934240D01*
X116403120Y-113919000D02*
X116403120Y-112649000D01*
X118800880Y-112649000D02*
X118800880Y-113919000D01*
X119448580Y-97932240D02*
X120147080Y-97932240D01*
X118447820Y-97932240D02*
X117749320Y-97932240D01*
X119448580Y-96631760D02*
X120147080Y-96631760D01*
X117749320Y-96631760D02*
X118447820Y-96631760D01*
X120147080Y-96647000D02*
X120147080Y-97917000D01*
X117749320Y-97917000D02*
X117749320Y-96647000D01*
D14*
X109601000Y-105537000D02*
X111887000Y-105537000D01*
X111887000Y-105537000D02*
X111887000Y-106807000D01*
X111887000Y-106807000D02*
X109601000Y-106807000D01*
X109601000Y-106807000D02*
X109601000Y-105537000D01*
X109601000Y-112141000D02*
X111887000Y-112141000D01*
X111887000Y-112141000D02*
X111887000Y-113411000D01*
X111887000Y-113411000D02*
X109601000Y-113411000D01*
X109601000Y-113411000D02*
X109601000Y-112141000D01*
X109601000Y-89535000D02*
X111887000Y-89535000D01*
X111887000Y-89535000D02*
X111887000Y-90805000D01*
X111887000Y-90805000D02*
X109601000Y-90805000D01*
X109601000Y-90805000D02*
X109601000Y-89535000D01*
X109601000Y-96139000D02*
X111887000Y-96139000D01*
X111887000Y-96139000D02*
X111887000Y-97409000D01*
X111887000Y-97409000D02*
X109601000Y-97409000D01*
X109601000Y-97409000D02*
X109601000Y-96139000D01*
X117858540Y-101132640D02*
X117152420Y-101132640D01*
X117152420Y-101132640D02*
X117152420Y-102529640D01*
X117152420Y-102529640D02*
X117858540Y-102529640D01*
X119565420Y-101132640D02*
X118859300Y-101132640D01*
X119565420Y-101132640D02*
X119565420Y-102529640D01*
X119565420Y-102529640D02*
X118859300Y-102529640D01*
X122491500Y-97543620D02*
X122491500Y-96837500D01*
X122491500Y-96837500D02*
X121094500Y-96837500D01*
X121094500Y-96837500D02*
X121094500Y-97543620D01*
X122491500Y-99250500D02*
X122491500Y-98544380D01*
X122491500Y-99250500D02*
X121094500Y-99250500D01*
X121094500Y-99250500D02*
X121094500Y-98544380D01*
X124833380Y-97853500D02*
X125539500Y-97853500D01*
X125539500Y-97853500D02*
X125539500Y-96456500D01*
X125539500Y-96456500D02*
X124833380Y-96456500D01*
X123126500Y-97853500D02*
X123832620Y-97853500D01*
X123126500Y-97853500D02*
X123126500Y-96456500D01*
X123126500Y-96456500D02*
X123832620Y-96456500D01*
X124498100Y-108755180D02*
X124498100Y-109461300D01*
X124498100Y-109461300D02*
X125895100Y-109461300D01*
X125895100Y-109461300D02*
X125895100Y-108755180D01*
X124498100Y-107048300D02*
X124498100Y-107754420D01*
X124498100Y-107048300D02*
X125895100Y-107048300D01*
X125895100Y-107048300D02*
X125895100Y-107754420D01*
D15*
X112015590Y-110650020D02*
G75*
G03X112015590Y-110650020I-159070J0D01*
G74*
G01*
X110998000Y-108204000D02*
X112014000Y-108204000D01*
X110998000Y-110807500D02*
X112014000Y-110807500D01*
X112014000Y-108204000D02*
X112014000Y-110807500D01*
X110998000Y-110807500D02*
X110998000Y-108204000D01*
X112015590Y-94648020D02*
G75*
G03X112015590Y-94648020I-159070J0D01*
G74*
G01*
X110998000Y-92202000D02*
X112014000Y-92202000D01*
X110998000Y-94805500D02*
X112014000Y-94805500D01*
X112014000Y-92202000D02*
X112014000Y-94805500D01*
X110998000Y-94805500D02*
X110998000Y-92202000D01*
D14*
X118618000Y-106807000D02*
X118491000Y-106807000D01*
X118491000Y-106807000D02*
X118491000Y-112141000D01*
X122301000Y-112141000D02*
X122301000Y-106807000D01*
X122301000Y-106807000D02*
X118618000Y-106807000D01*
X120904000Y-106807000D02*
X120904000Y-107315000D01*
X120904000Y-107315000D02*
X119888000Y-107315000D01*
X119888000Y-107315000D02*
X119888000Y-106807000D01*
X122301000Y-112141000D02*
X118491000Y-112141000D01*
X118618000Y-90805000D02*
X118491000Y-90805000D01*
X118491000Y-90805000D02*
X118491000Y-96139000D01*
X122301000Y-96139000D02*
X122301000Y-90805000D01*
X122301000Y-90805000D02*
X118618000Y-90805000D01*
X120904000Y-90805000D02*
X120904000Y-91313000D01*
X120904000Y-91313000D02*
X119888000Y-91313000D01*
X119888000Y-91313000D02*
X119888000Y-90805000D01*
X122301000Y-96139000D02*
X118491000Y-96139000D01*
D16*
X125476000Y-100711000D02*
X125476000Y-105537000D01*
X125476000Y-105537000D02*
X121920000Y-105537000D01*
X121920000Y-105537000D02*
X121920000Y-100711000D01*
X121920000Y-100711000D02*
X125476000Y-100711000D01*
X122936000Y-101346000D02*
G75*
G03X122936000Y-101346000I-381000J0D01*
G74*
G01*
D14*
X107670600Y-113538000D02*
X107670600Y-105410000D01*
X101904800Y-113538000D02*
X101904800Y-105410000D01*
X101904800Y-105410000D02*
X108915200Y-105410000D01*
X108915200Y-105410000D02*
X108915200Y-113538000D01*
X108915200Y-113538000D02*
X101904800Y-113538000D01*
X107670600Y-97536000D02*
X107670600Y-89408000D01*
X101904800Y-97536000D02*
X101904800Y-89408000D01*
X101904800Y-89408000D02*
X108915200Y-89408000D01*
X108915200Y-89408000D02*
X108915200Y-97536000D01*
X108915200Y-97536000D02*
X101904800Y-97536000D01*
D13*
X119448580Y-99811840D02*
X120147080Y-99811840D01*
X118447820Y-99811840D02*
X117749320Y-99811840D01*
X119448580Y-98511360D02*
X120147080Y-98511360D01*
X117749320Y-98511360D02*
X118447820Y-98511360D01*
X120147080Y-98526600D02*
X120147080Y-99796600D01*
X117749320Y-99796600D02*
X117749320Y-98526600D01*
X126753620Y-98917760D02*
X126055120Y-98917760D01*
X127754380Y-98917760D02*
X128452880Y-98917760D01*
X126753620Y-100218240D02*
X126055120Y-100218240D01*
X128452880Y-100218240D02*
X127754380Y-100218240D01*
X126055120Y-100203000D02*
X126055120Y-98933000D01*
X128452880Y-98933000D02*
X128452880Y-100203000D01*
D11*
X114194167Y-105128786D02*
X114163929Y-105159024D01*
X114073214Y-105189262D01*
X114012738Y-105189262D01*
X113922024Y-105159024D01*
X113861548Y-105098548D01*
X113831309Y-105038071D01*
X113801071Y-104917119D01*
X113801071Y-104826405D01*
X113831309Y-104705452D01*
X113861548Y-104644976D01*
X113922024Y-104584500D01*
X114012738Y-104554262D01*
X114073214Y-104554262D01*
X114163929Y-104584500D01*
X114194167Y-104614738D01*
X114798929Y-105189262D02*
X114436071Y-105189262D01*
X114617500Y-105189262D02*
X114617500Y-104554262D01*
X114557024Y-104644976D01*
X114496548Y-104705452D01*
X114436071Y-104735690D01*
X114194167Y-111732786D02*
X114163929Y-111763024D01*
X114073214Y-111793262D01*
X114012738Y-111793262D01*
X113922024Y-111763024D01*
X113861548Y-111702548D01*
X113831309Y-111642071D01*
X113801071Y-111521119D01*
X113801071Y-111430405D01*
X113831309Y-111309452D01*
X113861548Y-111248976D01*
X113922024Y-111188500D01*
X114012738Y-111158262D01*
X114073214Y-111158262D01*
X114163929Y-111188500D01*
X114194167Y-111218738D01*
X114436071Y-111218738D02*
X114466309Y-111188500D01*
X114526786Y-111158262D01*
X114677976Y-111158262D01*
X114738452Y-111188500D01*
X114768690Y-111218738D01*
X114798929Y-111279214D01*
X114798929Y-111339690D01*
X114768690Y-111430405D01*
X114405833Y-111793262D01*
X114798929Y-111793262D01*
X114194167Y-107922786D02*
X114163929Y-107953024D01*
X114073214Y-107983262D01*
X114012738Y-107983262D01*
X113922024Y-107953024D01*
X113861548Y-107892548D01*
X113831309Y-107832071D01*
X113801071Y-107711119D01*
X113801071Y-107620405D01*
X113831309Y-107499452D01*
X113861548Y-107438976D01*
X113922024Y-107378500D01*
X114012738Y-107348262D01*
X114073214Y-107348262D01*
X114163929Y-107378500D01*
X114194167Y-107408738D01*
X114405833Y-107348262D02*
X114798929Y-107348262D01*
X114587262Y-107590167D01*
X114677976Y-107590167D01*
X114738452Y-107620405D01*
X114768690Y-107650643D01*
X114798929Y-107711119D01*
X114798929Y-107862310D01*
X114768690Y-107922786D01*
X114738452Y-107953024D01*
X114677976Y-107983262D01*
X114496548Y-107983262D01*
X114436071Y-107953024D01*
X114405833Y-107922786D01*
X114194167Y-89126786D02*
X114163929Y-89157024D01*
X114073214Y-89187262D01*
X114012738Y-89187262D01*
X113922024Y-89157024D01*
X113861548Y-89096548D01*
X113831309Y-89036071D01*
X113801071Y-88915119D01*
X113801071Y-88824405D01*
X113831309Y-88703452D01*
X113861548Y-88642976D01*
X113922024Y-88582500D01*
X114012738Y-88552262D01*
X114073214Y-88552262D01*
X114163929Y-88582500D01*
X114194167Y-88612738D01*
X114738452Y-88763929D02*
X114738452Y-89187262D01*
X114587262Y-88522024D02*
X114436071Y-88975595D01*
X114829167Y-88975595D01*
X114194167Y-95730786D02*
X114163929Y-95761024D01*
X114073214Y-95791262D01*
X114012738Y-95791262D01*
X113922024Y-95761024D01*
X113861548Y-95700548D01*
X113831309Y-95640071D01*
X113801071Y-95519119D01*
X113801071Y-95428405D01*
X113831309Y-95307452D01*
X113861548Y-95246976D01*
X113922024Y-95186500D01*
X114012738Y-95156262D01*
X114073214Y-95156262D01*
X114163929Y-95186500D01*
X114194167Y-95216738D01*
X114768690Y-95156262D02*
X114466309Y-95156262D01*
X114436071Y-95458643D01*
X114466309Y-95428405D01*
X114526786Y-95398167D01*
X114677976Y-95398167D01*
X114738452Y-95428405D01*
X114768690Y-95458643D01*
X114798929Y-95519119D01*
X114798929Y-95670310D01*
X114768690Y-95730786D01*
X114738452Y-95761024D01*
X114677976Y-95791262D01*
X114526786Y-95791262D01*
X114466309Y-95761024D01*
X114436071Y-95730786D01*
X114448167Y-91920786D02*
X114417929Y-91951024D01*
X114327214Y-91981262D01*
X114266738Y-91981262D01*
X114176024Y-91951024D01*
X114115548Y-91890548D01*
X114085309Y-91830071D01*
X114055071Y-91709119D01*
X114055071Y-91618405D01*
X114085309Y-91497452D01*
X114115548Y-91436976D01*
X114176024Y-91376500D01*
X114266738Y-91346262D01*
X114327214Y-91346262D01*
X114417929Y-91376500D01*
X114448167Y-91406738D01*
X114992452Y-91346262D02*
X114871500Y-91346262D01*
X114811024Y-91376500D01*
X114780786Y-91406738D01*
X114720309Y-91497452D01*
X114690071Y-91618405D01*
X114690071Y-91860310D01*
X114720309Y-91920786D01*
X114750548Y-91951024D01*
X114811024Y-91981262D01*
X114931976Y-91981262D01*
X114992452Y-91951024D01*
X115022690Y-91920786D01*
X115052929Y-91860310D01*
X115052929Y-91709119D01*
X115022690Y-91648643D01*
X114992452Y-91618405D01*
X114931976Y-91588167D01*
X114811024Y-91588167D01*
X114750548Y-91618405D01*
X114720309Y-91648643D01*
X114690071Y-91709119D01*
X119528167Y-114272786D02*
X119497929Y-114303024D01*
X119407214Y-114333262D01*
X119346738Y-114333262D01*
X119256024Y-114303024D01*
X119195548Y-114242548D01*
X119165309Y-114182071D01*
X119135071Y-114061119D01*
X119135071Y-113970405D01*
X119165309Y-113849452D01*
X119195548Y-113788976D01*
X119256024Y-113728500D01*
X119346738Y-113698262D01*
X119407214Y-113698262D01*
X119497929Y-113728500D01*
X119528167Y-113758738D01*
X119739833Y-113698262D02*
X120163167Y-113698262D01*
X119891024Y-114333262D01*
X116734167Y-97127786D02*
X116703929Y-97158024D01*
X116613214Y-97188262D01*
X116552738Y-97188262D01*
X116462024Y-97158024D01*
X116401548Y-97097548D01*
X116371309Y-97037071D01*
X116341071Y-96916119D01*
X116341071Y-96825405D01*
X116371309Y-96704452D01*
X116401548Y-96643976D01*
X116462024Y-96583500D01*
X116552738Y-96553262D01*
X116613214Y-96553262D01*
X116703929Y-96583500D01*
X116734167Y-96613738D01*
X117097024Y-96825405D02*
X117036548Y-96795167D01*
X117006309Y-96764929D01*
X116976071Y-96704452D01*
X116976071Y-96674214D01*
X117006309Y-96613738D01*
X117036548Y-96583500D01*
X117097024Y-96553262D01*
X117217976Y-96553262D01*
X117278452Y-96583500D01*
X117308690Y-96613738D01*
X117338929Y-96674214D01*
X117338929Y-96704452D01*
X117308690Y-96764929D01*
X117278452Y-96795167D01*
X117217976Y-96825405D01*
X117097024Y-96825405D01*
X117036548Y-96855643D01*
X117006309Y-96885881D01*
X116976071Y-96946357D01*
X116976071Y-97067310D01*
X117006309Y-97127786D01*
X117036548Y-97158024D01*
X117097024Y-97188262D01*
X117217976Y-97188262D01*
X117278452Y-97158024D01*
X117308690Y-97127786D01*
X117338929Y-97067310D01*
X117338929Y-96946357D01*
X117308690Y-96885881D01*
X117278452Y-96855643D01*
X117217976Y-96825405D01*
X110214833Y-104856643D02*
X110003166Y-104856643D01*
X110003166Y-105189262D02*
X110003166Y-104554262D01*
X110305547Y-104554262D01*
X110759119Y-104856643D02*
X110849833Y-104886881D01*
X110880072Y-104917119D01*
X110910310Y-104977595D01*
X110910310Y-105068310D01*
X110880072Y-105128786D01*
X110849833Y-105159024D01*
X110789357Y-105189262D01*
X110547452Y-105189262D01*
X110547452Y-104554262D01*
X110759119Y-104554262D01*
X110819595Y-104584500D01*
X110849833Y-104614738D01*
X110880072Y-104675214D01*
X110880072Y-104735690D01*
X110849833Y-104796167D01*
X110819595Y-104826405D01*
X110759119Y-104856643D01*
X110547452Y-104856643D01*
X111515072Y-105189262D02*
X111152214Y-105189262D01*
X111333643Y-105189262D02*
X111333643Y-104554262D01*
X111273167Y-104644976D01*
X111212691Y-104705452D01*
X111152214Y-104735690D01*
X110214833Y-111460643D02*
X110003166Y-111460643D01*
X110003166Y-111793262D02*
X110003166Y-111158262D01*
X110305547Y-111158262D01*
X110759119Y-111460643D02*
X110849833Y-111490881D01*
X110880072Y-111521119D01*
X110910310Y-111581595D01*
X110910310Y-111672310D01*
X110880072Y-111732786D01*
X110849833Y-111763024D01*
X110789357Y-111793262D01*
X110547452Y-111793262D01*
X110547452Y-111158262D01*
X110759119Y-111158262D01*
X110819595Y-111188500D01*
X110849833Y-111218738D01*
X110880072Y-111279214D01*
X110880072Y-111339690D01*
X110849833Y-111400167D01*
X110819595Y-111430405D01*
X110759119Y-111460643D01*
X110547452Y-111460643D01*
X111152214Y-111218738D02*
X111182452Y-111188500D01*
X111242929Y-111158262D01*
X111394119Y-111158262D01*
X111454595Y-111188500D01*
X111484833Y-111218738D01*
X111515072Y-111279214D01*
X111515072Y-111339690D01*
X111484833Y-111430405D01*
X111121976Y-111793262D01*
X111515072Y-111793262D01*
X110214833Y-88854643D02*
X110003166Y-88854643D01*
X110003166Y-89187262D02*
X110003166Y-88552262D01*
X110305547Y-88552262D01*
X110759119Y-88854643D02*
X110849833Y-88884881D01*
X110880072Y-88915119D01*
X110910310Y-88975595D01*
X110910310Y-89066310D01*
X110880072Y-89126786D01*
X110849833Y-89157024D01*
X110789357Y-89187262D01*
X110547452Y-89187262D01*
X110547452Y-88552262D01*
X110759119Y-88552262D01*
X110819595Y-88582500D01*
X110849833Y-88612738D01*
X110880072Y-88673214D01*
X110880072Y-88733690D01*
X110849833Y-88794167D01*
X110819595Y-88824405D01*
X110759119Y-88854643D01*
X110547452Y-88854643D01*
X111121976Y-88552262D02*
X111515072Y-88552262D01*
X111303405Y-88794167D01*
X111394119Y-88794167D01*
X111454595Y-88824405D01*
X111484833Y-88854643D01*
X111515072Y-88915119D01*
X111515072Y-89066310D01*
X111484833Y-89126786D01*
X111454595Y-89157024D01*
X111394119Y-89187262D01*
X111212691Y-89187262D01*
X111152214Y-89157024D01*
X111121976Y-89126786D01*
X109960833Y-95458643D02*
X109749166Y-95458643D01*
X109749166Y-95791262D02*
X109749166Y-95156262D01*
X110051547Y-95156262D01*
X110505119Y-95458643D02*
X110595833Y-95488881D01*
X110626072Y-95519119D01*
X110656310Y-95579595D01*
X110656310Y-95670310D01*
X110626072Y-95730786D01*
X110595833Y-95761024D01*
X110535357Y-95791262D01*
X110293452Y-95791262D01*
X110293452Y-95156262D01*
X110505119Y-95156262D01*
X110565595Y-95186500D01*
X110595833Y-95216738D01*
X110626072Y-95277214D01*
X110626072Y-95337690D01*
X110595833Y-95398167D01*
X110565595Y-95428405D01*
X110505119Y-95458643D01*
X110293452Y-95458643D01*
X111200595Y-95367929D02*
X111200595Y-95791262D01*
X111049405Y-95126024D02*
X110898214Y-95579595D01*
X111291310Y-95579595D01*
X118893167Y-103538262D02*
X118681500Y-103235881D01*
X118530309Y-103538262D02*
X118530309Y-102903262D01*
X118772214Y-102903262D01*
X118832690Y-102933500D01*
X118862929Y-102963738D01*
X118893167Y-103024214D01*
X118893167Y-103114929D01*
X118862929Y-103175405D01*
X118832690Y-103205643D01*
X118772214Y-103235881D01*
X118530309Y-103235881D01*
X119497929Y-103538262D02*
X119135071Y-103538262D01*
X119316500Y-103538262D02*
X119316500Y-102903262D01*
X119256024Y-102993976D01*
X119195548Y-103054452D01*
X119135071Y-103084690D01*
X122068167Y-100236262D02*
X121856500Y-99933881D01*
X121705309Y-100236262D02*
X121705309Y-99601262D01*
X121947214Y-99601262D01*
X122007690Y-99631500D01*
X122037929Y-99661738D01*
X122068167Y-99722214D01*
X122068167Y-99812929D01*
X122037929Y-99873405D01*
X122007690Y-99903643D01*
X121947214Y-99933881D01*
X121705309Y-99933881D01*
X122310071Y-99661738D02*
X122340309Y-99631500D01*
X122400786Y-99601262D01*
X122551976Y-99601262D01*
X122612452Y-99631500D01*
X122642690Y-99661738D01*
X122672929Y-99722214D01*
X122672929Y-99782690D01*
X122642690Y-99873405D01*
X122279833Y-100236262D01*
X122672929Y-100236262D01*
X123846167Y-98839262D02*
X123634500Y-98536881D01*
X123483309Y-98839262D02*
X123483309Y-98204262D01*
X123725214Y-98204262D01*
X123785690Y-98234500D01*
X123815929Y-98264738D01*
X123846167Y-98325214D01*
X123846167Y-98415929D01*
X123815929Y-98476405D01*
X123785690Y-98506643D01*
X123725214Y-98536881D01*
X123483309Y-98536881D01*
X124057833Y-98204262D02*
X124450929Y-98204262D01*
X124239262Y-98446167D01*
X124329976Y-98446167D01*
X124390452Y-98476405D01*
X124420690Y-98506643D01*
X124450929Y-98567119D01*
X124450929Y-98718310D01*
X124420690Y-98778786D01*
X124390452Y-98809024D01*
X124329976Y-98839262D01*
X124148548Y-98839262D01*
X124088071Y-98809024D01*
X124057833Y-98778786D01*
X124213862Y-108614633D02*
X123911481Y-108826300D01*
X124213862Y-108977491D02*
X123578862Y-108977491D01*
X123578862Y-108735586D01*
X123609100Y-108675110D01*
X123639338Y-108644871D01*
X123699814Y-108614633D01*
X123790529Y-108614633D01*
X123851005Y-108644871D01*
X123881243Y-108675110D01*
X123911481Y-108735586D01*
X123911481Y-108977491D01*
X123790529Y-108070348D02*
X124213862Y-108070348D01*
X123548624Y-108221538D02*
X124002195Y-108372729D01*
X124002195Y-107979633D01*
X109752190Y-107856262D02*
X109752190Y-108370310D01*
X109782429Y-108430786D01*
X109812667Y-108461024D01*
X109873143Y-108491262D01*
X109994095Y-108491262D01*
X110054571Y-108461024D01*
X110084810Y-108430786D01*
X110115048Y-108370310D01*
X110115048Y-107856262D01*
X110750048Y-108491262D02*
X110387190Y-108491262D01*
X110568619Y-108491262D02*
X110568619Y-107856262D01*
X110508143Y-107946976D01*
X110447667Y-108007452D01*
X110387190Y-108037690D01*
X109752190Y-91854262D02*
X109752190Y-92368310D01*
X109782429Y-92428786D01*
X109812667Y-92459024D01*
X109873143Y-92489262D01*
X109994095Y-92489262D01*
X110054571Y-92459024D01*
X110084810Y-92428786D01*
X110115048Y-92368310D01*
X110115048Y-91854262D01*
X110387190Y-91914738D02*
X110417428Y-91884500D01*
X110477905Y-91854262D01*
X110629095Y-91854262D01*
X110689571Y-91884500D01*
X110719809Y-91914738D01*
X110750048Y-91975214D01*
X110750048Y-92035690D01*
X110719809Y-92126405D01*
X110356952Y-92489262D01*
X110750048Y-92489262D01*
X119785190Y-112428262D02*
X119785190Y-112942310D01*
X119815429Y-113002786D01*
X119845667Y-113033024D01*
X119906143Y-113063262D01*
X120027095Y-113063262D01*
X120087571Y-113033024D01*
X120117810Y-113002786D01*
X120148048Y-112942310D01*
X120148048Y-112428262D01*
X120389952Y-112428262D02*
X120783048Y-112428262D01*
X120571381Y-112670167D01*
X120662095Y-112670167D01*
X120722571Y-112700405D01*
X120752809Y-112730643D01*
X120783048Y-112791119D01*
X120783048Y-112942310D01*
X120752809Y-113002786D01*
X120722571Y-113033024D01*
X120662095Y-113063262D01*
X120480667Y-113063262D01*
X120420190Y-113033024D01*
X120389952Y-113002786D01*
X120928190Y-89822262D02*
X120928190Y-90336310D01*
X120958429Y-90396786D01*
X120988667Y-90427024D01*
X121049143Y-90457262D01*
X121170095Y-90457262D01*
X121230571Y-90427024D01*
X121260810Y-90396786D01*
X121291048Y-90336310D01*
X121291048Y-89822262D01*
X121865571Y-90033929D02*
X121865571Y-90457262D01*
X121714381Y-89792024D02*
X121563190Y-90245595D01*
X121956286Y-90245595D01*
X124611190Y-105824262D02*
X124611190Y-106338310D01*
X124641429Y-106398786D01*
X124671667Y-106429024D01*
X124732143Y-106459262D01*
X124853095Y-106459262D01*
X124913571Y-106429024D01*
X124943810Y-106398786D01*
X124974048Y-106338310D01*
X124974048Y-105824262D01*
X125578809Y-105824262D02*
X125276428Y-105824262D01*
X125246190Y-106126643D01*
X125276428Y-106096405D01*
X125336905Y-106066167D01*
X125488095Y-106066167D01*
X125548571Y-106096405D01*
X125578809Y-106126643D01*
X125609048Y-106187119D01*
X125609048Y-106338310D01*
X125578809Y-106398786D01*
X125548571Y-106429024D01*
X125488095Y-106459262D01*
X125336905Y-106459262D01*
X125276428Y-106429024D01*
X125246190Y-106398786D01*
D14*
X101908429Y-104357714D02*
X102343858Y-104357714D01*
X102126144Y-105119714D02*
X102126144Y-104357714D01*
X103033286Y-105047143D02*
X102997000Y-105083429D01*
X102888143Y-105119714D01*
X102815572Y-105119714D01*
X102706715Y-105083429D01*
X102634143Y-105010857D01*
X102597858Y-104938286D01*
X102561572Y-104793143D01*
X102561572Y-104684286D01*
X102597858Y-104539143D01*
X102634143Y-104466571D01*
X102706715Y-104394000D01*
X102815572Y-104357714D01*
X102888143Y-104357714D01*
X102997000Y-104394000D01*
X103033286Y-104430286D01*
X103323572Y-104430286D02*
X103359858Y-104394000D01*
X103432429Y-104357714D01*
X103613858Y-104357714D01*
X103686429Y-104394000D01*
X103722715Y-104430286D01*
X103759000Y-104502857D01*
X103759000Y-104575429D01*
X103722715Y-104684286D01*
X103287286Y-105119714D01*
X103759000Y-105119714D01*
X101908429Y-97880714D02*
X102343858Y-97880714D01*
X102126144Y-98642714D02*
X102126144Y-97880714D01*
X103033286Y-98570143D02*
X102997000Y-98606429D01*
X102888143Y-98642714D01*
X102815572Y-98642714D01*
X102706715Y-98606429D01*
X102634143Y-98533857D01*
X102597858Y-98461286D01*
X102561572Y-98316143D01*
X102561572Y-98207286D01*
X102597858Y-98062143D01*
X102634143Y-97989571D01*
X102706715Y-97917000D01*
X102815572Y-97880714D01*
X102888143Y-97880714D01*
X102997000Y-97917000D01*
X103033286Y-97953286D01*
X103759000Y-98642714D02*
X103323572Y-98642714D01*
X103541286Y-98642714D02*
X103541286Y-97880714D01*
X103468715Y-97989571D01*
X103396143Y-98062143D01*
X103323572Y-98098429D01*
D11*
X116734167Y-98905786D02*
X116703929Y-98936024D01*
X116613214Y-98966262D01*
X116552738Y-98966262D01*
X116462024Y-98936024D01*
X116401548Y-98875548D01*
X116371309Y-98815071D01*
X116341071Y-98694119D01*
X116341071Y-98603405D01*
X116371309Y-98482452D01*
X116401548Y-98421976D01*
X116462024Y-98361500D01*
X116552738Y-98331262D01*
X116613214Y-98331262D01*
X116703929Y-98361500D01*
X116734167Y-98391738D01*
X117036548Y-98966262D02*
X117157500Y-98966262D01*
X117217976Y-98936024D01*
X117248214Y-98905786D01*
X117308690Y-98815071D01*
X117338929Y-98694119D01*
X117338929Y-98452214D01*
X117308690Y-98391738D01*
X117278452Y-98361500D01*
X117217976Y-98331262D01*
X117097024Y-98331262D01*
X117036548Y-98361500D01*
X117006309Y-98391738D01*
X116976071Y-98452214D01*
X116976071Y-98603405D01*
X117006309Y-98663881D01*
X117036548Y-98694119D01*
X117097024Y-98724357D01*
X117217976Y-98724357D01*
X117278452Y-98694119D01*
X117308690Y-98663881D01*
X117338929Y-98603405D01*
X126591786Y-98397786D02*
X126561548Y-98428024D01*
X126470833Y-98458262D01*
X126410357Y-98458262D01*
X126319643Y-98428024D01*
X126259167Y-98367548D01*
X126228928Y-98307071D01*
X126198690Y-98186119D01*
X126198690Y-98095405D01*
X126228928Y-97974452D01*
X126259167Y-97913976D01*
X126319643Y-97853500D01*
X126410357Y-97823262D01*
X126470833Y-97823262D01*
X126561548Y-97853500D01*
X126591786Y-97883738D01*
X127196548Y-98458262D02*
X126833690Y-98458262D01*
X127015119Y-98458262D02*
X127015119Y-97823262D01*
X126954643Y-97913976D01*
X126894167Y-97974452D01*
X126833690Y-98004690D01*
X127589643Y-97823262D02*
X127650119Y-97823262D01*
X127710595Y-97853500D01*
X127740833Y-97883738D01*
X127771071Y-97944214D01*
X127801310Y-98065167D01*
X127801310Y-98216357D01*
X127771071Y-98337310D01*
X127740833Y-98397786D01*
X127710595Y-98428024D01*
X127650119Y-98458262D01*
X127589643Y-98458262D01*
X127529167Y-98428024D01*
X127498929Y-98397786D01*
X127468690Y-98337310D01*
X127438452Y-98216357D01*
X127438452Y-98065167D01*
X127468690Y-97944214D01*
X127498929Y-97883738D01*
X127529167Y-97853500D01*
X127589643Y-97823262D01*
M02*
